<?xml version="1.0" encoding="utf-8"?>
<!-- Generator: Adobe Illustrator 16.0.0, SVG Export Plug-In . SVG Version: 6.00 Build 0)  -->
<!DOCTYPE svg PUBLIC "-//W3C//DTD SVG 1.1//EN" "http://www.w3.org/Graphics/SVG/1.1/DTD/svg11.dtd">
<svg version="1.1" id="Layer_1" xmlns="http://www.w3.org/2000/svg" xmlns:xlink="http://www.w3.org/1999/xlink" x="0px" y="0px"
	 width="550px" height="550px" viewBox="0 0 550 550" enable-background="new 0 0 550 550" xml:space="preserve">
<g id="background">
	<polygon fill="#FFFFFF" points="524.475,353.595 479.493,274.868 524.373,196.083 465.987,95.801 376.463,95.831 331.534,18.293 
		215.493,18.293 170.487,95.963 80.81,95.996 22.552,196.379 67.533,275.119 22.653,353.909 81.04,454.196 170.563,453.96 
		215.493,531.293 331.534,531.293 376.54,453.83 466.217,453.9 	"/>
</g>
<g opacity="0.7">
	<polygon fill="#F48E00" points="524.373,196.083 467.147,296.541 351.533,296.714 293.147,196.43 350.374,95.974 465.987,95.801 	
		"/>
</g>
<g opacity="0.7">
	<polygon fill="#6B34A1" points="195.521,296.813 79.907,296.789 22.552,196.405 80.81,96.047 196.423,96.072 253.778,196.456 	"/>
</g>
<g opacity="0.7">
	<polygon fill="#338EE3" points="253.879,353.569 196.653,454.026 81.04,454.199 22.653,353.916 79.879,253.459 195.493,253.287 	
		"/>
</g>
<g opacity="0.7">
	<polygon fill="#9BCF00" points="215.493,531.293 157.471,431.293 215.493,331.293 331.534,331.293 389.556,431.293 
		331.534,531.293 	"/>
</g>
<g opacity="0.7">
	<polygon fill="#FEEF2F" points="466.217,453.952 350.604,453.928 293.248,353.544 351.506,253.186 467.119,253.211 
		524.475,353.595 	"/>
</g>
<g opacity="0.7">
	<polygon fill="#E52558" points="215.493,218.293 157.471,118.293 215.493,18.293 331.534,18.293 389.556,118.293 331.534,218.293 	
		"/>
</g>
<g opacity="0.35">
	<polygon points="215.493,375.293 157.471,275.293 215.493,175.293 331.534,175.293 389.556,275.293 331.534,375.293 	"/>
</g>
<g>
</g>
<g>
</g>
<g>
</g>
<g>
</g>
<g>
</g>
<g>
</g>
<g>
</g>
<g>
</g>
<g>
</g>
<g>
</g>
<g>
</g>
<g>
</g>
<g>
</g>
<g>
</g>
<g>
</g>
</svg>
