<?xml version="1.0" encoding="UTF-8" standalone="no"?>
<!-- Created with Inkscape (http://www.inkscape.org/) -->

<svg
   xmlns:dc="http://purl.org/dc/elements/1.1/"
   xmlns:cc="http://creativecommons.org/ns#"
   xmlns:rdf="http://www.w3.org/1999/02/22-rdf-syntax-ns#"
   xmlns:svg="http://www.w3.org/2000/svg"
   xmlns="http://www.w3.org/2000/svg"
   xmlns:xlink="http://www.w3.org/1999/xlink"
   xmlns:sodipodi="http://sodipodi.sourceforge.net/DTD/sodipodi-0.dtd"
   xmlns:inkscape="http://www.inkscape.org/namespaces/inkscape"
   id="svg2"
   version="1.1"
   inkscape:version="0.91 r13725"
   xml:space="preserve"
   width="265.47964"
   height="265.47964"
   viewBox="0 0 265.47964 265.47964"
   sodipodi:docname="kalabox-white.svg"><metadata
     id="metadata8"><rdf:RDF><cc:Work
         rdf:about=""><dc:format>image/svg+xml</dc:format><dc:type
           rdf:resource="http://purl.org/dc/dcmitype/StillImage" /><dc:title></dc:title></cc:Work></rdf:RDF></metadata><defs
     id="defs6"><linearGradient
       inkscape:collect="always"
       id="Sea_Weed"><stop
         style="stop-color:#3cd3ad;stop-opacity:1"
         offset="0"
         id="stop4289" /><stop
         style="stop-color:#4cb8c4;stop-opacity:1"
         offset="1"
         id="stop4291" /></linearGradient><clipPath
       clipPathUnits="userSpaceOnUse"
       id="clipPath16"><path
         d="M 0,792 612,792 612,0 0,0 0,792 Z"
         id="path18"
         inkscape:connector-curvature="0" /></clipPath><clipPath
       id="clipPath4357"
       clipPathUnits="userSpaceOnUse"><path
         inkscape:connector-curvature="0"
         id="path4359"
         d="M 0,792 612,792 612,0 0,0 0,792 Z" /></clipPath><linearGradient
       inkscape:collect="always"
       xlink:href="#Sea_Weed"
       id="linearGradient4493"
       x1="275.86157"
       y1="491.66949"
       x2="541.34119"
       y2="491.66949"
       gradientUnits="userSpaceOnUse" /></defs><sodipodi:namedview
     pagecolor="#ffffff"
     bordercolor="#666666"
     borderopacity="1"
     objecttolerance="10"
     gridtolerance="10"
     guidetolerance="10"
     inkscape:pageopacity="0"
     inkscape:pageshadow="2"
     inkscape:window-width="1059"
     inkscape:window-height="720"
     id="namedview4"
     showgrid="false"
     showguides="false"
     inkscape:zoom="1.3485026"
     inkscape:cx="106.88619"
     inkscape:cy="129.40932"
     inkscape:window-x="382"
     inkscape:window-y="106"
     inkscape:window-maximized="0"
     inkscape:current-layer="layer2"
     fit-margin-top="0"
     fit-margin-left="0"
     fit-margin-right="0"
     fit-margin-bottom="0" /><g
     inkscape:groupmode="layer"
     id="layer2"
     inkscape:label="backgroundcircle"
     transform="translate(-275.86156,-358.92967)"><circle
       style="opacity:1;fill:url(#linearGradient4493);fill-opacity:1"
       id="path4483"
       cx="408.60138"
       cy="491.66949"
       r="132.73982"
       inkscape:export-xdpi="90"
       inkscape:export-ydpi="90" /></g><g
     inkscape:groupmode="layer"
     id="layer1"
     inkscape:label="background"
     transform="translate(-275.86156,-358.92967)"><g
       transform="matrix(1.25,0,0,-1.25,26.064165,979.32004)"
       inkscape:label="kalabox-white"
       id="g4351"><g
         id="g4353"><g
           clip-path="url(#clipPath4357)"
           id="g4355"><g
             transform="translate(343.9365,356.1719)"
             id="g4361"><path
               inkscape:connector-curvature="0"
               id="path4363"
               style="fill:#ffffff;fill-opacity:1;fill-rule:nonzero;stroke:none"
               d="m -0.59325061,-24.323275 0.002,36.404 31.52599961,18.195 -0.006,-36.4049998 -31.52199961,-18.1940002 z m -37.31900039,-21.548 -31.519,18.205 31.529,18.2000002 31.5230004,-18.2050002 -31.5330004,-18.2 z m -68.829999,76.146 31.524999,-18.203 -0.005,-36.402 -31.524999,18.2100002 0.005,36.3949998 z m 31.522999,61.287 -0.003,-36.404 -31.525999,-18.197 0.007,36.408 31.521999,18.193 z m 37.319,21.545005 31.5140004,-18.202005 -31.5250004,-18.201 -31.523,18.205 31.534,18.198005 z m 68.829,-76.147005 -31.52799961,18.206 0.007,36.403 31.52699961,-18.21 -0.006,-36.399 z m -33.4569996,-21.542 -31.5190004,18.203 10.257,5.921 21.2740004,12.276 31.5209996,-18.202 -31.5329996,-18.198 z m -68.8310004,-3.336 4.69,2.706 26.835,15.486 -0.006,-36.4029998 -31.524,-18.1970002 0.005,36.408 z m -1.927,39.739 27.207,-15.714 4.313,-2.492 -25.583,-14.765 -5.948,-3.432 -31.521999,18.202 31.532999,18.201 z m 68.8300004,3.336 -21.5800004,-12.457 -9.945,-5.738 0.007,36.406 31.5250004,18.2 -0.007,-36.411 z m -35.3780004,18.202 -0.004,-33.314 -10e-4,-3.087 -31.525,18.209 0.003,36.399 31.527,-18.207 z m 3.853,-79.4789998 0.005,36.3989998 31.5280004,-18.209 -0.002,-36.399 -31.5310004,18.2090002 z m 70.775,80.5919998 c 0,0.689 -0.367,1.326 -0.964,1.671 l -35.3849996,20.437 c -0.019,0.012 -0.042,0.015 -0.062,0.026 L -36.935251,117.00473 c -0.597,0.345 -1.332,0.344 -1.929,0.001 l -35.39,-20.423005 c -0.016,-0.01 -0.028,-0.025 -0.045,-0.035 l -35.335999,-20.393 c -0.596,-0.345 -0.964,-0.982 -0.964,-1.671 l -0.008,-40.863 c 0,-0.02 0.007,-0.039 0.008,-0.059 l -0.006,-40.7949998 c 0,-0.689 0.367,-1.326 0.964,-1.67 l 35.378999,-20.4370002 c 0.016,-0.008 0.034,-0.011 0.049,-0.02 l 35.336,-20.409 c 0.298,-0.172 0.632,-0.258 0.965,-0.258 0.333,0 0.666,0.086 0.964,0.258 l 35.3900004,20.426 c 0.016,0.009 0.028,0.024 0.043,0.034 L 33.821749,-8.9142748 c 0.598,0.345 0.965,0.982 0.965,1.671 l 0.007,40.8579998 c 0,0.018 -0.007,0.034 -0.007,0.051 l 0.007,40.806 z" /></g><g
             transform="translate(374.5049,315.8828)"
             id="g4365" /><g
             transform="translate(344.6445,297.3437)"
             id="g4369" /><g
             transform="translate(325.6865,297.8867)"
             id="g4373" /><g
             transform="translate(248.6655,306.5098)"
             id="g4377" /><g
             transform="translate(290.3105,297.002)"
             id="g4381" /><g
             transform="translate(265.2163,305.373)"
             id="g4385" /><g
             transform="translate(302.2378,305.373)"
             id="g4389" /></g></g></g></g><g
     id="g10"
     inkscape:groupmode="layer"
     inkscape:label="kalabox-white"
     transform="matrix(1.25,0,0,-1.25,-275.86156,631.07033)" /></svg>