<?xml version="1.0" encoding="utf-8"?>
<!-- Generator: Adobe Illustrator 18.1.1, SVG Export Plug-In . SVG Version: 6.00 Build 0)  -->
<!DOCTYPE svg PUBLIC "-//W3C//DTD SVG 1.1//EN" "http://www.w3.org/Graphics/SVG/1.1/DTD/svg11.dtd">
<svg version="1.1" id="Layer_1" xmlns="http://www.w3.org/2000/svg" xmlns:xlink="http://www.w3.org/1999/xlink" x="0px" y="0px"
	 viewBox="0 0 1258.319 191.293" enable-background="new 0 0 1258.319 191.293" xml:space="preserve">
<g display="none">
	<path display="inline" fill="#FFFFFF" d="M344.129-8.483c15.92-1.867,29.975,3.162,42.164,15.108
		c12.174,11.946,18.27,26.594,18.27,43.92c0,12.188-3.756,23.892-11.242,35.137c-2.353,3.28-5.162,4.917-8.435,4.917H93.966
		c-3.757,0-6.798-1.864-9.136-5.622c-8.434-14.054-12.649-29.513-12.649-46.378c0-23.42,7.487-43.448,22.485-60.082
		c14.989-16.623,33.26-24.946,54.813-24.946c5.149,0,10.54,0.703,16.162,2.109c20.137-29.042,47.082-43.568,80.811-43.568
		c22.485,0,42.745,7.377,60.785,22.136C325.265-50.996,337.562-31.902,344.129-8.483z"/>
</g>
<g display="none">
	<g display="inline">
		<path fill="#E8E8E8" d="M911.574,53.564c14.07-1.649,26.492,2.796,37.265,13.354c10.763,10.56,16.15,23.505,16.15,38.817
			c0,10.773-3.321,21.117-9.939,31.056c-2.079,2.898-4.562,4.347-7.454,4.347H690.468c-3.319,0-6.007-1.647-8.075-4.969
			c-7.453-12.423-11.179-26.087-11.179-40.991c0-20.699,6.618-38.401,19.875-53.103c13.245-14.692,29.395-22.049,48.445-22.049
			c4.55,0,9.316,0.621,14.284,1.863c17.798-25.667,41.613-38.507,71.426-38.507c19.873,0,37.777,6.521,53.723,19.563
			C894.9,15.99,905.77,32.865,911.574,53.564z"/>
	</g>
	<g display="inline">
		<path fill="#E8E8E8" d="M159.439,9.604c14.771-1.733,27.811,2.934,39.12,14.017c11.298,11.083,16.95,24.673,16.95,40.75
			c0,11.308-3.483,22.167-10.43,32.602c-2.183,3.043-4.791,4.562-7.826,4.562H-72.672c-3.486,0-6.307-1.731-8.477-5.218
			c-7.824-13.039-11.736-27.382-11.736-43.031c0-21.729,6.947-40.312,20.863-55.745c13.906-15.424,30.859-23.146,50.856-23.146
			c4.776,0,9.78,0.652,14.997,1.956c18.684-26.945,43.683-40.424,74.979-40.424c20.862,0,39.66,6.847,56.398,20.539
			C141.936-29.844,153.346-12.128,159.439,9.604z"/>
	</g>
	<g display="inline">
		<path fill="#E8E8E8" d="M56.954,55.872c15.919-1.866,29.974,3.163,42.162,15.108c12.176,11.945,18.269,26.593,18.269,43.921
			c0,12.186-3.756,23.889-11.241,35.135c-2.351,3.28-5.163,4.917-8.435,4.917h-290.92c-3.756,0-6.797-1.864-9.137-5.621
			c-8.434-14.055-12.648-29.514-12.648-46.378c0-23.42,7.488-43.448,22.486-60.083c14.988-16.621,33.26-24.946,54.812-24.946
			c5.149,0,10.54,0.705,16.162,2.109c20.137-29.043,47.081-43.567,80.811-43.567c22.487,0,42.744,7.377,60.785,22.134
			C38.09,13.359,50.387,32.452,56.954,55.872z"/>
	</g>
	<g display="inline">
		<path fill="#E8E8E8" d="M1113.778,30.203c14.072-1.649,26.491,2.795,37.266,13.352c10.762,10.56,16.147,23.505,16.147,38.818
			c0,10.773-3.319,21.116-9.938,31.055c-2.076,2.9-4.562,4.347-7.452,4.347h-257.13c-3.319,0-6.009-1.647-8.075-4.969
			c-7.452-12.422-11.179-26.085-11.179-40.991c0-20.699,6.619-38.401,19.874-53.104c13.246-14.691,29.396-22.048,48.445-22.048
			c4.553,0,9.317,0.622,14.284,1.864c17.799-25.668,41.615-38.508,71.426-38.508c19.875,0,37.778,6.521,53.725,19.564
			C1097.105-7.372,1107.974,9.503,1113.778,30.203z"/>
	</g>
</g>
<g>
	<g>
		<path fill="#FFFFFF" d="M291.459,85.102c17.061-1.998,32.123,3.391,45.186,16.194c13.052,12.803,19.581,28.5,19.581,47.069
			c0,13.062-4.023,25.605-12.049,37.657c-2.52,3.517-5.532,5.27-9.039,5.27H23.348c-4.025,0-7.285-1.999-9.792-6.025
			C4.518,170.205,0,153.638,0,135.562c0-25.102,8.024-46.566,24.1-64.393c16.064-17.815,35.644-26.738,58.744-26.738
			c5.519,0,11.297,0.756,17.322,2.263C121.747,15.569,150.625,0,186.774,0c24.101,0,45.811,7.907,65.146,23.724
			C271.242,39.539,284.422,60.002,291.459,85.102z"/>
	</g>
	<g>
		<path fill="#FFFFFF" d="M1204.906,86.532c14.07-1.649,26.49,2.796,37.265,13.353c10.763,10.559,16.149,23.505,16.149,38.817
			c0,10.772-3.32,21.117-9.939,31.055c-2.077,2.899-4.562,4.348-7.452,4.348H983.8c-3.321,0-6.009-1.647-8.076-4.97
			c-7.452-12.422-11.18-26.085-11.18-40.99c0-20.699,6.62-38.401,19.877-53.104c13.245-14.691,29.395-22.048,48.444-22.048
			c4.551,0,9.316,0.622,14.283,1.864c17.799-25.669,41.615-38.508,71.428-38.508c19.873,0,37.777,6.521,53.723,19.564
			C1188.233,48.958,1199.102,65.834,1204.906,86.532z"/>
	</g>
</g>
<g display="none">
	<g display="inline">
		<path fill="#9FCAEA" d="M750.513,71.463c15.919-1.866,29.974,3.162,42.163,15.108c12.176,11.944,18.27,26.594,18.27,43.919
			c0,12.188-3.754,23.891-11.242,35.136c-2.352,3.282-5.162,4.917-8.434,4.917H500.349c-3.757,0-6.797-1.864-9.136-5.62
			c-8.432-14.055-12.649-29.515-12.649-46.378c0-23.42,7.489-43.449,22.487-60.083c14.987-16.623,33.256-24.947,54.811-24.947
			c5.149,0,10.539,0.704,16.163,2.11c20.137-29.042,47.08-43.569,80.811-43.569c22.484,0,42.744,7.378,60.784,22.136
			C731.648,28.949,743.946,48.042,750.513,71.463z"/>
	</g>
	<g display="inline">
		<path fill="#A4C9E7" d="M543.807,60.289c15.918-1.787,29.973,3.03,42.162,14.468c12.176,11.44,18.269,25.466,18.269,42.059
			c0,11.67-3.756,22.878-11.242,33.646c-2.352,3.142-5.164,4.71-8.433,4.71H293.643c-3.758,0-6.799-1.786-9.137-5.385
			c-8.433-13.459-12.648-28.262-12.648-44.411c0-22.426,7.488-41.606,22.486-57.535c14.987-15.918,33.258-23.888,54.81-23.888
			c5.15,0,10.541,0.673,16.164,2.019C385.454-1.84,412.398-15.75,446.13-15.75c22.485,0,42.742,7.065,60.784,21.196
			C524.941,19.577,537.238,37.862,543.807,60.289z"/>
	</g>
	<g display="inline">
		<path fill="#9FCAEA" d="M841.363,90.76c15.92-1.863,29.973,3.165,42.161,15.109c12.177,11.946,18.271,26.594,18.271,43.92
			c0,12.188-3.756,23.892-11.242,35.136c-2.352,3.281-5.162,4.917-8.432,4.917H591.197c-3.756,0-6.797-1.863-9.135-5.621
			c-8.434-14.055-12.648-29.512-12.648-46.378c0-23.42,7.488-43.448,22.486-60.082c14.986-16.623,33.258-24.945,54.812-24.945
			c5.148,0,10.54,0.702,16.162,2.108c20.135-29.042,47.081-43.568,80.811-43.568c22.487,0,42.744,7.378,60.783,22.136
			C822.498,48.249,834.795,67.342,841.363,90.76z"/>
	</g>
</g>
<g display="none">
	<path display="inline" fill="#2F70A0" d="M1107.355,165.41c14.07-1.648,26.49,2.796,37.264,13.355
		c10.762,10.559,16.148,23.504,16.148,38.817c0,10.772-3.32,21.116-9.935,31.055c-2.079,2.899-4.562,4.347-7.454,4.347h-257.13
		c-3.32,0-6.008-1.647-8.074-4.969c-7.453-12.422-11.18-26.086-11.18-40.99c0-20.699,6.619-38.403,19.874-53.104
		c13.247-14.691,29.395-22.049,48.445-22.049c4.552,0,9.316,0.622,14.286,1.864c17.798-25.668,41.611-38.507,71.424-38.507
		c19.873,0,37.779,6.521,53.725,19.563C1090.682,127.836,1101.549,144.712,1107.355,165.41z"/>
</g>
<g display="none">
	<g display="inline">
		<path fill="#4295D1" d="M728.976,190.907c15.919-1.865,29.974,3.163,42.163,15.107c12.176,11.947,18.27,26.594,18.27,43.922
			c0,12.186-3.756,23.89-11.242,35.135c-2.351,3.28-5.162,4.917-8.434,4.917H478.811c-3.758,0-6.798-1.862-9.136-5.621
			c-8.433-14.054-12.647-29.514-12.647-46.377c0-23.421,7.488-43.449,22.486-60.085c14.988-16.62,33.258-24.944,54.811-24.944
			c5.149,0,10.541,0.703,16.163,2.109c20.135-29.042,47.081-43.568,80.812-43.568c22.483,0,42.74,7.379,60.784,22.135
			C710.111,148.393,722.409,167.486,728.976,190.907z"/>
	</g>
	<g display="inline">
		<path fill="#4295D1" d="M166.342,156.193c19.42-2.274,36.564,3.86,51.433,18.433c14.855,14.572,22.289,32.441,22.289,53.576
			c0,14.869-4.581,29.146-13.716,42.863c-2.867,4.003-6.296,5.999-10.287,5.999h-354.894c-4.582,0-8.293-2.275-11.146-6.857
			c-10.285-17.146-15.43-36.004-15.43-56.578c0-28.568,9.135-53.001,27.432-73.293c18.283-20.278,40.572-30.432,66.863-30.432
			c6.283,0,12.859,0.856,19.719,2.57c24.564-35.427,57.434-53.149,98.582-53.149c27.43,0,52.143,9.002,74.15,27.005
			C143.329,104.332,158.33,127.624,166.342,156.193z"/>
	</g>
	<g display="inline">
		<path fill="#4295D1" d="M619.063,144.772c15.921-1.867,29.976,3.163,42.163,15.107c12.178,11.946,18.269,26.594,18.269,43.92
			c0,12.188-3.754,23.892-11.242,35.136c-2.351,3.281-5.16,4.918-8.432,4.918H368.9c-3.756,0-6.798-1.865-9.137-5.621
			c-8.432-14.054-12.647-29.515-12.647-46.38c0-23.418,7.489-43.446,22.485-60.081c14.988-16.623,33.258-24.946,54.814-24.946
			c5.148,0,10.539,0.705,16.163,2.108c20.135-29.04,47.08-43.567,80.809-43.567c22.488,0,42.746,7.378,60.784,22.136
			C600.199,102.259,612.497,121.352,619.063,144.772z"/>
	</g>
	<g display="inline">
		<path fill="#4295D1" d="M935.298,191.777c15.921-1.865,29.974,3.164,42.164,15.11c12.175,11.944,18.27,26.593,18.27,43.918
			c0,12.189-3.757,23.892-11.243,35.135c-2.35,3.283-5.162,4.919-8.434,4.919H685.133c-3.757,0-6.797-1.864-9.134-5.622
			c-8.435-14.055-12.649-29.513-12.649-46.377c0-23.419,7.486-43.448,22.486-60.082c14.986-16.623,33.258-24.946,54.812-24.946
			c5.149,0,10.54,0.702,16.162,2.109c20.138-29.042,47.082-43.569,80.812-43.569c22.486,0,42.742,7.378,60.784,22.135
			C916.434,149.265,928.731,168.358,935.298,191.777z"/>
	</g>
	<g display="inline">
		<path fill="#4295D1" d="M745.298,243.145c15.921-1.865,29.974,3.164,42.164,15.11c12.175,11.944,18.27,26.593,18.27,43.918
			c0,12.189-3.757,23.892-11.243,35.135c-2.35,3.283-5.162,4.919-8.434,4.919H495.133c-3.757,0-6.797-1.864-9.134-5.622
			c-8.435-14.055-12.65-29.513-12.65-46.377c0-23.419,7.486-43.448,22.486-60.082c14.986-16.623,33.258-24.946,54.812-24.946
			c5.149,0,10.54,0.702,16.162,2.109c20.138-29.042,47.082-43.569,80.812-43.569c22.486,0,42.742,7.378,60.784,22.135
			C726.434,200.632,738.731,219.725,745.298,243.145z"/>
	</g>
	<g display="inline">
		<path fill="#4295D1" d="M1218.605,211.305c15.921-1.865,29.976,3.163,42.165,15.109c12.175,11.945,18.269,26.594,18.269,43.919
			c0,12.188-3.756,23.892-11.242,35.136c-2.352,3.282-5.162,4.918-8.432,4.918H968.443c-3.758,0-6.797-1.864-9.137-5.622
			c-8.434-14.055-12.648-29.513-12.648-46.378c0-23.419,7.487-43.448,22.486-60.081c14.986-16.624,33.259-24.947,54.812-24.947
			c5.148,0,10.54,0.703,16.161,2.109c20.138-29.041,47.082-43.569,80.812-43.569c22.487,0,42.743,7.379,60.783,22.136
			C1199.742,168.792,1212.037,187.886,1218.605,211.305z"/>
	</g>
	<g display="inline">
		<path fill="#4295D1" d="M587.063,211.306c15.921-1.867,29.976,3.163,42.163,15.107c12.178,11.946,18.269,26.594,18.269,43.92
			c0,12.188-3.754,23.892-11.242,35.136c-2.351,3.281-5.16,4.918-8.432,4.918H336.9c-3.756,0-6.798-1.865-9.137-5.621
			c-8.432-14.054-12.647-29.515-12.647-46.38c0-23.418,7.489-43.446,22.485-60.081c14.988-16.623,33.258-24.946,54.814-24.946
			c5.148,0,10.539,0.705,16.163,2.108c20.135-29.04,47.08-43.567,80.809-43.567c22.488,0,42.746,7.378,60.784,22.136
			C568.199,168.792,580.497,187.885,587.063,211.306z"/>
	</g>
	<g display="inline">
		<path fill="#4295D1" d="M404.129,211.306c15.921-1.867,29.976,3.163,42.163,15.107c12.178,11.946,18.27,26.594,18.27,43.92
			c0,12.188-3.754,23.892-11.242,35.136c-2.351,3.281-5.16,4.918-8.432,4.918H153.966c-3.756,0-6.798-1.865-9.137-5.621
			c-8.432-14.054-12.647-29.515-12.647-46.38c0-23.418,7.489-43.446,22.485-60.081c14.988-16.623,33.258-24.946,54.813-24.946
			c5.148,0,10.539,0.705,16.163,2.108c20.135-29.04,47.08-43.567,80.809-43.567c22.488,0,42.746,7.378,60.784,22.136
			C385.265,168.792,397.562,187.885,404.129,211.306z"/>
	</g>
	<g display="inline">
		<path fill="#4295D1" d="M385.502,176.632c15.918-1.864,29.973,3.165,42.162,15.109c12.176,11.945,18.27,26.594,18.27,43.919
			c0,12.189-3.754,23.893-11.242,35.137c-2.352,3.28-5.162,4.917-8.434,4.917h-290.92c-3.757,0-6.799-1.863-9.137-5.621
			c-8.432-14.054-12.648-29.514-12.648-46.379c0-23.419,7.486-43.447,22.487-60.081c14.986-16.623,33.257-24.946,54.809-24.946
			c5.15,0,10.543,0.703,16.164,2.108c20.136-29.041,47.078-43.568,80.811-43.568c22.485,0,42.743,7.378,60.784,22.137
			C366.637,134.119,378.934,153.213,385.502,176.632z"/>
	</g>
</g>
</svg>
