<?xml version="1.0" encoding="utf-8"?>
<!-- Generator: Adobe Illustrator 18.1.1, SVG Export Plug-In . SVG Version: 6.00 Build 0)  -->
<!DOCTYPE svg PUBLIC "-//W3C//DTD SVG 1.1//EN" "http://www.w3.org/Graphics/SVG/1.1/DTD/svg11.dtd">
<svg version="1.1" id="Layer_1" xmlns="http://www.w3.org/2000/svg" xmlns:xlink="http://www.w3.org/1999/xlink" x="0px" y="0px"
	 viewBox="0 0 293.773 157.755" enable-background="new 0 0 293.773 157.755" xml:space="preserve">
<g display="none">
	<g display="inline">
		<path fill="#E8E8E8" d="M44.58-41.664c14.07-1.649,26.492,2.796,37.265,13.354c10.763,10.56,16.15,23.505,16.15,38.817
			c0,10.773-3.321,21.117-9.938,31.056c-2.079,2.898-4.562,4.347-7.454,4.347h-257.129c-3.319,0-6.007-1.647-8.075-4.969
			c-7.453-12.423-11.179-26.087-11.179-40.991c0-20.699,6.618-38.401,19.875-53.104c13.245-14.692,29.396-22.049,48.445-22.049
			c4.55,0,9.316,0.621,14.284,1.863c17.798-25.667,41.613-38.507,71.426-38.507c19.873,0,37.777,6.521,53.723,19.563
			C27.906-79.238,38.775-62.363,44.58-41.664z"/>
	</g>
	<g display="inline">
		<path fill="#E8E8E8" d="M246.784-65.025c14.072-1.648,26.491,2.795,37.266,13.352c10.762,10.56,16.147,23.505,16.147,38.818
			c0,10.773-3.319,21.116-9.938,31.055c-2.076,2.9-4.562,4.347-7.452,4.347H25.678c-3.319,0-6.009-1.647-8.075-4.969
			C10.15,5.156,6.424-8.507,6.424-23.413c0-20.699,6.619-38.401,19.874-53.104c13.246-14.691,29.397-22.048,48.445-22.048
			c4.553,0,9.317,0.622,14.284,1.864c17.799-25.668,41.615-38.508,71.426-38.508c19.875,0,37.778,6.521,53.725,19.564
			C230.111-102.601,240.98-85.726,246.784-65.025z"/>
	</g>
</g>
<g display="none">
	<g display="inline">
		<path fill="#FFFFFF" d="M337.912-8.696c14.07-1.649,26.49,2.796,37.265,13.353c10.763,10.559,16.148,23.505,16.148,38.817
			c0,10.772-3.32,21.117-9.939,31.055c-2.077,2.899-4.562,4.348-7.452,4.348H116.806c-3.321,0-6.009-1.647-8.076-4.97
			c-7.452-12.422-11.18-26.085-11.18-40.99c0-20.699,6.62-38.401,19.877-53.104c13.245-14.691,29.395-22.048,48.444-22.048
			c4.551,0,9.316,0.622,14.283,1.864c17.799-25.669,41.615-38.508,71.428-38.508c19.873,0,37.777,6.521,53.723,19.564
			C321.238-46.271,332.107-29.395,337.912-8.696z"/>
	</g>
</g>
<g display="none">
	<g display="inline">
		<path fill="#9FCAEA" d="M-25.631-4.469C-9.711-6.332,4.342-1.304,16.53,10.641c12.177,11.946,18.271,26.594,18.271,43.92
			c0,12.188-3.756,23.892-11.242,35.136c-2.352,3.281-5.162,4.917-8.432,4.917h-290.924c-3.756,0-6.797-1.863-9.135-5.621
			c-8.434-14.055-12.648-29.512-12.648-46.378c0-23.42,7.488-43.448,22.486-60.082c14.986-16.623,33.258-24.945,54.813-24.945
			c5.147,0,10.54,0.702,16.162,2.108c20.135-29.042,47.081-43.568,80.811-43.568c22.487,0,42.744,7.378,60.783,22.136
			C-44.496-46.979-32.199-27.887-25.631-4.469z"/>
	</g>
</g>
<g>
	<path fill="#2F70A0" d="M240.361,70.182c14.07-1.648,26.49,2.796,37.264,13.354c10.762,10.559,16.148,23.504,16.148,38.817
		c0,10.772-3.32,21.116-9.936,31.055c-2.079,2.899-4.562,4.347-7.454,4.347H19.254c-3.32,0-6.008-1.647-8.074-4.969
		C3.727,140.364,0,126.7,0,111.796c0-20.699,6.619-38.403,19.874-53.104C33.121,44,49.27,36.643,68.319,36.643
		c4.552,0,9.316,0.622,14.286,1.864C100.403,12.839,124.217,0,154.029,0c19.873,0,37.779,6.522,53.725,19.563
		C223.688,32.607,234.555,49.483,240.361,70.182z"/>
</g>
<g display="none">
	<g display="inline">
		<path fill="#4295D1" d="M68.304,96.549c15.921-1.865,29.974,3.164,42.164,15.11c12.175,11.944,18.27,26.593,18.27,43.918
			c0,12.188-3.757,23.892-11.243,35.135c-2.35,3.283-5.162,4.919-8.434,4.919h-290.922c-3.757,0-6.797-1.864-9.134-5.622
			c-8.435-14.055-12.65-29.513-12.65-46.377c0-23.419,7.486-43.448,22.486-60.082c14.986-16.623,33.258-24.946,54.812-24.946
			c5.149,0,10.54,0.702,16.162,2.109c20.138-29.042,47.082-43.569,80.812-43.569c22.486,0,42.742,7.378,60.784,22.135
			C49.439,54.036,61.736,73.13,68.304,96.549z"/>
	</g>
	<g display="inline">
		<path fill="#4295D1" d="M351.611,116.076c15.921-1.865,29.976,3.163,42.165,15.109c12.175,11.945,18.269,26.594,18.269,43.919
			c0,12.188-3.756,23.892-11.242,35.136c-2.352,3.282-5.162,4.918-8.432,4.918H101.449c-3.758,0-6.797-1.864-9.137-5.622
			c-8.434-14.055-12.648-29.513-12.648-46.378c0-23.419,7.487-43.448,22.486-60.081c14.986-16.624,33.259-24.947,54.813-24.947
			c5.148,0,10.54,0.703,16.161,2.109c20.138-29.041,47.082-43.569,80.812-43.569c22.487,0,42.743,7.379,60.783,22.136
			C332.748,73.563,345.043,92.657,351.611,116.076z"/>
	</g>
</g>
</svg>
