<?xml version="1.0" encoding="UTF-8" standalone="no"?>
<svg width="147px" height="205px" viewBox="0 0 147 205" version="1.1" xmlns="http://www.w3.org/2000/svg" xmlns:xlink="http://www.w3.org/1999/xlink" xmlns:sketch="http://www.bohemiancoding.com/sketch/ns">
    <!-- Generator: Sketch 3.3.1 (12002) - http://www.bohemiancoding.com/sketch -->
    <title>Imported Layers</title>
    <desc>Created with Sketch.</desc>
    <defs></defs>
    <g id="Page-1" stroke="none" stroke-width="1" fill="none" fill-rule="evenodd" sketch:type="MSPage">
        <g id="Imported-Layers" sketch:type="MSLayerGroup" fill="#D6E7EF">
            <path d="M146.323,43.033 C146.323,42.344 145.956,41.707 145.359,41.362 L109.975,20.925 C109.955,20.914 109.933,20.91 109.912,20.899 L74.595,0.5 C73.997,0.155 73.262,0.156 72.666,0.5 L37.276,20.922 C37.259,20.932 37.247,20.947 37.231,20.957 L1.895,41.351 C1.298,41.695 0.931,42.332 0.93,43.021 L0.922,83.884 C0.922,83.904 0.93,83.923 0.93,83.943 L0.924,124.738 C0.924,125.427 1.292,126.065 1.889,126.408 L37.268,146.845 C37.283,146.853 37.301,146.856 37.317,146.865 L72.652,167.274 C72.951,167.446 73.284,167.532 73.617,167.532 C73.95,167.532 74.283,167.446 74.581,167.274 L109.972,146.848 C109.987,146.839 109.999,146.824 110.015,146.815 L145.352,126.419 C145.949,126.074 146.316,125.438 146.316,124.748 L146.323,83.89 C146.323,83.873 146.316,83.856 146.316,83.839 L146.323,43.033 L146.323,43.033 Z M75.549,123.625 L75.554,87.227 L107.081,105.436 L107.079,141.834 L75.549,123.625 L75.549,123.625 Z M71.696,44.146 L71.69,80.547 L40.166,62.338 L40.169,25.939 L71.696,44.146 L71.696,44.146 Z M107.073,62.348 L85.493,74.805 L75.549,80.543 L75.556,44.137 L107.08,25.937 L107.073,62.348 L107.073,62.348 Z M38.244,65.684 L69.764,83.89 L38.232,102.087 L6.71,83.885 L38.244,65.684 L38.244,65.684 Z M40.171,105.423 L71.695,87.231 L71.69,123.634 L40.166,141.831 L40.171,105.423 L40.171,105.423 Z M109.002,102.087 L77.482,83.884 L87.739,77.963 L109.014,65.688 L140.534,83.889 L109.002,102.087 L109.002,102.087 Z M142.459,80.545 L110.931,62.339 L110.938,25.937 L142.465,44.146 L142.459,80.545 L142.459,80.545 Z M73.629,4.398 L105.144,22.6 L73.618,40.801 L42.095,22.596 L73.629,4.398 L73.629,4.398 Z M36.31,25.943 L36.307,62.347 L4.781,80.544 L4.788,44.136 L36.31,25.943 L36.31,25.943 Z M4.788,87.231 L36.313,105.434 L36.308,141.835 L4.783,123.625 L4.788,87.231 L4.788,87.231 Z M73.618,163.376 L42.098,145.171 L73.627,126.971 L105.15,145.176 L73.618,163.376 L73.618,163.376 Z M110.937,141.828 L110.939,105.424 L142.465,87.229 L142.459,123.634 L110.937,141.828 L110.937,141.828 Z" id="Fill-1" sketch:type="MSShapeGroup"></path>
            <path d="M141.505,182.117 C140.638,181.473 139.412,181.649 138.765,182.518 L133.204,189.979 L127.643,182.518 C126.996,181.649 125.769,181.473 124.901,182.117 C124.034,182.764 123.855,183.991 124.502,184.857 L130.761,193.256 L124.502,201.654 C123.855,202.521 124.034,203.749 124.901,204.394 C125.253,204.657 125.664,204.782 126.071,204.782 C126.669,204.782 127.258,204.511 127.643,203.995 L133.204,196.533 L138.765,203.995 C139.149,204.512 139.739,204.782 140.337,204.782 C140.744,204.782 141.153,204.657 141.505,204.394 C142.373,203.749 142.553,202.521 141.906,201.654 L135.647,193.256 L141.906,184.857 C142.553,183.991 142.373,182.764 141.505,182.117" id="Fill-2" sketch:type="MSShapeGroup"></path>
            <path d="M111.645,181.738 C105.349,181.738 100.228,186.861 100.228,193.156 C100.228,199.452 105.349,204.574 111.645,204.574 C117.941,204.574 123.064,199.452 123.064,193.156 C123.064,186.861 117.941,181.738 111.645,181.738 L111.645,181.738 Z M111.645,200.656 C107.509,200.656 104.143,197.292 104.143,193.156 C104.143,189.02 107.509,185.654 111.645,185.654 C115.781,185.654 119.147,189.02 119.147,193.156 C119.147,197.292 115.781,200.656 111.645,200.656 L111.645,200.656 Z" id="Fill-3" sketch:type="MSShapeGroup"></path>
            <path d="M94.461,192.719 L94.461,192.654 C95.255,192.234 95.891,191.627 96.366,190.83 C96.842,190.033 97.08,189.04 97.08,187.846 C97.08,186.057 96.499,184.613 95.339,183.52 C94.178,182.426 92.415,181.878 90.052,181.878 L85.423,181.878 C84.871,181.878 84.44,182.039 84.13,182.359 C83.822,182.68 83.665,183.106 83.665,183.635 L83.665,202.7 C83.665,203.231 83.822,203.65 84.13,203.961 C84.44,204.268 84.871,204.424 85.423,204.424 L89.917,204.424 C92.283,204.424 94.135,203.876 95.471,202.783 C96.809,201.689 97.477,200.07 97.477,197.926 C97.477,196.598 97.184,195.482 96.599,194.576 C96.012,193.672 95.301,193.051 94.461,192.719 L94.461,192.719 Z M87.577,185.525 C87.577,185.393 87.645,185.328 87.777,185.328 L89.95,185.328 C90.945,185.328 91.728,185.598 92.305,186.14 C92.879,186.681 93.167,187.404 93.167,188.312 C93.167,189.194 92.879,189.909 92.305,190.449 C91.728,190.991 90.945,191.262 89.95,191.262 L87.777,191.262 C87.645,191.262 87.577,191.195 87.577,191.063 L87.577,185.525 L87.577,185.525 Z M92.686,200.113 C92.102,200.689 91.256,200.977 90.149,200.977 L87.777,200.977 C87.645,200.977 87.577,200.91 87.577,200.776 L87.577,194.909 C87.577,194.774 87.645,194.711 87.777,194.711 L90.149,194.711 C91.256,194.711 92.102,194.996 92.686,195.57 C93.272,196.147 93.565,196.898 93.565,197.826 C93.565,198.775 93.272,199.539 92.686,200.113 L92.686,200.113 Z" id="Fill-4" sketch:type="MSShapeGroup"></path>
            <path d="M15.666,191.49 L19.149,184.387 C19.612,183.443 19.223,182.305 18.28,181.843 C17.337,181.381 16.197,181.77 15.736,182.713 L9.855,194.706 L9.855,183.549 C9.855,182.5 9.005,181.648 7.955,181.648 C6.905,181.648 6.053,182.5 6.053,183.549 L6.053,202.899 C6.053,203.784 6.664,204.552 7.524,204.752 C7.669,204.785 7.813,204.801 7.955,204.801 C8.667,204.801 9.336,204.398 9.66,203.736 L13.564,195.776 L17.586,203.789 C17.919,204.453 18.589,204.836 19.285,204.836 C19.572,204.836 19.863,204.769 20.136,204.634 C21.075,204.162 21.453,203.021 20.982,202.082 L15.666,191.49" id="Fill-5" sketch:type="MSShapeGroup"></path>
            <path d="M57.31,200.998 L50.39,200.998 L50.39,183.549 C50.39,182.5 49.54,181.648 48.49,181.648 C47.44,181.648 46.59,182.5 46.59,183.549 L46.59,202.899 C46.59,203.949 47.44,204.801 48.49,204.801 L57.31,204.801 C58.36,204.801 59.212,203.949 59.212,202.899 C59.212,201.852 58.36,200.998 57.31,200.998" id="Fill-6" sketch:type="MSShapeGroup"></path>
            <path d="M35.483,182.641 C35.185,181.924 34.447,181.481 33.703,181.473 C32.926,181.484 32.233,181.966 31.956,182.691 L24.452,202.255 C24.076,203.236 24.565,204.334 25.546,204.711 C26.525,205.086 27.626,204.596 28.001,203.616 L30.758,196.429 L37.119,196.429 L40.141,203.67 C40.444,204.4 41.151,204.839 41.896,204.839 C42.14,204.839 42.387,204.791 42.627,204.691 C43.596,204.287 44.053,203.176 43.648,202.206 L35.483,182.641 L35.483,182.641 Z M32.216,192.627 L33.805,188.486 L35.533,192.627 L32.216,192.627 L32.216,192.627 Z" id="Fill-7" sketch:type="MSShapeGroup"></path>
            <path d="M72.505,182.641 C72.205,181.924 71.508,181.481 70.725,181.473 C69.947,181.484 69.256,181.966 68.978,182.691 L61.473,202.255 C61.096,203.234 61.586,204.334 62.566,204.711 C63.548,205.086 64.647,204.596 65.022,203.616 L67.779,196.429 L74.14,196.429 L77.161,203.67 C77.467,204.4 78.173,204.839 78.916,204.839 C79.161,204.839 79.409,204.791 79.648,204.691 C80.616,204.287 81.074,203.176 80.669,202.206 L72.505,182.641 L72.505,182.641 Z M69.238,192.627 L70.826,188.486 L72.554,192.627 L69.238,192.627 L69.238,192.627 Z" id="Fill-8" sketch:type="MSShapeGroup"></path>
        </g>
    </g>
</svg>