<?xml version="1.0" encoding="utf-8"?>
<!-- Generator: Adobe Illustrator 16.0.0, SVG Export Plug-In . SVG Version: 6.00 Build 0)  -->
<!DOCTYPE svg PUBLIC "-//W3C//DTD SVG 1.0//EN" "http://www.w3.org/TR/2001/REC-SVG-20010904/DTD/svg10.dtd">
<svg version="1.0" id="Layer_1" xmlns="http://www.w3.org/2000/svg" xmlns:xlink="http://www.w3.org/1999/xlink" x="0px" y="0px"
	 width="228.4px" height="250.9px" viewBox="0 0 228.4 250.9" style="enable-background:new 0 0 228.4 250.9;" xml:space="preserve"
	>
<g>
	<path style="fill:#BED972;" d="M113.7,94.9c0-0.1,0.1-0.3,0.1-0.4c0-0.1,0-0.1,0-0.2c0.1-0.7,0.2-1.3,0.2-2c0-1-0.1-2-0.4-2.9
		c0-0.2,0-0.5,0-0.7c0-7.7-5-14.2-12-16.5l0-2c3.4-2.3,6-5.8,7.1-9.9c0-0.1,0.1-0.3,0.1-0.4c0-0.2,0.1-0.3,0.1-0.5
		c0.1-0.3,0.1-0.6,0.2-0.9c0,0,0,0,0-0.1c0.1-0.8,0.2-1.7,0.2-2.6c0-0.6,0-1.3-0.1-1.9c-0.3-2.7-1.2-5.2-2.6-7.3
		c-1.2-1.9-2.8-3.6-4.6-4.9c-0.8-0.6-1.7-1.1-2.5-1.5c-2.2-1.1-4.8-1.7-7.4-1.7c-0.2,0-0.3,0-0.4,0c-1.2-2.1-3.5-3.6-6.1-3.6
		c-1,0-1.9,0.2-2.7,0.5c-0.4-1.2-1-2.3-1.9-3.1c0.2-0.6,0.4-1.1,0.5-1.7c0.4-1.8,0.7-3.6,0.7-5.5c0-2.6-0.5-5.2-1.3-7.5
		c-3.1-8.7-11.3-14.9-21-15c-0.1,0-0.2,0-0.3,0c-10.9,0-19.9,7.7-22,18c-0.3,1.5-0.5,3-0.5,4.6c0,0.3,0,0.6,0,0.8
		c-0.9-0.1-1.8-0.2-2.7-0.2c-7.7,0-14.2,5.1-16.5,12.1c-0.1,0.2-0.1,0.3-0.1,0.5c-0.1,0.3-0.2,0.6-0.2,1c-0.1,0.3-0.1,0.7-0.2,1
		c0,0.2-0.1,0.3-0.1,0.5c-0.1,0.5-0.1,1-0.1,1.5c0,0,0,0,0,0c0,0,0,0,0,0.1c0,0.2,0,0.5,0,0.7c0,5.5,2.6,10.5,6.7,13.6
		c-0.3,0.5-0.5,1.1-0.6,1.6C23,59,23,59.6,23,60.2c0,2.4,1.3,4.6,3.1,5.8c0,0.7-0.1,1.3-0.1,2c0,1.6,0.1,3.2,0.3,4.7
		c-0.7,0.1-1.4,0.3-2.1,0.5c-1.8-1.7-4.2-2.7-6.8-2.7c-2.5,0-4.8,0.9-6.6,2.5C10.6,73,10.3,73,10,73c-3.4,0-6.2,2.4-6.8,5.6
		c-0.1,0.5-0.2,1-0.2,1.5c0,3.3,2.3,6.1,5.4,6.8c0.6,1.9,1.9,3.4,3.7,4.2c0.6,9,8.1,16.1,17.2,16.1c2.9,0,5.6-0.7,8-1.9
		c1,8.1,6.3,14.9,13.5,17.9c0,0,0,0,0,0l16,0.6c0,0,0,0,0,0c7.2-2.5,12.7-8.5,14.5-16c0.4-1.7,0.6-3.5,0.6-5.4
		c0-1.3-0.1-2.5-0.3-3.7l0.2-0.4c0,0,0,0,0,0c3.1,4.6,8.4,7.7,14.4,7.7c4.3,0,8.3-1.6,11.4-4.3C110.7,100.5,112.9,98,113.7,94.9z"/>
	<path style="fill:#3A9ED8;" d="M101.7,70.1c-0.7,0.4-1.3,0.8-2.1,1.2c0.1,0.1,0.1,0.3,0.2,0.4l0,0l0,0c0.6,0.1,1.3,0.3,1.9,0.5l0,0
		L101.7,70.1"/>
	<path style="fill:#006189;" d="M66.8,123.7c-2.2,0.7-4.5,1.2-6.9,1.2l0.2,37.7l11.3,31.2l-1.7-26.6l-0.4-6.5l-0.7-10.8L66.8,123.7"
		/>
	<path style="fill:#006189;" d="M98.2,88.1L98.2,88.1c-0.3,0.4-0.5,0.7-0.7,1.1l1.6,0.9l0.5-0.9L98.2,88.1"/>
	<path style="fill:#0076A9;" d="M40.3,103.2c-0.9,0.7-1.9,1.4-3,2c0.7,5.7,3.6,10.8,7.8,14.4c1.7,1.4,3.5,2.6,5.5,3.5
		c0.1,0,0.2,0.1,0.2,0.1l0,0l0,0l0.9-10.4L40.3,103.2"/>
	<path style="fill:#006086;" d="M63.3,108.6L57,117l-5.2-4.3l-0.9,10.4l0,0c1.5,0.7,3.2,1.1,4.9,1.4c1.3,0.2,2.6,0.3,3.9,0.3
		c0.1,0,0.2,0,0.3,0c2.4,0,4.8-0.4,6.9-1.2c0,0,0.1,0,0.1,0l0,0L66,109.5l-1,2.1L63.3,108.6"/>
	<path style="fill:#006086;" d="M54.2,100.6l6.5,3.4l-1.8-3.1C57.3,101,55.7,100.9,54.2,100.6"/>
	<path style="fill:#006086;" d="M71.5,98.6c-3.8,1.6-8,2.4-12.4,2.4c0,0-0.1,0-0.1,0l1.8,3.1l4.3,2.3l-1.7,2.3l1.7,3l1-2.1
		L71.5,98.6"/>
	<path style="fill:#006086;" d="M44.7,97.7c-1.1,2.1-2.6,4-4.4,5.5l11.5,9.5L57,117l6.3-8.4l1.7-2.3l-4.3-2.3l-6.5-3.4
		C50.8,100.1,47.7,99.1,44.7,97.7"/>
	<path style="fill:#0079AA;" d="M59.6,2.6c-12.4,0-22.5,10.1-22.5,22.5l0,0c0,0.3,0,0.6,0,0.9l0,0l0,0l0,0l0,0
		c5.9,0.9,10.8,4.8,13.1,10.1l0,0l0,0c2.6-0.7,5.4-1.1,8.2-1.2c-5-0.6-8.8-4.8-8.8-9.9l0,0l0,0c0-5.5,4.5-10,10-10s10,4.5,10,10l0,0
		l0,0c0,5-3.7,9.1-8.4,9.8l0,0.1l0,0c2.8,0.2,5.5,0.7,8.1,1.5l0,0l0,0c0.4-3.5,3.4-6.1,6.9-6.1c1.8,0,3.5,0.7,4.7,1.9l0,0l0,0l0,0
		l0,0c0.8-2.3,1.2-4.7,1.2-7.2l0,0c0-2.6-0.5-5.2-1.3-7.5l0,0l0,0c-3.1-8.7-11.3-14.9-21-15l0,0l0,0C59.8,2.6,59.7,2.6,59.6,2.6"/>
	<path style="fill:#006188;" d="M61.1,34.9c-0.2,0-0.4,0.1-0.6,0.1c0.2,0,0.4,0,0.7,0L61.1,34.9"/>
	<path style="fill:#0079AA;" d="M87.4,48.6c-0.5,0.1-0.9,0.2-1.4,0.2c0.4,0.5,0.7,1,1,1.6l0,0l0,0c0.1-0.1,0.2-0.3,0.3-0.4
		c0,0,0-0.1,0-0.1l0,0l0,0C87.4,49.4,87.4,49,87.4,48.6"/>
	<path style="fill:#0077A9;" d="M37.1,26L37.1,26c0.2,5.1,2.1,9.8,5.2,13.5l0,0l0,0l0,0l0,0c2.4-1.4,5.1-2.6,7.9-3.3
		C47.9,30.8,43,26.9,37.1,26"/>
	<path style="fill:#0079AA;" d="M72.6,43.4c-3.1,2.2-6.7,3.6-10.7,4l0.2,3.6l0,0c5.2,1.1,9.5,4.5,11.9,9.1l0,0l0,0
		c0.4-0.2,0.8-0.3,1.3-0.5c-0.3-1.3-0.5-2.6-0.5-4l0,0l0,0c0-4.3,1.6-8.3,4.2-11.3c-0.1-0.2-0.1-0.4-0.2-0.6
		c-0.8,0.3-1.7,0.5-2.7,0.5C74.9,44.4,73.7,44,72.6,43.4"/>
	<path style="fill:#0079AA;" d="M44.2,57.3c-2.1,1.5-4.6,2.4-7.3,2.8c0,0.4,0,0.7-0.1,1c2.3,1.1,3.9,3.5,3.9,6.3l0,0l0,0
		c0,3-1.9,5.5-4.5,6.5c4.5,2,8.1,5.9,9.6,10.6l0,0l0,0c1.1-0.8,2.2-1.6,3.4-2.2c-4.7-3.1-7.9-8.4-7.9-14.5l0,0l0,0
		c0-3.8,1.2-7.2,3.2-10.1L44.2,57.3"/>
	<path style="fill:#0079AA;" d="M51.5,46c-0.5,3.1-1.9,6-3.9,8.3l0.3,0.2l0,0c2.6-2.1,5.9-3.5,9.5-3.8l0,0l0,0l0.3-3.3
		C55.5,47.3,53.4,46.8,51.5,46"/>
	<path style="fill:#0079AA;" d="M26.1,66L26.1,66c0,0.7-0.1,1.3-0.1,2l0,0c0,1.6,0.1,3.3,0.4,4.8l0,0l0,0l0,0l0,0
		c0.8-0.1,1.7-0.2,2.6-0.2c-1.4-1.3-2.2-3.1-2.2-5.1l0,0l0,0c0-0.4,0-0.7,0.1-1.1C26.6,66.3,26.4,66.1,26.1,66"/>
	<path style="fill:#006188;" d="M62,47.4c-0.8,0.1-1.6,0.1-2.3,0.1c-0.7,0-1.3,0-2-0.1l0,0l-0.3,3.3c0.4,0,0.9-0.1,1.3-0.1
		c1.2,0,2.4,0.1,3.6,0.4L62,47.4"/>
	<path style="fill:#006188;" d="M47.5,54.3c-1,1.1-2.1,2.2-3.4,3l0.4,0.6l0,0l0,0c0.9-1.3,2-2.4,3.2-3.4L47.5,54.3"/>
	<path style="fill:#0075A8;" d="M49.2,82.4L49.2,82.4c-1.2,0.6-2.3,1.4-3.4,2.2c0.5,1.6,0.8,3.4,0.8,5.2l0,0l0,0
		c0,2.2-0.4,4.3-1.2,6.2l7.5,3.9l1.4-15.3C52.5,84.2,50.8,83.4,49.2,82.4"/>
	<path style="fill:#0075A8;" d="M72.7,96.2l-1.2,2.4c1.1-0.4,2.2-1,3.2-1.5C74,96.8,73.3,96.5,72.7,96.2"/>
	<path style="fill:#006086;" d="M54.3,84.7L54.3,84.7L52.9,100l1.2,0.7l0,0c1.6,0.2,3.2,0.4,4.8,0.4l-1.7-3.1l7.3-9.2
		c-0.7-1.2-1.4-2.6-1.8-3.9c-1.3,0.3-2.6,0.5-4,0.5C57.1,85.2,55.7,85,54.3,84.7"/>
	<path style="fill:#006086;" d="M64.5,88.7L64.5,88.7l-7.3,9.2l1.7,3.1c0,0,0.1,0,0.1,0c4.4,0,8.6-0.9,12.4-2.4l1.2-2.4
		C69.3,94.5,66.4,91.9,64.5,88.7"/>
	<path style="fill:#006086;" d="M45.5,96c-0.2,0.6-0.5,1.1-0.7,1.7c2.9,1.4,6.1,2.4,9.4,2.9l0,0l-1.2-0.7L45.5,96"/>
	<path style="fill:#0077A9;" d="M61.2,35L62,47.4l0,0c3.9-0.4,7.6-1.8,10.7-4c-2-1.2-3.4-3.4-3.4-6l0,0l0,0c0-0.3,0-0.6,0.1-0.9
		C66.7,35.7,64,35.2,61.2,35"/>
	<path style="fill:#0077A9;" d="M58.5,35L58.5,35c-2.8,0-5.6,0.5-8.2,1.2c0.9,2.1,1.4,4.5,1.4,6.9l0,0l0,0c0,1-0.1,2-0.3,3
		c1.9,0.8,4,1.2,6.2,1.4l0,0l0,0L58.7,35C58.7,35,58.6,35,58.5,35"/>
	<path style="fill:#006087;" d="M58.7,35L58.7,35l-1.1,12.5l0,0c0.7,0.1,1.3,0.1,2,0.1c0.8,0,1.6,0,2.3-0.1l0,0L61.2,35l0,0
		c-0.2,0-0.4,0-0.7,0l0,0c-0.3,0-0.6,0-0.9,0C59.3,35,59,35,58.7,35"/>
	<path style="fill:#0077A9;" d="M79.1,44.4L79.1,44.4c-2.6,3-4.2,7-4.2,11.3l0,0c0,1.4,0.2,2.7,0.5,4l0,0l0,0l0,0l0,0
		c1.9-0.6,3.9-0.9,6-0.9c2.1,0,4.1,0.3,6,0.9l0,0l0,0l0.3-0.4c-1.2-1.3-2-3-2-4.8l0,0l0,0c0-1.5,0.5-2.9,1.3-4.1
		c-0.3-0.5-0.7-1-1-1.6l0,0c-0.1,0-0.3,0-0.4,0C82.6,48.8,80.1,47,79.1,44.4"/>
	<path style="fill:#0077A9;" d="M90.6,61.1c0.3,0.2,0.6,0.3,0.9,0.5c0-0.1,0-0.2-0.1-0.3l0,0C91.1,61.3,90.8,61.2,90.6,61.1"/>
	<path style="fill:#006087;" d="M87.7,59.3L87.7,59.3l-0.3,0.4c0.5,0.2,1.1,0.4,1.6,0.6C88.4,60,88,59.7,87.7,59.3"/>
	<path style="fill:#0077A9;" d="M42.4,39.5L42.4,39.5L42.4,39.5c-0.5,0.3-1.1,0.7-1.6,1c0.7,1.1,1.2,2.4,1.2,3.9l0,0l0,0
		c0,1.5-0.5,2.9-1.3,4.1l6.9,5.9l0,0c2-2.3,3.4-5.1,3.9-8.3C47.9,44.6,44.8,42.4,42.4,39.5L42.4,39.5"/>
	<path style="fill:#0077A9;" d="M31.2,50.3L31.2,50.3c-0.6,0.9-1.1,1.9-1.6,2.9c0.1,0,0.3,0,0.4,0c3.9,0,7,3.1,7,7v0l0,0l0,0l0,0
		c2.7-0.4,5.1-1.4,7.3-2.8l-5.5-7c-1.1,0.7-2.4,1.1-3.7,1.1C33.6,51.4,32.3,51,31.2,50.3"/>
	<path style="fill:#006087;" d="M40.6,48.4c-0.5,0.7-1.2,1.4-1.9,1.8l5.5,7c1.2-0.9,2.4-1.9,3.4-3l0,0L40.6,48.4"/>
	<path style="fill:#0076A9;" d="M50.3,36.2L50.3,36.2c-2.8,0.8-5.5,1.9-7.9,3.3l0,0c2.4,2.9,5.5,5.1,9.1,6.5c0.2-1,0.3-2,0.3-3l0,0
		C51.7,40.6,51.2,38.3,50.3,36.2L50.3,36.2"/>
	<path style="fill:#0077A9;" d="M62.2,51.1l1.2,19.1l0,0c2.1-4.5,5.9-8.1,10.6-10C71.7,55.6,67.4,52.2,62.2,51.1"/>
	<path style="fill:#0077A9;" d="M44.6,57.9L44.6,57.9L44.6,57.9c-2,2.8-3.2,6.3-3.2,10.1l0,0c0,6.1,3.1,11.4,7.9,14.5l0,0l0,0
		c1.7-0.9,3.5-1.6,5.4-2l0,0l0,0l0.8-9l-0.2,0.2L44.6,57.9"/>
	<path style="fill:#0077A9;" d="M57.3,50.8c-3.6,0.3-6.9,1.6-9.5,3.8l8.5,7.2L57.3,50.8"/>
	<path style="fill:#006087;" d="M58.6,50.7c-0.4,0-0.9,0-1.3,0.1l0,0l-1,11l4.5,3.8l-5.4,5.8l-0.8,9c1.6-0.4,3.2-0.5,4.9-0.5
		c0.7,0,1.4,0,2,0.1c0-0.5-0.1-1-0.1-1.5l0,0l0,0c0-3,0.7-5.8,1.8-8.3l-1.2-19.1l0,0C61.1,50.8,59.9,50.7,58.6,50.7"/>
	<path style="fill:#006087;" d="M47.8,54.5L47.8,54.5c-1.2,1-2.3,2.1-3.2,3.4l0,0l10.7,13.7l0.2-0.2l5.4-5.8l-4.5-3.8L47.8,54.5"/>
	<path style="fill:#0075A8;" d="M54.7,80.5c-1.9,0.4-3.7,1.1-5.4,2l0,0c1.5,1,3.2,1.8,5.1,2.2l0,0l0,0L54.7,80.5"/>
	<path style="fill:#006086;" d="M59.6,79.9c-1.7,0-3.4,0.2-4.9,0.5l0,0l-0.4,4.2l0,0c1.4,0.4,2.8,0.6,4.3,0.6c1.4,0,2.7-0.2,4-0.5
		c-0.5-1.5-0.8-3.1-1-4.8l0,0C61,79.9,60.3,79.9,59.6,79.9"/>
	<path style="fill:#0079AA;" d="M32.8,88l-0.2,1.3l2.3,1.2C34.2,89.7,33.5,88.8,32.8,88"/>
	<path style="fill:#006188;" d="M25.9,85.8c-0.8,1.2-1.8,2.3-3,3.1l14.3,11.8l0,0l0,0c0.2-2.3,0.7-4.6,1.6-6.7
		c-1.4-1.1-2.6-2.2-3.8-3.5l0,0l-2.3-1.2l-0.5,3.8l-6-1.8l1.6-4.6L25.9,85.8"/>
	<path style="fill:#006188;" d="M29.3,82.2L29.3,82.2l-1.5,4.5l-1.6,4.6l6,1.8l0.5-3.8l0.2-1.3C31.4,86.2,30.3,84.2,29.3,82.2"/>
	<path style="fill:#0075A8;" d="M37.2,100.7L37.2,100.7L37.2,100.7c0,0.6-0.1,1.1-0.1,1.7l0,0c0,0.9,0.1,1.9,0.2,2.8
		c1.1-0.5,2-1.2,3-2L37.2,100.7"/>
	<path style="fill:#006086;" d="M38.8,94L38.8,94c-0.8,2.1-1.4,4.3-1.6,6.7l0,0l3.1,2.5c1.8-1.5,3.3-3.4,4.4-5.5
		C42.6,96.7,40.6,95.4,38.8,94"/>
	<path style="fill:#0077A9;" d="M36.3,74c-0.6,0.2-1.1,0.4-1.8,0.4L32.8,88c0.7,0.9,1.4,1.7,2.1,2.5l0,0l0,0l4.4,2.3l0,0
		c1.5-3.2,3.8-6,6.5-8.2C44.3,79.9,40.8,76,36.3,74L36.3,74"/>
	<path style="fill:#0077A9;" d="M29,72.6L29,72.6c-0.9,0-1.8,0.1-2.6,0.2l0,0c0.5,3.3,1.5,6.5,2.9,9.4l0,0l0,0l2.7-8
		C30.9,73.9,29.9,73.3,29,72.6"/>
	<path style="fill:#006087;" d="M34.9,90.5L34.9,90.5c1.2,1.3,2.5,2.4,3.8,3.5l0,0l0,0c0.2-0.4,0.3-0.8,0.5-1.2L34.9,90.5"/>
	<path style="fill:#006087;" d="M32,74.2L32,74.2l-2.7,8l0,0c1,2.1,2.2,4,3.5,5.8l1.7-13.6c-0.2,0-0.5,0-0.7,0
		C33.2,74.4,32.6,74.4,32,74.2"/>
	<path style="fill:#0075A8;" d="M45.8,84.6L45.8,84.6c-2.8,2.2-5,4.9-6.5,8.2l6.2,3.3l0,0c0.8-1.9,1.2-4,1.2-6.2l0,0
		C46.6,88,46.4,86.3,45.8,84.6L45.8,84.6"/>
	<path style="fill:#006086;" d="M39.3,92.8L39.3,92.8c-0.2,0.4-0.4,0.8-0.5,1.2l0,0c1.8,1.4,3.8,2.7,6,3.7c0.3-0.5,0.5-1.1,0.7-1.7
		l0,0L39.3,92.8"/>
	<path style="fill:#0077A9;" d="M59.6,15.1c-5.5,0-10,4.5-10,10l0,0c0,5.1,3.9,9.3,8.8,9.9l0,0l0,0c0.1,0,0.2,0,0.2,0l0,0l0,0
		l0.9-9.9h0.9l0.6,9.8l0,0c4.8-0.7,8.4-4.9,8.4-9.8l0,0C69.6,19.6,65.1,15.1,59.6,15.1"/>
	<path style="fill:#006087;" d="M60.5,25.1h-0.9L58.7,35c0.1,0,0.2,0,0.3,0c0.5,0,0.9,0,1.4,0l0,0l0,0c0.2,0,0.4,0,0.6-0.1l0,0
		L60.5,25.1"/>
	<path style="fill:#0076A9;" d="M58.7,35c-0.1,0-0.2,0-0.2,0l0,0C58.6,35,58.7,35,58.7,35L58.7,35L58.7,35L58.7,35"/>
	<path style="fill:#006086;" d="M59.1,35c-0.1,0-0.2,0-0.3,0l0,0l0,0l0,0c0.3,0,0.6,0,0.9,0c0.3,0,0.6,0,0.9,0l0,0
		C60,35,59.6,35,59.1,35"/>
	<path style="fill:#0077A9;" d="M24.3,73.3L24.3,73.3c-2.9,0.9-5.4,2.5-7.5,4.6c2.7,0.7,4.7,3,5.1,5.8l0,0l0,0l3.9,2.1l0,0
		c0.9-1.5,1.5-3.3,1.5-5.2l0,0C27.4,77.7,26.2,75.1,24.3,73.3L24.3,73.3"/>
	<path style="fill:#006087;" d="M22,83.7c0,0.3,0.1,0.7,0.1,1l0,0l0,0c0,1.1-0.2,2-0.6,2.9l1.5,1.2c1.2-0.8,2.2-1.9,3-3.1l0,0
		L22,83.7"/>
	<path style="fill:#0077A9;" d="M18.4,55.9c0,0.1,0,0.2,0.1,0.2l0,0l0,0c0.1-0.1,0.1-0.1,0.2-0.2C18.5,56,18.4,55.9,18.4,55.9"/>
	<path style="fill:#0079AA;" d="M23.9,56.7L23.9,56.7L23.9,56.7c-0.6,1-0.9,2.2-0.9,3.4l0,0c0,2.4,1.3,4.6,3.1,5.8l0,0l0,0
		c0.1-2.5,0.6-4.9,1.2-7.2C26.1,58.2,24.9,57.5,23.9,56.7L23.9,56.7"/>
	<path style="fill:#0077A9;" d="M29.6,53.2c-2.4,0.1-4.6,1.5-5.7,3.5l0,0c1.1,0.8,2.2,1.5,3.5,2.1l0,0l0,0l0,0l0,0
		C27.9,56.8,28.7,55,29.6,53.2"/>
	<path style="fill:#0077A9;" d="M27.4,58.8L27.4,58.8L27.4,58.8c-0.7,2.3-1.1,4.7-1.2,7.2l0,0c0.2,0.2,0.5,0.3,0.8,0.4l0,0l0,0l0,0
		l0,0c0.5-3.3,3.4-5.9,6.9-5.9c1.1,0,2.1,0.3,3.1,0.7l0,0l0,0l0,0l0,0c0.1-0.3,0.1-0.7,0.1-1l0,0l0,0c-0.8,0.1-1.6,0.2-2.5,0.2
		C31.9,60.3,29.5,59.8,27.4,58.8L27.4,58.8"/>
	<path style="fill:#0076A9;" d="M30,53.1c-0.1,0-0.3,0-0.4,0l0,0l0,0c-0.9,1.8-1.6,3.7-2.2,5.6l0,0c2.2,1,4.6,1.5,7.1,1.5
		c0.8,0,1.7-0.1,2.5-0.2l0,0v0C36.9,56.3,33.8,53.1,30,53.1"/>
	<path style="fill:#0077A9;" d="M91.7,38.5L91.7,38.5c-4.3,0.1-8.2,1.8-11.1,4.4c2,1.7,3.9,3.7,5.4,5.9l0,0l0,0c0.5,0,1-0.1,1.4-0.2
		l0,0l0,0c0.4-3.2,2.4-6,5.1-7.5C92.4,40.2,92.1,39.3,91.7,38.5L91.7,38.5"/>
	<path style="fill:#0077A9;" d="M80.5,42.9c-0.5,0.4-1,0.7-1.6,1c0.1,0.2,0.1,0.4,0.2,0.6l0,0l0,0C79.5,43.9,80,43.4,80.5,42.9
		L80.5,42.9"/>
	<path style="fill:#0076A9;" d="M80.6,42.9L80.6,42.9c-0.5,0.5-1,1-1.5,1.5l0,0c1,2.6,3.5,4.4,6.5,4.4c0.1,0,0.3,0,0.4,0l0,0
		C84.4,46.6,82.6,44.7,80.6,42.9L80.6,42.9"/>
	<path style="fill:#0076A9;" d="M92.5,41.1L92.5,41.1c-2.7,1.5-4.7,4.3-5.1,7.5l0,0c3-0.8,5.1-3.5,5.1-6.7l0,0
		C92.6,41.6,92.5,41.4,92.5,41.1L92.5,41.1"/>
	<path style="fill:#0077A9;" d="M36.8,61.2L36.8,61.2c-0.5,3.3-3.4,5.9-6.9,5.9c-1.1,0-2.1-0.3-3.1-0.7l0,0l0,0l0,0
		c-0.1,0.3-0.1,0.7-0.1,1.1l0,0c0,2,0.8,3.8,2.2,5.1l0,0l0,0c0.1,0,0.2,0,0.3,0c1.1,0,2.1,0.1,3.1,0.3l0,0l0,0l1.9-5.7l1,0.1
		l-0.8,6.1c0.6,0.2,1.1,0.4,1.6,0.6l0,0l0,0c2.6-1,4.5-3.5,4.5-6.5l0,0C40.8,64.7,39.2,62.3,36.8,61.2L36.8,61.2L36.8,61.2"/>
	<path style="fill:#006087;" d="M34.4,67.2l-1.9,5.7c0.7,0.1,1.5,0.3,2.2,0.5l0,0l0,0l0,0l0.8-6.1L34.4,67.2"/>
	<path style="fill:#0076A9;" d="M29.4,72.6c-0.1,0-0.2,0-0.3,0l0,0c0.8,0.8,1.9,1.4,3,1.7l0,0l0,0l0.5-1.4
		C31.5,72.6,30.4,72.6,29.4,72.6"/>
	<path style="fill:#0076A9;" d="M34.6,73.4L34.6,73.4l-0.1,1c0.6-0.1,1.2-0.2,1.8-0.4l0,0C35.7,73.8,35.2,73.5,34.6,73.4L34.6,73.4
		L34.6,73.4"/>
	<path style="fill:#006086;" d="M32.5,72.8L32.5,72.8L32,74.2l0,0c0.6,0.1,1.2,0.2,1.8,0.2c0.2,0,0.5,0,0.7,0l0.1-1
		C33.9,73.1,33.2,73,32.5,72.8L32.5,72.8"/>
	<path style="fill:#0076A9;" d="M33.8,60.5c-3.5,0-6.4,2.6-6.9,5.9l0,0c0.9,0.5,2,0.7,3.1,0.7c3.5,0,6.4-2.6,6.9-5.9l0,0
		C35.9,60.7,34.9,60.5,33.8,60.5"/>
	<path style="fill:#0075A8;" d="M79.9,93.6c-1.6,1.3-3.3,2.5-5.2,3.5c2.1,0.7,4.3,1.1,6.6,1.1c0.1,0,0.3,0,0.4,0l0,0
		c-0.1-0.3-0.1-0.6-0.2-0.9l0,0C80.8,96.2,80.3,94.9,79.9,93.6"/>
	<path style="fill:#0077A9;" d="M91.5,61.6c0.4,2.1,0.6,4.2,0.6,6.3l0,0l0,0c0,1.3-0.1,2.7-0.2,4c1.5-0.4,3-0.6,4.6-0.6
		c0.9,0,1.8,0.1,2.6,0.2l0,0l0,0l0,0l0,0c0.2-0.1,0.4-0.2,0.6-0.3l0,0C98,67.2,95.2,63.9,91.5,61.6"/>
	<path style="fill:#006087;" d="M89.5,80.8c-0.5,1.1-1,2.2-1.6,3.3l5.4,2.9l0,0l0,0c0.3-0.7,0.8-1.3,1.4-1.9L89.5,80.8"/>
	<path style="fill:#0075A8;" d="M80.2,93.4c-0.1,0.1-0.2,0.2-0.3,0.3c0.4,1.3,0.9,2.6,1.6,3.7l0,0C81.2,95.9,80.8,94.6,80.2,93.4
		L80.2,93.4"/>
	<path style="fill:#0076A9;" d="M96.4,71.3c-1.6,0-3.1,0.2-4.6,0.6l0,0c0,0.3-0.1,0.7-0.1,1c0.1,0,0.3,0,0.4,0
		c2.5,0,4.8-0.5,6.9-1.4l0,0C98.2,71.4,97.3,71.3,96.4,71.3"/>
	<path style="fill:#0077A9;" d="M85.1,71.5l-1.9,3.9l1.2,1l0,0c1.5-1.5,3.3-2.7,5.2-3.5C87.9,72.5,86.5,72.1,85.1,71.5"/>
	<path style="fill:#0077A9;" d="M75.3,59.7L75.3,59.7L75.3,59.7c-0.4,0.1-0.9,0.3-1.3,0.5c1.2,2.3,1.9,5,1.9,7.8l0,0l0,0
		c0,5.7-2.8,10.8-7,13.9c0.2,0.1,0.5,0.2,0.7,0.3l0,0l0,0l10.9-13.8C78,66.2,76.1,63.1,75.3,59.7L75.3,59.7"/>
	<path style="fill:#0077A9;" d="M80.7,80.1l-3.9,7.8c1,1.2,1.9,2.5,2.6,3.9c-0.2-1-0.3-2.1-0.3-3.2l0,0l0,0c0-3,0.8-5.8,2.1-8.2
		L80.7,80.1"/>
	<path style="fill:#006087;" d="M80.5,68.4L80.5,68.4L69.6,82.2c2.8,1.4,5.3,3.3,7.2,5.7l0,0l0,0l0,0l3.9-7.8l-4.5-2.5l3.8-5
		l3.1,2.6l1.9-3.9C83.4,70.7,81.8,69.7,80.5,68.4"/>
	<path style="fill:#006087;" d="M80,72.7l-3.8,5l4.5,2.5l0.5,0.3l0,0l0,0c0.8-1.5,1.9-2.9,3.1-4.1l-1.2-1L80,72.7"/>
	<path style="fill:#0075A8;" d="M68.9,81.9c-1.4,1-2.9,1.8-4.5,2.4l0.3,4.2l4.9-6.3C69.3,82.1,69.1,82,68.9,81.9L68.9,81.9"/>
	<path style="fill:#0075A8;" d="M76.8,87.9L76.8,87.9l-4.2,8.3c0.7,0.3,1.3,0.6,2,0.9c1.8-1,3.6-2.2,5.2-3.5
		c-0.2-0.6-0.3-1.2-0.4-1.8l0,0C78.7,90.4,77.8,89.1,76.8,87.9L76.8,87.9L76.8,87.9"/>
	<path style="fill:#006086;" d="M64.4,84.3c-0.6,0.2-1.1,0.4-1.7,0.5c0.5,1.4,1.1,2.7,1.8,3.9l0,0l0,0l0.2-0.2L64.4,84.3"/>
	<path style="fill:#006086;" d="M69.6,82.2L69.6,82.2l-4.9,6.3l-0.2,0.2l0,0c2,3.2,4.8,5.8,8.2,7.5l4.2-8.3
		C74.8,85.6,72.4,83.6,69.6,82.2L69.6,82.2"/>
	<path style="fill:#0076A9;" d="M90.3,61l-5.2,10.5c1.4,0.6,2.9,1.1,4.5,1.3l0,0l0,0l0,0l0,0c0.8-0.3,1.5-0.6,2.3-0.8l0,0l0,0l0,0
		l0,0c0.2-1.3,0.2-2.6,0.2-4l0,0c0-2.2-0.2-4.3-0.6-6.3l0,0l0,0c-0.3-0.2-0.6-0.4-0.9-0.5l0,0C90.5,61.1,90.4,61.1,90.3,61"/>
	<path style="fill:#0076A9;" d="M81.3,58.8c-2.1,0-4.1,0.3-6,0.9l0,0c0.8,3.4,2.6,6.4,5.1,8.7l0,0l0,0l6.9-8.7
		C85.4,59.1,83.4,58.8,81.3,58.8"/>
	<path style="fill:#006086;" d="M87.3,59.7L87.3,59.7l-6.9,8.7l0,0c1.4,1.2,2.9,2.3,4.6,3L90.3,61c-0.5-0.2-1-0.4-1.4-0.7l0,0
		C88.4,60.1,87.9,59.9,87.3,59.7L87.3,59.7"/>
	<path style="fill:#0076A9;" d="M89.5,72.8L89.5,72.8L89.5,72.8c-2,0.9-3.7,2.1-5.2,3.5l5.2,4.4l0,0c1-2.5,1.8-5.1,2.2-7.8
		C91,73,90.2,72.9,89.5,72.8L89.5,72.8"/>
	<path style="fill:#0076A9;" d="M81.2,80.4L81.2,80.4L81.2,80.4c-1.3,2.4-2.1,5.2-2.1,8.2l0,0c0,1.1,0.1,2.2,0.3,3.2l0,0l0,0
		c0.3,0.5,0.5,1,0.7,1.5l0,0l0,0c3.1-2.6,5.7-5.7,7.7-9.3L81.2,80.4"/>
	<path style="fill:#006086;" d="M84.3,76.3L84.3,76.3c-1.2,1.2-2.2,2.6-3.1,4.1l0,0l6.7,3.6c0.6-1.1,1.1-2.2,1.6-3.3l0,0L84.3,76.3"
		/>
	<path style="fill:#0074A8;" d="M79.5,91.8L79.5,91.8c0.1,0.6,0.3,1.2,0.4,1.8c0.1-0.1,0.2-0.2,0.3-0.3l0,0
		C80,92.8,79.7,92.3,79.5,91.8"/>
	<path style="fill:#0075A8;" d="M91.9,72c-0.8,0.2-1.6,0.5-2.3,0.8l0,0c0.7,0.1,1.5,0.2,2.2,0.2C91.8,72.6,91.8,72.3,91.9,72
		L91.9,72"/>
	<path style="fill:#0076A9;" d="M74.1,60.2L74.1,60.2c-4.7,1.9-8.5,5.5-10.6,10l0.7,10.2l0,0c1.7,0.3,3.2,0.9,4.8,1.5l0,0l0,0
		c4.3-3.1,7-8.2,7-13.9l0,0C75.9,65.2,75.2,62.5,74.1,60.2L74.1,60.2"/>
	<path style="fill:#006086;" d="M63.4,70.2L63.4,70.2c-1.2,2.5-1.8,5.3-1.8,8.3l0,0c0,0.5,0,1,0.1,1.5l0,0l0,0
		c0.8,0.1,1.6,0.2,2.4,0.4L63.4,70.2"/>
	<path style="fill:#0074A8;" d="M64.1,80.4l0.3,3.9l0,0c1.6-0.6,3.1-1.4,4.5-2.4l0,0C67.4,81.2,65.8,80.7,64.1,80.4"/>
	<path style="fill:#005F85;" d="M61.7,80L61.7,80c0.1,1.7,0.5,3.3,1,4.8c0.6-0.1,1.2-0.3,1.7-0.5l0,0l-0.3-3.9l0,0
		C63.3,80.2,62.5,80.1,61.7,80"/>
	<path style="fill:#0077A9;" d="M35,37.4c-3.9,0-7,3.1-7,7l0,0c0,2.5,1.3,4.6,3.2,5.9l0,0l0,0c1.1-1.7,2.3-3.3,3.7-4.8l-0.5-0.6
		l1-0.8l0.5,0.4l0,0c1.5-1.5,3.1-2.8,4.8-3.9C39.5,38.6,37.4,37.4,35,37.4"/>
	<path style="fill:#006087;" d="M35.5,44.1l-1,0.8l0.5,0.6l0,0l0,0c0.3-0.3,0.7-0.7,1-1L35.5,44.1"/>
	<path style="fill:#0076A9;" d="M34.9,45.5L34.9,45.5L34.9,45.5c-1.4,1.5-2.6,3.1-3.7,4.8l0,0c1.1,0.7,2.4,1.1,3.7,1.1
		c1.4,0,2.7-0.4,3.7-1.1L34.9,45.5"/>
	<path style="fill:#0076A9;" d="M40.8,40.5L40.8,40.5c-1.7,1.2-3.3,2.5-4.8,3.9l4.7,4l0,0c0.8-1.1,1.3-2.5,1.3-4.1l0,0
		C41.9,43,41.5,41.6,40.8,40.5L40.8,40.5"/>
	<path style="fill:#006086;" d="M35.9,44.4L35.9,44.4c-0.3,0.3-0.7,0.7-1,1l0,0l3.8,4.8c0.8-0.5,1.4-1.1,1.9-1.8l0,0L35.9,44.4"/>
	<path style="fill:#0077A9;" d="M97,90.4c-1,1.3-2.1,2.4-3.3,3.4c0.9,1.4,2.3,2.5,3.9,2.9l0,0c-0.6-1.2-1-2.5-1-3.9l0,0
		C96.6,92,96.7,91.2,97,90.4"/>
	<path style="fill:#0077A9;" d="M100.4,83.2L100.4,83.2c-0.3,1.4-0.8,2.7-1.4,3.9c1.3-1.3,3-2.1,4.9-2.3l0,0
		C103,83.9,101.8,83.4,100.4,83.2L100.4,83.2L100.4,83.2"/>
	<path style="fill:#0076A9;" d="M93.3,87L93.3,87L93.3,87c-0.5,0.9-0.7,2-0.7,3.1l0,0c0,1.4,0.4,2.7,1.1,3.8c1.3-1,2.4-2.2,3.3-3.4
		c0.1-0.4,0.3-0.8,0.5-1.2L93.3,87"/>
	<path style="fill:#0076A9;" d="M99.5,83.1c-1.9,0-3.6,0.8-4.9,2l3.5,3l0,0l0,0c0.3-0.4,0.6-0.7,0.9-1c0.6-1.2,1.1-2.5,1.4-3.9l0,0
		C100.1,83.1,99.8,83.1,99.5,83.1"/>
	<path style="fill:#006086;" d="M94.7,85.1L94.7,85.1c-0.6,0.5-1,1.2-1.4,1.9l0,0l4.2,2.3v0c0.2-0.4,0.4-0.8,0.7-1.1l0,0L94.7,85.1"
		/>
	<path style="fill:#0077A9;" d="M87.4,50L87.4,50L87.4,50c-0.1,0.1-0.2,0.3-0.3,0.4c0.1,0.2,0.3,0.4,0.4,0.6
		C87.4,50.7,87.4,50.3,87.4,50L87.4,50"/>
	<path style="fill:#0077A9;" d="M91.8,58.1L91,59.6c0.2,0.6,0.3,1.2,0.4,1.8l0,0l0,0c0.4,0.1,0.8,0.1,1.3,0.1c1.7,0,3.3-0.6,4.5-1.6
		C95.2,59.8,93.3,59.2,91.8,58.1"/>
	<path style="fill:#006087;" d="M90.1,56.7c0.3,0.9,0.6,1.9,0.9,2.8l0,0l0,0l0,0l0.7-1.5C91.2,57.7,90.6,57.3,90.1,56.7"/>
	<path style="fill:#0076A9;" d="M91,59.6L91,59.6L90.3,61c0.1,0,0.2,0.1,0.3,0.1l0,0l0,0c0.3,0.1,0.6,0.2,0.9,0.2l0,0
		C91.3,60.7,91.2,60.1,91,59.6L91,59.6L91,59.6"/>
	<path style="fill:#0076A9;" d="M87,50.4L87,50.4c-0.8,1.1-1.3,2.6-1.3,4.1l0,0c0,1.9,0.7,3.6,2,4.8l0,0l0,0l2.2-2.8
		c-1.3-1.5-2.2-3.4-2.5-5.4l0,0C87.3,50.8,87.2,50.6,87,50.4L87,50.4"/>
	<path style="fill:#006086;" d="M89.9,56.5L89.9,56.5l-2.2,2.8l0,0c0.4,0.4,0.8,0.7,1.2,1l0,0l0,0c0.5,0.2,1,0.4,1.4,0.7l0,0l0,0
		l0,0l0.7-1.4c-0.3-1-0.5-1.9-0.9-2.8l0,0C90.1,56.7,90,56.6,89.9,56.5"/>
	<path style="fill:#0076A9;" d="M92.7,47.5c-2.1,0-4.1,1-5.3,2.5l0,0c0,0.4,0,0.7,0.1,1.1l0,0l0,0c1,1.7,1.9,3.5,2.6,5.3l0,0l0,0
		l0.8-1l1.9,0.9l-0.9,1.9c1.6,1,3.4,1.7,5.4,1.7c1.5-1.3,2.5-3.2,2.5-5.3l0,0C99.7,50.6,96.5,47.5,92.7,47.5"/>
	<path style="fill:#006086;" d="M90.8,55.3l-0.8,1c0,0.1,0.1,0.3,0.1,0.4l0,0l0,0c0.5,0.5,1,1,1.6,1.4l0.9-1.9L90.8,55.3"/>
	<path style="fill:#0075A8;" d="M87.4,51L87.4,51c0.2,2.1,1.1,4,2.5,5.4l0,0l0,0l0.1-0.1C89.3,54.5,88.4,52.7,87.4,51"/>
	<path style="fill:#006086;" d="M90,56.4L90,56.4l-0.1,0.1l0,0c0.1,0.1,0.2,0.2,0.2,0.3l0,0C90.1,56.6,90,56.5,90,56.4L90,56.4"/>
	<path style="fill:#0075A8;" d="M90.3,61L90.3,61L90.3,61c0.1,0.1,0.2,0.1,0.3,0.1l0,0C90.5,61.1,90.4,61,90.3,61L90.3,61L90.3,61"
		/>
	<path style="fill:#006086;" d="M88.9,60.3L88.9,60.3c0.4,0.3,0.9,0.5,1.4,0.7l0,0C89.8,60.7,89.4,60.5,88.9,60.3"/>
	<path style="fill:#0077A9;" d="M76.2,30.4c-3.6,0-6.5,2.7-6.9,6.1c2.6,0.8,5,2,7.2,3.4l0,0l0,0l0,0l0,0c1.9-2.2,3.5-4.8,4.4-7.6
		l0,0C79.7,31.1,78,30.4,76.2,30.4"/>
	<path style="fill:#0077A9;" d="M76.5,39.9L76.5,39.9c-1.2,1.3-2.4,2.5-3.9,3.5c1,0.6,2.3,1,3.6,1c1,0,1.9-0.2,2.7-0.5
		c-0.2-0.6-0.3-1.3-0.3-2l0,0l0,0c0-0.2,0-0.3,0-0.5C77.9,40.9,77.2,40.4,76.5,39.9L76.5,39.9L76.5,39.9"/>
	<path style="fill:#0076A9;" d="M69.3,36.6L69.3,36.6c0,0.3-0.1,0.6-0.1,0.9l0,0c0,2.6,1.4,4.8,3.4,6c1.4-1,2.7-2.2,3.9-3.5l0,0
		C74.3,38.5,71.8,37.4,69.3,36.6L69.3,36.6"/>
	<path style="fill:#0077A9;" d="M82.9,35.4L82.9,35.4c-2.4,1-4.1,3.3-4.3,5.9c0.7,0.5,1.3,1,1.9,1.5l0,0l0,0
		c1.6-1.3,2.6-3.2,2.6-5.5l0,0C83.2,36.7,83.1,36.1,82.9,35.4L82.9,35.4"/>
	<path style="fill:#0076A9;" d="M78.6,41.4L78.6,41.4c0,0.2,0,0.3,0,0.5l0,0c0,0.7,0.1,1.4,0.3,2c0.6-0.2,1.1-0.6,1.6-1l0,0
		C79.9,42.4,79.3,41.8,78.6,41.4L78.6,41.4"/>
	<circle style="fill:#68BC48;" cx="104" cy="92.4" r="10.1"/>
	<polyline style="fill:#273017;" points="59.6,25.2 39.9,246.3 74.8,246.2 60.5,25.2 59.6,25.2 	"/>
	<polyline style="fill:#273017;" points="90.8,55.4 57.2,98 65,111.7 92.7,56.3 90.8,55.4 	"/>
	<polyline style="fill:#273017;" points="35.4,44.2 60.9,65.7 55.3,71.7 34.4,44.9 35.4,44.2 	"/>
	<polyline style="fill:#273017;" points="34.4,67.3 26.1,91.5 32.1,93.2 35.4,67.4 34.4,67.3 	"/>
	<polyline style="fill:#273017;" points="99.5,89.3 80,72.8 76.2,77.8 99,90.2 99.5,89.3 	"/>
	<path style="fill:#93BE3E;" d="M40.3,103.3c-0.9,0.7-1.9,1.4-3,2c1,8.1,6.3,14.9,13.5,17.9l0.9-10.4L40.3,103.3 M74.7,97.2
		c-1,0.6-2.1,1.1-3.2,1.5L66,109.6l0.9,14.1c8.8-3,15.2-11.4,15.2-21.3c0-1.4-0.1-2.8-0.4-4.2c-0.1,0-0.3,0-0.4,0
		C79,98.3,76.7,97.9,74.7,97.2"/>
	<path style="fill:#273017;" d="M63.3,108.7l-6.3,8.4l-5.2-4.3l-0.9,10.4c2.7,1.1,5.7,1.8,8.8,1.8c2.6,0,5-0.4,7.3-1.2L66,109.6
		l-1,2.1L63.3,108.7 M54.1,100.7l6.5,3.4l-1.8-3.1C57.3,101.1,55.7,101,54.1,100.7"/>
	<path style="fill:#273017;" d="M71.4,98.7c-3.8,1.6-8,2.4-12.4,2.4c0,0-0.1,0-0.1,0l1.8,3.1l4.3,2.3l-1.7,2.3l1.7,3l1-2.1
		L71.4,98.7"/>
	<path style="fill:#273017;" d="M44.7,97.8c-1.1,2.1-2.6,4-4.4,5.5l11.5,9.5l5.2,4.3l6.3-8.4l1.7-2.3l-4.3-2.3l-6.5-3.4
		C50.8,100.2,47.6,99.2,44.7,97.8"/>
	<path style="fill:#BED972;" d="M59.6,2.7c-12.4,0-22.5,10.1-22.5,22.5c0,0.3,0,0.6,0,0.9C43,27,47.9,31,50.2,36.3
		c2.6-0.7,5.4-1.1,8.2-1.2c-5-0.6-8.8-4.8-8.8-9.9c0-5.5,4.5-10,10-10s10,4.5,10,10c0,5-3.7,9.1-8.4,9.8l0,0.1
		c2.8,0.2,5.5,0.7,8.1,1.5c0.4-3.5,3.4-6.1,6.9-6.1c1.8,0,3.5,0.7,4.7,1.9c0.8-2.3,1.2-4.7,1.2-7.2C82.1,12.7,72,2.7,59.6,2.7"/>
	<path style="fill:#273017;" d="M61.1,35c-0.2,0-0.4,0.1-0.6,0.1c0.2,0,0.4,0,0.7,0L61.1,35"/>
	<path style="fill:#BED972;" d="M87.4,48.7c-0.5,0.1-0.9,0.2-1.4,0.2c0.4,0.5,0.7,1,1,1.6c0.1-0.1,0.2-0.3,0.3-0.4c0,0,0-0.1,0-0.1
		C87.3,49.5,87.4,49.1,87.4,48.7 M106.7,46.6c0.4,1.1,0.6,2.2,0.6,3.4c0,5.5-4.5,10-10,10c0,0-0.1,0-0.1,0c-1.2,1-2.8,1.6-4.5,1.6
		c-0.4,0-0.9,0-1.3-0.1c0,0.1,0,0.2,0.1,0.3c3.7,2.2,6.5,5.6,8.1,9.6c5.8-2.8,9.8-8.7,9.8-15.5C109.4,52.4,108.4,49.2,106.7,46.6
		 M92.1,38.6c-0.2,0-0.3,0-0.4,0c0.4,0.8,0.7,1.7,0.8,2.6c1.4-0.8,3.1-1.2,4.8-1.2c0.8,0,1.5,0.1,2.2,0.2
		C97.3,39.2,94.7,38.6,92.1,38.6"/>
	<path style="fill:#BED972;" d="M93.6,94c-3.2,2.6-7.2,4.2-11.6,4.3c3.1,4.6,8.4,7.7,14.4,7.7c5.5,0,10.4-2.6,13.6-6.6
		c-1.4,1.1-3.2,1.8-5.2,1.8c-3.1,0-5.8-1.7-7.2-4.3C95.9,96.4,94.5,95.4,93.6,94 M99.8,71.8c0.8,2.1,1.2,4.4,1.2,6.8
		c0,1.6-0.2,3.2-0.6,4.7c1.3,0.2,2.6,0.7,3.6,1.6c0.3,0,0.5,0,0.8,0c4.5,0,8.2,3.7,8.2,8.2c0,0.2,0,0.3,0,0.5
		c0.4-1.5,0.7-3.1,0.7-4.8C113.7,80.3,107.7,73.3,99.8,71.8"/>
	<path style="fill:#BED972;" d="M34.4,25.9c-9.5,0-17.3,7.7-17.3,17.3c0,5.5,2.6,10.5,6.7,13.6c1.1-2,3.2-3.4,5.7-3.5
		c0.5-1,1-2,1.6-2.9C29.2,49.1,28,47,28,44.5c0-3.9,3.1-7,7-7c2.4,0,4.5,1.2,5.8,3.1c0.5-0.4,1.1-0.7,1.6-1c-3.1-3.7-5-8.4-5.2-13.5
		C36.2,26,35.3,25.9,34.4,25.9"/>
	<path style="fill:#8EC74D;" d="M37.1,26.1c0.2,5.1,2.1,9.8,5.2,13.5c2.5-1.4,5.1-2.6,7.9-3.3C47.9,31,43,27,37.1,26.1"/>
	<path style="fill:#BED972;" d="M26.1,66.1c0,0.7-0.1,1.3-0.1,2c0,1.6,0.1,3.3,0.3,4.8c0.9-0.1,1.7-0.2,2.6-0.2
		c-1.4-1.3-2.2-3.1-2.2-5.1c0-0.4,0-0.7,0.1-1.1C26.6,66.4,26.3,66.2,26.1,66.1 M44.2,57.4c-2.1,1.5-4.6,2.4-7.3,2.8
		c0,0.4,0,0.7-0.1,1c2.3,1.1,3.9,3.5,3.9,6.3c0,3-1.9,5.5-4.5,6.5c4.5,2,8.1,5.9,9.6,10.6c1.1-0.8,2.2-1.6,3.4-2.2
		c-4.7-3.1-7.9-8.4-7.9-14.5c0-3.8,1.2-7.2,3.2-10.1L44.2,57.4 M51.4,46.1c-0.5,3.1-1.9,6-3.9,8.3l0.3,0.2c2.6-2.1,5.9-3.5,9.5-3.8
		l0.3-3.3C55.4,47.4,53.4,46.9,51.4,46.1 M72.6,43.5c-3.1,2.2-6.7,3.6-10.7,4l0.2,3.6c5.2,1.1,9.5,4.5,11.9,9.1
		c0.4-0.2,0.8-0.3,1.3-0.5c-0.3-1.3-0.5-2.6-0.5-4c0-4.3,1.6-8.3,4.2-11.3c-0.1-0.2-0.1-0.4-0.2-0.6c-0.8,0.3-1.7,0.5-2.7,0.5
		C74.9,44.5,73.7,44.1,72.6,43.5"/>
	<path style="fill:#273017;" d="M61.9,47.5c-0.8,0.1-1.6,0.1-2.3,0.1c-0.7,0-1.3,0-2-0.1l-0.3,3.3c0.4,0,0.9,0,1.3,0
		c1.2,0,2.4,0.1,3.6,0.4L61.9,47.5"/>
	<path style="fill:#273017;" d="M47.5,54.4c-1,1.1-2.1,2.2-3.4,3l0.4,0.6c0.9-1.3,2-2.4,3.2-3.4L47.5,54.4"/>
	<path style="fill:#6CB444;" d="M72.6,96.3l-1.2,2.4c1.1-0.4,2.2-1,3.2-1.5C74,96.9,73.3,96.6,72.6,96.3 M49.2,82.6
		c-1.2,0.6-2.3,1.4-3.4,2.2c0.5,1.6,0.8,3.4,0.8,5.2c0,2.2-0.4,4.3-1.2,6.2l7.5,3.9l1.4-15.3C52.5,84.3,50.7,83.6,49.2,82.6"/>
	<path style="fill:#273017;" d="M54.3,84.8l-1.4,15.3l1.2,0.7c1.6,0.2,3.2,0.4,4.8,0.4L57.2,98l7.3-9.2c-0.7-1.2-1.4-2.6-1.8-3.9
		c-1.3,0.3-2.6,0.5-4,0.5C57.1,85.3,55.7,85.1,54.3,84.8"/>
	<path style="fill:#273017;" d="M64.4,88.8L57.2,98l1.7,3.1c0,0,0.1,0,0.1,0c4.4,0,8.6-0.9,12.4-2.4l1.2-2.4
		C69.2,94.6,66.4,92,64.4,88.8"/>
	<path style="fill:#273017;" d="M45.4,96.1c-0.2,0.6-0.5,1.1-0.7,1.7c2.9,1.4,6.1,2.4,9.4,2.9l-1.2-0.7L45.4,96.1"/>
	<path style="fill:#8EC74D;" d="M61.1,35.1l0.8,12.4c3.9-0.4,7.6-1.8,10.7-4c-2-1.2-3.4-3.4-3.4-6c0-0.3,0-0.6,0.1-0.9
		C66.7,35.8,63.9,35.3,61.1,35.1 M58.5,35.1c-2.8,0-5.6,0.5-8.2,1.2c0.9,2.1,1.4,4.5,1.4,6.9c0,1-0.1,2-0.3,3c1.9,0.8,4,1.2,6.2,1.4
		l1.1-12.5C58.6,35.1,58.6,35.1,58.5,35.1"/>
	<path style="fill:#273017;" d="M58.7,35.1l-1.1,12.5c0.7,0.1,1.3,0.1,2,0.1c0.8,0,1.6,0,2.3-0.1l-0.8-12.4c-0.2,0-0.4,0-0.7,0
		c-0.3,0-0.6,0-0.9,0C59.3,35.1,59,35.1,58.7,35.1"/>
	<path style="fill:#8EC74D;" d="M90.5,61.2c0.3,0.2,0.6,0.3,0.9,0.5c0-0.1,0-0.2-0.1-0.3C91.1,61.4,90.8,61.3,90.5,61.2 M79.1,44.5
		c-2.6,3-4.2,7-4.2,11.3c0,1.4,0.2,2.7,0.5,4c1.9-0.6,3.9-0.9,6-0.9c2.1,0,4.1,0.3,6,0.9l0.3-0.4c-1.2-1.3-2-3-2-4.8
		c0-1.5,0.5-2.9,1.3-4.1c-0.3-0.5-0.7-1-1-1.6c-0.1,0-0.3,0-0.4,0C82.6,48.9,80.1,47.1,79.1,44.5"/>
	<path style="fill:#273017;" d="M87.6,59.4l-0.3,0.4c0.5,0.2,1.1,0.4,1.6,0.6C88.4,60.1,88,59.8,87.6,59.4"/>
	<path style="fill:#8EC74D;" d="M31.2,50.4c-0.6,0.9-1.1,1.9-1.6,2.9c0.1,0,0.3,0,0.4,0c3.9,0,7,3.1,7,7v0c2.7-0.4,5.1-1.4,7.3-2.8
		l-5.5-7c-1.1,0.7-2.4,1.1-3.7,1.1C33.6,51.5,32.3,51.1,31.2,50.4 M42.3,39.6c-0.5,0.3-1.1,0.7-1.6,1c0.7,1.1,1.2,2.4,1.2,3.9
		c0,1.5-0.5,2.9-1.3,4.1l6.9,5.9c2-2.3,3.4-5.1,3.9-8.3C47.9,44.8,44.8,42.5,42.3,39.6"/>
	<path style="fill:#273017;" d="M40.6,48.5c-0.5,0.7-1.2,1.4-1.9,1.8l5.5,7c1.2-0.9,2.4-1.9,3.4-3L40.6,48.5"/>
	<path style="fill:#68BC48;" d="M50.2,36.3c-2.8,0.8-5.5,1.9-7.9,3.3c2.4,2.9,5.5,5.1,9.1,6.5c0.2-1,0.3-2,0.3-3
		C51.7,40.7,51.2,38.4,50.2,36.3"/>
	<path style="fill:#8EC74D;" d="M44.6,58c-2,2.8-3.2,6.3-3.2,10.1c0,6.1,3.1,11.4,7.9,14.5c1.7-0.9,3.5-1.6,5.4-2l0.8-9l-0.2,0.2
		L44.6,58 M62.2,51.2l1.2,19.1c2.1-4.5,5.9-8.1,10.6-10C71.7,55.7,67.4,52.3,62.2,51.2 M57.3,50.9c-3.6,0.3-6.9,1.6-9.5,3.8l8.5,7.2
		L57.3,50.9"/>
	<path style="fill:#273017;" d="M58.6,50.8c-0.4,0-0.9,0-1.3,0l-1,11l4.5,3.8l-5.4,5.8l-0.8,9c1.6-0.4,3.2-0.5,4.9-0.5
		c0.7,0,1.4,0,2,0.1c0-0.5-0.1-1-0.1-1.5c0-3,0.7-5.8,1.8-8.3l-1.2-19.1C61,50.9,59.8,50.8,58.6,50.8"/>
	<path style="fill:#273017;" d="M47.8,54.6c-1.2,1-2.3,2.1-3.2,3.4l10.7,13.7l0.2-0.2l5.4-5.8l-4.5-3.8L47.8,54.6"/>
	<path style="fill:#48AD48;" d="M54.6,80.6c-1.9,0.4-3.7,1.1-5.4,2c1.5,1,3.2,1.8,5.1,2.2L54.6,80.6"/>
	<path style="fill:#273017;" d="M59.6,80c-1.7,0-3.4,0.2-4.9,0.5l-0.4,4.2c1.4,0.4,2.8,0.6,4.3,0.6c1.4,0,2.7-0.2,4-0.5
		c-0.5-1.5-0.8-3.1-1-4.8C61,80,60.3,80,59.6,80"/>
	<path style="fill:#BED972;" d="M22.9,89c-1.1,0.7-2.4,1.3-3.8,1.5c-1.1,0.8-2.5,1.3-4,1.3c-1.1,0-2.1-0.2-2.9-0.7
		c0.6,9,8.1,16.1,17.2,16.1c2.9,0,5.6-0.7,8-1.9c-0.1-0.9-0.2-1.8-0.2-2.8c0-0.6,0-1.2,0.1-1.7L22.9,89 M32.8,88.1l-0.2,1.3l2.3,1.2
		C34.2,89.8,33.5,88.9,32.8,88.1 M26.4,72.9c-0.7,0.1-1.4,0.3-2.1,0.5c1.9,1.8,3.1,4.4,3.1,7.2c0,1.9-0.5,3.7-1.5,5.2l1.8,0.9
		l1.5-4.5C27.9,79.4,26.9,76.2,26.4,72.9"/>
	<path style="fill:#273017;" d="M25.9,85.9c-0.8,1.2-1.8,2.3-3,3.1l14.3,11.8c0.2-2.3,0.7-4.6,1.5-6.7c-1.4-1.1-2.6-2.2-3.8-3.5
		l-2.3-1.2l-0.5,3.8l-6-1.8l1.6-4.6L25.9,85.9"/>
	<path style="fill:#273017;" d="M29.3,82.3l-1.5,4.5l-1.6,4.6l6,1.8l0.5-3.8l0.2-1.3C31.4,86.3,30.2,84.3,29.3,82.3"/>
	<path style="fill:#6CB444;" d="M37.2,100.8c0,0.6-0.1,1.1-0.1,1.7c0,0.9,0.1,1.9,0.2,2.8c1.1-0.6,2-1.2,3-2L37.2,100.8"/>
	<path style="fill:#273017;" d="M38.7,94.1c-0.8,2.1-1.4,4.3-1.5,6.7l3.1,2.5c1.8-1.5,3.3-3.4,4.4-5.5
		C42.6,96.8,40.6,95.5,38.7,94.1"/>
	<path style="fill:#8EC74D;" d="M36.2,74.1c-0.6,0.2-1.1,0.4-1.8,0.4l-1.7,13.6c0.7,0.9,1.4,1.7,2.1,2.5l4.4,2.3
		c1.5-3.2,3.8-6,6.5-8.2C44.3,80,40.8,76.1,36.2,74.1 M29,72.7c-0.9,0-1.8,0.1-2.6,0.2c0.5,3.3,1.5,6.5,2.9,9.4l2.7-8
		C30.9,74,29.8,73.4,29,72.7"/>
	<path style="fill:#273017;" d="M34.9,90.6c1.2,1.3,2.5,2.4,3.8,3.5c0.2-0.4,0.3-0.8,0.5-1.2L34.9,90.6"/>
	<path style="fill:#273017;" d="M32,74.3l-2.7,8c1,2,2.2,4,3.5,5.8l1.7-13.6c-0.2,0-0.5,0-0.7,0C33.2,74.5,32.6,74.5,32,74.3"/>
	<path style="fill:#48AD48;" d="M45.8,84.7c-2.8,2.2-5,4.9-6.5,8.2l6.2,3.3c0.7-1.9,1.2-4,1.2-6.2C46.6,88.1,46.3,86.4,45.8,84.7"/>
	<path style="fill:#273017;" d="M39.3,92.9c-0.2,0.4-0.4,0.8-0.5,1.2c1.8,1.4,3.8,2.7,6,3.7c0.3-0.5,0.5-1.1,0.7-1.7L39.3,92.9"/>
	<path style="fill:#8EC74D;" d="M97.3,40c-1.7,0-3.4,0.4-4.8,1.2c0,0.3,0,0.5,0,0.8c0,3.2-2.2,5.9-5.1,6.7c0,0.4-0.1,0.8-0.1,1.2
		c0,0,0,0.1,0,0.1c1.3-1.5,3.2-2.5,5.3-2.5c3.9,0,7,3.1,7,7c0,2.1-1,4.1-2.5,5.3c0,0,0.1,0,0.1,0c5.5,0,10-4.5,10-10
		c0-1.2-0.2-2.3-0.6-3.4c-1.7-2.7-4.2-4.9-7.2-6.3C98.8,40.1,98.1,40,97.3,40"/>
	<path style="fill:#8EC74D;" d="M59.6,15.2c-5.5,0-10,4.5-10,10c0,5.1,3.9,9.3,8.8,9.9c0.1,0,0.2,0,0.2,0l0.9-9.9h0.9l0.6,9.8
		c4.8-0.7,8.4-4.9,8.4-9.8C69.6,19.7,65.1,15.2,59.6,15.2"/>
	<path style="fill:#273017;" d="M60.5,25.2h-0.9l-0.9,9.9c0.1,0,0.2,0,0.3,0c0.5,0,0.9,0,1.4,0c0.2,0,0.4,0,0.6-0.1L60.5,25.2"/>
	<path style="fill:#68BC48;" d="M58.7,35.1c-0.1,0-0.2,0-0.2,0C58.6,35.1,58.6,35.1,58.7,35.1L58.7,35.1"/>
	<path style="fill:#273017;" d="M59.1,35.1c-0.1,0-0.2,0-0.3,0l0,0c0.3,0,0.6,0,0.9,0c0.3,0,0.6,0,0.9,0
		C60,35.1,59.5,35.1,59.1,35.1"/>
	<path style="fill:#BED972;" d="M17.4,70.7c-2.5,0-4.8,0.9-6.6,2.5c2.7,0.3,5,2.2,5.8,4.8c0.1,0,0.1,0,0.2,0.1
		c2-2.1,4.6-3.7,7.5-4.6C22.5,71.7,20.1,70.7,17.4,70.7"/>
	<path style="fill:#8EC74D;" d="M21.4,87.7c-0.5,1.1-1.3,2.1-2.3,2.8c1.4-0.2,2.7-0.8,3.8-1.5L21.4,87.7 M24.3,73.4
		c-2.9,0.9-5.4,2.5-7.5,4.6c2.7,0.7,4.7,3,5.1,5.8l4,2.1c0.9-1.5,1.5-3.3,1.5-5.2C27.4,77.8,26.2,75.2,24.3,73.4"/>
	<path style="fill:#BED972;" d="M23.8,56.8c-0.6,1-0.9,2.2-0.9,3.4c0,2.4,1.3,4.6,3.1,5.8c0.1-2.5,0.6-4.9,1.2-7.2
		C26.1,58.3,24.9,57.6,23.8,56.8"/>
	<path style="fill:#8EC74D;" d="M29.5,53.3c-2.4,0.1-4.6,1.5-5.7,3.5c1.1,0.8,2.2,1.5,3.5,2.1C27.9,56.9,28.6,55.1,29.5,53.3"/>
	<path style="fill:#8EC74D;" d="M27.3,58.9c-0.7,2.3-1.1,4.7-1.2,7.2c0.2,0.2,0.5,0.3,0.8,0.4c0.5-3.3,3.4-5.9,6.9-5.9
		c1.1,0,2.1,0.3,3.1,0.7c0.1-0.3,0.1-0.7,0.1-1c-0.8,0.1-1.6,0.2-2.5,0.2C31.9,60.4,29.5,59.9,27.3,58.9"/>
	<path style="fill:#68BC48;" d="M29.9,53.3c-0.1,0-0.3,0-0.4,0c-0.9,1.8-1.6,3.7-2.2,5.6c2.2,1,4.6,1.5,7.1,1.5
		c0.8,0,1.7-0.1,2.5-0.2v0C36.9,56.4,33.8,53.3,29.9,53.3"/>
	<path style="fill:#BED972;" d="M85.6,35c-1,0-1.9,0.2-2.7,0.5c0.2,0.6,0.3,1.3,0.3,2c0,2.2-1,4.2-2.6,5.5l0,0
		c3-2.7,6.8-4.3,11.1-4.4C90.5,36.4,88.2,35,85.6,35"/>
	<path style="fill:#8EC74D;" d="M91.7,38.6c-4.3,0.1-8.2,1.8-11.1,4.4c2,1.7,3.9,3.7,5.4,5.9c0.5,0,1-0.1,1.4-0.2
		c0.4-3.2,2.4-6,5.1-7.5C92.4,40.3,92.1,39.4,91.7,38.6"/>
	<path style="fill:#8EC74D;" d="M80.5,43c-0.5,0.4-1,0.7-1.6,1c0.1,0.2,0.1,0.4,0.2,0.6C79.5,44,80,43.5,80.5,43L80.5,43"/>
	<path style="fill:#68BC48;" d="M80.5,43c-0.5,0.5-1,1-1.5,1.5c1,2.6,3.5,4.4,6.5,4.4c0.1,0,0.3,0,0.4,0
		C84.4,46.7,82.6,44.8,80.5,43"/>
	<path style="fill:#68BC48;" d="M92.5,41.2c-2.7,1.5-4.7,4.3-5.1,7.5c3-0.8,5.1-3.5,5.1-6.7C92.5,41.7,92.5,41.5,92.5,41.2"/>
	<path style="fill:#8EC74D;" d="M36.8,61.3c-0.5,3.3-3.4,5.9-6.9,5.9c-1.1,0-2.1-0.3-3.1-0.7c-0.1,0.3-0.1,0.7-0.1,1.1
		c0,2,0.8,3.8,2.2,5.1c0.1,0,0.2,0,0.3,0c1.1,0,2.1,0.1,3.1,0.3l1.9-5.7l1,0.1l-0.8,6.1c0.6,0.2,1.1,0.4,1.6,0.6
		c2.6-1,4.5-3.5,4.5-6.5C40.7,64.8,39.1,62.4,36.8,61.3"/>
	<path style="fill:#273017;" d="M34.4,67.3l-1.9,5.7c0.7,0.1,1.5,0.3,2.1,0.5l0.8-6.1L34.4,67.3"/>
	<path style="fill:#68BC48;" d="M34.6,73.5l-0.1,1c0.6-0.1,1.2-0.2,1.8-0.4C35.7,73.9,35.2,73.7,34.6,73.5 M29.3,72.7
		c-0.1,0-0.2,0-0.3,0c0.8,0.8,1.9,1.4,3,1.7l0.5-1.4C31.4,72.8,30.4,72.7,29.3,72.7"/>
	<path style="fill:#273017;" d="M32.5,72.9L32,74.3c0.6,0.2,1.2,0.2,1.8,0.2c0.2,0,0.5,0,0.7,0l0.1-1C33.9,73.3,33.2,73.1,32.5,72.9
		"/>
	<path style="fill:#68BC48;" d="M33.8,60.6c-3.5,0-6.4,2.6-6.9,5.9c0.9,0.5,2,0.7,3.1,0.7c3.5,0,6.4-2.6,6.9-5.9
		C35.9,60.8,34.9,60.6,33.8,60.6"/>
	<path style="fill:#BED972;" d="M81.5,97.4c0.1,0.3,0.1,0.6,0.2,0.9c0.1,0,0.2,0,0.4,0C81.8,98,81.7,97.7,81.5,97.4 M99.6,71.4
		c-0.2,0.1-0.4,0.2-0.6,0.3c0.3,0,0.5,0.1,0.8,0.1C99.7,71.6,99.7,71.5,99.6,71.4"/>
	<path style="fill:#6CB444;" d="M79.9,93.7c-1.6,1.3-3.3,2.5-5.2,3.5c2.1,0.7,4.3,1.1,6.6,1.1c0.1,0,0.3,0,0.4,0
		c-0.1-0.3-0.1-0.6-0.2-0.9C80.8,96.3,80.3,95,79.9,93.7"/>
	<path style="fill:#8EC74D;" d="M91.5,61.7c0.4,2.1,0.6,4.2,0.6,6.3c0,1.3-0.1,2.7-0.2,4c1.5-0.4,3-0.6,4.6-0.6
		c0.9,0,1.8,0.1,2.6,0.2c0.2-0.1,0.4-0.2,0.6-0.3C98,67.3,95.1,64,91.5,61.7"/>
	<path style="fill:#8EC74D;" d="M87.9,84.1c-2,3.6-4.6,6.7-7.7,9.3c0.6,1.3,1,2.6,1.3,4c0.2,0.3,0.3,0.6,0.5,0.9
		c4.4-0.2,8.4-1.8,11.6-4.3c-0.7-1.1-1.1-2.4-1.1-3.8c0-1.1,0.3-2.2,0.7-3.1L87.9,84.1 M99,71.6c-2.1,0.9-4.5,1.4-6.9,1.4
		c-0.1,0-0.3,0-0.4,0c-0.4,2.7-1.2,5.3-2.2,7.8l5.1,4.3c1.3-1.2,3-2,4.9-2c0.3,0,0.6,0,0.9,0.1c0.4-1.5,0.6-3.1,0.6-4.7
		c0-2.4-0.4-4.7-1.2-6.8C99.5,71.7,99.3,71.7,99,71.6"/>
	<path style="fill:#273017;" d="M89.5,80.9c-0.5,1.1-1,2.2-1.6,3.3l5.4,2.9c0.3-0.7,0.8-1.3,1.4-1.9L89.5,80.9"/>
	<path style="fill:#48AD48;" d="M80.2,93.5c-0.1,0.1-0.2,0.2-0.3,0.3c0.4,1.3,0.9,2.6,1.6,3.7C81.2,96.1,80.7,94.7,80.2,93.5"/>
	<path style="fill:#68BC48;" d="M96.4,71.5c-1.6,0-3.1,0.2-4.6,0.6c0,0.3-0.1,0.7-0.1,1c0.1,0,0.3,0,0.4,0c2.5,0,4.8-0.5,6.9-1.4
		C98.2,71.5,97.3,71.5,96.4,71.5"/>
	<path style="fill:#8EC74D;" d="M80.7,80.2L76.8,88c1,1.2,1.9,2.5,2.6,3.9c-0.2-1-0.3-2.1-0.3-3.2c0-3,0.8-5.8,2.1-8.2L80.7,80.2
		 M85,71.6l-1.9,3.9l1.2,1c1.5-1.5,3.3-2.7,5.2-3.5C87.9,72.7,86.4,72.2,85,71.6 M75.3,59.8c-0.4,0.1-0.9,0.3-1.3,0.5
		c1.2,2.3,1.9,5,1.9,7.8c0,5.7-2.8,10.8-7,13.9c0.2,0.1,0.5,0.2,0.7,0.3l10.9-13.8C77.9,66.3,76.1,63.2,75.3,59.8"/>
	<path style="fill:#273017;" d="M80.4,68.5L69.6,82.3c2.8,1.4,5.3,3.3,7.2,5.7l3.9-7.8l-4.5-2.5l3.8-5l3.1,2.6l1.9-3.9
		C83.3,70.8,81.8,69.8,80.4,68.5"/>
	<path style="fill:#273017;" d="M80,72.8l-3.8,5l4.5,2.5l0.5,0.3c0.8-1.5,1.9-2.9,3.1-4.1l-1.2-1L80,72.8"/>
	<path style="fill:#48AD48;" d="M76.8,88l-4.2,8.3c0.7,0.3,1.3,0.6,2,0.9c1.8-1,3.6-2.2,5.2-3.5c-0.2-0.6-0.3-1.2-0.4-1.8
		C78.7,90.5,77.8,89.2,76.8,88 M68.8,82c-1.4,1-2.9,1.8-4.5,2.4l0.3,4.2l4.9-6.3C69.3,82.2,69.1,82.1,68.8,82"/>
	<path style="fill:#273017;" d="M64.3,84.4c-0.6,0.2-1.1,0.4-1.7,0.5c0.5,1.4,1.1,2.7,1.8,3.9l0.2-0.2L64.3,84.4"/>
	<path style="fill:#273017;" d="M69.6,82.3l-4.9,6.3l-0.2,0.2c2,3.2,4.8,5.8,8.2,7.5l4.2-8.3C74.8,85.7,72.3,83.7,69.6,82.3"/>
	<path style="fill:#68BC48;" d="M90.3,61.1L85,71.6c1.4,0.6,2.9,1.1,4.5,1.3c0.8-0.3,1.5-0.6,2.3-0.8c0.2-1.3,0.2-2.6,0.2-4
		c0-2.2-0.2-4.3-0.6-6.3c-0.3-0.2-0.6-0.4-0.9-0.5C90.4,61.2,90.4,61.2,90.3,61.1 M81.3,58.9c-2.1,0-4.1,0.3-6,0.9
		c0.8,3.4,2.6,6.4,5.1,8.7l6.9-8.7C85.4,59.2,83.4,58.9,81.3,58.9"/>
	<path style="fill:#273017;" d="M87.3,59.8l-6.9,8.7c1.4,1.2,2.9,2.3,4.6,3l5.2-10.5c-0.5-0.2-1-0.4-1.4-0.7
		C88.4,60.2,87.8,60,87.3,59.8"/>
	<path style="fill:#68BC48;" d="M81.2,80.5c-1.3,2.4-2.1,5.2-2.1,8.2c0,1.1,0.1,2.2,0.3,3.2c0.3,0.5,0.5,1,0.7,1.5
		c3.1-2.6,5.7-5.7,7.7-9.3L81.2,80.5 M89.5,72.9c-2,0.9-3.7,2.1-5.2,3.5l5.2,4.4c1-2.5,1.8-5.1,2.2-7.8C90.9,73.1,90.2,73,89.5,72.9
		"/>
	<path style="fill:#273017;" d="M84.3,76.4c-1.2,1.2-2.2,2.6-3.1,4.1l6.7,3.6c0.6-1.1,1.1-2.2,1.6-3.3L84.3,76.4"/>
	<path style="fill:#1CA84B;" d="M79.4,91.9c0.1,0.6,0.3,1.2,0.4,1.8c0.1-0.1,0.2-0.2,0.3-0.3C80,92.9,79.7,92.4,79.4,91.9"/>
	<path style="fill:#3FB44A;" d="M91.8,72.1c-0.8,0.2-1.6,0.5-2.3,0.8c0.7,0.1,1.5,0.2,2.2,0.2C91.8,72.7,91.8,72.4,91.8,72.1"/>
	<path style="fill:#68BC48;" d="M74,60.3c-4.7,1.9-8.5,5.5-10.6,10l0.7,10.2c1.7,0.3,3.2,0.9,4.8,1.5c4.3-3.1,7-8.2,7-13.9
		C75.9,65.3,75.2,62.6,74,60.3"/>
	<path style="fill:#273017;" d="M63.4,70.3c-1.2,2.5-1.8,5.3-1.8,8.3c0,0.5,0,1,0.1,1.5c0.8,0.1,1.6,0.2,2.4,0.4L63.4,70.3"/>
	<path style="fill:#1CA84B;" d="M64.1,80.5l0.3,3.9c1.6-0.6,3.1-1.4,4.5-2.4C67.3,81.3,65.7,80.8,64.1,80.5"/>
	<path style="fill:#8EC74D;" d="M34.9,37.5c-3.9,0-7,3.1-7,7c0,2.5,1.3,4.6,3.2,5.9c1.1-1.7,2.3-3.3,3.7-4.8l-0.5-0.6l1-0.8l0.5,0.4
		c1.5-1.5,3.1-2.8,4.8-3.9C39.5,38.7,37.3,37.5,34.9,37.5"/>
	<path style="fill:#273017;" d="M35.4,44.2l-1,0.8l0.5,0.6c0.3-0.3,0.7-0.7,1-1L35.4,44.2"/>
	<path style="fill:#68BC48;" d="M34.9,45.6c-1.4,1.5-2.6,3.1-3.7,4.8c1.1,0.7,2.4,1.1,3.7,1.1c1.4,0,2.7-0.4,3.7-1.1L34.9,45.6
		 M40.7,40.6c-1.7,1.2-3.4,2.5-4.8,3.9l4.7,4c0.8-1.1,1.3-2.5,1.3-4.1C41.9,43.1,41.5,41.7,40.7,40.6"/>
	<path style="fill:#273017;" d="M35.9,44.5c-0.3,0.3-0.7,0.7-1,1l3.8,4.8c0.8-0.5,1.4-1.1,1.9-1.8L35.9,44.5"/>
	<path style="fill:#8EC74D;" d="M97,90.5c-1,1.3-2.1,2.4-3.3,3.4c0.9,1.4,2.3,2.5,3.9,2.9c-0.6-1.2-1-2.5-1-3.9
		C96.6,92.1,96.7,91.3,97,90.5 M100.4,83.3c-0.3,1.4-0.8,2.7-1.4,3.9c1.3-1.3,3-2.1,4.9-2.3C103,84,101.8,83.5,100.4,83.3"/>
	<path style="fill:#68BC48;" d="M93.3,87.1c-0.5,0.9-0.7,2-0.7,3.1c0,1.4,0.4,2.7,1.1,3.8c1.3-1,2.4-2.2,3.3-3.4
		c0.1-0.4,0.3-0.8,0.5-1.2L93.3,87.1 M99.5,83.2c-1.9,0-3.6,0.8-4.9,2l3.5,3c0.3-0.4,0.6-0.7,0.9-1c0.6-1.2,1.1-2.5,1.4-3.9
		C100.1,83.2,99.8,83.2,99.5,83.2"/>
	<path style="fill:#273017;" d="M94.6,85.2c-0.6,0.5-1,1.2-1.4,1.9l4.2,2.3c0.2-0.4,0.4-0.8,0.7-1.1L94.6,85.2"/>
	<path style="fill:#8EC74D;" d="M91.7,58.2L91,59.7c0.2,0.6,0.3,1.2,0.4,1.8c0.4,0.1,0.8,0.1,1.3,0.1c1.7,0,3.3-0.6,4.5-1.6
		C95.2,59.9,93.3,59.3,91.7,58.2 M87.3,50.1c-0.1,0.1-0.2,0.3-0.3,0.4c0.1,0.2,0.3,0.4,0.4,0.6C87.4,50.8,87.3,50.4,87.3,50.1"/>
	<path style="fill:#273017;" d="M90.1,56.8c0.3,0.9,0.6,1.9,0.9,2.8l0.7-1.5C91.1,57.8,90.6,57.4,90.1,56.8"/>
	<path style="fill:#68BC48;" d="M91,59.7l-0.7,1.4c0.1,0,0.2,0.1,0.3,0.1c0.3,0.1,0.6,0.2,0.9,0.2C91.3,60.8,91.1,60.3,91,59.7
		 M87,50.5c-0.8,1.1-1.3,2.6-1.3,4.1c0,1.9,0.7,3.6,2,4.8l2.2-2.8c-1.3-1.5-2.2-3.4-2.5-5.4C87.3,50.9,87.1,50.7,87,50.5"/>
	<path style="fill:#273017;" d="M89.9,56.6l-2.2,2.8c0.4,0.4,0.8,0.7,1.2,1c0.5,0.2,1,0.4,1.4,0.7l0.7-1.4c-0.2-1-0.5-1.9-0.9-2.8
		C90,56.8,90,56.7,89.9,56.6"/>
	<path style="fill:#68BC48;" d="M92.7,47.6c-2.1,0-4.1,1-5.3,2.5c0,0.4,0,0.7,0.1,1.1c1,1.7,1.9,3.5,2.6,5.3l0.8-1l1.9,0.9l-0.9,1.9
		c1.6,1.1,3.4,1.7,5.4,1.7c1.5-1.3,2.5-3.2,2.5-5.3C99.6,50.7,96.5,47.6,92.7,47.6"/>
	<path style="fill:#273017;" d="M90.8,55.4l-0.8,1c0,0.1,0.1,0.3,0.1,0.4c0.5,0.5,1,1,1.6,1.4l0.9-1.9L90.8,55.4"/>
	<path style="fill:#3FB44A;" d="M87.4,51.1c0.2,2.1,1.1,4,2.5,5.4l0.1-0.1C89.3,54.6,88.4,52.8,87.4,51.1"/>
	<path style="fill:#273017;" d="M90,56.5l-0.1,0.1c0.1,0.1,0.2,0.2,0.2,0.3C90.1,56.7,90,56.6,90,56.5"/>
	<path style="fill:#3FB44A;" d="M90.3,61.1L90.3,61.1c0.1,0.1,0.2,0.1,0.3,0.1C90.5,61.2,90.4,61.1,90.3,61.1"/>
	<path style="fill:#273017;" d="M88.9,60.4c0.4,0.3,0.9,0.5,1.4,0.7l0,0C89.8,60.8,89.3,60.6,88.9,60.4"/>
	<path style="fill:#BED972;" d="M80.9,32.4c-1,2.8-2.5,5.4-4.4,7.6c0.7,0.5,1.4,0.9,2.1,1.4c0.2-2.7,1.9-4.9,4.3-5.9
		C82.5,34.3,81.8,33.2,80.9,32.4"/>
	<path style="fill:#8EC74D;" d="M76.2,30.5c-3.6,0-6.5,2.7-6.9,6.1c2.6,0.8,5,2,7.2,3.4c1.9-2.2,3.5-4.8,4.4-7.6
		C79.7,31.2,78,30.5,76.2,30.5"/>
	<path style="fill:#8EC74D;" d="M76.5,40c-1.1,1.3-2.4,2.5-3.9,3.5c1,0.6,2.3,1,3.6,1c1,0,1.9-0.2,2.7-0.5c-0.2-0.6-0.3-1.3-0.3-2
		c0-0.2,0-0.3,0-0.5C77.9,41,77.2,40.5,76.5,40"/>
	<path style="fill:#68BC48;" d="M69.2,36.7c0,0.3-0.1,0.6-0.1,0.9c0,2.6,1.4,4.8,3.4,6c1.4-1,2.7-2.2,3.9-3.5
		C74.2,38.6,71.8,37.5,69.2,36.7"/>
	<path style="fill:#8EC74D;" d="M82.9,35.5c-2.4,1-4.1,3.3-4.3,5.9c0.7,0.5,1.3,1,1.9,1.5c1.6-1.3,2.6-3.2,2.6-5.5
		C83.1,36.8,83,36.2,82.9,35.5"/>
	<path style="fill:#68BC48;" d="M78.6,41.5c0,0.2,0,0.3,0,0.5c0,0.7,0.1,1.3,0.3,2c0.6-0.2,1.1-0.6,1.6-1
		C79.9,42.5,79.3,42,78.6,41.5"/>
	<path style="fill:#68BC48;" d="M173.2,199.8c1.1-2.1,1.7-4.5,1.7-7.1c0-1.2-0.1-2.4-0.4-3.5c1.2-0.7,2-2,2-3.5c0,0,0,0,0-0.1
		c0.9-0.7,1.5-1.9,1.5-3.2c0-2.2-1.8-4-4-4c-0.5,0-0.9,0.1-1.3,0.2c-0.7-0.6-1.6-1-2.7-1c-1.3,0-2.4,0.6-3.1,1.5
		c-0.8-0.4-1.6-0.8-2.4-1.1c0-0.3,0-0.5,0-0.8c0-2.4-1.2-4.6-3-5.9c0.3-0.8,0.5-1.6,0.6-2.5c2.5-0.8,4.5-2.4,5.8-4.6
		c0.7,0.2,1.3,0.3,2.1,0.3c4,0,7.2-3.2,7.2-7.2s-3.2-7.2-7.2-7.2c-1.4,0-2.8,0.4-3.9,1.2c-1.7-1.6-3.8-2.6-6.2-2.8
		c1.7-1.3,2.8-3.4,2.8-5.7c0-4-3.2-7.2-7.2-7.2c-3.8,0-7,3-7.2,6.8c-0.1,0-0.2-0.1-0.3-0.1c0.2-0.8,0.3-1.7,0.3-2.6
		c0-3.1-1.3-5.8-3.4-7.8c-0.2-3.8-3.3-6.9-7.2-6.9s-7,3-7.2,6.9c-2.1,1.9-3.4,4.7-3.4,7.8c0,1.2,0.2,2.4,0.6,3.5
		c-2.5,1.3-4.8,3.1-6.7,5.2c-1.2-0.9-2.5-1.6-3.9-2c-1.3-1.7-3.4-2.8-5.7-2.8c-3.8,0-7,3-7.2,6.8c-1.7,2.1-2.8,4.8-2.8,7.7
		c0,1.7,0.3,3.3,1,4.8c-1.5,0.7-2.9,1.7-3.8,3.1l0,0l-3.2-1.2l0,0l2.9,1c0.2-0.6,0.3-1.3,0.3-2c0-4-3.2-7.2-7.2-7.2
		c-4,0-7.2,3.2-7.2,7.2c0,4,3.2,7.2,7.2,7.2c0.1,0,0.3,0,0.4,0c-2.3,1.9-3.8,4.8-3.8,8.1c0,0.9,0.1,1.8,0.3,2.7
		c-0.7,1.1-1.1,2.4-1.1,3.8c0,4,3.2,7.2,7.2,7.2c2.6,0,4.9-1.4,6.2-3.5c4.1-0.9,7.4-4.2,8.1-8.4c0.9,1.3,2,2.3,3.4,3
		c0,0.3-0.1,0.6-0.1,0.9c0,2.7,1.5,5.1,3.8,6.3c-0.2,0.8-0.4,1.6-0.4,2.5c0,4.4,3.2,8,7.3,8.7c0.5,4,2.7,7.6,5.7,9.9
		c0.1,0.1,0.2,0.1,0.3,0.2l5.7,4.1l6.7,2.6l8.2-9.2c0.6-0.7,1.1-1.4,1.5-2.2c0.6-0.3,1.2-0.7,1.8-1.1c2.1,1,4.4,1.6,6.8,1.6
		c1.2,0,2.4-0.1,3.5-0.4c0.7,3.3,3.6,5.8,7.1,5.8c4,0,7.2-3.2,7.2-7.2C177.2,203.4,175.6,201,173.2,199.8z M156.7,145.8l0.7,2.9l0,0
		l-1.6-6.9L156.7,145.8z M155.3,146.2l0.1,3l0,0l0-2.1L155.3,146.2z M136.8,139.5l0.4-3.7l0.3-2.5l-0.8,7.4c0,0,0,0,0,0L136.8,139.5
		z M93.9,167.1L93.9,167.1l2.8,1.7c0,0-0.1,0-0.1,0c0,0,0,0,0,0L93.9,167.1z"/>
	<path style="fill:#8EC74D;" d="M141.2,129.8c0.3,0.6,0.5,1.3,0.5,2c0,1.9-1.4,3.6-3.2,3.9l0.5,3.7c3.3-0.6,5.9-3.5,5.9-7.1
		c0-0.1,0-0.2,0-0.3C143.9,131,142.6,130.3,141.2,129.8 M134.3,129.8c-1.4,0.5-2.7,1.3-3.7,2.2c0,0.1,0,0.2,0,0.3
		c0,3.7,2.8,6.7,6.3,7.1l0.4-3.7c-2-0.2-3.5-1.9-3.5-4C133.7,131,133.9,130.4,134.3,129.8"/>
	<path style="fill:#BED972;" d="M111.5,143.6c2.3,0,4.4,1.1,5.7,2.8c-1.1-0.3-2.3-0.5-3.5-0.5c-3.8,0-7.2,1.7-9.4,4.4
		C104.5,146.6,107.6,143.6,111.5,143.6"/>
	<path style="fill:#BED972;" d="M91.4,156.6c4,0,7.2,3.2,7.2,7.2c0,0.7-0.1,1.4-0.3,2l-2.9-1c0.1-0.3,0.1-0.6,0.1-0.9
		c0-2.2-1.8-4-4-4c-2.2,0-4,1.8-4,4c0,2.2,1.8,4,4,4c0.9,0,1.7-0.3,2.4-0.8l2.7,1.7c0,0,0,0,0,0c-1.8,0.3-3.4,1.1-4.7,2.2
		c-0.1,0-0.3,0-0.4,0c-4,0-7.2-3.2-7.2-7.2C84.2,159.8,87.5,156.6,91.4,156.6"/>
	<polyline style="fill:#273017;" points="138.2,133.2 154,250.8 124.5,250.8 137.6,133.2 138.2,133.2 	"/>
	<polyline style="fill:#273017;" points="91.8,163.5 140.4,181 135.6,192.7 90.8,165.2 91.8,163.5 	"/>
	<polyline style="fill:#273017;" points="112,150.6 120.2,174.7 114.2,176.5 111,150.8 112,150.6 	"/>
	<polyline style="fill:#273017;" points="174.4,183.4 144.1,208.3 138.4,200.7 173.7,182.1 174.4,183.4 	"/>
	<polyline style="fill:#273017;" points="169.6,156.2 136.1,160.4 137.8,169.6 170,157.5 169.6,156.2 	"/>
	<polyline style="fill:#273017;" points="170.3,207.1 156.4,195 159.5,191.7 170.9,206.6 170.3,207.1 	"/>
	<polyline style="fill:#273017;" points="94.5,185.9 105.9,171.4 109.3,174.4 95,186.5 94.5,185.9 	"/>
	<polyline style="fill:#273017;" points="94.1,173.8 103,179 101.6,181.2 93.9,174.1 94.1,173.8 	"/>
	<polyline style="fill:#273017;" points="155.8,141.8 159.5,157.8 155.5,158.5 155.2,141.8 155.8,141.8 	"/>
	<path style="fill:#BED972;" d="M162.1,168.9c-1,0.3-2,0.5-3.1,0.5c-0.2,0-0.5,0-0.7,0c0.1,0.3,0.2,0.6,0.3,0.8
		c1.1,0.2,2,0.6,2.9,1.2C161.7,170.6,161.9,169.8,162.1,168.9 M127.8,143.3c-2.5,1.3-4.8,3.1-6.7,5.2c1.5,1.2,2.8,2.7,3.6,4.5
		c0.4-0.1,0.7-0.1,1.1-0.1c1.7,0,3.3,0.6,4.5,1.6c1.4-1.2,3.1-2.2,5-2.6l0.2-1.8C132,149.4,129,146.7,127.8,143.3 M148,142.4
		c-0.9,3.7-3.8,6.6-7.5,7.6l0.2,1.7c3.4,0.6,6.3,2.5,8.1,5.2c0.6-3,2.5-5.6,5.1-7c-3.2-0.7-5.6-3.6-5.6-7c0-0.1,0-0.3,0-0.4
		C148.2,142.5,148.1,142.4,148,142.4"/>
	<path style="fill:#273017;" d="M140.5,150l0.2,1.7c-0.7-0.1-1.4-0.2-2.2-0.2c-1.1,0-2.1,0.1-3.1,0.4l0.2-1.8
		c0.7,0.1,1.4,0.2,2.1,0.2C138.7,150.3,139.6,150.2,140.5,150"/>
	<path style="fill:#8EC74D;" d="M135.4,151.9c-1.9,0.5-3.6,1.4-5,2.6c1.6,1.3,2.7,3.3,2.7,5.6c0,1.3-0.4,2.6-1,3.6
		c0.7,0.6,1.3,1.2,1.8,2L135.4,151.9 M140.7,151.7l1.1,8l6.8-0.9c0-0.6,0.1-1.3,0.2-1.9C146.9,154.2,144,152.3,140.7,151.7"/>
	<path style="fill:#273017;" d="M138.5,151.5c0.7,0,1.5,0.1,2.2,0.2l1.1,8l-5.6,0.7l0.9,5.4c-1,0-2,0.2-3,0.4
		c-0.1-0.1-0.1-0.2-0.2-0.4l1.6-13.8C136.4,151.6,137.4,151.5,138.5,151.5"/>
	<path style="fill:#273017;" d="M148.6,158.8c0,0.1,0,0.1,0,0.2c0,1.8,0.4,3.4,1.2,4.9c-2.4,0.1-4.6,1.2-6.2,2.9
		c-1.9-0.6-3.8-1-5.9-1c-0.2,0-0.4,0-0.6,0l-0.9-5.4l5.6-0.7L148.6,158.8"/>
	<path style="fill:#273017;" d="M126.4,184.5c1.4,0.9,3,1.6,4.6,2.2c-0.3,0.1-0.5,0.3-0.8,0.4c-1.1-1-2.4-1.7-3.8-2.1
		c0-0.1,0-0.2,0-0.3C126.4,184.7,126.4,184.6,126.4,184.5"/>
	<path style="fill:#8EC74D;" d="M144.4,179.4l0.2,1.3c0.3-0.2,0.6-0.4,0.9-0.5C145.1,179.9,144.8,179.6,144.4,179.4 M132.6,176.9
		c-0.3,0.3-0.7,0.6-1.1,0.9l0.9,0.3L132.6,176.9"/>
	<path style="fill:#273017;" d="M133.7,175.5c1.5,0.6,3.1,0.9,4.8,0.9c1.2,0,2.3-0.2,3.4-0.5c0.5,1.3,1.4,2.5,2.5,3.4l0.2,1.3
		c-1.7,1.1-2.8,2.9-3.1,5c-0.9-0.2-1.9-0.4-2.8-0.4l1.7-4.2l-8-2.9l0.1-1.2C133,176.5,133.4,176,133.7,175.5"/>
	<path style="fill:#273017;" d="M131.5,177.8l0.9,0.3l8,2.9l-1.7,4.2c-0.3,0-0.6,0-0.9,0c-2.4,0-4.7,0.6-6.7,1.6
		c-1.6-0.6-3.2-1.3-4.6-2.2c-0.1-1.7-0.7-3.3-1.8-4.5c0.1-0.2,0.3-0.5,0.4-0.7c0.5,0.1,0.9,0.1,1.4,0.1
		C128.3,179.4,130,178.8,131.5,177.8"/>
	<path style="fill:#273017;" d="M137.1,165.7l0.7,3.9l5.1-1.9c-0.9,1.4-1.5,3.1-1.5,4.9c0,1.2,0.2,2.3,0.6,3.3
		c-1.1,0.3-2.2,0.5-3.4,0.5c-1.7,0-3.3-0.3-4.8-0.9c1-1.4,1.5-3.1,1.5-4.9c0-1.6-0.4-3.1-1.2-4.4C135,165.9,136.1,165.8,137.1,165.7
		"/>
	<path style="fill:#273017;" d="M137.7,165.7c2.1,0,4,0.3,5.9,1c-0.3,0.3-0.6,0.7-0.8,1l-5.1,1.9l-0.7-3.9
		C137.3,165.7,137.5,165.7,137.7,165.7"/>
	<path style="fill:#BED972;" d="M150.9,207.7c-0.8,0.4-1.6,0.7-2.5,0.9l0.3,2.1C149.5,209.7,150.2,208.7,150.9,207.7 M129.4,200.7
		c-1.4,1-3.2,1.7-5.2,1.7c-0.5,0-1,0-1.5-0.1c0.5,4,2.7,7.6,5.7,9.9l1.3-11.3C129.7,200.9,129.5,200.8,129.4,200.7"/>
	<path style="fill:#273017;" d="M129.8,200.9c2,1,4.2,1.6,6.5,1.7c1.7,3.6,5.4,6.2,9.7,6.2c0.8,0,1.6-0.1,2.3-0.3l0.3,2.1
		c-2.7,2.9-6.6,4.7-10.9,4.7c-3.5,0-6.7-1.2-9.2-3.1L129.8,200.9"/>
	<path style="fill:#8EC74D;" d="M129.9,200.4l-0.1,0.5c-0.1-0.1-0.3-0.1-0.4-0.2C129.6,200.6,129.7,200.5,129.9,200.4"/>
	<path style="fill:#273017;" d="M141.5,187.9c0,0.1,0,0.3,0.1,0.4c-3.7,1.7-6.3,5.4-6.3,9.8c0,1.6,0.4,3.2,1,4.6
		c-2.3-0.2-4.5-0.8-6.5-1.7l0.1-0.5c2-1.6,3.2-4.1,3.2-6.8c0-0.9-0.1-1.8-0.4-2.6l2.9,1.8l1.9-4.7c0.4,0,0.9,0,1.3,0
		C139.7,188,140.6,188,141.5,187.9"/>
	<path style="fill:#273017;" d="M131,186.7c2,0.7,4.2,1.1,6.5,1.3l-1.9,4.7l-2.9-1.8c-0.5-1.5-1.3-2.8-2.4-3.8
		C130.5,187,130.8,186.8,131,186.7"/>
	<path style="fill:#273017;" d="M138.7,185.2c1,0.1,1.9,0.2,2.8,0.4c0,0.3-0.1,0.7-0.1,1c0,0.4,0,0.8,0.1,1.3
		c-0.9,0.1-1.8,0.1-2.7,0.1c-0.4,0-0.9,0-1.3,0L138.7,185.2"/>
	<path style="fill:#273017;" d="M137.7,185.1c0.3,0,0.6,0,0.9,0l-1.2,2.8c-2.3-0.1-4.4-0.6-6.5-1.3
		C133.1,185.7,135.3,185.1,137.7,185.1"/>
	<path style="fill:#BED972;" d="M102.5,162.9c1.3,3,3.8,5.4,6.8,6.6c-0.1,0.1-0.1,0.2-0.2,0.2l-10.5-3.8
		C99.6,164.6,100.9,163.5,102.5,162.9"/>
	<path style="fill:#273017;" d="M98.6,165.9l10.5,3.8c-0.7,0.9-1.3,2-1.6,3.1l-1.6-1.4l-0.1,0.2c-1.9-1.9-4.5-3-7.3-3
		c-0.4,0-0.8,0-1.2,0.1C97.6,167.7,98,166.8,98.6,165.9"/>
	<path style="fill:#273017;" d="M105.9,171.4l1.6,1.4c-0.1,0.2-0.1,0.5-0.2,0.7c-0.4-0.7-1-1.3-1.5-1.9L105.9,171.4"/>
	<path style="fill:#BED972;" d="M112.4,178.4l1.9,1.1c-1.1,1.1-1.9,2.6-2.1,4.2c-1.4-0.7-2.5-1.7-3.4-3c0-0.1,0-0.2,0.1-0.4
		C110.1,180,111.4,179.3,112.4,178.4"/>
	<path style="fill:#273017;" d="M117.9,175.4c0.4,0.7,0.8,1.4,1.3,2.1c-1.9,0-3.6,0.8-4.9,2l-1.9-1.1c0.7-0.6,1.3-1.3,1.8-2.1l0,0.2
		L117.9,175.4"/>
	<path style="fill:#273017;" d="M115.8,170.1c0.5,1.9,1.2,3.7,2.1,5.3l-3.7,1.1l0-0.2c0.9-1.4,1.4-3.1,1.4-4.9c0-0.4,0-0.9-0.1-1.3
		C115.6,170.1,115.7,170.1,115.8,170.1"/>
	<path style="fill:#273017;" d="M118.9,175.1c0.5,0.8,1.1,1.5,1.7,2.1c-0.1,0.2-0.1,0.3-0.2,0.5c-0.4-0.1-0.8-0.1-1.2-0.1
		c0,0-0.1,0-0.1,0c-0.5-0.7-0.9-1.4-1.3-2.1L118.9,175.1"/>
	<path style="fill:#273017;" d="M117.7,169.6c0,0.3-0.1,0.6-0.1,0.9c0,1.7,0.5,3.2,1.3,4.6l-1,0.3c-0.9-1.7-1.6-3.5-2.1-5.3
		C116.4,170,117.1,169.8,117.7,169.6"/>
	<path style="fill:#273017;" d="M123.2,178.8c0.5,0.3,1,0.8,1.4,1.2c0.1-0.2,0.3-0.5,0.4-0.7C124.4,179.1,123.8,179,123.2,178.8
		 M120.6,177.2c-0.1,0.2-0.1,0.3-0.2,0.5c0.4,0.1,0.8,0.2,1.2,0.3C121.3,177.7,121,177.5,120.6,177.2"/>
	<path style="fill:#8EC74D;" d="M108.4,176c0.3,1,0.4,2,0.4,3c0,0.5,0,0.9-0.1,1.4c1.3-0.4,2.6-1.1,3.6-2L108.4,176 M109.3,169.5
		c-0.1,0.1-0.1,0.2-0.2,0.2l4.4,1.6l-0.1-1C112,170.2,110.6,170,109.3,169.5"/>
	<path style="fill:#273017;" d="M109.1,169.7l4.4,1.6l0.6,5c-0.5,0.8-1.1,1.5-1.8,2.1l-4-2.4c-0.1-0.2-0.1-0.4-0.2-0.7l1.1-1
		l-1.8-1.6C107.8,171.7,108.4,170.6,109.1,169.7"/>
	<path style="fill:#273017;" d="M115.5,170.1c0.1,0.4,0.1,0.9,0.1,1.3c0,1.8-0.5,3.5-1.4,4.9l-0.6-5l-0.1-1c0.1,0,0.2,0,0.3,0
		C114.3,170.3,114.9,170.2,115.5,170.1"/>
	<path style="fill:#273017;" d="M107.5,172.8l1.8,1.6l-1.1,1c-0.2-0.6-0.5-1.2-0.9-1.8C107.4,173.3,107.4,173,107.5,172.8"/>
	<path style="fill:#BED972;" d="M156.8,198.2c0,3.4-1.6,6.4-4.1,8.4c2.1,1,4.4,1.6,6.8,1.6c1.2,0,2.4-0.1,3.5-0.4
		c-0.1-0.5-0.1-0.9-0.1-1.4c0-1.7,0.6-3.2,1.5-4.4l-3.7-3.2c-0.4,0.1-0.7,0.1-1.1,0.1C158.5,198.8,157.6,198.6,156.8,198.2
		 M169.1,187.7l-3.8,3.1c0.2,0.6,0.3,1.2,0.3,1.8c0,1.8-0.7,3.3-1.9,4.5l2.4,3.2c1.1-0.8,2.5-1.2,4-1.2c1.1,0,2.2,0.3,3.1,0.7
		c1.1-2.1,1.7-4.5,1.7-7.1c0-1.2-0.1-2.4-0.4-3.5c-0.6,0.3-1.2,0.5-2,0.5C171.1,189.7,169.8,188.9,169.1,187.7 M164.5,178.1
		c-0.4,3.6-3.5,6.4-7.1,6.4c-0.4,0-0.8,0-1.1-0.1c0,1.2-0.1,2.3-0.3,3.4c1-0.8,2.3-1.2,3.6-1.2c1.3,0,2.5,0.4,3.5,1.1l5-2.6
		c-1.1-0.7-1.9-2-1.9-3.4c0-0.9,0.3-1.8,0.9-2.5C166.1,178.8,165.3,178.4,164.5,178.1"/>
	<path style="fill:#273017;" d="M167.9,185.1c0.2,0.1,0.4,0.2,0.6,0.3c0,0.1,0,0.2,0,0.3c0,0.8,0.2,1.5,0.6,2.1l-3.8,3.1
		c-0.4-1.3-1.2-2.4-2.3-3.2L167.9,185.1"/>
	<path style="fill:#273017;" d="M163.6,197.1l2.4,3.2c-0.7,0.4-1.2,1-1.7,1.6l-3.7-3.2C161.8,198.5,162.8,197.9,163.6,197.1"/>
	<path style="fill:#8EC74D;" d="M155.4,184.2c0.3,0.1,0.5,0.1,0.8,0.2c0,1.2-0.1,2.3-0.3,3.4c-0.1,0.1-0.1,0.1-0.2,0.2
		c0.1-0.4,0.1-0.9,0.1-1.3C155.8,185.8,155.6,185,155.4,184.2"/>
	<path style="fill:#8EC74D;" d="M158.3,196.7l-1.5,1.2c0,0.1,0,0.1,0,0.2c0,0,0,0.1,0,0.1c0.8,0.4,1.7,0.6,2.7,0.6
		c0.4,0,0.8,0,1.1-0.1L158.3,196.7 M165.3,190.9l-4,3.3l2.3,3c1.2-1.1,1.9-2.7,1.9-4.5C165.6,192.1,165.5,191.5,165.3,190.9
		 M159.5,186.6c-1.4,0-2.6,0.4-3.6,1.2c-0.3,1.3-0.7,2.6-1.2,3.8c0.1,0.1,0.2,0.2,0.2,0.3l8.1-4.2C162,187,160.8,186.6,159.5,186.6"
		/>
	<path style="fill:#273017;" d="M156.4,195c0.3,0.9,0.4,1.9,0.4,2.9l1.5-1.2L156.4,195 M163,187.7l-8.1,4.2c0.6,0.9,1.1,2,1.5,3.1
		l3.1-3.3l1.9,2.4l4-3.3C164.9,189.6,164.1,188.5,163,187.7"/>
	<path style="fill:#273017;" d="M159.5,191.7l1.9,2.4l2.3,3c-0.8,0.8-1.9,1.3-3,1.5l-2.3-2l-1.9-1.6l0,0L159.5,191.7"/>
	<path style="fill:#68BC48;" d="M155.9,187.8c-0.3,1.3-0.7,2.6-1.2,3.8c-0.1-0.2-0.3-0.4-0.4-0.5c0.7-0.9,1.2-2,1.4-3.1
		C155.7,187.9,155.8,187.9,155.9,187.8"/>
	<path style="fill:#BED972;" d="M137.7,125.1c3.9,0,7,3,7.2,6.9c-1.1-1-2.3-1.7-3.7-2.2c-0.7-1.2-2-2-3.5-2s-2.8,0.8-3.5,2
		c-1.4,0.5-2.7,1.3-3.7,2.2C130.7,128.2,133.9,125.1,137.7,125.1"/>
	<path style="fill:#BED972;" d="M144.9,132c0,0.1,0,0.2,0,0.3c0,3.5-2.5,6.5-5.9,7.1l0.2,1.1c3.1,0,6.1,0.7,8.8,1.8
		c0.2-0.8,0.3-1.7,0.3-2.6C148.3,136.7,147,133.9,144.9,132 M130.5,132c-2.1,1.9-3.4,4.7-3.4,7.8c0,1.2,0.2,2.4,0.6,3.5
		c2.7-1.4,5.7-2.4,8.9-2.6l0.1-1.2c-3.6-0.4-6.3-3.5-6.3-7.1C130.5,132.2,130.5,132.1,130.5,132"/>
	<path style="fill:#8EC74D;" d="M136.7,140.6c-3.2,0.3-6.2,1.2-8.9,2.6c1.2,3.5,4.2,6.1,7.9,6.8L136.7,140.6 M139.2,140.5l1.3,9.4
		c3.7-1,6.6-3.9,7.5-7.6C145.3,141.2,142.3,140.6,139.2,140.5"/>
	<path style="fill:#273017;" d="M138.8,140.5c0.1,0,0.2,0,0.4,0l1.3,9.4c-0.9,0.2-1.8,0.4-2.7,0.4c-0.7,0-1.4-0.1-2.1-0.2l1.1-9.5
		C137.4,140.6,138.1,140.5,138.8,140.5"/>
	<path style="fill:#BED972;" d="M116.6,155.8c-0.7,0.7-1.5,1.2-2.4,1.6l1.1,3.2C115.6,158.9,116.1,157.3,116.6,155.8 M104.3,150.4
		c-1.7,2.1-2.8,4.8-2.8,7.7c0,1.7,0.3,3.3,1,4.8c1.1-0.5,2.4-0.8,3.7-0.8c2.5,0,4.8,1,6.5,2.7l-0.8-6.8c-0.1,0-0.3,0-0.4,0
		c-4,0-7.2-3.2-7.2-7.2C104.3,150.7,104.3,150.5,104.3,150.4 M117.2,146.5c0.9,1.2,1.5,2.7,1.5,4.4c0,0.4,0,0.7-0.1,1.1
		c0.7-1.2,1.6-2.3,2.5-3.4C119.9,147.6,118.6,146.9,117.2,146.5"/>
	<path style="fill:#8EC74D;" d="M113.7,145.9c1.2,0,2.4,0.2,3.5,0.5c0.9,1.2,1.5,2.7,1.5,4.4c0,0.4,0,0.7-0.1,1.1
		c-0.8,1.2-1.4,2.6-1.9,3.9c-0.7,0.7-1.5,1.2-2.4,1.6l-1-3c1.3-0.7,2.2-2,2.2-3.6c0-2.2-1.8-4-4-4c-2.2,0-4,1.8-4,4c0,2.2,1.8,4,4,4
		c0,0,0,0,0,0l0.4,3.2c-0.1,0-0.3,0-0.4,0c-4,0-7.2-3.2-7.2-7.2c0-0.1,0-0.3,0-0.4C106.5,147.7,109.9,145.9,113.7,145.9"/>
	<path style="fill:#273017;" d="M113.2,154.4l1,3l1.1,3.2c-0.2,1.2-0.3,2.4-0.3,3.7c0,0.7,0,1.3,0.1,2c-0.4,0-0.7,0.1-1.1,0.2
		c-0.4-0.6-0.9-1.2-1.4-1.7l-0.8-6.8l-0.4-3.2C112.1,154.8,112.7,154.7,113.2,154.4"/>
	<path style="fill:#8EC74D;" d="M121.1,148.5c1.5,1.2,2.8,2.7,3.6,4.5c-3.4,0.5-6.1,3.5-6.1,7.1c0,1.6,0.5,3.1,1.4,4.3
		c-0.6,0.6-1.1,1.3-1.4,2c-0.4-0.1-0.9-0.2-1.4-0.2l-1.9-5.6c0.3-1.7,0.7-3.3,1.3-4.8c1-1.1,1.7-2.4,1.9-3.9
		C119.3,150.7,120.2,149.5,121.1,148.5"/>
	<path style="fill:#68BC48;" d="M118.6,151.9c-0.2,1.5-0.9,2.9-1.9,3.9C117.2,154.4,117.8,153.1,118.6,151.9"/>
	<path style="fill:#273017;" d="M115.4,160.6l1.9,5.6c-0.3,0-0.5,0-0.8,0c-0.4,0-0.9,0-1.3,0.1c-0.1-0.7-0.1-1.3-0.1-2
		C115.1,163,115.2,161.8,115.4,160.6"/>
	<path style="fill:#8EC74D;" d="M106.2,162.1c2.5,0,4.8,1,6.5,2.7l0.3,2.1c-1.4,0.6-2.7,1.5-3.7,2.6c-3.1-1.2-5.6-3.6-6.8-6.6
		C103.6,162.4,104.9,162.1,106.2,162.1"/>
	<path style="fill:#273017;" d="M112.7,164.8c0.5,0.5,1,1.1,1.4,1.7c-0.4,0.1-0.8,0.2-1.1,0.4L112.7,164.8"/>
	<path style="fill:#273017;" d="M115.2,166.3c0.1,1.3,0.3,2.6,0.6,3.8c-0.1,0-0.2,0-0.3,0.1c-0.2-1.3-0.7-2.6-1.3-3.7
		C114.5,166.4,114.8,166.3,115.2,166.3"/>
	<path style="fill:#68BC48;" d="M117.3,166.2c0.5,0,0.9,0.1,1.4,0.2c-0.3,0.5-0.5,1.1-0.7,1.7L117.3,166.2"/>
	<path style="fill:#273017;" d="M116.4,166.2c0.3,0,0.6,0,0.8,0l0.7,2c-0.1,0.5-0.2,0.9-0.3,1.4c-0.6,0.2-1.2,0.4-1.9,0.5
		c-0.3-1.2-0.5-2.5-0.6-3.8C115.6,166.2,116,166.2,116.4,166.2"/>
	<path style="fill:#68BC48;" d="M113,166.8l0.4,3.4c-1.4,0-2.8-0.3-4.1-0.8C110.3,168.3,111.6,167.4,113,166.8"/>
	<path style="fill:#273017;" d="M114.1,166.5c0.7,1.1,1.2,2.3,1.3,3.7c-0.6,0.1-1.2,0.1-1.8,0.1c-0.1,0-0.2,0-0.3,0l-0.4-3.4
		C113.4,166.7,113.7,166.6,114.1,166.5"/>
	<path style="fill:#BED972;" d="M151.7,206c0.3,0.2,0.7,0.4,1,0.5c-0.6,0.4-1.2,0.8-1.8,1.1C151.2,207.1,151.4,206.6,151.7,206"/>
	<path style="fill:#8EC74D;" d="M149.2,204.2c0.8,0.7,1.6,1.3,2.5,1.8c-0.2,0.6-0.5,1.1-0.8,1.7c-0.8,0.4-1.6,0.7-2.5,0.9l-0.5-3.3
		L149.2,204.2"/>
	<path style="fill:#273017;" d="M139.8,202.6l4.3,5.8l3.8-3.1l0.5,3.3c-0.7,0.2-1.5,0.3-2.3,0.3c-4.3,0-8-2.5-9.7-6.2
		c0.5,0,0.9,0.1,1.4,0.1C138.4,202.7,139.1,202.7,139.8,202.6"/>
	<path style="fill:#273017;" d="M146.3,200.6c0.8,1.3,1.8,2.5,2.9,3.6l-1.3,1l-3.8,3.1l-4.3-5.8
		C142.1,202.3,144.3,201.6,146.3,200.6"/>
	<path style="fill:#273017;" d="M141.6,188.3c0.4,1.6,1.3,3,2.5,4c0,0.2,0,0.3,0,0.5c0,1.6,0.2,3.1,0.7,4.6l-6.4,3.4l1.4,1.9
		c-0.7,0.1-1.4,0.1-2.1,0.1c-0.5,0-0.9,0-1.4-0.1c-0.7-1.4-1-3-1-4.6C135.3,193.7,137.9,189.9,141.6,188.3"/>
	<path style="fill:#273017;" d="M144.8,197.3c0.4,1.2,0.9,2.3,1.5,3.3c-2,1-4.1,1.7-6.5,2l-1.4-1.9L144.8,197.3"/>
	<path style="fill:#8EC74D;" d="M156.6,198.1c0.1,0,0.1,0.1,0.2,0.1c0,3.4-1.6,6.4-4.1,8.4c-0.3-0.2-0.7-0.3-1-0.5
		c0.6-1.5,1-3.1,1.1-4.8L156.6,198.1"/>
	<path style="fill:#273017;" d="M153.5,193.8c0.3,1.8,1.5,3.4,3.1,4.2l-3.8,3.1c0-0.3,0-0.6,0-1c0-1.6-0.2-3-0.7-4.5
		C152.6,195.2,153.1,194.5,153.5,193.8"/>
	<path style="fill:#68BC48;" d="M153.4,191.9c0,0.3,0,0.5,0,0.8c0,0,0,0,0,0l-2,1.1c-0.1-0.2-0.2-0.3-0.2-0.5
		C152,193,152.8,192.5,153.4,191.9"/>
	<path style="fill:#273017;" d="M153.4,192.7c0,0.4,0,0.7,0.1,1.1c-0.4,0.7-0.9,1.3-1.4,1.9c-0.2-0.7-0.5-1.3-0.8-2L153.4,192.7"/>
	<path style="fill:#68BC48;" d="M152.8,201.2c-0.1,1.7-0.5,3.3-1.1,4.8c-0.9-0.5-1.7-1.1-2.5-1.8L152.8,201.2"/>
	<path style="fill:#273017;" d="M152.1,195.8c0.4,1.4,0.7,2.9,0.7,4.5c0,0.3,0,0.6,0,1l-3.6,3c-1.1-1-2.1-2.2-2.9-3.6
		C148.5,199.4,150.5,197.8,152.1,195.8"/>
	<path style="fill:#3FB44A;" d="M151.1,193.3c0.1,0.2,0.2,0.3,0.2,0.5l-4.7,2.5l-0.4-2.8c0.7,0.2,1.5,0.4,2.3,0.4
		C149.5,193.8,150.4,193.6,151.1,193.3"/>
	<path style="fill:#273017;" d="M144.1,192.2c0.7,0.5,1.4,1,2.3,1.2l0.4,2.8l-1.9,1c-0.5-1.4-0.7-3-0.7-4.6
		C144.1,192.5,144.1,192.4,144.1,192.2"/>
	<path style="fill:#273017;" d="M151.4,193.8c0.3,0.6,0.6,1.3,0.8,2c-1.6,2-3.6,3.6-5.9,4.8c-0.6-1-1.1-2.2-1.5-3.3l1.9-1
		L151.4,193.8"/>
	<path style="fill:#68BC48;" d="M156.8,197.9l-0.2,0.2c0.1,0,0.1,0.1,0.2,0.1c0,0,0-0.1,0-0.1C156.8,198,156.8,197.9,156.8,197.9
		 M154.7,191.6c-0.1,0.2-0.2,0.4-0.3,0.6l0.5-0.3C154.8,191.8,154.8,191.7,154.7,191.6"/>
	<path style="fill:#273017;" d="M154.9,191.9c0.6,0.9,1.1,2,1.5,3.1l0,0l0,0c0.3,0.9,0.4,1.9,0.4,2.9l-0.2,0.2
		c-1.6-0.9-2.7-2.4-3.1-4.2c0.3-0.5,0.6-1.1,0.9-1.6L154.9,191.9"/>
	<polyline style="fill:#273017;" points="156.4,195 156.4,195 156.4,195 156.4,195 	"/>
	<path style="fill:#3FB44A;" d="M154.2,191.1c0.1,0.2,0.3,0.4,0.4,0.5c-0.1,0.2-0.2,0.4-0.3,0.6l-1,0.5c0,0,0,0,0,0
		c0-0.3,0-0.5,0-0.8C153.7,191.7,154,191.4,154.2,191.1"/>
	<path style="fill:#273017;" d="M154.4,192.2c-0.3,0.6-0.6,1.1-0.9,1.6c-0.1-0.4-0.1-0.7-0.1-1.1L154.4,192.2"/>
	<path style="fill:#BED972;" d="M170,150.2c4,0,7.2,3.2,7.2,7.2s-3.2,7.2-7.2,7.2c-0.7,0-1.4-0.1-2.1-0.3c0.6-1,1-2.1,1.2-3.3
		c0.2,0,0.4,0.1,0.7,0.1c2.2,0,4-1.8,4-4s-1.8-4-4-4c-0.7,0-1.4,0.2-2,0.5c-0.5-0.8-1.1-1.6-1.8-2.2
		C167.2,150.6,168.6,150.2,170,150.2"/>
	<path style="fill:#BED972;" d="M161.5,171.4c1.8,1.3,3,3.4,3,5.9c0,0.3,0,0.6,0,0.8c-1.6-0.5-3.2-0.8-5-0.8c-0.3,0-0.5,0-0.8,0
		C159.9,175.5,160.8,173.5,161.5,171.4"/>
	<path style="fill:#8EC74D;" d="M158.6,170.2c1.1,0.2,2,0.6,2.9,1.2c-0.7,2.1-1.6,4.1-2.8,5.9c-0.4,0-0.8,0.1-1.1,0.1
		c0.9-1.4,1.4-3,1.4-4.8C159,171.8,158.8,171,158.6,170.2"/>
	<path style="fill:#8EC74D;" d="M159.5,177.3c1.7,0,3.4,0.3,5,0.8c-0.4,3.6-3.5,6.4-7.1,6.4c-0.4,0-0.8,0-1.1-0.1c0-0.1,0-0.1,0-0.2
		c0-1.2-0.1-2.3-0.3-3.4c1-1.1,2-2.2,2.8-3.5C158.9,177.3,159.2,177.3,159.5,177.3"/>
	<path style="fill:#68BC48;" d="M158.7,177.3c-0.8,1.2-1.8,2.4-2.8,3.5c-0.1-0.4-0.2-0.8-0.3-1.2c0.8-0.6,1.4-1.3,1.9-2.1
		C157.9,177.4,158.3,177.3,158.7,177.3"/>
	<path style="fill:#68BC48;" d="M155.9,180.8c0.2,1.1,0.3,2.3,0.3,3.4c0,0.1,0,0.1,0,0.2c-0.3,0-0.6-0.1-0.8-0.2
		c-0.2-0.7-0.6-1.4-1.1-1.9C154.9,181.8,155.4,181.3,155.9,180.8"/>
	<path style="fill:#3FB44A;" d="M155.6,179.5c0.1,0.4,0.2,0.8,0.3,1.2c-0.5,0.5-1,1-1.6,1.5c-0.4-0.5-0.8-0.9-1.3-1.3
		C154,180.6,154.9,180.2,155.6,179.5"/>
	<path style="fill:#8EC74D;" d="M125.8,152.9c1.7,0,3.3,0.6,4.5,1.6c-2.1,1.8-3.6,4.3-4.1,7.2c-0.3,0-0.7,0-1,0.1
		c0.4-1.2,0.6-2.4,0.6-3.7c0-1.8-0.4-3.6-1.1-5.1C125.1,152.9,125.5,152.9,125.8,152.9"/>
	<path style="fill:#68BC48;" d="M130.4,154.5c1.6,1.3,2.7,3.3,2.7,5.6c0,1.3-0.4,2.6-1,3.6c-1.5-1.3-3.5-2-5.6-2c-0.1,0-0.1,0-0.2,0
		C126.8,158.9,128.3,156.4,130.4,154.5"/>
	<path style="fill:#68BC48;" d="M124.7,153c0.7,1.6,1.1,3.3,1.1,5.1c0,1.3-0.2,2.5-0.6,3.7c-2,0.3-3.8,1.2-5.2,2.6
		c-0.9-1.2-1.4-2.7-1.4-4.3C118.6,156.5,121.3,153.5,124.7,153"/>
	<path style="fill:#68BC48;" d="M145.5,180.1c1.1,0.7,2.2,1.1,3.5,1.3c-1.5,1.4-2.8,3.1-3.6,5.1l-0.8-5.8
		C144.9,180.4,145.2,180.3,145.5,180.1"/>
	<path style="fill:#273017;" d="M144.6,180.6l0.8,5.8c-0.1,0.2-0.2,0.4-0.3,0.6c-1.1-0.6-2.4-1.1-3.7-1.5
		C141.8,183.5,142.9,181.7,144.6,180.6"/>
	<path style="fill:#273017;" d="M145.1,187.2c0,0.1,0,0.1-0.1,0.2c-1.2,0.1-2.4,0.4-3.4,0.9c0-0.1-0.1-0.3-0.1-0.4
		C142.7,187.7,143.9,187.5,145.1,187.2"/>
	<path style="fill:#273017;" d="M141.5,185.6c1.3,0.3,2.5,0.8,3.7,1.5c0,0,0,0.1,0,0.1c-1.2,0.3-2.4,0.5-3.6,0.7
		c-0.1-0.4-0.1-0.8-0.1-1.3C141.4,186.3,141.4,185.9,141.5,185.6"/>
	<path style="fill:#68BC48;" d="M153.2,183.2c0.7,0.5,1.4,0.8,2.2,1c0.3,0.8,0.4,1.6,0.4,2.4c0,0.5,0,0.9-0.1,1.3
		c-0.8,0.7-1.5,1.6-1.9,2.6c-2-2-4.7-3.3-7.7-3.3c-0.2,0-0.4,0-0.5,0l0,0l0-0.2C148.3,186.3,150.9,184.9,153.2,183.2"/>
	<path style="fill:#273017;" d="M145.5,187.1l0,0.2c-0.1-0.1-0.2-0.1-0.3-0.2C145.3,187.1,145.4,187.1,145.5,187.1"/>
	<path style="fill:#3FB44A;" d="M151.4,181.4c0.5,0.7,1.1,1.3,1.8,1.8c-2.3,1.7-4.9,3.1-7.7,3.9l-0.1-0.6c0.9-1.9,2.1-3.7,3.6-5.1
		c0.4,0,0.7,0.1,1.1,0.1C150.6,181.5,151,181.4,151.4,181.4"/>
	<path style="fill:#273017;" d="M145.4,186.5l0.1,0.6c-0.1,0-0.2,0-0.2,0.1c0,0-0.1,0-0.1-0.1C145.2,186.9,145.3,186.7,145.4,186.5"
		/>
	<polyline style="fill:#3FB44A;" points="145.5,187.3 145.5,187.3 145.5,187.3 145.5,187.3 	"/>
	<path style="fill:#273017;" d="M145.2,187.1c0.1,0.1,0.2,0.1,0.3,0.2v0c-0.2,0-0.3,0-0.5,0c0-0.1,0-0.1,0.1-0.2
		C145.1,187.2,145.2,187.2,145.2,187.1"/>
	<path style="fill:#001C00;" d="M145.1,187.1c0,0,0.1,0,0.1,0.1C145.2,187.2,145.1,187.2,145.1,187.1
		C145.1,187.1,145.1,187.1,145.1,187.1"/>
	<path style="fill:#3FB44A;" d="M155.7,188c-0.2,1.2-0.7,2.2-1.4,3.1c-0.1-0.2-0.3-0.3-0.5-0.5C154.2,189.5,154.8,188.6,155.7,188"
		/>
	<path style="fill:#273017;" d="M145,187.3c-0.6,1.5-0.9,3.2-0.9,4.9c-1.2-1-2.1-2.4-2.5-4C142.7,187.8,143.8,187.5,145,187.3"/>
	<path style="fill:#3FB44A;" d="M146,187.3c3,0,5.8,1.3,7.7,3.3c-0.2,0.4-0.3,0.9-0.3,1.3c-0.7,0.6-1.4,1.1-2.3,1.4
		c-1.3-2.5-3.2-4.6-5.6-6C145.7,187.3,145.9,187.3,146,187.3"/>
	<path style="fill:#00B04C;" d="M145.5,187.3c2.4,1.4,4.4,3.5,5.6,6c-0.8,0.3-1.7,0.5-2.6,0.5c-0.8,0-1.6-0.1-2.3-0.4L145.5,187.3
		L145.5,187.3"/>
	<path style="fill:#273017;" d="M145.5,187.3l0.8,6.1c-0.8-0.3-1.6-0.7-2.3-1.2c0.1-1.7,0.4-3.3,0.9-4.9
		C145.2,187.3,145.3,187.3,145.5,187.3"/>
	<path style="fill:#00B04C;" d="M153.8,190.6c0.2,0.2,0.3,0.3,0.5,0.5c-0.2,0.3-0.5,0.6-0.8,0.8C153.5,191.5,153.6,191,153.8,190.6"
		/>
	<path style="fill:#3FB44A;" d="M154.3,182.3c0.4,0.6,0.8,1.2,1.1,1.9c-0.8-0.2-1.5-0.6-2.2-1C153.6,182.9,154,182.6,154.3,182.3"/>
	<path style="fill:#00B04C;" d="M153,181c0.5,0.4,0.9,0.8,1.3,1.3c-0.4,0.3-0.7,0.6-1.1,0.9c-0.7-0.5-1.3-1.1-1.8-1.8
		C152,181.3,152.5,181.1,153,181"/>
	<path style="fill:#BED972;" d="M115.8,191.1c1,0.6,2.2,0.9,3.4,0.9c0.5,0,1.1-0.1,1.6-0.2c0.6,1.5,1.5,2.8,2.5,4
		c-0.4,1.4-0.7,2.9-0.7,4.5c0,0.7,0,1.4,0.1,2c-4.2-0.7-7.3-4.3-7.3-8.7C115.4,192.7,115.6,191.9,115.8,191.1"/>
	<path style="fill:#8EC74D;" d="M126.1,186.9l2.3,1.4c-2.4,1.9-4.2,4.5-5.2,7.5c-1-1.2-1.8-2.6-2.5-4
		C123.3,191.2,125.4,189.3,126.1,186.9"/>
	<path style="fill:#273017;" d="M126.4,185c1.5,0.4,2.8,1.1,3.8,2.1c-0.6,0.4-1.2,0.8-1.8,1.2l-2.3-1.4
		C126.3,186.3,126.4,185.7,126.4,185"/>
	<path style="fill:#8EC74D;" d="M123.3,195.8c1.7,2.1,3.7,3.8,6.1,4.9c-1.4,1-3.2,1.7-5.2,1.7c-0.5,0-1,0-1.5-0.1
		c-0.1-0.7-0.1-1.3-0.1-2C122.6,198.7,122.9,197.2,123.3,195.8"/>
	<path style="fill:#68BC48;" d="M128.5,188.3l2.6,1.6l-1.2,10.5c-0.1,0.1-0.3,0.2-0.4,0.3c-2.4-1.2-4.5-2.9-6.1-4.9
		C124.2,192.8,126.1,190.2,128.5,188.3"/>
	<path style="fill:#273017;" d="M131.1,189.9l1.6,1c0.3,0.8,0.4,1.7,0.4,2.6c0,2.7-1.3,5.2-3.2,6.8L131.1,189.9"/>
	<path style="fill:#273017;" d="M130.3,187.1c1.1,1,1.9,2.3,2.4,3.8l-1.6-1l-2.6-1.6C129,187.9,129.6,187.5,130.3,187.1"/>
	<path style="fill:#8EC74D;" d="M122.5,166.5c1,0.5,2.1,0.8,3.3,0.8c0.2,0,0.4,0,0.7,0c0.2,0.6,0.4,1.2,0.6,1.8
		c-0.9,0.6-1.7,1.3-2.4,2c-0.8-1.5-1.9-2.7-3.4-3.6C121.8,167.2,122.1,166.9,122.5,166.5"/>
	<path style="fill:#68BC48;" d="M132,163.7c0.7,0.6,1.3,1.2,1.8,2l0,0.4c-2.4,0.5-4.7,1.5-6.6,2.9c-0.3-0.6-0.5-1.2-0.6-1.8
		C128.9,167.1,130.9,165.7,132,163.7"/>
	<path style="fill:#273017;" d="M133.8,165.7c0.1,0.1,0.2,0.2,0.2,0.4c-0.1,0-0.2,0-0.3,0.1L133.8,165.7"/>
	<path style="fill:#68BC48;" d="M127.1,169.1c1.2,2.6,3.1,4.7,5.6,6l-0.2,1.9c-0.3,0.3-0.7,0.6-1.1,0.9l-5.7-2c0-0.1,0-0.1,0-0.2
		c0-1.6-0.4-3.1-1.1-4.4C125.5,170.4,126.3,169.7,127.1,169.1"/>
	<path style="fill:#273017;" d="M132.8,175c0.3,0.2,0.6,0.3,1,0.5c-0.3,0.5-0.8,1-1.2,1.4L132.8,175"/>
	<path style="fill:#273017;" d="M125.8,175.7l5.7,2c-1.4,1-3.2,1.6-5,1.6c-0.5,0-1,0-1.4-0.1C125.5,178.2,125.8,177,125.8,175.7"/>
	<path style="fill:#3FB44A;" d="M133.8,166.2l-1,8.9c-2.5-1.3-4.5-3.4-5.6-6C129.1,167.7,131.4,166.7,133.8,166.2"/>
	<path style="fill:#273017;" d="M134.1,166.1c0.8,1.3,1.2,2.8,1.2,4.4c0,1.8-0.6,3.5-1.5,4.9c-0.3-0.1-0.7-0.3-1-0.5l1-8.9
		C133.9,166.1,134,166.1,134.1,166.1"/>
	<path style="fill:#68BC48;" d="M121.3,167.5c1.4,0.9,2.6,2.1,3.4,3.6c-1,1-1.9,2.1-2.6,3.3l-2.3-0.8l-1.4-4.2
		C119.4,168.9,120.4,168.3,121.3,167.5"/>
	<path style="fill:#273017;" d="M119.8,173.6l2.3,0.8c-0.6,0.9-1,1.8-1.4,2.8c-0.7-0.6-1.3-1.3-1.7-2.1l1.3-0.4L119.8,173.6"/>
	<path style="fill:#273017;" d="M118.3,169.3l1.4,4.2l0.4,1.2l-1.3,0.4c-0.8-1.3-1.3-2.9-1.3-4.6c0-0.3,0-0.6,0.1-0.9
		C117.9,169.5,118.1,169.4,118.3,169.3"/>
	<path style="fill:#3FB44A;" d="M124.7,171.1c0.7,1.3,1.1,2.8,1.1,4.4c0,0.1,0,0.2,0,0.2l-3.7-1.3
		C122.8,173.2,123.7,172.1,124.7,171.1"/>
	<path style="fill:#273017;" d="M122.1,174.4l3.7,1.3c0,1.2-0.3,2.4-0.8,3.5c-0.6-0.1-1.2-0.3-1.8-0.5c-0.5-0.3-1-0.6-1.6-0.8
		c-0.4-0.2-0.7-0.5-1.1-0.8C121,176.2,121.5,175.3,122.1,174.4"/>
	<path style="fill:#68BC48;" d="M120.1,164.4c0.6,0.9,1.5,1.6,2.4,2.1c-0.4,0.4-0.7,0.7-1.2,1.1c-0.8-0.5-1.7-0.9-2.7-1.1
		C119,165.7,119.5,165,120.1,164.4"/>
	<path style="fill:#3FB44A;" d="M118.6,166.4c1,0.2,1.9,0.6,2.7,1.1c-0.9,0.7-1.9,1.3-3,1.8l-0.4-1.2
		C118.1,167.6,118.3,167,118.6,166.4"/>
	<path style="fill:#273017;" d="M117.9,168.2l0.4,1.2c-0.2,0.1-0.4,0.2-0.7,0.3C117.7,169.1,117.8,168.6,117.9,168.2"/>
	<path style="fill:#68BC48;" d="M126.3,161.7c-0.1,0.7-0.2,1.5-0.2,2.2c0,1.1,0.2,2.3,0.4,3.3c-0.2,0-0.4,0-0.7,0
		c-1.2,0-2.3-0.3-3.3-0.8c1.2-1.3,2.2-2.9,2.8-4.7C125.6,161.8,125.9,161.7,126.3,161.7"/>
	<path style="fill:#3FB44A;" d="M126.4,161.7c2.1,0,4.1,0.8,5.6,2c-1.1,2-3.2,3.3-5.5,3.5c-0.3-1.1-0.4-2.2-0.4-3.3
		c0-0.8,0.1-1.5,0.2-2.2C126.3,161.7,126.4,161.7,126.4,161.7"/>
	<path style="fill:#3FB44A;" d="M125.3,161.8c-0.6,1.8-1.5,3.4-2.8,4.7c-1-0.5-1.8-1.2-2.4-2.1C121.4,163,123.2,162.1,125.3,161.8"
		/>
	<path style="fill:#8EC74D;" d="M150.9,165.5c1.8,2.2,4.4,3.7,7.4,3.9c0.1,0.3,0.2,0.6,0.3,0.8c-0.4-0.1-0.8-0.1-1.3-0.1
		c-2.1,0-4,0.9-5.3,2.4c-0.8-0.9-1.6-1.8-2.5-2.5C150.2,168.6,150.7,167.1,150.9,165.5"/>
	<path style="fill:#68BC48;" d="M150.4,164.9c0.1,0.2,0.3,0.4,0.5,0.6c-0.2,1.6-0.7,3.1-1.4,4.4c-1.5-1.2-3.1-2.2-4.9-2.9
		L150.4,164.9"/>
	<path style="fill:#273017;" d="M149.8,163.8c0.2,0.4,0.4,0.7,0.6,1l-5.8,2.2c-0.3-0.1-0.6-0.2-1-0.4
		C145.2,165,147.4,163.9,149.8,163.8"/>
	<path style="fill:#68BC48;" d="M149.5,169.9c0.9,0.8,1.8,1.6,2.5,2.5c-1.2,1.3-1.9,3-1.9,4.8c0,0.8,0.1,1.7,0.4,2.4
		c-0.6-0.2-1.3-0.3-2-0.3c-1.1,0-2.2,0.3-3.1,0.7c-0.4-0.2-0.7-0.5-1.1-0.8l-0.6-4.1C146.2,174.1,148.2,172.2,149.5,169.9"/>
	<path style="fill:#273017;" d="M143.9,175.2l0.6,4.1c-1.1-0.9-1.9-2.1-2.5-3.4C142.6,175.8,143.3,175.5,143.9,175.2"/>
	<path style="fill:#3FB44A;" d="M144.6,167c1.8,0.7,3.4,1.7,4.9,2.9c-1.3,2.3-3.2,4.2-5.6,5.3l-1-7.5L144.6,167"/>
	<path style="fill:#273017;" d="M142.9,167.7l1,7.5c-0.6,0.3-1.2,0.5-1.9,0.7c-0.4-1-0.6-2.1-0.6-3.3
		C141.3,170.8,141.9,169.1,142.9,167.7L142.9,167.7"/>
	<path style="fill:#273017;" d="M143.6,166.7c0.3,0.1,0.6,0.2,1,0.4l-1.7,0.6l0,0C143.1,167.4,143.3,167,143.6,166.7"/>
	<path style="fill:#68BC48;" d="M157.3,170.1c0.4,0,0.9,0,1.3,0.1c0.2,0.8,0.3,1.6,0.3,2.4c0,1.8-0.5,3.4-1.4,4.8
		c-0.8,0.1-1.7,0.3-2.4,0.5c-0.7-2-1.8-3.8-3.1-5.5C153.3,171,155.2,170.1,157.3,170.1"/>
	<path style="fill:#3FB44A;" d="M152,172.5c1.3,1.6,2.4,3.5,3.1,5.5c-1.5,0.4-2.9,1.1-4.1,1.9c-0.1-0.1-0.3-0.1-0.4-0.1
		c-0.3-0.8-0.4-1.6-0.4-2.4C150.1,175.4,150.8,173.7,152,172.5"/>
	<path style="fill:#3FB44A;" d="M157.6,177.4c-0.5,0.8-1.2,1.5-1.9,2.1c-0.1-0.6-0.3-1.1-0.5-1.6
		C155.9,177.7,156.7,177.5,157.6,177.4"/>
	<path style="fill:#00B04C;" d="M155.1,177.9c0.2,0.5,0.4,1.1,0.5,1.6c-0.8,0.6-1.6,1.1-2.6,1.4c-0.6-0.5-1.3-0.9-2.1-1.1
		C152.3,179,153.6,178.4,155.1,177.9"/>
	<path style="fill:#3FB44A;" d="M148.6,179.4c0.7,0,1.3,0.1,2,0.3c0,0.1,0.1,0.2,0.1,0.4c-0.6,0.4-1.1,0.9-1.7,1.3
		c-1.3-0.2-2.5-0.6-3.5-1.3C146.4,179.7,147.5,179.4,148.6,179.4"/>
	<path style="fill:#00B04C;" d="M150.7,180c0.2,0.5,0.4,0.9,0.7,1.3c-0.4,0.1-0.8,0.1-1.3,0.1c-0.4,0-0.8,0-1.1-0.1
		C149.5,180.9,150.1,180.4,150.7,180"/>
	<path style="fill:#00B04C;" d="M150.5,179.7c0.2,0,0.3,0.1,0.4,0.1c-0.1,0.1-0.2,0.1-0.3,0.2C150.6,179.9,150.6,179.8,150.5,179.7"
		/>
	<path style="fill:#00AC4D;" d="M151,179.8c0.7,0.3,1.4,0.6,2.1,1.1c-0.5,0.2-1.1,0.3-1.6,0.4c-0.3-0.4-0.5-0.9-0.7-1.3
		C150.8,180,150.9,179.9,151,179.8"/>
	<path style="fill:#BED972;" d="M112.1,183.8c1.3,0.7,2.8,1.1,4.3,1.1c1,0,1.9-0.2,2.8-0.4c0,0.6,0,1.2,0.1,1.8
		c-1.7,1.1-3,2.8-3.5,4.8c-2.2-1.2-3.8-3.6-3.8-6.3C112.1,184.4,112.1,184.1,112.1,183.8"/>
	<path style="fill:#8EC74D;" d="M120.9,183.7l1.9,1.2c-1.3,0.2-2.5,0.7-3.5,1.4c-0.1-0.6-0.1-1.2-0.1-1.8
		C119.8,184.2,120.4,184,120.9,183.7"/>
	<path style="fill:#273017;" d="M123.1,182.1c1,0.9,2.1,1.7,3.3,2.5c0,0.1,0,0.1,0,0.2c0,0.1,0,0.2,0,0.3c-0.7-0.2-1.4-0.3-2.2-0.3
		c-0.5,0-1,0-1.4,0.1l-1.9-1.2C121.7,183.3,122.5,182.7,123.1,182.1"/>
	<path style="fill:#273017;" d="M124.6,180c1.1,1.2,1.7,2.8,1.8,4.5c-1.2-0.7-2.3-1.5-3.3-2.5C123.7,181.4,124.2,180.8,124.6,180"/>
	<path style="fill:#8EC74D;" d="M114.2,179.6l5.1,3.1c0,0.5-0.1,1-0.1,1.5c0,0.1,0,0.1,0,0.2c-0.9,0.3-1.8,0.4-2.8,0.4
		c-1.6,0-3-0.4-4.3-1.1C112.3,182.1,113.1,180.7,114.2,179.6"/>
	<path style="fill:#273017;" d="M119.1,177.5c0.3,0.4,0.6,0.8,0.9,1.3c-0.4,1.2-0.6,2.5-0.7,3.9l-5.1-3.1
		C115.5,178.3,117.2,177.6,119.1,177.5"/>
	<path style="fill:#273017;" d="M119.2,177.5c0.4,0,0.8,0,1.2,0.1c-0.1,0.4-0.3,0.8-0.4,1.2c-0.3-0.4-0.6-0.8-0.9-1.3
		C119.2,177.5,119.2,177.5,119.2,177.5"/>
	<path style="fill:#68BC48;" d="M119.3,182.7l1.6,1c-0.5,0.3-1.1,0.5-1.7,0.7c0-0.1,0-0.1,0-0.2
		C119.2,183.7,119.3,183.2,119.3,182.7"/>
	<path style="fill:#273017;" d="M120,178.8c0.9,1.2,1.9,2.3,3.1,3.3c-0.6,0.6-1.4,1.2-2.2,1.6l-1.6-1
		C119.4,181.4,119.7,180.1,120,178.8"/>
	<path style="fill:#273017;" d="M120.4,177.6c0.4,0.1,0.8,0.2,1.2,0.3c0.5,0.3,1,0.6,1.6,0.8c0.5,0.3,1,0.8,1.4,1.2
		c-0.4,0.8-0.9,1.5-1.5,2.1c-1.1-1-2.1-2.1-3.1-3.3C120.2,178.4,120.3,178,120.4,177.6"/>
	<path style="fill:#8EC74D;" d="M119.4,186.2c0.2,1.9,0.7,3.8,1.5,5.5c-0.5,0.1-1.1,0.2-1.6,0.2c-1.2,0-2.4-0.3-3.4-0.9
		C116.4,189.1,117.7,187.4,119.4,186.2"/>
	<path style="fill:#68BC48;" d="M122.8,184.9l3.3,2c-0.8,2.4-2.8,4.3-5.3,4.9c-0.8-1.7-1.3-3.6-1.5-5.5
		C120.4,185.6,121.6,185.1,122.8,184.9"/>
	<path style="fill:#273017;" d="M124.3,184.8c0.7,0,1.5,0.1,2.2,0.3c0,0.6-0.1,1.3-0.3,1.9l-3.3-2
		C123.3,184.8,123.8,184.8,124.3,184.8"/>
	<path style="fill:#001C00;" d="M121.7,178c0.6,0.2,1.1,0.5,1.6,0.8C122.7,178.6,122.2,178.3,121.7,178"/>
	<path style="fill:#BED972;" d="M163.3,160l-1.1,0.4c0.2,1.2,0.3,2.5,0.3,3.8c0,1.6-0.2,3.1-0.5,4.6c2.5-0.8,4.5-2.4,5.8-4.6
		C165.8,163.7,164.1,162.1,163.3,160 M159.9,148.6c-0.7,0.5-1.4,0.9-2.2,1.2l0,0c1.7,2.2,3,4.7,3.9,7.4l1.4-0.2
		c0.1-2.4,1.4-4.4,3.3-5.6C164.5,149.8,162.3,148.8,159.9,148.6"/>
	<path style="fill:#273017;" d="M162.9,157c0,0.1,0,0.3,0,0.4c0,0.9,0.2,1.8,0.5,2.6l-1.1,0.4c-0.2-1.1-0.4-2.2-0.8-3.3L162.9,157"
		/>
	<polyline style="fill:#273017;" points="157.6,149.8 157.6,149.8 157.6,149.8 157.6,149.8 	"/>
	<path style="fill:#8EC74D;" d="M162.3,160.4l-9.8,3.7c2.7,0.7,4.9,2.7,5.9,5.2c0.2,0,0.5,0,0.7,0c1.1,0,2.1-0.2,3.1-0.5
		c0.3-1.5,0.5-3.1,0.5-4.6C162.6,163,162.5,161.7,162.3,160.4 M153.9,149.9c-2.6,1.5-4.5,4-5.1,7c0.4,0.5,0.7,1.1,1,1.7l5.7-0.7
		l-0.2-7.8C154.9,150.1,154.4,150,153.9,149.9 M157.6,149.8l1.8,7.7l2.1-0.3C160.6,154.5,159.3,152,157.6,149.8"/>
	<path style="fill:#273017;" d="M161.5,157.2c0.3,1.1,0.6,2.2,0.8,3.3l-9.8,3.7c-0.5-0.1-1-0.2-1.5-0.3c0-1.9-0.4-3.6-1.2-5.2
		l5.7-0.7l0,0.6l3.9-0.7l-0.1-0.3L161.5,157.2"/>
	<path style="fill:#273017;" d="M157.6,149.8L157.6,149.8l1.8,7.7l0.1,0.3l-3.9,0.7l0-0.6l-0.2-7.8c0,0,0.1,0,0.1,0
		C156.2,150.1,156.9,150,157.6,149.8"/>
	<path style="fill:#68BC48;" d="M148.8,156.9c0.4,0.5,0.7,1.1,1,1.7l-1.2,0.2C148.6,158.2,148.7,157.5,148.8,156.9"/>
	<path style="fill:#273017;" d="M149.8,158.7c0.7,1.6,1.2,3.3,1.2,5.2c-0.3,0-0.6,0-0.8,0c-0.1,0-0.2,0-0.3,0
		c-0.8-1.4-1.2-3.1-1.2-4.9c0-0.1,0-0.1,0-0.2L149.8,158.7"/>
	<path style="fill:#8EC74D;" d="M166.3,158.9l-3,1.1c0.8,2,2.5,3.6,4.6,4.3c0.6-1,1-2.1,1.2-3.3C167.9,160.8,166.9,160,166.3,158.9
		 M166.1,151.4c-1.9,1.2-3.1,3.3-3.3,5.6l3-0.4c0.2-1.3,0.9-2.4,2-3C167.4,152.8,166.8,152,166.1,151.4"/>
	<path style="fill:#273017;" d="M165.9,156.6c0,0.2,0,0.3,0,0.5c0,0.7,0.2,1.3,0.4,1.8l-3,1.1c-0.3-0.8-0.5-1.7-0.5-2.6
		c0-0.1,0-0.3,0-0.4L165.9,156.6"/>
	<path style="fill:#68BC48;" d="M152.4,164.1c2.7,0.7,4.9,2.7,5.9,5.2c-3-0.2-5.7-1.7-7.4-3.9c0-0.3,0.1-0.5,0.1-0.8L152.4,164.1"/>
	<path style="fill:#273017;" d="M151,163.9c0.5,0,1,0.1,1.5,0.3l-1.5,0.5c0-0.2,0-0.5,0-0.7C151,163.9,151,163.9,151,163.9"/>
	<path style="fill:#3FB44A;" d="M151,164.7c0,0.3,0,0.5-0.1,0.8c-0.2-0.2-0.3-0.4-0.5-0.6L151,164.7"/>
	<path style="fill:#273017;" d="M150.1,163.8c0.3,0,0.6,0,0.8,0c0,0,0,0.1,0,0.1c0,0.2,0,0.5,0,0.7l-0.5,0.2c-0.2-0.3-0.4-0.7-0.6-1
		C149.9,163.8,150,163.8,150.1,163.8"/>
	<path style="fill:#BED972;" d="M102.6,180.1l-0.6,0.5l-0.4,0.6l-0.2-0.2l-0.8,0.7c0.7,1.1,1.1,2.4,1.1,3.8c0,1.4-0.4,2.6-1,3.7
		c4.1-0.9,7.4-4.2,8.1-8.4c-0.1-0.1-0.1-0.2-0.2-0.3c-0.7,0.2-1.5,0.3-2.3,0.3C104.9,180.8,103.7,180.5,102.6,180.1 M97.6,175.2
		c-0.1,0.2-0.2,0.4-0.2,0.5l0.7,0.4C98,175.9,97.8,175.5,97.6,175.2 M96.7,168.8C96.7,168.8,96.6,168.8,96.7,168.8
		c-1.3,1.3-3,2.1-4.8,2.2c-2.3,1.9-3.8,4.8-3.8,8.1c0,0.9,0.1,1.8,0.3,2.7c1.3-2,3.5-3.4,6.1-3.4c1.8,0,3.4,0.6,4.7,1.7l0.5-0.6
		l-3-2.8c-0.6,0.5-1.3,0.8-2.1,0.8c-1.8,0-3.3-1.5-3.3-3.3c0-1.8,1.5-3.3,3.3-3.3c0.9,0,1.7,0.4,2.3,1c0-0.1,0-0.2,0-0.3
		c0-0.8,0.1-1.6,0.3-2.4L96.7,168.8"/>
	<path style="fill:#8EC74D;" d="M96.6,168.8c-1.2,1.3-2.9,2.1-4.7,2.2C93.2,169.9,94.8,169.1,96.6,168.8"/>
	<path style="fill:#273017;" d="M97.3,168.7c0,0.1-0.1,0.2-0.1,0.4l-0.5-0.3C96.9,168.7,97.1,168.7,97.3,168.7"/>
	<path style="fill:#273017;" d="M102.4,180l-0.4,0.6l0.6-0.5C102.5,180,102.5,180,102.4,180 M99.7,179.4l-0.5,0.6
		c0.6,0.5,1.1,1.1,1.5,1.7l0.8-0.7L99.7,179.4"/>
	<path style="fill:#273017;" d="M97.4,175.7l0.7,0.4c1,1.7,2.5,3,4.3,3.8l-0.4,0.6l-0.4,0.6l-0.2-0.2l-1.8-1.6l-3-2.8
		C96.9,176.4,97.2,176.1,97.4,175.7"/>
	<path style="fill:#8EC74D;" d="M107.1,176.2l-4.5,3.8c1.1,0.5,2.3,0.7,3.6,0.7c0.8,0,1.6-0.1,2.3-0.3
		C107.8,179.2,107.3,177.8,107.1,176.2 M97.2,169.1c-0.2,0.8-0.3,1.6-0.3,2.4c0,0.1,0,0.2,0,0.3c0.6,0.6,1,1.4,1,2.4
		c0,0.4-0.1,0.8-0.2,1.1c0.1,0.3,0.3,0.7,0.5,1l2.8,1.6l3.4-4.3L97.2,169.1"/>
	<path style="fill:#273017;" d="M98.5,168.6c2.8,0,5.4,1.1,7.3,3l-1.5,1.8l-7.2-4.4c0-0.1,0.1-0.2,0.1-0.4
		C97.7,168.7,98.1,168.6,98.5,168.6"/>
	<path style="fill:#273017;" d="M105.8,171.6c0.6,0.6,1.1,1.2,1.5,1.9c-0.1,0.6-0.2,1.3-0.2,2c0,0.2,0,0.5,0,0.7l-4.5,3.8
		c-0.1,0-0.1-0.1-0.2-0.1l0.6-0.9l-2.1-1.2l3.4-4.3L105.8,171.6"/>
	<path style="fill:#273017;" d="M98.1,176.2l2.8,1.6l2.1,1.2l-0.6,0.9C100.6,179.2,99.1,177.8,98.1,176.2"/>
	<path style="fill:#8EC74D;" d="M108.8,180.4c0,0.1,0,0.2-0.1,0.4c-0.1-0.1-0.1-0.2-0.2-0.3C108.6,180.5,108.7,180.4,108.8,180.4"/>
	<path style="fill:#68BC48;" d="M107.8,175.6l0.6,0.4c0.3,1,0.4,2,0.4,3c0,0.5,0,0.9-0.1,1.4c-0.1,0-0.2,0-0.2,0.1
		c-0.8-1.2-1.3-2.7-1.4-4.2L107.8,175.6"/>
	<path style="fill:#273017;" d="M108.2,175.3c0.1,0.2,0.2,0.4,0.2,0.7l-0.6-0.4L108.2,175.3"/>
	<path style="fill:#273017;" d="M107.3,173.5c0.4,0.6,0.7,1.2,0.9,1.8l-0.4,0.3l-0.7,0.6c0-0.2,0-0.5,0-0.7
		C107.1,174.8,107.2,174.2,107.3,173.5"/>
	<path style="fill:#BED972;" d="M155.5,135.7c4,0,7.2,3.2,7.2,7.2c0,2.3-1.1,4.4-2.8,5.7c-0.3,0-0.6,0-0.9,0c-0.6,0-1.1,0-1.6,0.1
		l-0.7-2.9c1.6-0.5,2.8-2,2.8-3.8c0-2.2-1.8-4-4-4s-4,1.8-4,4c0,2.1,1.7,3.9,3.8,4l0,1.2c-2-1.9-4.4-3.5-7-4.7
		C148.5,138.7,151.7,135.7,155.5,135.7"/>
	<path style="fill:#8EC74D;" d="M148.3,142.5c2.6,1.1,5,2.7,7,4.7l0,2.1c-0.5,0.2-1,0.4-1.4,0.7c-3.2-0.7-5.6-3.6-5.6-7
		C148.3,142.8,148.3,142.6,148.3,142.5"/>
	<path style="fill:#8EC74D;" d="M159,148.6c0.3,0,0.6,0,0.9,0c-0.7,0.5-1.4,0.9-2.2,1.2l-0.2-1.1C157.9,148.6,158.5,148.6,159,148.6
		"/>
	<path style="fill:#273017;" d="M157.4,148.7l0.2,1.1l0,0c-0.3-0.3-0.5-0.7-0.8-1C157,148.8,157.2,148.7,157.4,148.7"/>
	<path style="fill:#68BC48;" d="M155.3,149.2l0,0.9c-0.5,0-1-0.1-1.5-0.2C154.3,149.6,154.8,149.4,155.3,149.2"/>
	<path style="fill:#273017;" d="M156.8,148.8c0.3,0.3,0.5,0.6,0.8,1c-0.7,0.2-1.4,0.3-2.1,0.3c0,0-0.1,0-0.1,0l0-0.9
		C155.8,149,156.3,148.9,156.8,148.8"/>
	<path style="fill:#BED972;" d="M173.2,199.8c2.4,1.2,4.1,3.6,4.1,6.5c0,4-3.2,7.2-7.2,7.2c-3.5,0-6.4-2.5-7.1-5.8
		c1.1-0.2,2.1-0.6,3.1-1.1c0.2,2,1.9,3.6,4,3.6c2.2,0,4-1.8,4-4c0-1.7-1.1-3.2-2.7-3.8C172.1,201.7,172.7,200.8,173.2,199.8"/>
	<path style="fill:#8EC74D;" d="M164.3,201.9c-0.9,1.2-1.5,2.7-1.5,4.4c0,0.5,0,1,0.1,1.4c1.1-0.2,2.1-0.6,3.1-1.1
		c0-0.1,0-0.2,0-0.4c0-0.9,0.3-1.6,0.7-2.3L164.3,201.9 M170,199.1c-1.5,0-2.8,0.4-4,1.2l1.9,2.5c0.6-0.4,1.3-0.6,2.1-0.6
		c0.5,0,0.9,0.1,1.3,0.2c0.7-0.8,1.3-1.7,1.8-2.7C172.2,199.4,171.2,199.1,170,199.1"/>
	<path style="fill:#273017;" d="M166,200.3l1.9,2.5c-0.5,0.3-0.9,0.7-1.2,1.1l-2.4-2.1C164.8,201.3,165.4,200.7,166,200.3"/>
	<path style="fill:#BED972;" d="M174.1,178.5c2.2,0,4,1.8,4,4c0,1.3-0.6,2.4-1.5,3.2c0-1.7-1-3.1-2.5-3.7c0-0.1,0-0.2,0-0.3
		c0-1.2-0.5-2.2-1.3-3C173.1,178.5,173.6,178.5,174.1,178.5"/>
	<path style="fill:#BED972;" d="M170.1,177.7c1,0,2,0.4,2.7,1c-1.3,0.5-2.3,1.5-2.6,2.9c-1-0.9-2.1-1.7-3.2-2.4
		C167.6,178.3,168.8,177.7,170.1,177.7"/>
	<path style="fill:#8EC74D;" d="M166.9,179.2c1.2,0.7,2.3,1.5,3.2,2.4c-0.1,0.3-0.1,0.6-0.1,0.9c0,0,0,0,0,0.1
		c-0.7,0.5-1.2,1.3-1.4,2.2l-0.7,0.4c-1.1-0.7-1.9-2-1.9-3.4C166,180.7,166.4,179.9,166.9,179.2"/>
	<path style="fill:#273017;" d="M168.6,184.7c-0.1,0.2-0.1,0.4-0.1,0.7c-0.2-0.1-0.4-0.2-0.6-0.3L168.6,184.7"/>
	<path style="fill:#8EC74D;" d="M172.7,178.7c0.8,0.7,1.3,1.8,1.3,3c0,0.1,0,0.2,0,0.3c-0.5-0.2-1-0.3-1.5-0.3
		c-0.7,0-1.3,0.2-1.8,0.4c-0.2-0.2-0.4-0.4-0.5-0.5C170.5,180.2,171.4,179.1,172.7,178.7"/>
	<path style="fill:#68BC48;" d="M170.2,181.6c0.2,0.2,0.4,0.4,0.5,0.5c-0.2,0.1-0.4,0.3-0.6,0.4c0,0,0,0,0-0.1
		C170.1,182.2,170.1,181.9,170.2,181.6"/>
	<path style="fill:#BED972;" d="M176.5,185.6C176.5,185.6,176.5,185.7,176.5,185.6c0,1.6-0.8,2.9-2,3.6c-0.2-0.9-0.5-1.9-0.9-2.7
		c0.2,0,0.3,0,0.5,0C175,186.5,175.9,186.2,176.5,185.6"/>
	<path style="fill:#8EC74D;" d="M171.6,185.7c0.6,0.4,1.2,0.7,2,0.8c0.4,0.9,0.7,1.8,0.9,2.7c-0.6,0.3-1.2,0.5-2,0.5
		c-1.5,0-2.7-0.8-3.4-1.9L171.6,185.7"/>
	<path style="fill:#273017;" d="M168.5,185.4c0.5,0.2,1,0.3,1.5,0.3c0.5,0,0.9-0.1,1.3-0.2c0.1,0.1,0.2,0.1,0.2,0.2l-2.5,2.1
		c-0.4-0.6-0.6-1.3-0.6-2.1C168.5,185.6,168.5,185.5,168.5,185.4"/>
	<path style="fill:#8EC74D;" d="M174.1,182c1.4,0.6,2.5,2,2.5,3.7c-0.7,0.5-1.5,0.9-2.5,0.9c-0.2,0-0.3,0-0.5,0
		c-0.3-0.6-0.6-1.1-0.9-1.7l1.7-1.4l-0.4-0.8C174,182.4,174,182.2,174.1,182"/>
	<path style="fill:#273017;" d="M174,182.6l0.4,0.8l-1.7,1.4c0,0,0,0,0-0.1C173.3,184.2,173.8,183.4,174,182.6"/>
	<path style="fill:#68BC48;" d="M172.7,184.8c0.3,0.5,0.6,1.1,0.9,1.7c-0.7-0.1-1.4-0.4-2-0.8L172.7,184.8"/>
	<path style="fill:#273017;" d="M172.7,184.7C172.7,184.7,172.7,184.7,172.7,184.7l-1,0.9c-0.1-0.1-0.2-0.1-0.2-0.2
		C171.9,185.3,172.3,185,172.7,184.7"/>
	<path style="fill:#68BC48;" d="M170.1,182.5c0,0.5,0.1,0.9,0.2,1.3l-1.7,0.9C168.9,183.8,169.4,183.1,170.1,182.5"/>
	<path style="fill:#273017;" d="M170.3,183.8c0.2,0.6,0.6,1.2,1.1,1.6c-0.4,0.1-0.9,0.2-1.3,0.2c-0.5,0-1.1-0.1-1.5-0.3
		c0-0.2,0.1-0.5,0.1-0.7L170.3,183.8"/>
	<path style="fill:#68BC48;" d="M172.5,181.7c0.5,0,1.1,0.1,1.5,0.3c0,0.2,0,0.4-0.1,0.6l-0.3-0.5l-2.1,1.1c-0.3-0.4-0.6-0.7-0.9-1
		C171.2,181.8,171.9,181.7,172.5,181.7"/>
	<path style="fill:#273017;" d="M173.7,182.1l0.3,0.5c-0.2,0.8-0.7,1.6-1.3,2.1c-0.3-0.5-0.7-1.1-1.1-1.6L173.7,182.1"/>
	<path style="fill:#3FB44A;" d="M170.7,182.1c0.3,0.3,0.6,0.7,0.9,1l-1.3,0.7c-0.1-0.4-0.2-0.8-0.2-1.3
		C170.3,182.4,170.5,182.2,170.7,182.1"/>
	<path style="fill:#273017;" d="M171.6,183.2c0.4,0.5,0.8,1,1.1,1.6c-0.4,0.3-0.8,0.6-1.3,0.7c-0.5-0.4-0.9-1-1.1-1.6L171.6,183.2"
		/>
	<path style="fill:#8EC74D;" d="M171.4,202.5c1.6,0.5,2.7,2,2.7,3.8c0,2.2-1.8,4-4,4c-2.1,0-3.8-1.6-4-3.6c0.8-0.4,1.6-0.8,2.3-1.3
		l2,1.7l0.6-0.4l-1.6-2.1C170.1,203.9,170.8,203.2,171.4,202.5"/>
	<path style="fill:#273017;" d="M169.3,204.6l1.6,2.1l-0.6,0.4l-2-1.7C168.7,205.1,169,204.8,169.3,204.6"/>
	<path style="fill:#68BC48;" d="M166.8,204c-0.5,0.7-0.7,1.4-0.7,2.3c0,0.1,0,0.2,0,0.4c0.8-0.4,1.6-0.8,2.3-1.3L166.8,204
		 M170.1,202.3c-0.8,0-1.5,0.2-2.1,0.6l1.3,1.7c0.8-0.6,1.4-1.3,2.1-2.1C171,202.3,170.5,202.3,170.1,202.3"/>
	<path style="fill:#273017;" d="M168,202.8l1.3,1.7c-0.3,0.3-0.7,0.5-1,0.8l-1.6-1.3C167.1,203.5,167.5,203.1,168,202.8"/>
	<path style="fill:#8EC74D;" d="M91.5,159.9c2.2,0,4,1.8,4,4c0,0.3,0,0.6-0.1,0.9l-3.6-1.3l-1,1.7l3.1,1.9c-0.7,0.5-1.5,0.8-2.4,0.8
		c-2.2,0-4-1.8-4-4C87.5,161.7,89.3,159.9,91.5,159.9"/>
	<path style="fill:#273017;" d="M91.8,163.5l3.6,1.3c-0.2,0.9-0.8,1.8-1.5,2.3l-3.1-1.9L91.8,163.5"/>
	<path style="fill:#68BC48;" d="M111.5,146.8c2.2,0,4,1.8,4,4c0,1.6-0.9,2.9-2.2,3.6l-1.3-3.8l-1,0.1l0.5,4.1c0,0,0,0,0,0
		c-2.2,0-4-1.8-4-4C107.5,148.6,109.3,146.8,111.5,146.8"/>
	<path style="fill:#273017;" d="M112,150.6l1.3,3.8c-0.5,0.3-1.1,0.4-1.7,0.4l-0.5-4.1L112,150.6"/>
	<path style="fill:#8EC74D;" d="M137.7,127.8c1.5,0,2.8,0.8,3.5,2c-1.1-0.4-2.3-0.6-3.5-0.6s-2.4,0.2-3.5,0.6
		C134.9,128.6,136.2,127.8,137.7,127.8"/>
	<path style="fill:#68BC48;" d="M137.7,129.2c1.2,0,2.4,0.2,3.5,0.6c0.3,0.6,0.5,1.3,0.5,2c0,1.9-1.4,3.6-3.2,3.9l-0.3-2.5h-0.6
		l-0.3,2.5c-2-0.2-3.5-1.9-3.5-4c0-0.7,0.2-1.4,0.5-2C135.3,129.4,136.5,129.2,137.7,129.2"/>
	<path style="fill:#8EC74D;" d="M155.5,138c2.2,0,4,1.8,4,4c0,1.8-1.2,3.3-2.8,3.8l-0.9-4l-0.6,0l0.1,4.2c-2.1-0.1-3.8-1.9-3.8-4
		C151.5,139.8,153.3,138,155.5,138"/>
	<path style="fill:#8EC74D;" d="M169.9,153.1c2.2,0,4,1.8,4,4s-1.8,4-4,4c-0.2,0-0.4,0-0.7-0.1c0.1-0.7,0.2-1.4,0.2-2.1
		c0-0.4,0-0.8-0.1-1.2l0.7-0.3l-0.5-1.4l-0.5,0.1c-0.3-0.9-0.6-1.8-1.1-2.6C168.5,153.3,169.2,153.1,169.9,153.1"/>
	<path style="fill:#273017;" d="M169.6,156.2l0.5,1.4l-0.7,0.3c-0.1-0.5-0.2-1.1-0.3-1.6L169.6,156.2"/>
	<path style="fill:#68BC48;" d="M169.4,157.8l-3,1.1c0.6,1.1,1.6,1.9,2.9,2.1c0.1-0.7,0.2-1.4,0.2-2.1
		C169.4,158.6,169.4,158.2,169.4,157.8 M167.9,153.6c-1.1,0.6-1.9,1.7-2,3l3.2-0.4C168.8,155.3,168.4,154.4,167.9,153.6"/>
	<path style="fill:#273017;" d="M169.1,156.2c0.1,0.5,0.2,1,0.3,1.6l-3,1.1c-0.3-0.6-0.4-1.2-0.4-1.8c0-0.2,0-0.3,0-0.5L169.1,156.2
		"/>
	<path style="fill:#BED972;" d="M88.4,181.7c0.4,1.6,1.2,3,2.2,4.2c-0.1,0.3-0.1,0.7-0.1,1c0,2.2,1.8,4,4,4c1.3,0,2.4-0.6,3.1-1.5
		c0.3,0,0.5,0,0.8,0c0.8,0,1.5-0.1,2.2-0.2c-1.3,2.1-3.5,3.5-6.2,3.5c-4,0-7.2-3.2-7.2-7.2C87.3,184.1,87.7,182.8,88.4,181.7"/>
	<path style="fill:#8EC74D;" d="M100.6,181.7l-3.1,2.6c0.6,0.7,1,1.6,1,2.6c0,0.9-0.3,1.8-0.9,2.5c0.3,0,0.5,0,0.8,0
		c0.8,0,1.5-0.1,2.2-0.2c0.7-1.1,1-2.4,1-3.7C101.7,184.1,101.3,182.8,100.6,181.7 M94.5,178.3c-2.6,0-4.8,1.4-6.1,3.4
		c0.4,1.6,1.2,3,2.2,4.2c0.5-1.7,2-3,3.9-3c0.7,0,1.4,0.2,2,0.5l2.7-3.4C97.9,179,96.3,178.3,94.5,178.3"/>
	<path style="fill:#273017;" d="M99.2,180c0.6,0.5,1.1,1.1,1.5,1.7l-3.1,2.6c-0.3-0.3-0.7-0.6-1.1-0.9L99.2,180"/>
	<path style="fill:#8EC74D;" d="M90.6,185.9c1.7,2,4.2,3.3,7,3.5c-0.7,0.9-1.9,1.5-3.1,1.5c-2.2,0-4-1.8-4-4
		C90.5,186.6,90.5,186.2,90.6,185.9"/>
	<path style="fill:#68BC48;" d="M94.5,182.9c0.7,0,1.4,0.2,2,0.5l-2,2.5l0.5,0.5l2.6-2.2c0.6,0.7,1,1.6,1,2.6c0,0.9-0.3,1.8-0.9,2.5
		c-2.8-0.2-5.3-1.5-7-3.5C91.1,184.2,92.7,182.9,94.5,182.9"/>
	<path style="fill:#273017;" d="M96.5,183.4c0.4,0.2,0.8,0.5,1.1,0.9l-2.6,2.2l-0.5-0.5L96.5,183.4"/>
	<path style="fill:#8EC74D;" d="M94.5,170.7c0.9,0,1.7,0.4,2.3,1c0,1.2,0.3,2.4,0.8,3.5c-0.1,0.2-0.2,0.4-0.2,0.5l-3.3-1.9l-0.3,0.3
		l2.8,2.5c-0.6,0.5-1.3,0.8-2.1,0.8c-1.8,0-3.3-1.5-3.3-3.3C91.2,172.2,92.7,170.7,94.5,170.7"/>
	<path style="fill:#273017;" d="M94.1,173.8l3.3,1.9c-0.2,0.3-0.5,0.6-0.8,0.9l-2.8-2.5L94.1,173.8"/>
	<path style="fill:#68BC48;" d="M96.9,171.7c0.6,0.6,1,1.4,1,2.4c0,0.4-0.1,0.8-0.2,1.1C97.2,174.1,96.9,173,96.9,171.7"/>
	<path style="fill:#8EC74D;" d="M22.1,84.8c0,3.9-3.1,7-7,7s-7-3.1-7-7c0-3.9,3.1-7,7-7S22.1,80.9,22.1,84.8z"/>
	<circle style="fill:#8EC74D;" cx="17.1" cy="80.4" r="7"/>
	<circle style="fill:#8EC74D;" cx="9.9" cy="80.4" r="3.3"/>
	<path style="fill:#273017;" d="M22,83.8c0,0.3,0.1,0.7,0.1,1c0,1.1-0.2,2-0.6,2.9l1.5,1.2c1.2-0.8,2.2-1.9,3-3.1L22,83.8"/>
	<polyline style="fill:#273017;" points="15.1,82.5 56.9,117.1 65,106.4 16,80.6 15.1,82.5 	"/>
	<polygon style="fill:#273017;" points="91.9,251.2 60.1,162.8 59.6,70 55.3,129.9 30.9,251.2 	"/>
</g>
<g>
</g>
<g>
</g>
<g>
</g>
<g>
</g>
<g>
</g>
<g>
</g>
<g>
</g>
<g>
</g>
<g>
</g>
<g>
</g>
<g>
</g>
<g>
</g>
<g>
</g>
<g>
</g>
<g>
</g>
</svg>
