<?xml version="1.0" encoding="utf-8"?>
<!-- Generator: Adobe Illustrator 16.0.0, SVG Export Plug-In . SVG Version: 6.00 Build 0)  -->
<!DOCTYPE svg PUBLIC "-//W3C//DTD SVG 1.0//EN" "http://www.w3.org/TR/2001/REC-SVG-20010904/DTD/svg10.dtd">
<svg version="1.0" id="Layer_1" xmlns="http://www.w3.org/2000/svg" xmlns:xlink="http://www.w3.org/1999/xlink" x="0px" y="0px"
	 width="228.4px" height="250.9px" viewBox="0 0 228.4 250.9" style="enable-background:new 0 0 228.4 250.9;" xml:space="preserve"
	>
<path style="fill:#BED972;" d="M89.5,140.1c0-0.1,0-0.2-0.1-0.3c0,0,0-0.1,0-0.1c-0.1-0.4-0.1-0.9-0.1-1.4c0-0.7,0.1-1.3,0.3-2
	c0-0.2,0-0.3,0-0.5c0-5.2,3.4-9.6,8.1-11.1l0-1.3c-2.3-1.6-4.1-3.9-4.8-6.7c0-0.1,0-0.2-0.1-0.3c0-0.1-0.1-0.2-0.1-0.3
	c0-0.2-0.1-0.4-0.1-0.6c0,0,0,0,0,0c-0.1-0.6-0.1-1.2-0.1-1.8c0-0.4,0-0.9,0.1-1.3c0.2-1.8,0.8-3.5,1.7-5c0.8-1.3,1.9-2.4,3.1-3.3
	c0.5-0.4,1.1-0.7,1.7-1c1.5-0.7,3.2-1.1,5-1.1c0.1,0,0.2,0,0.3,0c0.8-1.4,2.3-2.4,4.1-2.4c0.6,0,1.3,0.1,1.8,0.4
	c0.2-0.8,0.7-1.5,1.3-2.1c-0.1-0.4-0.2-0.8-0.3-1.2c-0.3-1.2-0.5-2.4-0.5-3.7c0-1.8,0.3-3.5,0.9-5.1c2.1-5.8,7.6-10.1,14.2-10.1
	c0.1,0,0.1,0,0.2,0c7.3,0,13.5,5.2,14.9,12.1c0.2,1,0.3,2.1,0.3,3.1c0,0.2,0,0.4,0,0.6c0.6-0.1,1.2-0.1,1.8-0.1
	c5.2,0,9.6,3.4,11.1,8.2c0,0.1,0.1,0.2,0.1,0.3c0.1,0.2,0.1,0.4,0.2,0.7c0.1,0.2,0.1,0.5,0.1,0.7c0,0.1,0,0.2,0.1,0.3
	c0,0.3,0.1,0.7,0.1,1c0,0,0,0,0,0c0,0,0,0,0,0c0,0.2,0,0.3,0,0.5c0,3.7-1.8,7.1-4.5,9.2c0.2,0.3,0.3,0.7,0.4,1.1
	c0.1,0.4,0.2,0.8,0.2,1.2c0,1.6-0.8,3.1-2.1,3.9c0,0.4,0,0.9,0,1.4c0,1.1-0.1,2.2-0.2,3.2c0.5,0.1,0.9,0.2,1.4,0.3
	c1.2-1.1,2.8-1.8,4.6-1.8c1.7,0,3.3,0.6,4.5,1.7c0.2,0,0.4,0,0.6,0c2.3,0,4.2,1.6,4.6,3.8c0.1,0.3,0.1,0.6,0.1,1
	c0,2.2-1.6,4.1-3.7,4.6c-0.4,1.3-1.3,2.3-2.5,2.8c-0.4,6.1-5.5,10.9-11.6,10.9c-1.9,0-3.8-0.5-5.4-1.3c-0.7,5.5-4.3,10-9.1,12.1
	c0,0,0,0,0,0l2.4,34.8l10.6,56.8h-41.2l0.1-0.3l14.8-43.4l2.4-47.5c0,0,0.7,0,0.7,0c-4.9-1.7-9.3-5.7-10.5-10.8
	c-0.3-1.2-0.4-2.4-0.4-3.6c0-0.9,0.1-1.7,0.2-2.5l-0.2-0.3c0,0,0,0,0,0c-2.1,3.1-5.7,5.2-9.7,5.2c-2.9,0-5.6-1.1-7.7-2.9
	C91.6,144,90.1,142.2,89.5,140.1z"/>
<path style="fill:#00648D;" d="M97.7,123.4c0.4,0.3,0.9,0.6,1.4,0.8c0,0.1-0.1,0.2-0.1,0.3l0,0l0,0c-0.4,0.1-0.9,0.2-1.3,0.3l0,0
	L97.7,123.4"/>
<path style="fill:#006189;" d="M110.9,142.4c0.1,0,0.2,0,0.2,0c0,0.1,0,0.2-0.1,0.3l0,0L110.9,142.4L110.9,142.4"/>
<path style="fill:#0076A9;" d="M95.6,133.3c0.2,0,0.4,0,0.6,0c1.3,0.1,2.5,0.7,3.3,1.6c0.2,0.2,0.4,0.4,0.6,0.7l-0.9,0.8l0.3,0.6
	l1.1-0.6l0,0c0.1,0.3,0.2,0.5,0.3,0.8c0.2,0.5,0.3,1.1,0.3,1.7c0,1-0.2,1.8-0.7,2.6l0,0l0,0l0,0c-0.9,1.7-2.8,2.9-4.9,2.9
	c-1.3,0-2.5-0.5-3.5-1.2l0,0l0,0l0,0l0,0c0.4,0.6,0.9,1.1,1.5,1.6c-2.5-1-4.3-3.5-4.3-6.3l0,0c0-0.7,0.1-1.3,0.3-2l0,0
	c0,0.9,0.2,1.8,0.4,2.7l0,0l0,0c0-0.1,0-0.2,0-0.3C90,135.7,92.5,133.3,95.6,133.3"/>
<path style="fill:#006189;" d="M100,135.6L100,135.6c0.2,0.2,0.3,0.5,0.5,0.8l-1.1,0.6l-0.3-0.6L100,135.6"/>
<path style="fill:#0076A9;" d="M115.9,141.6c0.7,0.4,1.4,0.7,2.2,1l3.7,7.4l-0.6,9.5l0,0c-6-2-10.2-7.7-10.2-14.4l0,0
	c0-0.9,0.1-1.7,0.2-2.5l0,0l0,0c0-0.1,0-0.2,0.1-0.3l0,0c0.1,0,0.2,0,0.3,0C113,142.4,114.5,142.1,115.9,141.6"/>
<path style="fill:#0076A9;" d="M139.2,145.8c0.6,0.5,1.3,0.9,2,1.3c-0.5,3.9-2.4,7.3-5.2,9.7c-1.1,0.9-2.4,1.7-3.7,2.3
	c-0.1,0-0.1,0.1-0.2,0.1l0,0l0,0l-0.6-7L139.2,145.8"/>
<path style="fill:#006086;" d="M123.6,149.4l4.3,5.7l3.5-2.9l0.6,7l0,0c-1,0.4-2.1,0.8-3.3,1c-0.9,0.2-1.7,0.2-2.6,0.2
	c-0.1,0-0.1,0-0.2,0c-1.6,0-3.2-0.3-4.7-0.8c0,0,0,0-0.1,0l0,0l0.6-9.5l0.7,1.4L123.6,149.4"/>
<path style="fill:#006086;" d="M129.8,144l-4.4,2.3l1.2-2.1C127.6,144.3,128.7,144.2,129.8,144"/>
<path style="fill:#006086;" d="M118.1,142.6c2.6,1,5.4,1.6,8.4,1.6c0,0,0.1,0,0.1,0l-1.2,2.1l-2.9,1.5l1.1,1.5l-1.1,2l-0.7-1.4
	L118.1,142.6"/>
<path style="fill:#006086;" d="M136.2,142.1c0.7,1.4,1.8,2.7,3,3.7l-7.8,6.4l-3.5,2.9l-4.3-5.7l-1.1-1.5l2.9-1.5l4.4-2.3
	C132,143.7,134.2,143,136.2,142.1"/>
<path style="fill:#0079AA;" d="M126.1,77.8c8.4,0,15.2,6.8,15.2,15.2l0,0c0,0.2,0,0.4,0,0.6l0,0l0,0l0,0l0,0c-4,0.6-7.3,3.3-8.9,6.8
	l0,0l0,0c-1.8-0.5-3.6-0.8-5.6-0.8c3.4-0.4,6-3.2,6-6.7l0,0l0,0c0-3.7-3-6.7-6.7-6.7c-3.7,0-6.7,3-6.7,6.7l0,0l0,0
	c0,3.4,2.5,6.2,5.7,6.7l0,0.1l0,0c-1.9,0.1-3.7,0.5-5.5,1l0,0l0,0c-0.3-2.3-2.3-4.1-4.7-4.1c-1.2,0-2.4,0.5-3.2,1.3l0,0l0,0l0,0l0,0
	c-0.5-1.5-0.8-3.2-0.8-4.9l0,0c0-1.8,0.3-3.5,0.9-5.1l0,0l0,0c2.1-5.8,7.6-10.1,14.2-10.1l0,0l0,0C126,77.8,126,77.8,126.1,77.8"/>
<path style="fill:#006188;" d="M125.1,99.6c0.1,0,0.3,0,0.4,0.1C125.3,99.7,125.2,99.7,125.1,99.6L125.1,99.6"/>
<path style="fill:#0079AA;" d="M104.1,102c0.1,0,0.2,0,0.3,0c-0.3,0.5-0.5,1.1-0.6,1.8l0,0l0,0c-1-0.5-2.1-0.8-3.2-0.8
	c-0.5,0-1,0.1-1.5,0.2C100.7,102.4,102.3,102,104.1,102"/>
<path style="fill:#0079AA;" d="M107.3,108.9c0.3,0.1,0.6,0.1,1,0.2c-0.2,0.3-0.5,0.7-0.7,1.1l0,0l0,0c-0.1-0.1-0.1-0.2-0.2-0.3
	c0,0,0-0.1,0-0.1l0,0l0,0C107.4,109.4,107.3,109.2,107.3,108.9"/>
<path style="fill:#0079AA;" d="M94.3,107.4c-0.3,0.7-0.4,1.5-0.4,2.3l0,0l0,0c0,3.7,3,6.7,6.7,6.7c0,0,0.1,0,0.1,0
	c0.8,0.7,1.9,1.1,3,1.1c0.3,0,0.6,0,0.9-0.1c0,0.1,0,0.1,0,0.2l0,0l0,0c-2.5,1.5-4.4,3.8-5.5,6.5l0,0l0,0l0,0l0,0
	c-0.5-0.2-0.9-0.5-1.4-0.8c-3.1-2.1-5.2-5.7-5.2-9.7l0,0c0-0.4,0-0.9,0.1-1.3l0,0C92.7,110.6,93.4,108.9,94.3,107.4"/>
<path style="fill:#0079AA;" d="M99,124.5c-0.5,1.4-0.8,3-0.8,4.6l0,0l0,0c0,1.1,0.1,2.1,0.4,3.2c-0.9,0.1-1.7,0.5-2.4,1.1l0,0l0,0
	c-0.2,0-0.4,0-0.6,0c-3.1,0-5.5,2.5-5.5,5.5l0,0c0,0.1,0,0.2,0,0.3l0,0c-0.2-0.9-0.4-1.8-0.4-2.7c0-0.2,0-0.3,0-0.5l0,0
	c0-5.2,3.4-9.6,8.1-11.1l0,0C98.1,124.7,98.5,124.6,99,124.5"/>
<path style="fill:#0079AA;" d="M103.1,139.4c2.2,1.7,4.9,2.8,7.8,2.9l0,0c-2.1,3.1-5.7,5.2-9.7,5.2c-1.1,0-2.2-0.2-3.2-0.5
	c-1.7-0.5-3.2-1.3-4.4-2.4c-0.5-0.5-1-1-1.5-1.6l0,0c1,0.8,2.2,1.2,3.5,1.2c2.1,0,3.9-1.2,4.9-2.9l0,0
	C101.5,141.1,102.5,140.4,103.1,139.4"/>
<path style="fill:#0079AA;" d="M143.1,93.5c6.3,0,11.4,5,11.7,11.2l0,0l0,0c0,0.1,0,0.3,0,0.4l0,0c0,3.7-1.8,7.1-4.5,9.2l0,0l0,0
	l0,0l0,0c-0.8-1.4-2.2-2.3-3.8-2.4l0,0l0,0c-0.3-0.7-0.7-1.3-1.1-1.9c1.3-0.8,2.2-2.3,2.2-4l0,0l0,0c0-2.6-2.1-4.7-4.7-4.7
	c-1.6,0-3.1,0.8-3.9,2.1l0,0l0,0c-0.4-0.2-0.7-0.5-1.1-0.7c2.1-2.5,3.4-5.6,3.5-9.1l0,0l0,0l0,0C141.9,93.5,142.5,93.5,143.1,93.5"
	/>
<path style="fill:#0077A9;" d="M141.3,93.6L141.3,93.6c-0.1,3.5-1.4,6.6-3.5,9.1l0,0l0,0l0,0l0,0c-1.7-1-3.4-1.7-5.3-2.3
	C134,96.9,137.3,94.2,141.3,93.6"/>
<path style="fill:#0079AA;" d="M117.3,105.4c2.1,1.5,4.5,2.4,7.2,2.7l-0.2,2.5l0,0c-3.5,0.7-6.4,3-8,6.2l0,0l0,0
	c-0.3-0.1-0.6-0.2-0.9-0.3c0.2-0.9,0.3-1.8,0.3-2.7l0,0l0,0c0-2.9-1.1-5.6-2.9-7.6c0-0.1,0.1-0.2,0.1-0.4c0.6,0.2,1.2,0.4,1.8,0.4
	C115.8,106,116.6,105.8,117.3,105.4"/>
<path style="fill:#0079AA;" d="M136.5,114.8c1.4,1,3.1,1.7,4.9,1.9c0,0.2,0,0.5,0.1,0.7c-1.6,0.8-2.6,2.4-2.6,4.2l0,0l0,0
	c0,2,1.3,3.7,3,4.4c-3.1,1.3-5.5,4-6.5,7.2l0,0l0,0c-0.7-0.6-1.5-1.1-2.3-1.5c3.2-2.1,5.3-5.7,5.3-9.8l0,0l0,0
	c0-2.5-0.8-4.9-2.2-6.8L136.5,114.8"/>
<path style="fill:#0079AA;" d="M131.6,107.1c0.4,2.1,1.3,4,2.6,5.6l-0.2,0.2l0,0c-1.8-1.4-4-2.4-6.4-2.5l0,0l0,0l-0.2-2.2
	C128.9,108,130.3,107.7,131.6,107.1"/>
<path style="fill:#0079AA;" d="M148.7,120.6L148.7,120.6c0,0.4,0,0.9,0,1.4l0,0c0,1.1-0.1,2.2-0.2,3.3l0,0l0,0l0,0l0,0
	c-0.6-0.1-1.2-0.2-1.8-0.2c0.9-0.9,1.5-2.1,1.5-3.4l0,0l0,0c0-0.2,0-0.5-0.1-0.7C148.4,120.8,148.5,120.7,148.7,120.6"/>
<path style="fill:#006188;" d="M124.5,108.1c0.5,0.1,1,0.1,1.6,0.1c0.5,0,0.9,0,1.4-0.1l0,0l0.2,2.2c-0.3,0-0.6,0-0.9,0
	c-0.8,0-1.6,0.1-2.4,0.2L124.5,108.1"/>
<path style="fill:#006188;" d="M134.2,112.7c0.7,0.8,1.4,1.5,2.3,2l-0.3,0.4l0,0l0,0c-0.6-0.8-1.3-1.6-2.2-2.3L134.2,112.7"/>
<path style="fill:#0075A8;" d="M133.1,131.7L133.1,131.7c0.8,0.4,1.6,0.9,2.3,1.5c-0.3,1.1-0.5,2.3-0.5,3.5l0,0l0,0
	c0,1.5,0.3,2.9,0.8,4.2l-5,2.7l-0.9-10.3C130.9,132.9,132.1,132.4,133.1,131.7"/>
<path style="fill:#0075A8;" d="M117.3,141l0.8,1.6c-0.7-0.3-1.5-0.6-2.2-1C116.4,141.5,116.8,141.3,117.3,141"/>
<path style="fill:#006086;" d="M129.7,133.3L129.7,133.3l0.9,10.3l-0.8,0.4l0,0c-1.1,0.2-2.1,0.2-3.2,0.2l1.2-2.1l-4.9-6.2
	c0.5-0.8,0.9-1.7,1.2-2.7c0.9,0.2,1.8,0.3,2.7,0.3C127.8,133.6,128.7,133.5,129.7,133.3"/>
<path style="fill:#006086;" d="M122.8,136L122.8,136l4.9,6.2l-1.2,2.1c0,0-0.1,0-0.1,0c-3,0-5.8-0.6-8.4-1.6l-0.8-1.6
	C119.6,139.9,121.5,138.2,122.8,136"/>
<path style="fill:#006086;" d="M135.6,140.9c0.1,0.4,0.3,0.8,0.5,1.1c-2,1-4.1,1.6-6.4,2l0,0l0.8-0.4L135.6,140.9"/>
<path style="fill:#0077A9;" d="M125,99.7l-0.5,8.4l0,0c-2.7-0.3-5.1-1.2-7.2-2.7c1.4-0.8,2.3-2.3,2.3-4.1l0,0l0,0c0-0.2,0-0.4,0-0.6
	C121.3,100.2,123.2,99.8,125,99.7"/>
<path style="fill:#0077A9;" d="M126.8,99.7L126.8,99.7c1.9,0,3.8,0.3,5.6,0.8c-0.6,1.4-1,3-1,4.7l0,0l0,0c0,0.7,0.1,1.4,0.2,2
	c-1.3,0.5-2.7,0.8-4.2,1l0,0l0,0l-0.8-8.4C126.7,99.7,126.8,99.7,126.8,99.7"/>
<path style="fill:#006087;" d="M126.7,99.7L126.7,99.7l0.8,8.4l0,0c-0.4,0-0.9,0.1-1.4,0.1c-0.5,0-1.1,0-1.6-0.1l0,0l0.5-8.4l0,0
	c0.1,0,0.3,0,0.4,0l0,0c0.2,0,0.4,0,0.6,0C126.3,99.7,126.5,99.7,126.7,99.7"/>
<path style="fill:#0077A9;" d="M112.9,106L112.9,106c1.8,2,2.9,4.7,2.9,7.6l0,0c0,0.9-0.1,1.8-0.3,2.7l0,0l0,0l0,0l0,0
	c-1.3-0.4-2.6-0.6-4-0.6c-1.4,0-2.8,0.2-4.1,0.6l0,0l0,0l-0.2-0.3c0.8-0.8,1.3-2,1.3-3.3l0,0l0,0c0-1-0.3-2-0.9-2.8
	c0.2-0.4,0.5-0.7,0.7-1.1l0,0c0.1,0,0.2,0,0.3,0C110.5,109,112.3,107.8,112.9,106"/>
<path style="fill:#0077A9;" d="M105.2,117.3c-0.2,0.1-0.4,0.2-0.6,0.4c0-0.1,0-0.1,0-0.2l0,0C104.8,117.4,105,117.4,105.2,117.3"/>
<path style="fill:#006087;" d="M107.1,116.1L107.1,116.1l0.2,0.3c-0.4,0.1-0.7,0.2-1.1,0.4C106.6,116.6,106.9,116.4,107.1,116.1"/>
<path style="fill:#0077A9;" d="M137.7,102.7L137.7,102.7L137.7,102.7c0.4,0.2,0.7,0.4,1.1,0.7c-0.5,0.8-0.8,1.7-0.8,2.6l0,0l0,0
	c0,1,0.3,2,0.9,2.7l-4.7,4l0,0c-1.3-1.6-2.3-3.5-2.6-5.6C134,106.2,136.1,104.7,137.7,102.7L137.7,102.7"/>
<path style="fill:#0077A9;" d="M145.3,110L145.3,110c0.4,0.6,0.8,1.3,1.1,1.9c-0.1,0-0.2,0-0.3,0c-2.6,0-4.7,2.1-4.7,4.7v0l0,0l0,0
	l0,0c-1.8-0.3-3.5-0.9-4.9-1.9l3.7-4.8c0.7,0.5,1.6,0.7,2.5,0.7C143.7,110.7,144.5,110.5,145.3,110"/>
<path style="fill:#006087;" d="M138.9,108.8c0.4,0.5,0.8,0.9,1.3,1.2l-3.7,4.8c-0.8-0.6-1.6-1.3-2.3-2l0,0L138.9,108.8"/>
<path style="fill:#0076A9;" d="M132.4,100.5L132.4,100.5c1.9,0.5,3.7,1.3,5.3,2.3l0,0c-1.6,1.9-3.7,3.5-6.1,4.4
	c-0.1-0.7-0.2-1.3-0.2-2l0,0C131.4,103.5,131.8,101.9,132.4,100.5L132.4,100.5"/>
<path style="fill:#0077A9;" d="M124.3,110.6l-0.8,12.9l0,0c-1.4-3.1-4-5.5-7.2-6.8C117.9,113.6,120.8,111.3,124.3,110.6"/>
<path style="fill:#0077A9;" d="M136.2,115.2L136.2,115.2L136.2,115.2c1.4,1.9,2.2,4.3,2.2,6.8l0,0c0,4.1-2.1,7.7-5.3,9.8l0,0l0,0
	c-1.1-0.6-2.4-1.1-3.7-1.3l0,0l0,0l-0.5-6.1l0.1,0.1L136.2,115.2"/>
<path style="fill:#0077A9;" d="M127.6,110.3c2.4,0.2,4.6,1.1,6.4,2.5l-5.8,4.9L127.6,110.3"/>
<path style="fill:#006087;" d="M126.7,110.3c0.3,0,0.6,0,0.9,0l0,0l0.7,7.4l-3.1,2.6l3.6,3.9l0.5,6.1c-1.1-0.2-2.2-0.4-3.3-0.4
	c-0.5,0-0.9,0-1.4,0.1c0-0.3,0-0.7,0-1l0,0l0,0c0-2-0.4-3.9-1.2-5.6l0.8-12.9l0,0C125.1,110.4,125.9,110.3,126.7,110.3"/>
<path style="fill:#006087;" d="M134.1,112.9L134.1,112.9c0.8,0.7,1.5,1.4,2.2,2.3l0,0l-7.2,9.3l-0.1-0.1l-3.6-3.9l3.1-2.6
	L134.1,112.9"/>
<path style="fill:#0075A8;" d="M129.4,130.4c1.3,0.3,2.5,0.7,3.7,1.3l0,0c-1,0.7-2.2,1.2-3.4,1.5l0,0l0,0L129.4,130.4"/>
<path style="fill:#006086;" d="M126.1,130c1.1,0,2.3,0.1,3.3,0.4l0,0l0.3,2.9l0,0c-0.9,0.2-1.9,0.4-2.9,0.4c-0.9,0-1.8-0.1-2.7-0.3
	c0.3-1,0.6-2.1,0.7-3.2l0,0C125.2,130.1,125.6,130,126.1,130"/>
<path style="fill:#0079AA;" d="M144.2,135.5l0.1,0.9l-1.6,0.8C143.3,136.6,143.8,136.1,144.2,135.5"/>
<path style="fill:#0079AA;" d="M148.5,125.2L148.5,125.2L148.5,125.2c0.5,0.1,1,0.2,1.4,0.3c-1.3,1.2-2.1,3-2.1,4.9l0,0l0,0
	c0,1.3,0.4,2.5,1,3.5l-1.2,0.6l-1-3C147.5,129.6,148.2,127.5,148.5,125.2L148.5,125.2"/>
<path style="fill:#0079AA;" d="M150.9,136.1c0.8,0.5,1.6,0.9,2.6,1c0.8,0.5,1.7,0.9,2.7,0.9c0.7,0,1.4-0.2,2-0.4
	c-0.4,6.1-5.5,10.9-11.6,10.9c-1.9,0-3.8-0.5-5.4-1.3c0.1-0.6,0.1-1.2,0.1-1.9l0,0l0,0c0-0.4,0-0.8,0-1.2L150.9,136.1"/>
<path style="fill:#006188;" d="M148.8,134c0.5,0.8,1.2,1.6,2,2.1l-9.6,8l0,0l0,0c-0.1-1.6-0.5-3.1-1-4.5c0.9-0.7,1.8-1.5,2.6-2.4
	l0,0l1.6-0.8l0.3,2.6l4.1-1.2l-1.1-3.1L148.8,134"/>
<path style="fill:#006188;" d="M146.6,131.6L146.6,131.6l1,3l1.1,3.1l-4.1,1.2l-0.3-2.6l-0.1-0.9C145.1,134.3,145.9,133,146.6,131.6
	"/>
<path style="fill:#0075A8;" d="M141.2,144L141.2,144L141.2,144c0,0.4,0,0.8,0,1.2l0,0c0,0.6,0,1.3-0.1,1.9c-0.7-0.4-1.4-0.8-2-1.3
	L141.2,144"/>
<path style="fill:#006086;" d="M140.2,139.5L140.2,139.5c0.6,1.4,0.9,2.9,1,4.5l0,0l-2.1,1.7c-1.2-1-2.3-2.3-3-3.7
	C137.6,141.4,138.9,140.5,140.2,139.5"/>
<path style="fill:#0077A9;" d="M141.9,126c0.4,0.1,0.8,0.2,1.2,0.3l1.1,9.2c-0.5,0.6-0.9,1.2-1.4,1.7l0,0l0,0l-2.9,1.5l0,0
	c-1-2.2-2.5-4.1-4.4-5.5C136.4,130,138.8,127.4,141.9,126L141.9,126"/>
<path style="fill:#0077A9;" d="M146.8,125.1L146.8,125.1c0.6,0,1.2,0.1,1.8,0.2l0,0c-0.3,2.2-1,4.4-1.9,6.3l0,0l0,0l-1.8-5.4
	C145.5,126,146.2,125.6,146.8,125.1"/>
<path style="fill:#006087;" d="M142.8,137.2L142.8,137.2c-0.8,0.9-1.7,1.6-2.6,2.4l0,0l0,0c-0.1-0.3-0.2-0.5-0.4-0.8L142.8,137.2"/>
<path style="fill:#006087;" d="M144.7,126.2L144.7,126.2l1.8,5.4l0,0c-0.7,1.4-1.5,2.7-2.4,3.9l-1.1-9.2c0.2,0,0.3,0,0.5,0
	C144,126.3,144.4,126.3,144.7,126.2"/>
<path style="fill:#0075A8;" d="M135.4,133.2L135.4,133.2c1.9,1.5,3.4,3.3,4.4,5.5l-4.2,2.2l0,0c-0.5-1.3-0.8-2.7-0.8-4.2l0,0
	C134.9,135.5,135.1,134.3,135.4,133.2L135.4,133.2"/>
<path style="fill:#006086;" d="M139.8,138.7L139.8,138.7c0.1,0.3,0.2,0.5,0.4,0.8l0,0c-1.2,1-2.6,1.8-4,2.5
	c-0.2-0.4-0.4-0.7-0.5-1.1l0,0L139.8,138.7"/>
<path style="fill:#0077A9;" d="M100.6,103c1.2,0,2.3,0.3,3.2,0.8c0,0.2,0,0.3,0,0.5l0,0l0,0c0,2.2,1.5,4,3.5,4.5l0,0
	c0,0.3,0.1,0.6,0.1,0.8l0,0c0,0,0,0.1,0,0.1l0,0l0,0l0,0l0,0c-0.9-1-2.2-1.7-3.6-1.7c-2.6,0-4.7,2.1-4.7,4.7l0,0l0,0
	c0,1.4,0.6,2.7,1.7,3.6c0,0-0.1,0-0.1,0c-3.7,0-6.7-3-6.7-6.7l0,0c0-0.8,0.1-1.6,0.4-2.3l0,0c0.8-1.3,1.9-2.4,3.1-3.3l0,0
	c0.5-0.4,1.1-0.7,1.7-1l0,0C99.6,103,100.1,103,100.6,103"/>
<path style="fill:#0077A9;" d="M126.1,86.3c3.7,0,6.7,3,6.7,6.7l0,0c0,3.5-2.6,6.3-6,6.7l0,0l0,0c-0.1,0-0.1,0-0.2,0l0,0l0,0
	l-0.6-6.7h-0.6l-0.4,6.7l0,0c-3.2-0.5-5.7-3.3-5.7-6.7l0,0C119.4,89.3,122.4,86.3,126.1,86.3"/>
<path style="fill:#006087;" d="M125.5,93h0.6l0.6,6.7c-0.1,0-0.2,0-0.2,0c-0.3,0-0.6,0-1,0l0,0l0,0c-0.1,0-0.3,0-0.4-0.1l0,0
	L125.5,93"/>
<path style="fill:#0076A9;" d="M126.7,99.7c0.1,0,0.1,0,0.2,0l0,0C126.8,99.7,126.7,99.7,126.7,99.7L126.7,99.7L126.7,99.7
	L126.7,99.7"/>
<path style="fill:#006086;" d="M126.5,99.7c0.1,0,0.2,0,0.2,0l0,0l0,0l0,0c-0.2,0-0.4,0-0.6,0c-0.2,0-0.4,0-0.6,0l0,0
	C125.8,99.7,126.1,99.7,126.5,99.7"/>
<path style="fill:#0079AA;" d="M154.6,123.7c1.7,0,3.3,0.6,4.5,1.7c-1.8,0.2-3.4,1.5-3.9,3.2l0,0l0,0c0,0-0.1,0-0.1,0l0,0l0,0
	c-1.4-1.4-3.1-2.5-5-3.1C151.1,124.4,152.8,123.7,154.6,123.7"/>
<path style="fill:#0077A9;" d="M149.9,125.6L149.9,125.6c1.9,0.6,3.7,1.7,5,3.1c-1.8,0.5-3.2,2-3.5,3.9l0,0l0,0l-2.7,1.4l0,0
	c-0.6-1-1-2.2-1-3.5l0,0C147.8,128.5,148.6,126.8,149.9,125.6L149.9,125.6"/>
<path style="fill:#0077A9;" d="M151.9,135.2c0.3,0.7,0.9,1.4,1.6,1.9c-0.9-0.2-1.8-0.5-2.6-1L151.9,135.2"/>
<path style="fill:#006087;" d="M151.5,132.6c0,0.2,0,0.4,0,0.7l0,0l0,0c0,0.7,0.2,1.4,0.4,2l-1,0.8c-0.8-0.5-1.5-1.3-2-2.1l0,0
	L151.5,132.6"/>
<path style="fill:#0079AA;" d="M159.6,125.4c2.6,0,4.7,2.1,4.7,4.7l0,0c0,2.2-1.6,4.1-3.7,4.6c0.1-0.5,0.2-0.9,0.2-1.4l0,0l0,0
	c0-0.1,0-0.3,0-0.4c0.3-0.7,0.4-1.6,0.4-2.4l0,0l0,0c0-2-0.9-3.8-2.3-5C159.2,125.4,159.4,125.4,159.6,125.4"/>
<path style="fill:#0077A9;" d="M159,125.4L159,125.4c1.4,1.2,2.3,3,2.3,5l0,0c0,0.8-0.2,1.6-0.4,2.4l0,0l0,0l0,0l0,0
	c-0.2-2.4-2.2-4.3-4.7-4.3c-0.4,0-0.7,0-1,0.1C155.7,126.9,157.2,125.6,159,125.4L159,125.4"/>
<path style="fill:#0079AA;" d="M160.7,134.7c-0.4,1.3-1.3,2.3-2.5,2.8c0-0.3,0-0.5,0-0.8l0,0l0,0c0-0.2,0-0.4,0-0.6
	c0.6-0.4,1.1-0.8,1.5-1.3C160,134.8,160.3,134.8,160.7,134.7"/>
<path style="fill:#0077A9;" d="M158.2,136.1L158.2,136.1c0,0.2,0,0.4,0,0.6l0,0c0,0.3,0,0.5,0,0.8c-0.6,0.3-1.3,0.4-2,0.4
	c-1,0-2-0.3-2.7-0.9c0.4,0.1,0.7,0.1,1.1,0.1C155.9,137.2,157.1,136.8,158.2,136.1"/>
<path style="fill:#0077A9;" d="M158,134.5c0.5,0.2,1.1,0.3,1.6,0.3c0,0,0.1,0,0.1,0c-0.4,0.5-1,1-1.5,1.3l0,0l0,0
	C158.1,135.6,158.1,135,158,134.5"/>
<path style="fill:#0077A9;" d="M155.1,128.7c0,0,0,0.1,0,0.1l0,0l0,0c0,0-0.1-0.1-0.1-0.1C155,128.7,155.1,128.7,155.1,128.7"/>
<path style="fill:#0076A9;" d="M155,128.7L155,128.7c0,0,0.1,0.1,0.1,0.1c-0.1,0.4-0.2,0.8-0.2,1.3l0,0l0,0c0,0.2,0,0.4,0,0.7
	l-3.4,1.8C151.8,130.7,153.2,129.2,155,128.7L155,128.7"/>
<path style="fill:#0076A9;" d="M155.4,132.3c0.5,1,1.4,1.8,2.5,2.2l0,0c0.1,0.5,0.2,1.1,0.2,1.6l0,0c-1,0.7-2.3,1-3.6,1
	c-0.4,0-0.8,0-1.1-0.1c-0.7-0.5-1.2-1.1-1.6-1.9L155.4,132.3"/>
<path style="fill:#006086;" d="M154.9,130.8c0.1,0.5,0.3,1.1,0.5,1.5l-3.6,2.9c-0.3-0.6-0.4-1.3-0.4-2l0,0c0-0.2,0-0.5,0-0.7l0,0
	L154.9,130.8"/>
<path style="fill:#0077A9;" d="M160.9,132.9L160.9,132.9L160.9,132.9c0,0.1,0,0.3,0,0.4l0,0c0,0.5-0.1,1-0.2,1.4
	c-0.3,0.1-0.6,0.1-0.9,0.1C160.2,134.2,160.6,133.6,160.9,132.9L160.9,132.9"/>
<path style="fill:#0076A9;" d="M156.2,128.5c2.5,0,4.5,1.9,4.7,4.3l0,0c-0.3,0.7-0.7,1.4-1.2,2c0,0-0.1,0-0.1,0
	c-0.6,0-1.1-0.1-1.6-0.3l0,0l0,0c-0.4-2.2-1.4-4.2-2.9-5.7c0,0,0-0.1,0-0.1l0,0l0,0C155.5,128.6,155.8,128.5,156.2,128.5"/>
<path style="fill:#0075A8;" d="M155.1,128.8L155.1,128.8c1.5,1.6,2.5,3.5,2.9,5.7l0,0c-1.1-0.4-2-1.2-2.5-2.2l0.7-0.6l-0.6-1.2
	l-0.6,0.3l0,0c0-0.2,0-0.4,0-0.7l0,0C154.9,129.6,155,129.2,155.1,128.8L155.1,128.8"/>
<path style="fill:#006086;" d="M155.5,130.5l0.6,1.2l-0.7,0.6c-0.3-0.5-0.4-1-0.5-1.5l0,0L155.5,130.5"/>
<path style="fill:#0079AA;" d="M150.2,114.4L150.2,114.4L150.2,114.4c0.4,0.7,0.6,1.5,0.6,2.3l0,0c0,1.6-0.8,3.1-2.1,3.9l0,0l0,0
	c-0.1-1.7-0.4-3.3-0.8-4.8C148.7,115.4,149.5,114.9,150.2,114.4L150.2,114.4"/>
<path style="fill:#0077A9;" d="M146.4,112c1.7,0.1,3.1,1,3.8,2.4l0,0c-0.7,0.6-1.5,1-2.4,1.4l0,0l0,0l0,0l0,0
	C147.5,114.4,147,113.2,146.4,112"/>
<path style="fill:#0077A9;" d="M147.9,115.8L147.9,115.8L147.9,115.8c0.4,1.5,0.7,3.2,0.8,4.8l0,0c-0.2,0.1-0.3,0.2-0.5,0.3l0,0l0,0
	l0,0l0,0c-0.3-2.3-2.3-4-4.7-4c-0.7,0-1.4,0.2-2.1,0.5l0,0l0,0l0,0l0,0c0-0.2-0.1-0.5-0.1-0.7l0,0l0,0c0.5,0.1,1.1,0.1,1.7,0.1
	C144.8,116.8,146.4,116.4,147.9,115.8L147.9,115.8"/>
<path style="fill:#0076A9;" d="M146.1,112c0.1,0,0.2,0,0.3,0l0,0l0,0c0.6,1.2,1.1,2.5,1.5,3.8l0,0c-1.5,0.7-3.1,1-4.8,1
	c-0.6,0-1.1,0-1.7-0.1l0,0v0C141.4,114.1,143.5,112,146.1,112"/>
<path style="fill:#0079AA;" d="M108.5,99.6c0.6,0,1.3,0.1,1.8,0.4c-0.1,0.4-0.2,0.9-0.2,1.3l0,0l0,0c0,1.5,0.7,2.8,1.8,3.7l0,0l0,0
	l0,0c-2-1.8-4.6-2.9-7.5-3C105.2,100.6,106.8,99.6,108.5,99.6"/>
<path style="fill:#0077A9;" d="M104.4,102L104.4,102c2.9,0.1,5.5,1.2,7.5,3c-1.4,1.2-2.6,2.5-3.7,4l0,0l0,0c-0.3,0-0.7-0.1-1-0.2
	l0,0l0,0c-0.3-2.2-1.6-4-3.4-5.1C103.9,103.2,104.1,102.6,104.4,102L104.4,102"/>
<path style="fill:#0077A9;" d="M112,105c0.3,0.3,0.7,0.5,1.1,0.7c0,0.1-0.1,0.3-0.1,0.4l0,0l0,0C112.6,105.7,112.3,105.4,112,105
	L112,105"/>
<path style="fill:#0076A9;" d="M111.9,105L111.9,105c0.4,0.3,0.7,0.7,1,1l0,0c-0.7,1.8-2.4,3-4.4,3c-0.1,0-0.2,0-0.3,0l0,0
	C109.3,107.6,110.6,106.2,111.9,105L111.9,105"/>
<path style="fill:#0076A9;" d="M103.9,103.8L103.9,103.8c1.8,1,3.2,2.9,3.4,5.1l0,0c-2-0.5-3.5-2.4-3.5-4.5l0,0
	C103.8,104.2,103.8,104,103.9,103.8L103.9,103.8"/>
<path style="fill:#0077A9;" d="M141.5,117.4L141.5,117.4c0.3,2.3,2.3,4,4.7,4c0.7,0,1.4-0.2,2.1-0.5l0,0l0,0l0,0
	c0,0.2,0.1,0.5,0.1,0.7l0,0c0,1.4-0.6,2.6-1.5,3.4l0,0l0,0c-0.1,0-0.2,0-0.2,0c-0.7,0-1.4,0.1-2.1,0.2l0,0l0,0l-1.3-3.8l-0.7,0.1
	l0.5,4.1c-0.4,0.1-0.7,0.3-1.1,0.4l0,0l0,0c-1.8-0.7-3-2.4-3-4.4l0,0C138.8,119.8,139.9,118.2,141.5,117.4L141.5,117.4L141.5,117.4"
	/>
<path style="fill:#006087;" d="M143.1,121.4l1.3,3.8c-0.5,0.1-1,0.2-1.5,0.4l0,0l0,0l0,0l-0.5-4.1L143.1,121.4"/>
<path style="fill:#0076A9;" d="M146.5,125.1c0.1,0,0.2,0,0.2,0l0,0c-0.6,0.5-1.3,0.9-2,1.1l0,0l0,0l-0.3-0.9
	C145.1,125.1,145.8,125.1,146.5,125.1"/>
<path style="fill:#0076A9;" d="M143,125.6L143,125.6l0.1,0.7c-0.4,0-0.8-0.1-1.2-0.3l0,0C142.2,125.9,142.6,125.7,143,125.6
	L143,125.6L143,125.6"/>
<path style="fill:#006086;" d="M144.4,125.2L144.4,125.2l0.3,0.9l0,0c-0.4,0.1-0.8,0.2-1.2,0.2c-0.2,0-0.3,0-0.5,0l-0.1-0.7
	C143.4,125.5,143.9,125.3,144.4,125.2L144.4,125.2"/>
<path style="fill:#0076A9;" d="M143.5,116.9c2.4,0,4.3,1.7,4.7,4l0,0c-0.6,0.3-1.3,0.5-2.1,0.5c-2.4,0-4.3-1.7-4.7-4l0,0
	C142.1,117.1,142.8,116.9,143.5,116.9"/>
<path style="fill:#0079AA;" d="M99.1,124.2L99.1,124.2c0.1,0.1,0.3,0.1,0.4,0.2c-0.2,0-0.3,0.1-0.5,0.1
	C99,124.4,99,124.3,99.1,124.2L99.1,124.2L99.1,124.2"/>
<path style="fill:#0079AA;" d="M111.3,141.8c0,0.2-0.1,0.4-0.1,0.6l0,0l0,0c-0.1,0-0.2,0-0.2,0C111.1,142.2,111.2,142,111.3,141.8"
	/>
<path style="fill:#0075A8;" d="M112.4,139.3c1.1,0.9,2.3,1.7,3.5,2.3c-1.4,0.5-2.9,0.8-4.5,0.8c-0.1,0-0.2,0-0.3,0l0,0
	c0-0.2,0.1-0.4,0.1-0.6l0,0C111.8,141,112.1,140.2,112.4,139.3"/>
<path style="fill:#0077A9;" d="M104.6,117.7c-0.3,1.4-0.4,2.8-0.4,4.3l0,0l0,0c0,0.9,0.1,1.8,0.2,2.7c-1-0.3-2-0.4-3.1-0.4
	c-0.6,0-1.2,0-1.8,0.1l0,0l0,0l0,0l0,0c-0.1-0.1-0.3-0.1-0.4-0.2l0,0C100.1,121.5,102.1,119.2,104.6,117.7"/>
<path style="fill:#0077A9;" d="M107,132.8c1.3,2.4,3.1,4.5,5.2,6.3c-0.4,0.9-0.7,1.8-0.9,2.7l0,0l0,0c-0.1,0.2-0.2,0.4-0.4,0.6
	c-3-0.1-5.7-1.2-7.8-2.9c0.5-0.7,0.7-1.6,0.7-2.5l0,0l0,0c0-0.8-0.2-1.5-0.5-2.1L107,132.8"/>
<path style="fill:#0077A9;" d="M99.5,124.4L99.5,124.4c1.4,0.6,3,1,4.7,1c0.1,0,0.2,0,0.3,0c0.3,1.8,0.8,3.6,1.5,5.3l-3.5,2.9l0,0
	c-0.8-0.8-2-1.3-3.3-1.3c-0.2,0-0.4,0-0.6,0l0,0l0,0l0,0l0,0c-0.2-1-0.4-2.1-0.4-3.2l0,0c0-1.6,0.3-3.2,0.8-4.6l0,0l0,0
	C99.1,124.4,99.3,124.4,99.5,124.4L99.5,124.4L99.5,124.4"/>
<path style="fill:#006087;" d="M105.9,130.6c0.3,0.8,0.7,1.5,1.1,2.2l-3.6,2l0,0l0,0c-0.2-0.5-0.5-0.9-0.9-1.3L105.9,130.6"/>
<path style="fill:#0075A8;" d="M112.2,139.1c0.1,0.1,0.1,0.1,0.2,0.2c-0.3,0.9-0.6,1.7-1.1,2.5l0,0
	C111.5,140.9,111.8,140,112.2,139.1L112.2,139.1"/>
<path style="fill:#0076A9;" d="M101.2,124.2c1.1,0,2.1,0.1,3.1,0.4l0,0c0,0.2,0.1,0.5,0.1,0.7c-0.1,0-0.2,0-0.3,0
	c-1.7,0-3.2-0.3-4.7-1l0,0C100,124.3,100.6,124.2,101.2,124.2"/>
<path style="fill:#0077A9;" d="M108.9,124.3l1.3,2.6l-0.8,0.7l0,0c-1-1-2.2-1.8-3.5-2.4C107,125.1,108,124.8,108.9,124.3"/>
<path style="fill:#0077A9;" d="M115.5,116.4L115.5,116.4L115.5,116.4c0.3,0.1,0.6,0.2,0.9,0.3c-0.8,1.6-1.3,3.4-1.3,5.3l0,0l0,0
	c0,3.9,1.9,7.3,4.8,9.4c-0.2,0.1-0.3,0.2-0.5,0.2l0,0l0,0l-7.3-9.3C113.7,120.7,114.9,118.7,115.5,116.4L115.5,116.4"/>
<path style="fill:#0077A9;" d="M111.8,130.2l2.6,5.3c-0.7,0.8-1.3,1.7-1.8,2.6c0.1-0.7,0.2-1.4,0.2-2.2l0,0l0,0c0-2-0.5-3.9-1.4-5.5
	L111.8,130.2"/>
<path style="fill:#006087;" d="M112,122.3L112,122.3l7.3,9.3c-1.9,0.9-3.5,2.2-4.9,3.8l0,0l0,0l0,0l-2.6-5.3l3.1-1.7l-2.6-3.3
	l-2.1,1.8l-1.3-2.6C110.1,123.8,111.1,123.1,112,122.3"/>
<path style="fill:#006087;" d="M112.3,125.2l2.6,3.3l-3.1,1.7l-0.3,0.2l0,0l0,0c-0.6-1-1.3-1.9-2.1-2.8l0.8-0.7L112.3,125.2"/>
<path style="fill:#0075A8;" d="M119.8,131.4c0.9,0.7,1.9,1.2,3,1.6l-0.2,2.9l-3.3-4.2C119.5,131.5,119.7,131.4,119.8,131.4
	L119.8,131.4"/>
<path style="fill:#0075A8;" d="M114.5,135.4L114.5,135.4l2.8,5.6c-0.4,0.2-0.9,0.4-1.4,0.6c-1.2-0.7-2.4-1.5-3.5-2.3
	c0.1-0.4,0.2-0.8,0.3-1.2l0,0C113.2,137.1,113.8,136.2,114.5,135.4L114.5,135.4L114.5,135.4"/>
<path style="fill:#006086;" d="M122.9,133c0.4,0.1,0.8,0.2,1.2,0.3c-0.3,0.9-0.7,1.8-1.2,2.7l0,0l0,0l-0.1-0.2L122.9,133"/>
<path style="fill:#006086;" d="M119.4,131.6L119.4,131.6l3.3,4.2l0.1,0.2l0,0c-1.3,2.2-3.2,3.9-5.5,5.1l-2.8-5.6
	C115.8,133.8,117.5,132.5,119.4,131.6L119.4,131.6"/>
<path style="fill:#0076A9;" d="M105.4,117.3l3.5,7.1c-0.9,0.4-2,0.7-3,0.9l0,0l0,0l0,0l0,0c-0.5-0.2-1-0.4-1.6-0.6l0,0l0,0l0,0l0,0
	c-0.1-0.9-0.2-1.8-0.2-2.7l0,0c0-1.5,0.1-2.9,0.4-4.3l0,0l0,0c0.2-0.1,0.4-0.2,0.6-0.4l0,0C105.2,117.3,105.3,117.3,105.4,117.3"/>
<path style="fill:#0076A9;" d="M111.4,115.8c1.4,0,2.8,0.2,4,0.6l0,0c-0.5,2.3-1.8,4.3-3.5,5.9l0,0l0,0l-4.6-5.9
	C108.7,116,110,115.8,111.4,115.8"/>
<path style="fill:#006086;" d="M107.4,116.4L107.4,116.4l4.6,5.9l0,0c-0.9,0.8-2,1.5-3.1,2l-3.5-7.1c0.3-0.1,0.6-0.3,0.9-0.5l0,0
	C106.7,116.7,107,116.5,107.4,116.4L107.4,116.4"/>
<path style="fill:#0076A9;" d="M105.9,125.2L105.9,125.2L105.9,125.2c1.3,0.6,2.5,1.4,3.5,2.4l-3.5,3l0,0c-0.7-1.7-1.2-3.4-1.5-5.3
	C104.9,125.3,105.4,125.3,105.9,125.2L105.9,125.2"/>
<path style="fill:#0076A9;" d="M111.5,130.4L111.5,130.4L111.5,130.4c0.9,1.6,1.4,3.5,1.4,5.5l0,0c0,0.7-0.1,1.5-0.2,2.2l0,0l0,0
	c-0.2,0.3-0.3,0.7-0.5,1l0,0l0,0c-2.1-1.8-3.9-3.9-5.2-6.3L111.5,130.4"/>
<path style="fill:#006086;" d="M109.4,127.6L109.4,127.6c0.8,0.8,1.5,1.7,2.1,2.8l0,0l-4.5,2.5c-0.4-0.7-0.8-1.5-1.1-2.2l0,0
	L109.4,127.6"/>
<path style="fill:#0074A8;" d="M112.7,138.1L112.7,138.1c-0.1,0.4-0.2,0.8-0.3,1.2c-0.1-0.1-0.1-0.1-0.2-0.2l0,0
	C112.3,138.8,112.5,138.4,112.7,138.1"/>
<path style="fill:#0075A8;" d="M104.3,124.7c0.5,0.2,1.1,0.3,1.6,0.6l0,0c-0.5,0.1-1,0.1-1.5,0.1
	C104.4,125.1,104.3,124.9,104.3,124.7L104.3,124.7"/>
<path style="fill:#0076A9;" d="M116.3,116.7L116.3,116.7c3.2,1.3,5.7,3.7,7.2,6.8l-0.4,6.9l0,0c-1.1,0.2-2.2,0.6-3.2,1l0,0l0,0
	c-2.9-2.1-4.8-5.5-4.8-9.4l0,0C115.1,120.1,115.5,118.3,116.3,116.7L116.3,116.7"/>
<path style="fill:#006086;" d="M123.5,123.5L123.5,123.5c0.8,1.7,1.2,3.6,1.2,5.6l0,0c0,0.3,0,0.7,0,1l0,0l0,0
	c-0.6,0.1-1.1,0.1-1.6,0.2L123.5,123.5"/>
<path style="fill:#0074A8;" d="M123.1,130.3l-0.2,2.6l0,0c-1.1-0.4-2.1-0.9-3-1.6l0,0C120.9,130.9,121.9,130.6,123.1,130.3"/>
<path style="fill:#005F85;" d="M124.7,130.1L124.7,130.1c-0.1,1.1-0.3,2.2-0.7,3.2c-0.4-0.1-0.8-0.2-1.2-0.3l0,0l0.2-2.6l0,0
	C123.6,130.2,124.1,130.1,124.7,130.1"/>
<path style="fill:#0077A9;" d="M142.7,101.3c2.6,0,4.7,2.1,4.7,4.7l0,0c0,1.7-0.9,3.1-2.2,4l0,0l0,0c-0.7-1.2-1.6-2.3-2.5-3.3
	l0.3-0.4l-0.7-0.5l-0.3,0.3l0,0c-1-1-2.1-1.9-3.3-2.7C139.7,102.2,141.1,101.3,142.7,101.3"/>
<path style="fill:#006087;" d="M142.4,105.8l0.7,0.5l-0.3,0.4l0,0l0,0c-0.2-0.2-0.4-0.5-0.7-0.7L142.4,105.8"/>
<path style="fill:#0076A9;" d="M142.8,106.8L142.8,106.8L142.8,106.8c0.9,1,1.8,2.1,2.5,3.3l0,0c-0.7,0.5-1.6,0.7-2.5,0.7
	c-0.9,0-1.8-0.3-2.5-0.7L142.8,106.8"/>
<path style="fill:#0076A9;" d="M138.8,103.4L138.8,103.4c1.2,0.8,2.3,1.7,3.3,2.7l-3.2,2.7l0,0c-0.6-0.8-0.9-1.7-0.9-2.7l0,0
	C138,105.1,138.3,104.2,138.8,103.4L138.8,103.4"/>
<path style="fill:#006086;" d="M142.1,106.1L142.1,106.1c0.2,0.2,0.5,0.5,0.7,0.7l0,0l-2.5,3.3c-0.5-0.3-1-0.7-1.3-1.2l0,0
	L142.1,106.1"/>
<path style="fill:#0077A9;" d="M100.8,137.1c0.7,0.9,1.4,1.6,2.3,2.3c-0.6,1-1.6,1.7-2.7,2l0,0c0.4-0.8,0.7-1.7,0.7-2.6l0,0
	C101.1,138.2,101,137.7,100.8,137.1"/>
<path style="fill:#0077A9;" d="M98.5,132.2L98.5,132.2c0.2,0.9,0.5,1.8,0.9,2.6c-0.9-0.9-2-1.4-3.3-1.6l0,0
	C96.8,132.7,97.6,132.4,98.5,132.2L98.5,132.2L98.5,132.2"/>
<path style="fill:#0076A9;" d="M103.3,134.8L103.3,134.8L103.3,134.8c0.3,0.6,0.5,1.4,0.5,2.1l0,0c0,0.9-0.3,1.8-0.7,2.5
	c-0.8-0.7-1.6-1.5-2.3-2.3c-0.1-0.3-0.2-0.5-0.3-0.8L103.3,134.8"/>
<path style="fill:#0076A9;" d="M99.1,132.2c1.3,0,2.4,0.5,3.3,1.3l-2.4,2l0,0l0,0c-0.2-0.2-0.4-0.5-0.6-0.7
	c-0.4-0.8-0.7-1.7-0.9-2.6l0,0C98.7,132.2,98.9,132.2,99.1,132.2"/>
<path style="fill:#006086;" d="M102.4,133.5L102.4,133.5c0.4,0.4,0.7,0.8,0.9,1.3l0,0l-2.8,1.5l0,0c-0.1-0.3-0.3-0.5-0.5-0.8l0,0
	L102.4,133.5"/>
<path style="fill:#0077A9;" d="M107.4,109.8L107.4,109.8L107.4,109.8c0.1,0.1,0.2,0.2,0.2,0.3c-0.1,0.1-0.2,0.3-0.3,0.4
	C107.3,110.3,107.3,110.1,107.4,109.8L107.4,109.8"/>
<path style="fill:#0077A9;" d="M104.4,115.3l0.5,1c-0.1,0.4-0.2,0.8-0.3,1.2l0,0l0,0c-0.3,0.1-0.6,0.1-0.9,0.1c-1.2,0-2.2-0.4-3-1.1
	C102.1,116.4,103.3,116,104.4,115.3"/>
<path style="fill:#006087;" d="M105.5,114.4c-0.2,0.6-0.4,1.3-0.6,1.9l0,0l0,0l0,0l-0.5-1C104.8,115,105.1,114.7,105.5,114.4"/>
<path style="fill:#0076A9;" d="M104.9,116.3L104.9,116.3l0.5,1c-0.1,0-0.1,0.1-0.2,0.1l0,0l0,0c-0.2,0.1-0.4,0.1-0.6,0.1l0,0
	C104.7,117.1,104.8,116.7,104.9,116.3L104.9,116.3L104.9,116.3"/>
<path style="fill:#0076A9;" d="M107.6,110.1L107.6,110.1c0.6,0.8,0.9,1.7,0.9,2.8l0,0c0,1.3-0.5,2.4-1.3,3.3l0,0l0,0l-1.5-1.9
	c0.9-1,1.5-2.3,1.7-3.7l0,0C107.4,110.4,107.5,110.2,107.6,110.1L107.6,110.1"/>
<path style="fill:#006086;" d="M105.6,114.2L105.6,114.2l1.5,1.9l0,0c-0.2,0.3-0.5,0.5-0.8,0.7l0,0l0,0c-0.3,0.1-0.6,0.3-1,0.4l0,0
	l0,0l0,0l-0.5-1c0.2-0.6,0.4-1.3,0.6-1.9l0,0C105.5,114.3,105.6,114.3,105.6,114.2"/>
<path style="fill:#0076A9;" d="M103.8,108.1c1.4,0,2.7,0.7,3.6,1.7l0,0c0,0.2,0,0.5,0,0.7l0,0l0,0c-0.7,1.1-1.3,2.3-1.7,3.6l0,0l0,0
	l-0.6-0.7l-1.3,0.6l0.6,1.3c-1.1,0.7-2.3,1.1-3.7,1.1c-1-0.9-1.7-2.2-1.7-3.6l0,0C99,110.2,101.1,108.1,103.8,108.1"/>
<path style="fill:#006086;" d="M105,113.4l0.6,0.7c0,0.1-0.1,0.2-0.1,0.3l0,0l0,0c-0.3,0.3-0.7,0.7-1.1,0.9l-0.6-1.3L105,113.4"/>
<path style="fill:#0075A8;" d="M107.3,110.5L107.3,110.5c-0.2,1.4-0.8,2.7-1.7,3.7l0,0l0,0l-0.1-0.1
	C106,112.9,106.6,111.7,107.3,110.5"/>
<path style="fill:#006086;" d="M105.6,114.1L105.6,114.1L105.6,114.1L105.6,114.1c0,0.1,0,0.2-0.1,0.3l0,0
	C105.5,114.3,105.5,114.2,105.6,114.1L105.6,114.1"/>
<path style="fill:#0075A8;" d="M105.4,117.2L105.4,117.2L105.4,117.2c0,0.1-0.1,0.1-0.2,0.1l0,0
	C105.2,117.3,105.3,117.3,105.4,117.2L105.4,117.2L105.4,117.2"/>
<path style="fill:#006086;" d="M106.3,116.8L106.3,116.8c-0.3,0.2-0.6,0.3-0.9,0.5l0,0C105.7,117.1,106,116.9,106.3,116.8"/>
<path style="fill:#0079AA;" d="M111.7,97.9L111.7,97.9c0.7,1.9,1.7,3.7,3,5.2c-0.5,0.3-1,0.6-1.4,1l0,0l0,0c-0.1-1.8-1.3-3.3-2.9-4
	C110.6,99.2,111.1,98.4,111.7,97.9L111.7,97.9L111.7,97.9"/>
<path style="fill:#0077A9;" d="M114.9,96.6c2.4,0,4.4,1.8,4.7,4.1c-1.7,0.6-3.4,1.3-4.9,2.3l0,0l0,0l0,0l0,0c-1.3-1.5-2.3-3.2-3-5.2
	l0,0C112.5,97.1,113.7,96.6,114.9,96.6"/>
<path style="fill:#0077A9;" d="M114.7,103L114.7,103c0.8,0.9,1.7,1.7,2.6,2.4c-0.7,0.4-1.5,0.7-2.4,0.7c-0.6,0-1.3-0.1-1.8-0.4
	c0.1-0.4,0.2-0.9,0.2-1.3l0,0l0,0c0-0.1,0-0.2,0-0.3C113.7,103.7,114.2,103.3,114.7,103L114.7,103L114.7,103"/>
<path style="fill:#0076A9;" d="M119.6,100.8L119.6,100.8c0,0.2,0,0.4,0,0.6l0,0c0,1.7-0.9,3.2-2.3,4.1c-1-0.7-1.8-1.5-2.6-2.4l0,0
	C116.2,102.1,117.8,101.3,119.6,100.8L119.6,100.8"/>
<path style="fill:#0077A9;" d="M110.4,100L110.4,100c1.6,0.7,2.7,2.2,2.9,4c-0.4,0.3-0.9,0.7-1.3,1l0,0l0,0
	c-1.1-0.9-1.8-2.2-1.8-3.7l0,0C110.2,100.9,110.2,100.4,110.4,100L110.4,100"/>
<path style="fill:#0076A9;" d="M113.2,104L113.2,104c0,0.1,0,0.2,0,0.3l0,0c0,0.5-0.1,0.9-0.2,1.3c-0.4-0.2-0.8-0.4-1.1-0.7l0,0
	C112.4,104.7,112.8,104.3,113.2,104L113.2,104"/>
<circle style="fill:#68BC48;" cx="96.1" cy="138.4" r="6.8"/>
<polyline style="fill:#273017;" points="105,113.5 127.7,142.3 122.5,151.5 103.8,114.1 105,113.5 "/>
<polyline style="fill:#273017;" points="156.2,131.8 127.9,155.1 122.5,147.9 155.5,130.5 156.2,131.8 "/>
<polyline style="fill:#273017;" points="142.4,105.9 125.3,120.4 129,124.5 143.1,106.4 142.4,105.9 "/>
<polyline style="fill:#273017;" points="143.1,121.5 148.7,137.8 144.7,139 142.5,121.6 143.1,121.5 "/>
<polyline style="fill:#273017;" points="99.1,136.4 112.3,125.2 114.9,128.6 99.5,137 99.1,136.4 "/>
<path style="fill:#93BE3E;" d="M139.2,145.8l-7.8,6.4l0.6,7c4.9-2.1,8.5-6.6,9.1-12.1C140.5,146.8,139.8,146.3,139.2,145.8
	 M115.9,141.7c-1.4,0.5-2.9,0.8-4.5,0.8c-0.1,0-0.2,0-0.3,0c-0.2,0.9-0.3,1.9-0.3,2.8c0,6.7,4.3,12.3,10.2,14.4l0.6-9.6l-3.7-7.4
	C117.3,142.4,116.6,142.1,115.9,141.7"/>
<path style="fill:#273017;" d="M123.6,149.5l-1.1,2l-0.7-1.4l-0.6,9.6c1.5,0.5,3.2,0.8,4.9,0.8c2.1,0,4.1-0.4,5.9-1.2l-0.6-7
	l-3.5,2.9L123.6,149.5 M129.8,144.1c-1.1,0.2-2.1,0.2-3.2,0.2l-1.2,2.1L129.8,144.1"/>
<path style="fill:#273017;" d="M118.1,142.7c2.6,1,5.4,1.6,8.4,1.6c0,0,0.1,0,0.1,0l-1.2,2.1l-2.9,1.5l1.1,1.5l-1.1,2l-0.7-1.4
	L118.1,142.7"/>
<path style="fill:#273017;" d="M136.2,142.1c0.7,1.4,1.8,2.7,3,3.7l-7.8,6.4l-3.5,2.9l-4.3-5.7l-1.1-1.5l2.9-1.5l4.4-2.3
	C132,143.8,134.2,143.1,136.2,142.1"/>
<path style="fill:#BED972;" d="M126.1,77.9c8.4,0,15.2,6.8,15.2,15.2c0,0.2,0,0.4,0,0.6c-4,0.6-7.3,3.3-8.9,6.8
	c-1.8-0.5-3.6-0.8-5.6-0.8c3.4-0.4,6-3.2,6-6.7c0-3.7-3-6.7-6.7-6.7c-3.7,0-6.7,3-6.7,6.7c0,3.4,2.5,6.2,5.7,6.7l0,0.1
	c-1.9,0.1-3.7,0.5-5.5,1c-0.3-2.3-2.3-4.1-4.7-4.1c-1.2,0-2.4,0.5-3.2,1.3c-0.5-1.5-0.8-3.2-0.8-4.9
	C110.9,84.7,117.7,77.9,126.1,77.9"/>
<path style="fill:#273017;" d="M125.1,99.7c0.1,0,0.3,0,0.4,0.1C125.4,99.8,125.2,99.8,125.1,99.7L125.1,99.7"/>
<path style="fill:#BED972;" d="M107.3,109c0,0.3,0.1,0.6,0.1,0.8c0,0,0,0.1,0,0.1c0.1,0.1,0.2,0.2,0.2,0.3c0.2-0.4,0.5-0.7,0.7-1.1
	C108,109.1,107.6,109,107.3,109 M94.3,107.5c-1.2,1.8-1.8,4-1.8,6.3c0,4.6,2.7,8.6,6.6,10.5c1.1-2.7,3-5,5.5-6.5c0-0.1,0-0.1,0-0.2
	c-0.3,0.1-0.6,0.1-0.9,0.1c-1.2,0-2.2-0.4-3-1.1c0,0-0.1,0-0.1,0c-3.7,0-6.7-3-6.7-6.7C93.9,109,94,108.2,94.3,107.5 M104.1,102.1
	c-1.8,0-3.5,0.4-5,1.1c0.5-0.1,1-0.2,1.5-0.2c1.2,0,2.3,0.3,3.2,0.8c0.1-0.6,0.3-1.2,0.6-1.8C104.3,102.1,104.2,102.1,104.1,102.1"
	/>
<path style="fill:#BED972;" d="M103.1,139.5c-0.6,1-1.6,1.7-2.7,2c-0.9,1.7-2.8,2.9-4.9,2.9c-1.3,0-2.5-0.5-3.5-1.2
	c2.1,2.7,5.4,4.4,9.2,4.4c4,0,7.6-2.1,9.7-5.2C108,142.3,105.3,141.3,103.1,139.5 M99,124.5c-5.4,1.1-9.4,5.8-9.4,11.4
	c0,1.1,0.2,2.2,0.4,3.2c0-0.1,0-0.2,0-0.3c0-3.1,2.5-5.5,5.5-5.5c0.2,0,0.4,0,0.6,0c0.7-0.6,1.5-0.9,2.4-1.1c-0.2-1-0.4-2.1-0.4-3.2
	C98.1,127.5,98.4,126,99,124.5"/>
<path style="fill:#BED972;" d="M143.1,93.6c6.4,0,11.7,5.2,11.7,11.7c0,3.7-1.8,7.1-4.5,9.2c-0.8-1.4-2.2-2.3-3.8-2.4
	c-0.3-0.7-0.7-1.3-1.1-1.9c1.3-0.8,2.2-2.3,2.2-4c0-2.6-2.1-4.7-4.7-4.7c-1.6,0-3.1,0.8-3.9,2.1c-0.4-0.2-0.7-0.5-1.1-0.7
	c2.1-2.5,3.4-5.6,3.5-9.1C141.9,93.6,142.5,93.6,143.1,93.6"/>
<path style="fill:#8EC74D;" d="M141.3,93.7c-0.1,3.5-1.4,6.6-3.5,9.1c-1.7-1-3.4-1.7-5.3-2.3C134,97,137.3,94.3,141.3,93.7"/>
<path style="fill:#BED972;" d="M148.7,120.7c-0.2,0.1-0.3,0.2-0.5,0.3c0,0.2,0.1,0.5,0.1,0.7c0,1.4-0.6,2.6-1.5,3.4
	c0.6,0,1.2,0.1,1.8,0.2c0.2-1.1,0.2-2.2,0.2-3.3C148.8,121.6,148.8,121.1,148.7,120.7 M136.5,114.8l-0.3,0.4
	c1.4,1.9,2.2,4.3,2.2,6.8c0,4.1-2.1,7.7-5.3,9.8c0.8,0.4,1.6,0.9,2.3,1.5c1-3.2,3.4-5.9,6.5-7.2c-1.8-0.7-3-2.4-3-4.4
	c0-1.9,1.1-3.5,2.6-4.2c0-0.2-0.1-0.5-0.1-0.7C139.6,116.5,138,115.8,136.5,114.8 M131.6,107.2c-1.3,0.5-2.7,0.8-4.2,1l0.2,2.2
	c2.4,0.2,4.6,1.1,6.4,2.5l0.2-0.2C132.9,111.2,132,109.3,131.6,107.2 M117.3,105.4c-0.7,0.4-1.5,0.7-2.4,0.7c-0.6,0-1.3-0.1-1.8-0.4
	c0,0.1-0.1,0.3-0.1,0.4c1.8,2,2.9,4.7,2.9,7.6c0,0.9-0.1,1.8-0.3,2.7c0.3,0.1,0.6,0.2,0.9,0.3c1.6-3.1,4.5-5.4,8-6.2l0.2-2.5
	C121.9,107.9,119.4,106.9,117.3,105.4"/>
<path style="fill:#273017;" d="M124.5,108.2c0.5,0.1,1,0.1,1.6,0.1c0.5,0,0.9,0,1.4-0.1l0.2,2.2c-0.3,0-0.6,0-0.9,0
	c-0.8,0-1.6,0.1-2.4,0.2L124.5,108.2"/>
<path style="fill:#273017;" d="M134.3,112.8c0.7,0.8,1.4,1.5,2.3,2l-0.3,0.4c-0.6-0.8-1.3-1.6-2.2-2.3L134.3,112.8"/>
<path style="fill:#6CB444;" d="M117.3,141.1c-0.4,0.2-0.9,0.4-1.4,0.6c0.7,0.4,1.4,0.7,2.2,1L117.3,141.1 M133.1,131.8
	c-1,0.7-2.2,1.2-3.4,1.5l0.9,10.3l5-2.7c-0.5-1.3-0.8-2.7-0.8-4.2c0-1.2,0.2-2.4,0.5-3.5C134.7,132.7,133.9,132.2,133.1,131.8"/>
<path style="fill:#273017;" d="M129.7,133.3l0.9,10.3l-0.8,0.4c-1.1,0.2-2.1,0.2-3.2,0.2l1.2-2.1l-4.9-6.2c0.5-0.8,0.9-1.7,1.2-2.7
	c0.9,0.2,1.8,0.3,2.7,0.3C127.8,133.7,128.8,133.6,129.7,133.3"/>
<path style="fill:#273017;" d="M122.8,136.1l4.9,6.2l-1.2,2.1c0,0-0.1,0-0.1,0c-3,0-5.8-0.6-8.4-1.6l-0.8-1.6
	C119.6,140,121.5,138.2,122.8,136.1"/>
<path style="fill:#273017;" d="M135.7,141c0.1,0.4,0.3,0.8,0.5,1.1c-2,1-4.1,1.6-6.4,2l0.8-0.4L135.7,141"/>
<path style="fill:#8EC74D;" d="M125.1,99.8c-1.9,0.1-3.7,0.5-5.5,1c0,0.2,0,0.4,0,0.6c0,1.7-0.9,3.2-2.3,4.1
	c2.1,1.5,4.5,2.4,7.2,2.7L125.1,99.8 M126.9,99.7c-0.1,0-0.1,0-0.2,0l0.8,8.4c1.5-0.1,2.9-0.5,4.2-1c-0.1-0.7-0.2-1.3-0.2-2
	c0-1.7,0.3-3.2,1-4.7C130.6,100.1,128.8,99.8,126.9,99.7"/>
<path style="fill:#273017;" d="M126.7,99.8l0.8,8.4c-0.4,0-0.9,0.1-1.4,0.1c-0.5,0-1.1,0-1.6-0.1l0.5-8.4c0.1,0,0.3,0,0.4,0
	c0.2,0,0.4,0,0.6,0C126.3,99.8,126.5,99.8,126.7,99.8"/>
<path style="fill:#8EC74D;" d="M105.2,117.4c-0.2,0.1-0.4,0.1-0.6,0.1c0,0.1,0,0.1,0,0.2C104.8,117.6,105,117.5,105.2,117.4
	 M113,106.1c-0.7,1.8-2.4,3-4.4,3c-0.1,0-0.2,0-0.3,0c-0.2,0.3-0.5,0.7-0.7,1.1c0.6,0.8,0.9,1.7,0.9,2.8c0,1.3-0.5,2.4-1.3,3.3
	l0.2,0.3c1.3-0.4,2.6-0.6,4.1-0.6c1.4,0,2.8,0.2,4,0.6c0.2-0.9,0.3-1.8,0.3-2.7C115.8,110.8,114.7,108.2,113,106.1"/>
<path style="fill:#273017;" d="M107.2,116.2l0.2,0.3c-0.4,0.1-0.7,0.2-1.1,0.4C106.6,116.7,106.9,116.4,107.2,116.2"/>
<path style="fill:#8EC74D;" d="M145.3,110.1c-0.7,0.5-1.6,0.7-2.5,0.7c-0.9,0-1.8-0.3-2.5-0.7l-3.7,4.8c1.4,1,3.1,1.7,4.9,1.9v0
	c0-2.6,2.1-4.7,4.7-4.7c0.1,0,0.2,0,0.3,0C146.1,111.4,145.7,110.7,145.3,110.1 M137.8,102.8c-1.6,1.9-3.7,3.5-6.1,4.4
	c0.4,2.1,1.3,4,2.6,5.6l4.7-4c-0.6-0.8-0.9-1.7-0.9-2.7c0-1,0.3-1.9,0.8-2.6C138.5,103.3,138.1,103,137.8,102.8"/>
<path style="fill:#273017;" d="M138.9,108.8c0.4,0.5,0.8,0.9,1.3,1.2l-3.7,4.8c-0.8-0.6-1.6-1.3-2.3-2L138.9,108.8"/>
<path style="fill:#68BC48;" d="M132.4,100.5c1.9,0.5,3.7,1.3,5.3,2.3c-1.6,1.9-3.7,3.5-6.1,4.4c-0.1-0.7-0.2-1.3-0.2-2
	C131.4,103.6,131.8,102,132.4,100.5"/>
<path style="fill:#8EC74D;" d="M136.2,115.2l-7.2,9.3l-0.1-0.1l0.5,6.1c1.3,0.3,2.5,0.7,3.7,1.3c3.2-2.1,5.3-5.7,5.3-9.8
	C138.4,119.5,137.6,117.1,136.2,115.2 M124.4,110.6c-3.5,0.7-6.4,3-8,6.2c3.2,1.3,5.7,3.7,7.2,6.8L124.4,110.6 M127.7,110.4l0.7,7.4
	l5.8-4.9C132.3,111.5,130.1,110.6,127.7,110.4"/>
<path style="fill:#273017;" d="M126.8,110.4c0.3,0,0.6,0,0.9,0l0.7,7.4l-3.1,2.6l3.6,3.9l0.5,6.1c-1.1-0.2-2.2-0.4-3.3-0.4
	c-0.5,0-0.9,0-1.4,0.1c0-0.3,0-0.7,0-1c0-2-0.4-3.9-1.2-5.6l0.8-12.9C125.1,110.5,125.9,110.4,126.8,110.4"/>
<path style="fill:#273017;" d="M134.1,113c0.8,0.7,1.5,1.4,2.2,2.3l-7.2,9.3l-0.1-0.1l-3.6-3.9l3.1-2.6L134.1,113"/>
<path style="fill:#48AD48;" d="M129.4,130.5c1.3,0.3,2.5,0.7,3.7,1.3c-1,0.7-2.2,1.2-3.4,1.5L129.4,130.5"/>
<path style="fill:#273017;" d="M126.1,130.1c1.1,0,2.3,0.1,3.3,0.4l0.3,2.9c-0.9,0.2-1.9,0.4-2.9,0.4c-0.9,0-1.8-0.1-2.7-0.3
	c0.3-1,0.6-2.1,0.7-3.2C125.2,130.1,125.6,130.1,126.1,130.1"/>
<path style="fill:#BED972;" d="M150.9,136.2l-9.6,8c0,0.4,0,0.8,0,1.2c0,0.6,0,1.3-0.1,1.9c1.6,0.8,3.4,1.3,5.4,1.3
	c6.2,0,11.2-4.8,11.6-10.9c-0.6,0.3-1.3,0.4-2,0.4c-1,0-2-0.3-2.7-0.9C152.5,137,151.6,136.7,150.9,136.2 M144.2,135.5
	c-0.5,0.6-0.9,1.2-1.4,1.7l1.6-0.8L144.2,135.5 M148.5,125.3c-0.3,2.2-1,4.4-1.9,6.3l1,3l1.2-0.6c-0.6-1-1-2.2-1-3.5
	c0-1.9,0.8-3.7,2.1-4.9C149.5,125.5,149,125.4,148.5,125.3"/>
<path style="fill:#273017;" d="M148.8,134.1c0.5,0.8,1.2,1.6,2,2.1l-9.6,8c-0.1-1.6-0.5-3.1-1-4.5c0.9-0.7,1.8-1.5,2.6-2.4l1.6-0.8
	l0.3,2.6l4.1-1.2l-1.1-3.1L148.8,134.1"/>
<path style="fill:#273017;" d="M146.6,131.6l1,3l1.1,3.1l-4.1,1.2l-0.3-2.6l-0.1-0.9C145.1,134.3,145.9,133,146.6,131.6"/>
<path style="fill:#6CB444;" d="M141.2,144.1c0,0.4,0,0.8,0,1.2c0,0.6,0,1.3-0.1,1.9c-0.7-0.4-1.4-0.8-2-1.3L141.2,144.1"/>
<path style="fill:#273017;" d="M140.2,139.6c0.6,1.4,0.9,2.9,1,4.5l-2.1,1.7c-1.2-1-2.3-2.3-3-3.7
	C137.6,141.4,138.9,140.6,140.2,139.6"/>
<path style="fill:#8EC74D;" d="M141.9,126.1c-3.1,1.3-5.5,4-6.5,7.2c1.9,1.5,3.4,3.3,4.4,5.5l2.9-1.6c0.5-0.5,1-1.1,1.4-1.7
	l-1.2-9.2C142.7,126.3,142.3,126.2,141.9,126.1 M146.8,125.1c-0.6,0.5-1.3,0.9-2,1.1l1.8,5.4c0.9-2,1.6-4.1,1.9-6.3
	C148,125.2,147.4,125.1,146.8,125.1"/>
<path style="fill:#273017;" d="M142.8,137.3c-0.8,0.9-1.7,1.6-2.6,2.4c-0.1-0.3-0.2-0.6-0.4-0.8L142.8,137.3"/>
<path style="fill:#273017;" d="M144.8,126.3l1.8,5.4c-0.7,1.4-1.5,2.7-2.4,3.9l-1.2-9.2c0.2,0,0.3,0,0.5,0
	C144,126.4,144.4,126.4,144.8,126.3"/>
<path style="fill:#48AD48;" d="M135.4,133.3c1.9,1.5,3.4,3.3,4.4,5.5l-4.2,2.2c-0.5-1.3-0.8-2.7-0.8-4.2
	C134.9,135.6,135.1,134.4,135.4,133.3"/>
<path style="fill:#273017;" d="M139.8,138.8c0.1,0.3,0.2,0.5,0.4,0.8c-1.2,1-2.6,1.8-4,2.5c-0.2-0.4-0.4-0.7-0.5-1.1L139.8,138.8"/>
<path style="fill:#8EC74D;" d="M100.6,103.1c1.2,0,2.3,0.3,3.2,0.8c0,0.2,0,0.3,0,0.5c0,2.2,1.5,4,3.5,4.5c0,0.3,0.1,0.6,0.1,0.8
	c0,0,0,0.1,0,0.1c-0.9-1-2.2-1.7-3.6-1.7c-2.6,0-4.7,2.1-4.7,4.7c0,1.4,0.7,2.7,1.7,3.6c0,0-0.1,0-0.1,0c-3.7,0-6.7-3-6.7-6.7
	c0-0.8,0.1-1.6,0.4-2.3c1.2-1.8,2.9-3.3,4.8-4.3C99.6,103.1,100.1,103.1,100.6,103.1"/>
<path style="fill:#8EC74D;" d="M126.1,86.3c3.7,0,6.7,3,6.7,6.7c0,3.5-2.6,6.3-6,6.7c-0.1,0-0.1,0-0.2,0l-0.6-6.7h-0.6l-0.4,6.7
	c-3.2-0.5-5.7-3.3-5.7-6.7C119.4,89.3,122.4,86.3,126.1,86.3"/>
<path style="fill:#273017;" d="M125.5,93.1h0.6l0.6,6.7c-0.1,0-0.2,0-0.2,0c-0.3,0-0.6,0-1,0c-0.1,0-0.3,0-0.4-0.1L125.5,93.1"/>
<path style="fill:#68BC48;" d="M126.7,99.7c0.1,0,0.1,0,0.2,0C126.8,99.7,126.8,99.8,126.7,99.7L126.7,99.7"/>
<path style="fill:#273017;" d="M126.5,99.7c0.1,0,0.2,0,0.2,0l0,0c-0.2,0-0.4,0-0.6,0c-0.2,0-0.4,0-0.6,0
	C125.8,99.7,126.1,99.7,126.5,99.7"/>
<path style="fill:#BED972;" d="M154.6,123.8c1.7,0,3.3,0.6,4.5,1.7c-1.8,0.2-3.4,1.5-3.9,3.2c0,0-0.1,0-0.1,0
	c-1.4-1.4-3.1-2.5-5-3.1C151.2,124.5,152.8,123.8,154.6,123.8"/>
<path style="fill:#8EC74D;" d="M151.9,135.3l-1,0.8c0.8,0.5,1.6,0.9,2.6,1C152.8,136.7,152.3,136.1,151.9,135.3 M150,125.6
	c-1.3,1.2-2.1,3-2.1,4.9c0,1.3,0.4,2.5,1,3.5l2.7-1.4c0.3-1.9,1.7-3.4,3.5-3.9C153.6,127.3,151.9,126.2,150,125.6"/>
<path style="fill:#273017;" d="M151.5,132.6c0,0.2-0.1,0.4-0.1,0.7c0,0.7,0.2,1.4,0.4,2l-1,0.8c-0.8-0.5-1.5-1.3-2-2.1L151.5,132.6"
	/>
<path style="fill:#BED972;" d="M159.6,125.5c2.6,0,4.7,2.1,4.7,4.7c0,2.2-1.6,4.1-3.7,4.6c0.1-0.5,0.2-0.9,0.2-1.4
	c0-0.1,0-0.3,0-0.4c0.3-0.7,0.4-1.5,0.4-2.4c0-2-0.9-3.8-2.3-5C159.2,125.5,159.4,125.5,159.6,125.5"/>
<path style="fill:#8EC74D;" d="M159,125.5c1.4,1.2,2.3,3,2.3,5c0,0.8-0.2,1.6-0.4,2.4c-0.2-2.4-2.2-4.3-4.7-4.3c-0.4,0-0.7,0-1,0.1
	C155.7,127,157.2,125.7,159,125.5"/>
<path style="fill:#BED972;" d="M160.7,134.8c-0.4,1.3-1.3,2.3-2.5,2.8c0-0.3,0-0.5,0-0.8c0-0.2,0-0.4,0-0.6c0.6-0.4,1.1-0.8,1.5-1.3
	C160,134.9,160.4,134.8,160.7,134.8"/>
<path style="fill:#8EC74D;" d="M158.2,136.2c0,0.2,0,0.4,0,0.6c0,0.3,0,0.5,0,0.8c-0.6,0.3-1.3,0.4-2,0.4c-1,0-2-0.3-2.7-0.9
	c0.4,0.1,0.7,0.1,1.1,0.1C155.9,137.3,157.1,136.9,158.2,136.2"/>
<path style="fill:#8EC74D;" d="M158,134.6c0.1,0.5,0.2,1.1,0.2,1.6c0.6-0.4,1.1-0.8,1.5-1.3c0,0-0.1,0-0.1,0
	C159,134.9,158.5,134.8,158,134.6 M155.1,128.7c0,0-0.1,0-0.1,0c0,0,0.1,0.1,0.1,0.1C155.1,128.8,155.1,128.8,155.1,128.7"/>
<path style="fill:#68BC48;" d="M155.5,132.4l-3.6,2.9c0.3,0.7,0.9,1.4,1.6,1.9c0.4,0.1,0.7,0.1,1.1,0.1c1.3,0,2.6-0.4,3.6-1
	c0-0.6-0.1-1.1-0.2-1.6C156.9,134.2,156,133.4,155.5,132.4 M155,128.8c-1.8,0.5-3.2,2-3.5,3.9l3.4-1.8c0-0.2,0-0.4,0-0.7
	c0-0.5,0.1-0.9,0.2-1.3C155.1,128.8,155,128.8,155,128.8"/>
<path style="fill:#273017;" d="M155,130.8c0.1,0.5,0.3,1.1,0.5,1.5l-3.6,2.9c-0.3-0.6-0.4-1.3-0.4-2c0-0.2,0-0.5,0.1-0.7L155,130.8"
	/>
<path style="fill:#8EC74D;" d="M160.9,132.9c0,0.1,0,0.3,0,0.4c0,0.5-0.1,1-0.2,1.4c-0.3,0.1-0.6,0.1-0.9,0.1
	C160.2,134.3,160.6,133.6,160.9,132.9"/>
<path style="fill:#68BC48;" d="M156.2,128.6c2.5,0,4.5,1.9,4.7,4.3c-0.3,0.7-0.7,1.4-1.2,2c0,0-0.1,0-0.1,0c-0.6,0-1.1-0.1-1.6-0.3
	c-0.4-2.2-1.4-4.2-2.9-5.7c0,0,0-0.1,0-0.1C155.5,128.6,155.8,128.6,156.2,128.6"/>
<path style="fill:#3FB44A;" d="M155.1,128.9c1.5,1.6,2.5,3.5,2.9,5.7c-1.1-0.4-2-1.2-2.5-2.2l0.7-0.6l-0.6-1.2l-0.6,0.3
	c0-0.2,0-0.4,0-0.7C154.9,129.7,155,129.3,155.1,128.9"/>
<path style="fill:#273017;" d="M155.5,130.5l0.6,1.2l-0.7,0.6c-0.2-0.5-0.4-1-0.5-1.5L155.5,130.5"/>
<path style="fill:#BED972;" d="M150.2,114.4c0.4,0.7,0.6,1.5,0.6,2.3c0,1.6-0.8,3.1-2.1,3.9c-0.1-1.7-0.4-3.3-0.8-4.8
	C148.7,115.5,149.5,115,150.2,114.4"/>
<path style="fill:#8EC74D;" d="M146.4,112c1.7,0.1,3.1,1,3.8,2.4c-0.7,0.6-1.5,1-2.4,1.4C147.5,114.5,147,113.2,146.4,112"/>
<path style="fill:#8EC74D;" d="M147.9,115.8c0.4,1.5,0.7,3.2,0.8,4.8c-0.2,0.1-0.3,0.2-0.5,0.3c-0.3-2.3-2.3-4-4.7-4
	c-0.7,0-1.4,0.2-2.1,0.5c0-0.2-0.1-0.5-0.1-0.7c0.5,0.1,1.1,0.1,1.7,0.1C144.8,116.9,146.4,116.5,147.9,115.8"/>
<path style="fill:#68BC48;" d="M146.1,112c0.1,0,0.2,0,0.3,0c0.6,1.2,1.1,2.5,1.5,3.8c-1.5,0.7-3.1,1-4.8,1c-0.6,0-1.1,0-1.7-0.1v0
	C141.4,114.1,143.5,112,146.1,112"/>
<path style="fill:#BED972;" d="M108.6,99.7c0.6,0,1.3,0.1,1.8,0.4c-0.1,0.4-0.2,0.9-0.2,1.3c0,1.5,0.7,2.8,1.8,3.7l0,0
	c-2-1.8-4.6-2.9-7.5-3C105.3,100.7,106.8,99.7,108.6,99.7"/>
<path style="fill:#8EC74D;" d="M104.5,102.1c2.9,0.1,5.5,1.2,7.5,3c-1.4,1.2-2.6,2.5-3.7,4c-0.3,0-0.7-0.1-1-0.2
	c-0.3-2.2-1.6-4-3.4-5.1C104,103.2,104.1,102.6,104.5,102.1"/>
<path style="fill:#8EC74D;" d="M112,105.1c0.3,0.3,0.7,0.5,1.1,0.7c0,0.1-0.1,0.3-0.1,0.4C112.6,105.8,112.3,105.4,112,105.1
	L112,105.1"/>
<path style="fill:#68BC48;" d="M112,105.1c0.4,0.3,0.7,0.7,1,1c-0.7,1.8-2.4,3-4.4,3c-0.1,0-0.2,0-0.3,0
	C109.3,107.6,110.6,106.3,112,105.1"/>
<path style="fill:#68BC48;" d="M103.9,103.9c1.8,1,3.2,2.9,3.4,5.1c-2-0.5-3.5-2.4-3.5-4.5C103.9,104.2,103.9,104.1,103.9,103.9"/>
<path style="fill:#8EC74D;" d="M141.5,117.5c0.3,2.3,2.3,4,4.7,4c0.7,0,1.4-0.2,2.1-0.5c0,0.2,0.1,0.5,0.1,0.7
	c0,1.4-0.6,2.6-1.5,3.4c-0.1,0-0.2,0-0.2,0c-0.7,0-1.4,0.1-2.1,0.2l-1.3-3.8l-0.7,0.1l0.5,4.1c-0.4,0.1-0.7,0.3-1.1,0.4
	c-1.8-0.7-3-2.4-3-4.4C138.8,119.8,139.9,118.2,141.5,117.5"/>
<path style="fill:#273017;" d="M143.1,121.5l1.3,3.8c-0.5,0.1-1,0.2-1.5,0.4l-0.5-4.1L143.1,121.5"/>
<path style="fill:#68BC48;" d="M143,125.7c-0.4,0.1-0.7,0.3-1.1,0.4c0.4,0.1,0.8,0.2,1.2,0.3L143,125.7 M146.5,125.1
	c-0.7,0-1.4,0.1-2.1,0.2l0.3,0.9c0.8-0.2,1.5-0.6,2-1.1C146.7,125.1,146.6,125.1,146.5,125.1"/>
<path style="fill:#273017;" d="M144.4,125.3l0.3,0.9c-0.4,0.1-0.8,0.2-1.2,0.2c-0.2,0-0.3,0-0.5,0l-0.1-0.7
	C143.5,125.5,143.9,125.4,144.4,125.3"/>
<path style="fill:#68BC48;" d="M143.6,117c2.4,0,4.3,1.7,4.7,4c-0.6,0.3-1.3,0.5-2.1,0.5c-2.4,0-4.3-1.7-4.7-4
	C142.1,117.2,142.8,117,143.6,117"/>
<path style="fill:#BED972;" d="M111.3,141.9c-0.1,0.2-0.2,0.4-0.4,0.6c0.1,0,0.2,0,0.2,0C111.2,142.3,111.3,142.1,111.3,141.9
	 M99.1,124.3c0,0.1-0.1,0.2-0.1,0.3c0.2,0,0.3-0.1,0.5-0.1C99.3,124.4,99.2,124.3,99.1,124.3"/>
<path style="fill:#6CB444;" d="M112.4,139.4c1.1,0.9,2.3,1.7,3.5,2.3c-1.4,0.5-2.9,0.8-4.5,0.8c-0.1,0-0.2,0-0.3,0
	c0-0.2,0.1-0.4,0.1-0.6C111.8,141.1,112.1,140.2,112.4,139.4"/>
<path style="fill:#8EC74D;" d="M104.6,117.8c-0.3,1.4-0.4,2.8-0.4,4.3c0,0.9,0.1,1.8,0.2,2.7c-1-0.3-2-0.4-3.1-0.4
	c-0.6,0-1.2,0-1.8,0.1c-0.1-0.1-0.3-0.1-0.4-0.2C100.2,121.5,102.1,119.3,104.6,117.8"/>
<path style="fill:#8EC74D;" d="M107,132.9l-3.6,2c0.3,0.6,0.5,1.4,0.5,2.1c0,0.9-0.3,1.8-0.7,2.5c2.2,1.7,4.9,2.8,7.8,2.9
	c0.1-0.2,0.2-0.4,0.4-0.6c0.2-0.9,0.5-1.8,0.9-2.7C110.1,137.4,108.3,135.3,107,132.9 M99.5,124.5c-0.2,0-0.3,0.1-0.5,0.1
	c-0.5,1.4-0.8,3-0.8,4.6c0,1.1,0.1,2.1,0.4,3.2c0.2,0,0.4,0,0.6,0c1.3,0,2.4,0.5,3.3,1.3l3.5-2.9c-0.7-1.7-1.2-3.4-1.5-5.3
	c-0.1,0-0.2,0-0.3,0C102.5,125.4,100.9,125.1,99.5,124.5"/>
<path style="fill:#273017;" d="M105.9,130.7c0.3,0.8,0.7,1.5,1.1,2.2l-3.6,2c-0.2-0.5-0.5-0.9-0.9-1.3L105.9,130.7"/>
<path style="fill:#48AD48;" d="M112.2,139.2c0.1,0.1,0.1,0.1,0.2,0.2c-0.3,0.9-0.6,1.7-1.1,2.5C111.5,140.9,111.8,140,112.2,139.2"
	/>
<path style="fill:#68BC48;" d="M101.2,124.3c1.1,0,2.1,0.1,3.1,0.4c0,0.2,0.1,0.5,0.1,0.7c-0.1,0-0.2,0-0.3,0c-1.7,0-3.2-0.3-4.7-1
	C100.1,124.4,100.6,124.3,101.2,124.3"/>
<path style="fill:#8EC74D;" d="M111.8,130.2l-0.3,0.2c0.9,1.6,1.4,3.5,1.4,5.5c0,0.7-0.1,1.5-0.2,2.2c0.5-0.9,1.1-1.8,1.8-2.6
	L111.8,130.2 M108.9,124.4c-0.9,0.4-2,0.7-3,0.9c1.3,0.6,2.5,1.4,3.5,2.4l0.8-0.7L108.9,124.4 M115.5,116.5
	c-0.5,2.3-1.8,4.3-3.5,5.9l7.3,9.3c0.2-0.1,0.3-0.2,0.5-0.2c-2.9-2.1-4.8-5.5-4.8-9.4c0-1.9,0.5-3.7,1.3-5.3
	C116.1,116.7,115.8,116.6,115.5,116.5"/>
<path style="fill:#273017;" d="M112,122.4l7.3,9.3c-1.9,0.9-3.5,2.2-4.9,3.8l-2.6-5.3l3.1-1.7l-2.6-3.3l-2.1,1.8l-1.3-2.6
	C110.1,123.9,111.1,123.2,112,122.4"/>
<path style="fill:#273017;" d="M112.3,125.2l2.6,3.3l-3.1,1.7l-0.3,0.2c-0.6-1-1.3-1.9-2.1-2.8l0.8-0.7L112.3,125.2"/>
<path style="fill:#48AD48;" d="M114.5,135.5c-0.7,0.8-1.3,1.7-1.8,2.6c-0.1,0.4-0.2,0.8-0.3,1.2c1.1,0.9,2.3,1.7,3.5,2.3
	c0.5-0.2,0.9-0.4,1.4-0.6L114.5,135.5 M119.9,131.4c-0.2,0.1-0.3,0.2-0.5,0.2l3.3,4.2l0.2-2.9C121.8,132.7,120.8,132.1,119.9,131.4"
	/>
<path style="fill:#273017;" d="M122.9,133c0.4,0.1,0.8,0.2,1.2,0.3c-0.3,0.9-0.7,1.8-1.2,2.7l-0.1-0.2L122.9,133"/>
<path style="fill:#273017;" d="M119.4,131.7l3.3,4.2l0.1,0.2c-1.3,2.2-3.2,3.9-5.5,5.1l-2.8-5.6
	C115.8,133.9,117.5,132.6,119.4,131.7"/>
<path style="fill:#68BC48;" d="M105.4,117.3c-0.1,0-0.1,0-0.2,0.1c-0.2,0.1-0.4,0.2-0.6,0.4c-0.3,1.4-0.4,2.8-0.4,4.3
	c0,0.9,0.1,1.8,0.2,2.7c0.5,0.2,1.1,0.3,1.6,0.6c1.1-0.2,2.1-0.5,3-0.9L105.4,117.3 M111.5,115.8c-1.4,0-2.8,0.2-4.1,0.6l4.6,5.9
	c1.7-1.5,2.9-3.6,3.5-5.9C114.2,116.1,112.9,115.8,111.5,115.8"/>
<path style="fill:#273017;" d="M107.4,116.5l4.6,5.9c-0.9,0.8-2,1.5-3.1,2l-3.5-7.1c0.3-0.1,0.6-0.3,0.9-0.5
	C106.7,116.7,107,116.6,107.4,116.5"/>
<path style="fill:#68BC48;" d="M111.5,130.4l-4.5,2.5c1.3,2.4,3.1,4.5,5.2,6.3c0.2-0.4,0.3-0.7,0.5-1c0.1-0.7,0.2-1.4,0.2-2.2
	C112.9,134,112.4,132.1,111.5,130.4 M105.9,125.3c-0.5,0.1-1,0.1-1.5,0.1c0.3,1.8,0.8,3.6,1.5,5.3l3.5-3
	C108.4,126.7,107.2,125.9,105.9,125.3"/>
<path style="fill:#273017;" d="M109.4,127.7c0.8,0.8,1.5,1.7,2.1,2.8l-4.5,2.5c-0.4-0.7-0.8-1.5-1.1-2.2L109.4,127.7"/>
<path style="fill:#1CA84B;" d="M112.7,138.1c-0.1,0.4-0.2,0.8-0.3,1.2c-0.1-0.1-0.1-0.1-0.2-0.2
	C112.4,138.8,112.5,138.5,112.7,138.1"/>
<path style="fill:#3FB44A;" d="M104.3,124.7c0.5,0.2,1.1,0.3,1.6,0.6c-0.5,0.1-1,0.1-1.5,0.1C104.4,125.2,104.4,125,104.3,124.7"/>
<path style="fill:#68BC48;" d="M116.4,116.8c3.2,1.3,5.7,3.7,7.2,6.8l-0.4,6.9c-1.1,0.2-2.2,0.6-3.2,1c-2.9-2.1-4.8-5.5-4.8-9.4
	C115.1,120.1,115.6,118.4,116.4,116.8"/>
<path style="fill:#273017;" d="M123.5,123.5c0.8,1.7,1.2,3.6,1.2,5.6c0,0.3,0,0.7,0,1c-0.6,0.1-1.1,0.1-1.7,0.2L123.5,123.5"/>
<path style="fill:#1CA84B;" d="M123.1,130.4l-0.2,2.6c-1.1-0.4-2.1-0.9-3-1.6C120.9,131,122,130.6,123.1,130.4"/>
<path style="fill:#273017;" d="M124.7,130.2c-0.1,1.1-0.3,2.2-0.7,3.2c-0.4-0.1-0.8-0.2-1.2-0.3l0.2-2.6
	C123.6,130.3,124.2,130.2,124.7,130.2"/>
<path style="fill:#8EC74D;" d="M142.8,101.4c2.6,0,4.7,2.1,4.7,4.7c0,1.7-0.9,3.1-2.2,4c-0.7-1.2-1.6-2.3-2.5-3.3l0.3-0.4l-0.7-0.5
	l-0.3,0.3c-1-1-2.1-1.9-3.3-2.7C139.7,102.2,141.1,101.4,142.8,101.4"/>
<path style="fill:#273017;" d="M142.4,105.9l0.7,0.5l-0.3,0.4c-0.2-0.2-0.4-0.5-0.7-0.7L142.4,105.9"/>
<path style="fill:#68BC48;" d="M142.8,106.8l-2.5,3.3c0.7,0.5,1.6,0.7,2.5,0.7c0.9,0,1.8-0.3,2.5-0.7
	C144.6,108.9,143.7,107.8,142.8,106.8 M138.8,103.5c-0.5,0.7-0.8,1.7-0.8,2.6c0,1,0.3,2,0.9,2.7l3.2-2.7
	C141.1,105.2,140,104.3,138.8,103.5"/>
<path style="fill:#273017;" d="M142.1,106.1c0.2,0.2,0.5,0.5,0.7,0.7l-2.5,3.3c-0.5-0.3-1-0.7-1.3-1.2L142.1,106.1"/>
<path style="fill:#8EC74D;" d="M100.9,137.2c0.2,0.5,0.3,1.1,0.3,1.7c0,1-0.2,1.8-0.7,2.6c1.1-0.3,2.1-1,2.7-2
	C102.3,138.8,101.5,138.1,100.9,137.2 M98.5,132.3c-0.9,0.1-1.7,0.5-2.4,1.1c1.3,0.1,2.5,0.7,3.3,1.6
	C99.1,134.1,98.7,133.2,98.5,132.3"/>
<path style="fill:#68BC48;" d="M103.4,134.9l-2.8,1.5c0.1,0.3,0.2,0.5,0.3,0.8c0.7,0.9,1.4,1.6,2.3,2.3c0.5-0.7,0.7-1.6,0.7-2.5
	C103.9,136.2,103.7,135.5,103.4,134.9 M99.1,132.3c-0.2,0-0.4,0-0.6,0c0.2,0.9,0.5,1.8,0.9,2.6c0.2,0.2,0.4,0.4,0.6,0.7l2.4-2
	C101.6,132.8,100.4,132.3,99.1,132.3"/>
<path style="fill:#273017;" d="M102.4,133.6c0.4,0.4,0.7,0.8,0.9,1.3l-2.8,1.5c-0.1-0.3-0.3-0.5-0.5-0.8L102.4,133.6"/>
<path style="fill:#8EC74D;" d="M104.4,115.4c-1.1,0.7-2.3,1.1-3.7,1.1c0.8,0.7,1.9,1.1,3,1.1c0.3,0,0.6,0,0.9-0.1
	c0.1-0.4,0.2-0.8,0.3-1.2L104.4,115.4 M107.4,109.9c0,0.2,0,0.5,0,0.7c0.1-0.1,0.2-0.3,0.3-0.4C107.5,110.1,107.4,110,107.4,109.9"
	/>
<path style="fill:#273017;" d="M105.5,114.5c-0.2,0.6-0.4,1.3-0.6,1.9l-0.5-1C104.8,115.1,105.2,114.8,105.5,114.5"/>
<path style="fill:#68BC48;" d="M104.9,116.4c-0.1,0.4-0.2,0.8-0.3,1.2c0.2,0,0.4-0.1,0.6-0.1c0.1,0,0.1-0.1,0.2-0.1L104.9,116.4
	 M107.6,110.2c-0.1,0.1-0.2,0.3-0.3,0.4c-0.2,1.4-0.8,2.7-1.7,3.7l1.5,1.9c0.8-0.8,1.3-2,1.3-3.3
	C108.5,111.9,108.1,110.9,107.6,110.2"/>
<path style="fill:#273017;" d="M105.7,114.3l1.5,1.9c-0.2,0.3-0.5,0.5-0.8,0.7c-0.3,0.1-0.6,0.3-1,0.4l-0.5-1
	c0.2-0.6,0.4-1.3,0.6-1.9C105.5,114.4,105.6,114.3,105.7,114.3"/>
<path style="fill:#68BC48;" d="M103.8,108.2c1.4,0,2.7,0.7,3.6,1.7c0,0.2,0,0.5,0,0.7c-0.7,1.1-1.3,2.3-1.7,3.6l-0.6-0.7l-1.3,0.6
	l0.6,1.3c-1.1,0.7-2.3,1.1-3.7,1.1c-1-0.9-1.7-2.2-1.7-3.6C99.1,110.3,101.2,108.2,103.8,108.2"/>
<path style="fill:#273017;" d="M105,113.5l0.6,0.7c0,0.1-0.1,0.2-0.1,0.3c-0.3,0.3-0.7,0.7-1.1,0.9l-0.6-1.3L105,113.5"/>
<path style="fill:#3FB44A;" d="M107.3,110.6c-0.2,1.4-0.8,2.7-1.7,3.7l-0.1-0.1C106.1,112.9,106.6,111.7,107.3,110.6"/>
<path style="fill:#273017;" d="M105.6,114.2L105.6,114.2c0,0.1,0,0.2-0.1,0.3C105.5,114.4,105.6,114.3,105.6,114.2"/>
<path style="fill:#3FB44A;" d="M105.4,117.3L105.4,117.3c0,0-0.1,0.1-0.2,0.1C105.3,117.4,105.3,117.3,105.4,117.3"/>
<path style="fill:#273017;" d="M106.3,116.9c-0.3,0.2-0.6,0.3-0.9,0.5l0,0C105.7,117.2,106,117,106.3,116.9"/>
<path style="fill:#BED972;" d="M111.7,97.9c0.7,1.9,1.7,3.7,3,5.2c-0.5,0.3-1,0.6-1.4,1c-0.1-1.8-1.3-3.3-2.9-4
	C110.6,99.2,111.1,98.5,111.7,97.9"/>
<path style="fill:#8EC74D;" d="M114.9,96.7c2.4,0,4.4,1.8,4.7,4.1c-1.7,0.6-3.4,1.3-4.9,2.3c-1.3-1.5-2.3-3.2-3-5.2
	C112.5,97.2,113.7,96.7,114.9,96.7"/>
<path style="fill:#8EC74D;" d="M114.7,103.1c0.8,0.9,1.7,1.7,2.6,2.4c-0.7,0.4-1.5,0.7-2.4,0.7c-0.6,0-1.3-0.1-1.8-0.4
	c0.1-0.4,0.2-0.9,0.2-1.3c0-0.1,0-0.2,0-0.3C113.7,103.7,114.2,103.4,114.7,103.1"/>
<path style="fill:#68BC48;" d="M119.6,100.8c0,0.2,0,0.4,0,0.6c0,1.7-0.9,3.2-2.3,4.1c-1-0.7-1.8-1.5-2.6-2.4
	C116.2,102.2,117.9,101.4,119.6,100.8"/>
<path style="fill:#8EC74D;" d="M110.4,100.1c1.6,0.7,2.7,2.2,2.9,4c-0.4,0.3-0.9,0.7-1.3,1c-1.1-0.9-1.8-2.2-1.8-3.7
	C110.2,100.9,110.3,100.5,110.4,100.1"/>
<path style="fill:#68BC48;" d="M113.3,104.1c0,0.1,0,0.2,0,0.3c0,0.5-0.1,0.9-0.2,1.3c-0.4-0.2-0.8-0.4-1.1-0.7
	C112.4,104.7,112.8,104.4,113.3,104.1"/>
<path style="fill:#68BC48;" d="M63.4,203c0,2.2,1.8,4,4,4c1.9,0,3.6-1.4,3.9-3.2c0.6,0.1,1.3,0.2,2,0.2c1.4,0,2.7-0.3,3.8-0.9
	c0.3,0.2,0.7,0.5,1,0.6c0.3,0.4,0.5,0.9,0.9,1.2l-2.8,39.7l16.2-0.1l-2-38.2c0.1,0,0.1-0.1,0.2-0.1c1.7-1.3,2.9-3.3,3.2-5.5
	c2.3-0.4,4.1-2.4,4.1-4.9c0-0.5-0.1-1-0.2-1.4c1.2-0.7,2.1-2,2.1-3.5c0-0.2,0-0.4,0-0.5c0.8-0.4,1.4-1,1.9-1.7
	c0.4,2.3,2.2,4.2,4.5,4.7c0.7,1.2,2,1.9,3.4,1.9c2.2,0,4-1.8,4-4c0-0.8-0.2-1.5-0.6-2.1c0.1-0.5,0.2-1,0.2-1.5
	c0-1.8-0.8-3.4-2.1-4.5c0.1,0,0.2,0,0.2,0c2.2,0,4-1.8,4-4c0-2.2-1.8-4-4-4c-2.2,0-4,1.8-4,4c0,0.4,0.1,0.8,0.2,1.1l1.6-0.6l0,0
	l-1.8,0.6l0,0c-0.5-0.7-1.3-1.3-2.1-1.7c0.3-0.8,0.5-1.7,0.5-2.7c0-1.6-0.6-3.1-1.6-4.3c-0.1-2.1-1.9-3.8-4-3.8
	c-1.3,0-2.5,0.6-3.2,1.6c-0.8,0.2-1.5,0.6-2.2,1.1c-1.1-1.2-2.3-2.2-3.7-2.9c0.2-0.6,0.3-1.3,0.3-2c0-1.7-0.7-3.3-1.9-4.3
	c-0.1-2.1-1.9-3.8-4-3.8c-2.2,0-3.9,1.7-4,3.8c-1.2,1.1-1.9,2.6-1.9,4.3c0,0.5,0.1,1,0.2,1.5c-0.1,0-0.1,0.1-0.2,0.1
	c-0.1-2.1-1.9-3.8-4-3.8c-2.2,0-4,1.8-4,4c0,1.3,0.6,2.5,1.6,3.2c-1.3,0.1-2.6,0.7-3.5,1.5c-0.6-0.4-1.4-0.6-2.2-0.6
	c-2.2,0-4,1.8-4,4c0,2.2,1.8,4,4,4c0.4,0,0.8-0.1,1.2-0.2c0.7,1.2,1.9,2.2,3.3,2.6c0.1,0.5,0.2,0.9,0.4,1.4c-1,0.7-1.7,1.9-1.7,3.3
	c0,0.2,0,0.3,0,0.5c-0.5,0.2-0.9,0.4-1.4,0.6c-0.4-0.5-1-0.9-1.8-0.9c-0.6,0-1.1,0.2-1.5,0.6c-0.2-0.1-0.5-0.1-0.7-0.1
	c-1.2,0-2.2,1-2.2,2.2c0,0.7,0.3,1.4,0.9,1.8c0,0,0,0,0,0c0,0.8,0.5,1.6,1.1,2c-0.1,0.6-0.2,1.3-0.2,2c0,1.4,0.4,2.8,1,4
	C64.4,200,63.4,201.4,63.4,203z M75.4,167l-0.9,3.8l0,0l0.4-1.6L75.4,167z M75.7,169.9l0,1.2l0,0l0-1.7L75.7,169.9z M86.1,166.3
	C86.1,166.3,86.1,166.3,86.1,166.3l-0.5-4.1l0.2,1.4l0.2,2.1L86.1,166.3z M108.4,182C108.4,182,108.5,182,108.4,182
	C108.4,182,108.4,182,108.4,182l1.5-0.9l0,0L108.4,182z"/>
<g>
	<path style="fill:#8EC74D;" d="M83.6,160.2c-0.8,0.3-1.5,0.7-2.1,1.2c0,0.1,0,0.1,0,0.2c0,2,1.4,3.6,3.3,4l0.3-2.1
		c-1-0.2-1.8-1.1-1.8-2.2C83.3,160.9,83.4,160.5,83.6,160.2 M87.4,160.2c0.2,0.3,0.3,0.7,0.3,1.1c0,1.1-0.9,2.1-2,2.2l0.2,2.1
		c2-0.2,3.5-1.9,3.5-4c0-0.1,0-0.1,0-0.2C88.9,160.9,88.2,160.5,87.4,160.2"/>
	<path style="fill:#BED972;" d="M100.2,168c-1.3,0-2.5,0.6-3.2,1.6c0.6-0.2,1.3-0.3,2-0.3c2.1,0,4,1,5.2,2.5
		C104,169.6,102.3,168,100.2,168"/>
	<path style="fill:#BED972;" d="M111.4,175.2c-2.2,0-4,1.8-4,4c0,0.4,0.1,0.8,0.2,1.1l1.6-0.6c0-0.2-0.1-0.3-0.1-0.5
		c0-1.2,1-2.2,2.2-2.2s2.2,1,2.2,2.2s-1,2.2-2.2,2.2c-0.5,0-1-0.2-1.3-0.5l-1.5,0.9c0,0,0,0,0,0c1,0.2,1.9,0.6,2.6,1.2
		c0.1,0,0.2,0,0.2,0c2.2,0,4-1.8,4-4C115.4,177,113.6,175.2,111.4,175.2"/>
	<polyline style="fill:#273017;" points="111.1,179 84,188.8 86.7,195.4 111.7,180 111.1,179 	"/>
	<polyline style="fill:#273017;" points="99.9,171.9 95.3,185.3 98.6,186.3 100.4,171.9 99.9,171.9 	"/>
	<polyline style="fill:#273017;" points="65,190.2 81.9,204.1 85.1,199.8 65.4,189.4 65,190.2 	"/>
	<polyline style="fill:#273017;" points="67.7,175 86.4,177.3 85.5,182.5 67.5,175.7 67.7,175 	"/>
	<polyline style="fill:#273017;" points="67.3,203.4 75.1,196.7 73.4,194.8 67,203.2 67.3,203.4 	"/>
	<polyline style="fill:#273017;" points="109.6,191.6 103.3,183.5 101.3,185.1 109.4,191.9 109.6,191.6 	"/>
	<polyline style="fill:#273017;" points="109.8,184.8 104.9,187.7 105.7,188.9 110,185 109.8,184.8 	"/>
	<polyline style="fill:#273017;" points="75.4,167 73.3,175.9 75.5,176.3 75.8,167 75.4,167 	"/>
	<path style="fill:#BED972;" d="M71.9,182.1c0.1,0.5,0.2,0.9,0.4,1.4c0.5-0.3,1-0.6,1.6-0.7c0-0.2,0.1-0.3,0.2-0.5
		c-0.1,0-0.3,0-0.4,0C73,182.3,72.4,182.3,71.9,182.1 M91.1,167.8c-0.7,1.9-2.3,3.4-4.4,3.8l0.1,1c1.1,0.3,2,0.8,2.8,1.5
		c0.7-0.6,1.6-0.9,2.5-0.9c0.2,0,0.4,0,0.6,0c0.5-1,1.2-1.9,2-2.5C93.7,169.5,92.5,168.5,91.1,167.8 M79.8,167.3
		c-0.1,0-0.1,0.1-0.2,0.1c0,0.1,0,0.1,0,0.2c0,1.9-1.3,3.5-3.1,3.9c1.4,0.8,2.5,2.2,2.8,3.9c1-1.5,2.7-2.6,4.5-2.9l0.1-1
		C81.9,171,80.3,169.3,79.8,167.3"/>
	<path style="fill:#273017;" d="M84,171.5l-0.1,1c0.4-0.1,0.8-0.1,1.2-0.1c0.6,0,1.2,0.1,1.7,0.2l-0.1-1c-0.4,0.1-0.8,0.1-1.2,0.1
		C85,171.7,84.5,171.6,84,171.5"/>
	<path style="fill:#8EC74D;" d="M86.8,172.6l0.9,7.7c0.3-0.4,0.6-0.8,1-1.1c-0.3-0.6-0.5-1.3-0.5-2c0-1.3,0.6-2.4,1.5-3.1
		C88.8,173.4,87.8,172.8,86.8,172.6 M83.8,172.5c-1.9,0.3-3.5,1.4-4.5,2.9c0.1,0.3,0.1,0.7,0.1,1l3.8,0.5L83.8,172.5"/>
	<path style="fill:#273017;" d="M85.1,172.4c-0.4,0-0.8,0-1.2,0.1l-0.6,4.5l3.1,0.4l-0.5,3c0.6,0,1.1,0.1,1.7,0.2
		c0-0.1,0.1-0.1,0.1-0.2l-0.9-7.7C86.2,172.4,85.7,172.4,85.1,172.4"/>
	<path style="fill:#273017;" d="M79.4,176.4C79.4,176.5,79.4,176.5,79.4,176.4c0,1.1-0.2,2-0.7,2.8c1.4,0.1,2.6,0.7,3.4,1.6
		c1-0.3,2.1-0.5,3.3-0.5c0.1,0,0.2,0,0.4,0l0.5-3l-3.1-0.4L79.4,176.4"/>
	<path style="fill:#273017;" d="M91.8,190.8c-0.8,0.5-1.7,0.9-2.6,1.2c0.1,0.1,0.3,0.1,0.4,0.2c0.6-0.6,1.3-1,2.1-1.2
		c0-0.1,0-0.1,0-0.2C91.8,190.9,91.8,190.8,91.8,190.8"/>
	<path style="fill:#8EC74D;" d="M81.8,187.9c-0.2,0.2-0.4,0.3-0.6,0.4c0.2,0.1,0.3,0.2,0.5,0.3L81.8,187.9 M88.4,186.5l0.1,0.7
		L89,187C88.8,186.9,88.6,186.7,88.4,186.5"/>
	<path style="fill:#273017;" d="M87.7,185.7c-0.8,0.3-1.7,0.5-2.7,0.5c-0.7,0-1.3-0.1-1.9-0.3c-0.3,0.7-0.8,1.4-1.4,1.9l-0.1,0.7
		c0.9,0.6,1.6,1.6,1.7,2.8c0.5-0.1,1-0.2,1.6-0.2l-1-2.3l4.4-1.6l-0.1-0.7C88.1,186.3,87.9,186,87.7,185.7"/>
	<path style="fill:#273017;" d="M89,187l-0.5,0.2l-4.4,1.6l1,2.3c0.2,0,0.3,0,0.5,0c1.3,0,2.6,0.3,3.7,0.9c0.9-0.3,1.8-0.7,2.6-1.2
		c0-1,0.4-1.9,1-2.5c-0.1-0.1-0.1-0.3-0.2-0.4c-0.3,0-0.5,0.1-0.8,0.1C90.8,187.9,89.8,187.6,89,187"/>
	<path style="fill:#273017;" d="M85.9,180.3l-0.4,2.2l-2.8-1.1c0.5,0.8,0.8,1.7,0.8,2.8c0,0.7-0.1,1.3-0.4,1.8
		c0.6,0.2,1.3,0.3,1.9,0.3c0.9,0,1.8-0.2,2.7-0.5c-0.5-0.8-0.8-1.7-0.8-2.8c0-0.9,0.2-1.8,0.7-2.5C87,180.4,86.4,180.3,85.9,180.3"
		/>
	<path style="fill:#273017;" d="M85.5,180.3c-1.2,0-2.3,0.2-3.3,0.5c0.2,0.2,0.3,0.4,0.4,0.6l2.8,1.1l0.4-2.2
		C85.7,180.3,85.6,180.3,85.5,180.3"/>
	<path style="fill:#BED972;" d="M78.2,203.7c0.3,0.6,0.8,1.2,1.2,1.7l0.2-1.2C79.1,204.1,78.6,203.9,78.2,203.7 M90.1,199.9
		c-0.1,0-0.1,0.1-0.2,0.1l0.7,6.3c1.7-1.3,2.9-3.3,3.2-5.5c-0.3,0-0.5,0.1-0.8,0.1C91.9,200.8,90.9,200.4,90.1,199.9"/>
	<path style="fill:#273017;" d="M89.9,200c-1.1,0.5-2.3,0.9-3.6,1c-1,2-3,3.4-5.4,3.4c-0.4,0-0.9,0-1.3-0.1l-0.2,1.2
		c1.5,1.6,3.7,2.6,6.1,2.6c1.9,0,3.7-0.7,5.1-1.8L89.9,200"/>
	<path style="fill:#8EC74D;" d="M89.9,199.7l0,0.3c0.1,0,0.1-0.1,0.2-0.1C90.1,199.8,90,199.7,89.9,199.7"/>
	<path style="fill:#273017;" d="M83.4,192.7c0,0.1,0,0.1,0,0.2c2.1,0.9,3.5,3,3.5,5.5c0,0.9-0.2,1.8-0.6,2.6c1.3-0.1,2.5-0.4,3.6-1
		l0-0.3c-1.1-0.9-1.8-2.3-1.8-3.8c0-0.5,0.1-1,0.2-1.5l-1.6,1l-1.1-2.6c-0.2,0-0.5,0-0.7,0C84.4,192.8,83.9,192.7,83.4,192.7"/>
	<path style="fill:#273017;" d="M89.2,192c-1.1,0.4-2.4,0.6-3.6,0.7l1.1,2.6l1.6-1c0.3-0.8,0.7-1.6,1.3-2.1
		C89.5,192.2,89.4,192.1,89.2,192"/>
	<path style="fill:#273017;" d="M85,191.2c-0.5,0-1.1,0.1-1.6,0.2c0,0.2,0,0.4,0,0.6c0,0.2,0,0.5-0.1,0.7c0.5,0.1,1,0.1,1.5,0.1
		c0.2,0,0.5,0,0.7,0L85,191.2"/>
	<path style="fill:#273017;" d="M85.5,191.1c-0.2,0-0.3,0-0.5,0l0.6,1.6c1.3-0.1,2.5-0.3,3.6-0.7C88.1,191.5,86.8,191.1,85.5,191.1"
		/>
	<path style="fill:#BED972;" d="M105.2,178.7c-0.7,1.7-2.1,3-3.8,3.7c0,0,0.1,0.1,0.1,0.1l5.8-2.1
		C106.8,179.7,106,179.1,105.2,178.7"/>
	<path style="fill:#273017;" d="M107.3,180.4l-5.8,2.1c0.4,0.5,0.7,1.1,0.9,1.7l0.9-0.8l0.1,0.1c1.1-1,2.5-1.7,4.1-1.7
		c0.2,0,0.5,0,0.7,0C107.9,181.4,107.7,180.9,107.3,180.4"/>
	<path style="fill:#273017;" d="M103.3,183.5l-0.9,0.8c0,0.1,0.1,0.3,0.1,0.4c0.2-0.4,0.5-0.8,0.9-1.1L103.3,183.5"/>
	<path style="fill:#BED972;" d="M99.6,187.4l-1,0.6c0.6,0.6,1.1,1.4,1.2,2.4c0.8-0.4,1.4-1,1.9-1.7c0-0.1,0-0.1,0-0.2
		C100.9,188.3,100.2,187.9,99.6,187.4"/>
	<path style="fill:#273017;" d="M96.6,185.7c-0.2,0.4-0.5,0.8-0.7,1.2c1.1,0,2,0.4,2.7,1.1l1-0.6c-0.4-0.3-0.7-0.7-1-1.2l0,0.1
		L96.6,185.7"/>
	<path style="fill:#273017;" d="M97.7,182.7c-0.3,1-0.7,2-1.1,3l2,0.6l0-0.1c-0.5-0.8-0.8-1.7-0.8-2.7c0-0.2,0-0.5,0.1-0.7
		C97.9,182.8,97.8,182.7,97.7,182.7"/>
	<path style="fill:#273017;" d="M96,185.5c-0.3,0.4-0.6,0.8-1,1.2c0,0.1,0.1,0.2,0.1,0.3c0.2,0,0.4-0.1,0.7-0.1c0,0,0,0,0.1,0
		c0.3-0.4,0.5-0.8,0.7-1.2L96,185.5"/>
	<path style="fill:#273017;" d="M96.7,182.5c0,0.2,0,0.3,0,0.5c0,0.9-0.3,1.8-0.7,2.6l0.6,0.2c0.5-0.9,0.9-1.9,1.1-3
		C97.4,182.7,97,182.6,96.7,182.5"/>
	<path style="fill:#273017;" d="M93.6,187.6c-0.3,0.1-0.6,0.2-1,0.3c0.1,0.1,0.1,0.3,0.2,0.4C93,188,93.3,187.8,93.6,187.6
		 M95,186.7c-0.2,0.2-0.4,0.3-0.6,0.4c0.2-0.1,0.5-0.1,0.7-0.2C95.1,186.9,95.1,186.8,95,186.7"/>
	<path style="fill:#8EC74D;" d="M101.9,186l-2.2,1.4c0.6,0.5,1.3,0.9,2,1.1c0-0.3,0-0.5,0-0.8C101.6,187.1,101.7,186.6,101.9,186
		 M101.4,182.4c-0.7,0.3-1.5,0.4-2.3,0.4l-0.1,0.6l2.5-0.9C101.4,182.5,101.4,182.4,101.4,182.4"/>
	<path style="fill:#273017;" d="M101.5,182.5l-2.5,0.9l-0.3,2.8c0.3,0.4,0.6,0.8,1,1.2l2.2-1.4c0-0.1,0.1-0.2,0.1-0.4l-0.6-0.5
		l1-0.9C102.2,183.6,101.9,183,101.5,182.5"/>
	<path style="fill:#273017;" d="M97.9,182.8c0,0.2-0.1,0.5-0.1,0.7c0,1,0.3,1.9,0.8,2.7l0.3-2.8l0.1-0.6c0,0-0.1,0-0.1,0
		C98.6,182.8,98.3,182.8,97.9,182.8"/>
	<path style="fill:#273017;" d="M102.4,184.3l-1,0.9l0.6,0.5c0.1-0.4,0.3-0.7,0.5-1C102.5,184.5,102.4,184.4,102.4,184.3"/>
	<path style="fill:#BED972;" d="M74.8,198.4c-0.5,0.2-1,0.3-1.5,0.3c-0.2,0-0.4,0-0.6-0.1l-2.1,1.8c0.5,0.7,0.8,1.5,0.8,2.5
		c0,0.3,0,0.5-0.1,0.8c0.6,0.1,1.3,0.2,2,0.2c1.4,0,2.7-0.3,3.8-0.9C75.8,202,74.9,200.3,74.8,198.4 M68,192.6
		c-0.4,0.7-1.1,1.1-1.9,1.1c-0.4,0-0.8-0.1-1.1-0.3c-0.1,0.6-0.2,1.3-0.2,2c0,1.4,0.4,2.8,1,4c0.5-0.3,1.1-0.4,1.7-0.4
		c0.8,0,1.6,0.2,2.2,0.7l1.3-1.8c-0.7-0.6-1.1-1.5-1.1-2.5c0-0.4,0.1-0.7,0.2-1L68,192.6 M70.6,187.2c-0.5,0.2-0.9,0.4-1.4,0.6
		c0.3,0.4,0.5,0.9,0.5,1.4c0,0.8-0.4,1.5-1.1,1.9l2.8,1.5c0.5-0.4,1.2-0.6,1.9-0.6c0.8,0,1.5,0.2,2,0.7c-0.1-0.6-0.2-1.3-0.2-1.9
		c-0.2,0-0.4,0-0.6,0C72.5,190.8,70.8,189.2,70.6,187.2"/>
	<path style="fill:#273017;" d="M68.6,191.1c-0.1,0.1-0.2,0.1-0.3,0.2c0,0.1,0,0.1,0,0.2c0,0.4-0.1,0.8-0.3,1.2l2.1,1.8
		c0.2-0.7,0.7-1.3,1.3-1.8L68.6,191.1"/>
	<path style="fill:#273017;" d="M71,197.9l-1.3,1.8c0.4,0.2,0.7,0.5,1,0.9l2.1-1.8C72.1,198.6,71.5,198.3,71,197.9"/>
	<path style="fill:#8EC74D;" d="M75.6,190.6c-0.2,0-0.3,0.1-0.5,0.1c0,0.7,0.1,1.3,0.2,1.9c0,0,0.1,0.1,0.1,0.1
		c0-0.2-0.1-0.5-0.1-0.8C75.4,191.5,75.5,191,75.6,190.6"/>
	<path style="fill:#8EC74D;" d="M74,197.6l-1.3,1.1c0.2,0,0.4,0.1,0.6,0.1c0.5,0,1-0.1,1.5-0.3c0,0,0,0,0-0.1c0,0,0-0.1,0-0.1
		L74,197.6 M70.1,194.4c-0.1,0.3-0.2,0.7-0.2,1c0,1,0.4,1.9,1.1,2.5l1.3-1.7L70.1,194.4 M73.3,192c-0.7,0-1.4,0.2-1.9,0.6l4.5,2.4
		c0-0.1,0.1-0.1,0.1-0.2c-0.3-0.7-0.5-1.4-0.7-2.1C74.8,192.2,74.1,192,73.3,192"/>
	<path style="fill:#273017;" d="M75.1,196.7l-1.1,0.9l0.8,0.7C74.8,197.7,74.9,197.2,75.1,196.7 M71.4,192.6c-0.6,0.4-1.1,1-1.3,1.8
		l2.2,1.8l1-1.4l1.7,1.8c0.2-0.6,0.5-1.2,0.8-1.7L71.4,192.6"/>
	<path style="fill:#273017;" d="M73.4,194.8l-1,1.4l-1.3,1.7c0.5,0.4,1,0.7,1.7,0.9l1.3-1.1l1.1-0.9l0,0L73.4,194.8"/>
	<path style="fill:#68BC48;" d="M75.4,192.6c0.1,0.7,0.4,1.5,0.7,2.1c0.1-0.1,0.2-0.2,0.2-0.3c-0.4-0.5-0.7-1.1-0.8-1.7
		C75.4,192.7,75.4,192.7,75.4,192.6"/>
	<path style="fill:#BED972;" d="M85.5,157.6c-2.2,0-3.9,1.7-4,3.8c0.6-0.5,1.3-1,2.1-1.2c0.4-0.7,1.1-1.1,1.9-1.1
		c0.8,0,1.6,0.5,1.9,1.1c0.8,0.3,1.5,0.7,2.1,1.2C89.4,159.3,87.7,157.6,85.5,157.6"/>
	<path style="fill:#BED972;" d="M81.5,161.5c-1.2,1.1-1.9,2.6-1.9,4.3c0,0.5,0.1,1,0.2,1.5c1.5-0.6,3.2-1,4.9-1l0.1-0.6
		c-1.9-0.3-3.3-2-3.3-4C81.5,161.6,81.5,161.5,81.5,161.5 M89.5,161.5c0,0.1,0,0.1,0,0.2c0,2.1-1.5,3.7-3.5,4l0.1,0.6
		c1.8,0.2,3.5,0.7,5,1.5c0.2-0.6,0.3-1.3,0.3-2C91.4,164.1,90.7,162.5,89.5,161.5"/>
	<path style="fill:#8EC74D;" d="M86.1,166.3l0.6,5.3c2-0.4,3.7-1.9,4.4-3.8C89.5,167,87.9,166.4,86.1,166.3 M84.7,166.2
		c-1.7,0-3.4,0.4-4.9,1c0.5,2.1,2.1,3.7,4.2,4.2L84.7,166.2"/>
	<path style="fill:#273017;" d="M84.9,166.2c-0.1,0-0.1,0-0.2,0l-0.7,5.3c0.5,0.1,1,0.2,1.5,0.2c0.4,0,0.8,0,1.2-0.1l-0.6-5.3
		C85.7,166.3,85.3,166.2,84.9,166.2"/>
	<path style="fill:#BED972;" d="M97.3,174.8c0.3,0.9,0.6,1.8,0.7,2.7l0.6-1.8C98.1,175.5,97.6,175.1,97.3,174.8 M104.2,171.7
		c0,0.1,0,0.2,0,0.2c0,2.2-1.8,4-4,4c-0.1,0-0.2,0-0.2,0l-0.5,3.8c0.9-0.9,2.2-1.5,3.7-1.5c0.7,0,1.4,0.2,2.1,0.4
		c0.3-0.8,0.5-1.7,0.5-2.7C105.7,174.4,105.1,172.9,104.2,171.7 M97,169.5c-0.8,0.2-1.5,0.6-2.2,1.1c0.5,0.6,1,1.2,1.4,1.9
		c0-0.2,0-0.4,0-0.6C96.1,171.1,96.5,170.2,97,169.5"/>
	<path style="fill:#8EC74D;" d="M98.9,169.3c-0.7,0-1.3,0.1-2,0.3c-0.5,0.7-0.8,1.5-0.8,2.4c0,0.2,0,0.4,0,0.6
		c0.4,0.7,0.8,1.4,1.1,2.2c0.4,0.4,0.8,0.7,1.3,0.9l0.6-1.7c-0.7-0.4-1.2-1.1-1.2-2c0-1.2,1-2.2,2.2-2.2s2.2,1,2.2,2.2
		c0,1.2-1,2.2-2.2,2.2c0,0,0,0,0,0l-0.2,1.8c0.1,0,0.2,0,0.2,0c2.2,0,4-1.8,4-4c0-0.1,0-0.2,0-0.2C102.9,170.2,101,169.3,98.9,169.3
		"/>
	<path style="fill:#273017;" d="M99.2,174l-0.6,1.7l-0.6,1.8c0.1,0.7,0.2,1.3,0.2,2c0,0.4,0,0.7,0,1.1c0.2,0,0.4,0.1,0.6,0.1
		c0.2-0.3,0.5-0.7,0.8-0.9l0.5-3.8l0.2-1.8C99.8,174.2,99.5,174.1,99.2,174"/>
	<path style="fill:#8EC74D;" d="M94.8,170.7c-0.9,0.7-1.6,1.5-2,2.5c1.9,0.3,3.4,2,3.4,4c0,0.9-0.3,1.7-0.8,2.4
		c0.3,0.3,0.6,0.7,0.8,1.1c0.2-0.1,0.5-0.1,0.8-0.1l1.1-3.1c-0.1-0.9-0.4-1.8-0.7-2.7c-0.6-0.6-1-1.4-1.1-2.2
		C95.8,171.9,95.3,171.3,94.8,170.7"/>
	<path style="fill:#68BC48;" d="M96.2,172.6c0.1,0.8,0.5,1.6,1.1,2.2C97,174,96.6,173.3,96.2,172.6"/>
	<path style="fill:#273017;" d="M98,177.4l-1.1,3.1c0.2,0,0.3,0,0.5,0c0.2,0,0.5,0,0.7,0c0-0.4,0-0.7,0-1.1
		C98.1,178.8,98.1,178.1,98,177.4"/>
	<path style="fill:#8EC74D;" d="M103.1,178.3c-1.4,0-2.7,0.6-3.7,1.5l-0.1,1.2c0.8,0.3,1.5,0.8,2.1,1.5c1.7-0.7,3.1-2,3.8-3.7
		C104.5,178.4,103.8,178.3,103.1,178.3"/>
	<path style="fill:#273017;" d="M99.5,179.8c-0.3,0.3-0.5,0.6-0.8,0.9c0.2,0.1,0.4,0.1,0.6,0.2L99.5,179.8"/>
	<path style="fill:#273017;" d="M98.1,180.6c-0.1,0.7-0.2,1.4-0.4,2.1c0.1,0,0.1,0,0.2,0c0.1-0.7,0.4-1.4,0.8-2.1
		C98.5,180.7,98.3,180.6,98.1,180.6"/>
	<path style="fill:#68BC48;" d="M96.9,180.6c-0.3,0-0.5,0.1-0.8,0.1c0.2,0.3,0.3,0.6,0.4,1L96.9,180.6"/>
	<path style="fill:#273017;" d="M97.4,180.5c-0.2,0-0.3,0-0.5,0l-0.4,1.1c0.1,0.3,0.1,0.5,0.2,0.8c0.3,0.1,0.7,0.2,1,0.3
		c0.2-0.7,0.3-1.4,0.4-2.1C97.9,180.6,97.6,180.5,97.4,180.5"/>
	<path style="fill:#68BC48;" d="M99.3,180.9l-0.2,1.9c0.8,0,1.6-0.2,2.3-0.4C100.8,181.7,100.1,181.2,99.3,180.9"/>
	<path style="fill:#273017;" d="M98.7,180.7c-0.4,0.6-0.6,1.3-0.8,2.1c0.3,0,0.7,0.1,1,0.1c0,0,0.1,0,0.1,0l0.2-1.9
		C99.1,180.8,98.9,180.8,98.7,180.7"/>
	<path style="fill:#BED972;" d="M77.7,202.8c-0.2,0.1-0.4,0.2-0.6,0.3c0.3,0.2,0.7,0.5,1,0.6C78,203.4,77.8,203.1,77.7,202.8"/>
	<path style="fill:#8EC74D;" d="M79.1,201.8c-0.4,0.4-0.9,0.7-1.4,1c0.1,0.3,0.3,0.6,0.5,0.9c0.4,0.2,0.9,0.4,1.4,0.5l0.3-1.9
		L79.1,201.8"/>
	<path style="fill:#273017;" d="M84.3,200.9l-2.4,3.2l-2.1-1.7l-0.3,1.9c0.4,0.1,0.9,0.1,1.3,0.1c2.4,0,4.5-1.4,5.4-3.4
		c-0.3,0-0.5,0-0.8,0C85.1,201,84.7,200.9,84.3,200.9"/>
	<path style="fill:#273017;" d="M80.7,199.8c-0.4,0.7-1,1.4-1.6,2l0.7,0.6l2.1,1.7l2.4-3.2C83,200.7,81.8,200.4,80.7,199.8"/>
	<path style="fill:#273017;" d="M83.3,192.9c-0.2,0.9-0.7,1.7-1.4,2.2c0,0.1,0,0.2,0,0.3c0,0.9-0.1,1.8-0.4,2.6l3.6,1.9l-0.8,1.1
		c0.4,0,0.8,0.1,1.2,0.1c0.3,0,0.5,0,0.8,0c0.4-0.8,0.6-1.7,0.6-2.6C86.9,195.9,85.4,193.8,83.3,192.9"/>
	<path style="fill:#273017;" d="M81.6,197.9c-0.2,0.7-0.5,1.3-0.8,1.9c1.1,0.6,2.3,1,3.6,1.1l0.8-1.1L81.6,197.9"/>
	<path style="fill:#8EC74D;" d="M75,198.4c0,0-0.1,0-0.1,0.1c0,1.9,0.9,3.6,2.3,4.7c0.2-0.1,0.4-0.2,0.6-0.3
		c-0.3-0.8-0.6-1.7-0.6-2.7L75,198.4"/>
	<path style="fill:#273017;" d="M76.7,196c-0.2,1-0.8,1.9-1.7,2.4l2.1,1.8c0-0.2,0-0.4,0-0.5c0-0.9,0.1-1.7,0.4-2.5
		C77.2,196.7,76.9,196.4,76.7,196"/>
	<path style="fill:#68BC48;" d="M76.7,194.9c0,0.1,0,0.3,0,0.4c0,0,0,0,0,0l1.1,0.6c0-0.1,0.1-0.2,0.1-0.3
		C77.5,195.5,77.1,195.3,76.7,194.9"/>
	<path style="fill:#273017;" d="M76.7,195.4c0,0.2,0,0.4-0.1,0.6c0.2,0.4,0.5,0.7,0.8,1.1c0.1-0.4,0.3-0.8,0.4-1.1L76.7,195.4"/>
	<path style="fill:#68BC48;" d="M77.1,200.1c0.1,0.9,0.3,1.8,0.6,2.7c0.5-0.3,1-0.6,1.4-1L77.1,200.1"/>
	<path style="fill:#273017;" d="M77.4,197.1c-0.2,0.8-0.4,1.6-0.4,2.5c0,0.2,0,0.4,0,0.5l2,1.7c0.6-0.6,1.2-1.2,1.6-2
		C79.5,199.1,78.3,198.2,77.4,197.1"/>
	<path style="fill:#3FB44A;" d="M78,195.7c0,0.1-0.1,0.2-0.1,0.3l2.6,1.4l0.2-1.6c-0.4,0.1-0.8,0.2-1.3,0.2
		C78.9,196,78.4,195.9,78,195.7"/>
	<path style="fill:#273017;" d="M81.9,195.1c-0.4,0.3-0.8,0.5-1.3,0.7l-0.2,1.6l1.1,0.6c0.3-0.8,0.4-1.7,0.4-2.6
		C82,195.3,81.9,195.2,81.9,195.1"/>
	<path style="fill:#273017;" d="M77.9,196c-0.2,0.4-0.3,0.7-0.4,1.1c0.9,1.1,2,2,3.3,2.7c0.3-0.6,0.6-1.2,0.8-1.9l-1.1-0.6L77.9,196
		"/>
	<path style="fill:#68BC48;" d="M74.8,198.3C74.8,198.3,74.8,198.3,74.8,198.3c0,0.1,0,0.1,0,0.2c0,0,0.1,0,0.1-0.1L74.8,198.3
		 M76,194.8c0,0.1-0.1,0.1-0.1,0.2l0.3,0.2C76.1,195,76.1,194.9,76,194.8"/>
	<path style="fill:#273017;" d="M75.9,194.9c-0.4,0.5-0.6,1.1-0.8,1.7l0,0l0,0c-0.1,0.5-0.2,1-0.2,1.6l0.1,0.1
		c0.9-0.5,1.5-1.3,1.7-2.4c-0.2-0.3-0.3-0.6-0.5-0.9L75.9,194.9"/>
	<polyline style="fill:#273017;" points="75.1,196.7 75.1,196.7 75.1,196.7 75.1,196.7 	"/>
	<path style="fill:#3FB44A;" d="M76.3,194.5c-0.1,0.1-0.2,0.2-0.2,0.3c0,0.1,0.1,0.2,0.2,0.3l0.6,0.3c0,0,0,0,0,0c0-0.1,0-0.3,0-0.4
		C76.6,194.8,76.4,194.6,76.3,194.5"/>
	<path style="fill:#273017;" d="M76.2,195.1c0.2,0.3,0.3,0.6,0.5,0.9c0-0.2,0.1-0.4,0.1-0.6L76.2,195.1"/>
	<path style="fill:#BED972;" d="M67.5,171.6c-2.2,0-4,1.8-4,4c0,2.2,1.8,4,4,4c0.4,0,0.8-0.1,1.2-0.2c-0.3-0.6-0.6-1.2-0.7-1.8
		c-0.1,0-0.2,0-0.4,0c-1.2,0-2.2-1-2.2-2.2s1-2.2,2.2-2.2c0.4,0,0.8,0.1,1.1,0.3c0.3-0.5,0.6-0.9,1-1.2
		C69,171.9,68.3,171.6,67.5,171.6"/>
	<path style="fill:#BED972;" d="M72.2,183.5c-1,0.7-1.7,1.9-1.7,3.3c0,0.2,0,0.3,0,0.5c0.9-0.3,1.8-0.5,2.8-0.5c0.2,0,0.3,0,0.5,0
		C73.1,185.8,72.6,184.7,72.2,183.5"/>
	<path style="fill:#8EC74D;" d="M73.8,182.8c-0.6,0.1-1.1,0.3-1.6,0.7c0.4,1.2,0.9,2.3,1.6,3.3c0.2,0,0.4,0,0.6,0.1
		c-0.5-0.8-0.8-1.7-0.8-2.7C73.6,183.7,73.7,183.2,73.8,182.8"/>
	<path style="fill:#8EC74D;" d="M73.3,186.8c-1,0-1.9,0.2-2.8,0.5c0.2,2,1.9,3.6,4,3.6c0.2,0,0.4,0,0.6,0c0,0,0-0.1,0-0.1
		c0-0.7,0.1-1.3,0.2-1.9c-0.6-0.6-1.1-1.2-1.6-1.9C73.6,186.8,73.5,186.8,73.3,186.8"/>
	<path style="fill:#68BC48;" d="M73.8,186.8c0.5,0.7,1,1.3,1.6,1.9c0-0.2,0.1-0.5,0.2-0.7c-0.4-0.3-0.8-0.7-1.1-1.2
		C74.2,186.8,74,186.8,73.8,186.8"/>
	<path style="fill:#68BC48;" d="M75.3,188.7c-0.1,0.6-0.2,1.3-0.2,1.9c0,0,0,0.1,0,0.1c0.2,0,0.3-0.1,0.5-0.1
		c0.1-0.4,0.3-0.8,0.6-1.1C75.9,189.3,75.6,189,75.3,188.7"/>
	<path style="fill:#3FB44A;" d="M75.5,188c-0.1,0.2-0.1,0.5-0.2,0.7c0.3,0.3,0.6,0.6,0.9,0.8c0.2-0.3,0.4-0.5,0.7-0.7
		C76.4,188.6,75.9,188.4,75.5,188"/>
	<path style="fill:#8EC74D;" d="M92.1,173.1c-1,0-1.8,0.3-2.5,0.9c1.2,1,2,2.4,2.3,4c0.2,0,0.4,0,0.6,0c-0.2-0.7-0.3-1.3-0.3-2.1
		c0-1,0.2-2,0.6-2.8C92.6,173.2,92.3,173.1,92.1,173.1"/>
	<path style="fill:#68BC48;" d="M89.6,174c-0.9,0.7-1.5,1.9-1.5,3.1c0,0.7,0.2,1.4,0.5,2c0.8-0.7,1.9-1.1,3.1-1.1c0,0,0.1,0,0.1,0
		C91.6,176.5,90.8,175.1,89.6,174"/>
	<path style="fill:#68BC48;" d="M92.8,173.2c-0.4,0.9-0.6,1.8-0.6,2.8c0,0.7,0.1,1.4,0.3,2.1c1.1,0.1,2.1,0.7,2.9,1.5
		c0.5-0.7,0.8-1.5,0.8-2.4C96.2,175.2,94.7,173.5,92.8,173.2"/>
	<path style="fill:#68BC48;" d="M81.2,188.3c-0.6,0.4-1.3,0.6-2,0.7c0.9,0.8,1.5,1.8,2,2.8l0.4-3.3
		C81.5,188.5,81.3,188.4,81.2,188.3"/>
	<path style="fill:#273017;" d="M81.7,188.6l-0.4,3.3c0,0.1,0.1,0.2,0.1,0.4c0.6-0.4,1.3-0.6,2-0.8
		C83.2,190.3,82.6,189.3,81.7,188.6"/>
	<path style="fill:#273017;" d="M81.4,192.3C81.4,192.3,81.4,192.3,81.4,192.3c0.7,0.2,1.4,0.3,2,0.6c0-0.1,0-0.1,0-0.2
		C82.7,192.6,82,192.5,81.4,192.3"/>
	<path style="fill:#273017;" d="M83.4,191.4c-0.7,0.2-1.4,0.5-2,0.8c0,0,0,0,0,0.1c0.6,0.2,1.3,0.3,2,0.4c0-0.2,0.1-0.5,0.1-0.7
		C83.4,191.8,83.4,191.6,83.4,191.4"/>
	<path style="fill:#68BC48;" d="M76.9,190c-0.4,0.3-0.8,0.5-1.2,0.6c-0.2,0.4-0.2,0.9-0.2,1.3c0,0.3,0,0.5,0.1,0.8
		c0.5,0.4,0.8,0.9,1.1,1.5c1.1-1.1,2.6-1.8,4.3-1.8c0.1,0,0.2,0,0.3,0l0,0l0-0.1C79.6,191.8,78.1,191,76.9,190"/>
	<path style="fill:#273017;" d="M81.2,192.2l0,0.1c0,0,0.1-0.1,0.2-0.1C81.3,192.3,81.2,192.2,81.2,192.2"/>
	<path style="fill:#3FB44A;" d="M77.9,189c-0.3,0.4-0.6,0.7-1,1c1.3,1,2.7,1.7,4.3,2.2l0-0.3c-0.5-1.1-1.2-2-2-2.8
		c-0.2,0-0.4,0-0.6,0C78.3,189.1,78.1,189.1,77.9,189"/>
	<path style="fill:#273017;" d="M81.2,191.9l0,0.3c0,0,0.1,0,0.1,0c0,0,0,0,0.1,0C81.3,192.1,81.3,192,81.2,191.9"/>
	<polyline style="fill:#3FB44A;" points="81.2,192.4 81.1,192.4 81.2,192.4 81.2,192.4 	"/>
	<path style="fill:#273017;" d="M81.3,192.3c-0.1,0-0.1,0.1-0.2,0.1v0c0.1,0,0.2,0,0.3,0C81.4,192.3,81.4,192.3,81.3,192.3
		C81.4,192.3,81.3,192.3,81.3,192.3"/>
	<path style="fill:#001C00;" d="M81.4,192.2C81.3,192.2,81.3,192.3,81.4,192.2C81.3,192.3,81.4,192.3,81.4,192.2
		C81.4,192.3,81.4,192.3,81.4,192.2"/>
	<path style="fill:#3FB44A;" d="M75.5,192.7c0.1,0.6,0.4,1.2,0.8,1.7c0.1-0.1,0.2-0.2,0.3-0.3C76.3,193.6,75.9,193.1,75.5,192.7"/>
	<path style="fill:#273017;" d="M81.4,192.4c0.3,0.8,0.5,1.8,0.5,2.7c0.7-0.6,1.2-1.3,1.4-2.2C82.7,192.6,82.1,192.4,81.4,192.4"/>
	<path style="fill:#3FB44A;" d="M80.8,192.3c-1.7,0-3.2,0.7-4.3,1.8c0.1,0.2,0.2,0.5,0.2,0.8c0.4,0.3,0.8,0.6,1.3,0.8
		c0.7-1.4,1.8-2.6,3.2-3.4C81,192.4,80.9,192.3,80.8,192.3"/>
	<path style="fill:#00B04C;" d="M81.1,192.4c-1.3,0.8-2.4,2-3.2,3.4c0.4,0.2,0.9,0.3,1.4,0.3c0.4,0,0.9-0.1,1.3-0.2L81.1,192.4
		L81.1,192.4"/>
	<path style="fill:#001C00;" d="M81.2,192.4l-0.5,3.4c0.5-0.2,0.9-0.4,1.3-0.7c0-1-0.2-1.9-0.5-2.7
		C81.3,192.4,81.2,192.4,81.2,192.4"/>
	<path style="fill:#00B04C;" d="M76.5,194.2c-0.1,0.1-0.2,0.2-0.3,0.3c0.1,0.2,0.3,0.3,0.4,0.5C76.7,194.7,76.6,194.4,76.5,194.2"/>
	<path style="fill:#3FB44A;" d="M76.2,189.5c-0.2,0.3-0.4,0.7-0.6,1.1c0.4-0.1,0.8-0.3,1.2-0.6C76.6,189.9,76.4,189.7,76.2,189.5"/>
	<path style="fill:#00B04C;" d="M76.9,188.8c-0.3,0.2-0.5,0.5-0.7,0.7c0.2,0.2,0.4,0.3,0.6,0.5c0.4-0.3,0.7-0.6,1-1
		C77.5,189,77.2,188.9,76.9,188.8"/>
	<path style="fill:#BED972;" d="M97.7,194.5c-0.6,0.3-1.2,0.5-1.9,0.5c-0.3,0-0.6,0-0.9-0.1c-0.4,0.8-0.8,1.6-1.4,2.2
		c0.2,0.8,0.4,1.6,0.4,2.5c0,0.4,0,0.8-0.1,1.1c2.3-0.4,4.1-2.4,4.1-4.9C97.9,195.4,97.9,194.9,97.7,194.5"/>
	<path style="fill:#8EC74D;" d="M92,192.1l-1.3,0.8c1.3,1,2.4,2.5,2.9,4.2c0.5-0.7,1-1.4,1.4-2.2C93.5,194.5,92.4,193.5,92,192.1"/>
	<path style="fill:#273017;" d="M91.8,191.1c-0.8,0.2-1.5,0.6-2.1,1.2c0.4,0.2,0.7,0.4,1,0.7l1.3-0.8
		C91.9,191.8,91.8,191.4,91.8,191.1"/>
	<path style="fill:#8EC74D;" d="M93.5,197.1c-0.9,1.1-2.1,2.1-3.4,2.8c0.8,0.6,1.8,0.9,2.9,0.9c0.3,0,0.6,0,0.8-0.1
		c0-0.4,0.1-0.8,0.1-1.1C93.9,198.7,93.8,197.9,93.5,197.1"/>
	<path style="fill:#68BC48;" d="M90.7,192.9l-1.5,0.9l0.7,5.8c0.1,0.1,0.2,0.1,0.2,0.2c1.3-0.7,2.5-1.6,3.4-2.8
		C93,195.4,92,194,90.7,192.9"/>
	<path style="fill:#273017;" d="M89.2,193.8l-0.9,0.6c-0.1,0.5-0.2,1-0.2,1.5c0,1.5,0.7,2.9,1.8,3.8L89.2,193.8"/>
	<path style="fill:#273017;" d="M89.7,192.2c-0.6,0.6-1.1,1.3-1.3,2.1l0.9-0.6l1.5-0.9C90.4,192.7,90,192.5,89.7,192.2"/>
	<path style="fill:#8EC74D;" d="M94,180.7c-0.6,0.3-1.2,0.5-1.9,0.5c-0.1,0-0.2,0-0.4,0c-0.1,0.3-0.2,0.7-0.4,1
		c0.5,0.3,0.9,0.7,1.4,1.1c0.4-0.8,1.1-1.5,1.9-2C94.4,181.1,94.2,180.9,94,180.7"/>
	<path style="fill:#68BC48;" d="M88.7,179.2c-0.4,0.3-0.7,0.7-1,1.1l0,0.2c1.4,0.3,2.6,0.9,3.7,1.6c0.1-0.3,0.3-0.7,0.4-1
		C90.4,181,89.3,180.3,88.7,179.2"/>
	<path style="fill:#273017;" d="M87.7,180.3c0,0.1-0.1,0.1-0.1,0.2c0,0,0.1,0,0.2,0L87.7,180.3"/>
	<path style="fill:#68BC48;" d="M91.4,182.2c-0.6,1.4-1.8,2.6-3.1,3.3l0.1,1c0.2,0.2,0.4,0.3,0.6,0.5l3.2-1.1c0,0,0-0.1,0-0.1
		c0-0.9,0.2-1.7,0.6-2.5C92.4,182.9,91.9,182.5,91.4,182.2"/>
	<path style="fill:#273017;" d="M88.3,185.5c-0.2,0.1-0.4,0.2-0.5,0.3c0.2,0.3,0.4,0.6,0.7,0.8L88.3,185.5"/>
	<path style="fill:#273017;" d="M92.2,185.9L89,187c0.8,0.6,1.8,0.9,2.8,0.9c0.3,0,0.5,0,0.8-0.1C92.3,187.2,92.2,186.6,92.2,185.9"
		/>
	<path style="fill:#3FB44A;" d="M87.7,180.5l0.6,4.9c1.4-0.7,2.5-1.9,3.1-3.3C90.3,181.4,89.1,180.8,87.7,180.5"/>
	<path style="fill:#273017;" d="M87.5,180.5c-0.4,0.7-0.7,1.6-0.7,2.5c0,1,0.3,2,0.8,2.8c0.2-0.1,0.4-0.2,0.5-0.3l-0.6-4.9
		C87.6,180.5,87.6,180.5,87.5,180.5"/>
	<path style="fill:#68BC48;" d="M94.6,181.3c-0.8,0.5-1.4,1.2-1.9,2c0.6,0.6,1,1.2,1.5,1.8l1.3-0.5l0.8-2.4
		C95.7,182.1,95.1,181.7,94.6,181.3"/>
	<path style="fill:#273017;" d="M95.5,184.7l-1.3,0.5c0.3,0.5,0.6,1,0.8,1.6c0.4-0.3,0.7-0.7,1-1.2l-0.7-0.2L95.5,184.7"/>
	<path style="fill:#273017;" d="M96.3,182.3l-0.8,2.4l-0.2,0.7l0.7,0.2c0.5-0.7,0.7-1.6,0.7-2.6c0-0.2,0-0.4,0-0.5
		C96.6,182.4,96.4,182.4,96.3,182.3"/>
	<path style="fill:#3FB44A;" d="M92.8,183.3c-0.4,0.7-0.6,1.6-0.6,2.5c0,0,0,0.1,0,0.1l2.1-0.8C93.8,184.5,93.3,183.9,92.8,183.3"/>
	<path style="fill:#273017;" d="M94.2,185.1l-2.1,0.8c0,0.7,0.2,1.4,0.4,2c0.3-0.1,0.7-0.1,1-0.3c0.3-0.2,0.6-0.3,0.9-0.4
		c0.2-0.1,0.4-0.3,0.6-0.4C94.8,186.2,94.5,185.6,94.2,185.1"/>
	<path style="fill:#68BC48;" d="M95.3,179.6c-0.4,0.5-0.8,0.9-1.3,1.1c0.2,0.2,0.4,0.4,0.6,0.6c0.5-0.3,1-0.5,1.5-0.6
		C95.9,180.3,95.7,179.9,95.3,179.6"/>
	<path style="fill:#3FB44A;" d="M96.2,180.7c-0.5,0.1-1.1,0.3-1.5,0.6c0.5,0.4,1.1,0.7,1.7,1l0.2-0.7
		C96.5,181.3,96.3,181,96.2,180.7"/>
	<path style="fill:#273017;" d="M96.5,181.7l-0.2,0.7c0.1,0.1,0.3,0.1,0.4,0.1C96.7,182.2,96.6,181.9,96.5,181.7"/>
	<path style="fill:#68BC48;" d="M91.9,178.1c0.1,0.4,0.1,0.8,0.1,1.3c0,0.6-0.1,1.3-0.2,1.8c0.1,0,0.2,0,0.4,0
		c0.7,0,1.3-0.2,1.9-0.5c-0.7-0.7-1.2-1.6-1.5-2.6C92.3,178.1,92.1,178.1,91.9,178.1"/>
	<path style="fill:#3FB44A;" d="M91.8,178.1c-1.2,0-2.3,0.4-3.1,1.1c0.6,1.1,1.8,1.9,3.1,2c0.2-0.6,0.2-1.2,0.2-1.8
		c0-0.4,0-0.8-0.1-1.3C91.9,178.1,91.8,178.1,91.8,178.1"/>
	<path style="fill:#3FB44A;" d="M92.5,178.1c0.3,1,0.8,1.9,1.5,2.6c0.5-0.3,1-0.7,1.3-1.1C94.6,178.8,93.6,178.3,92.5,178.1"/>
	<path style="fill:#8EC74D;" d="M78.1,180.2c-1,1.2-2.5,2.1-4.2,2.2c-0.1,0.2-0.1,0.3-0.2,0.5c0.2,0,0.5-0.1,0.7-0.1
		c1.2,0,2.2,0.5,3,1.3c0.4-0.5,0.9-1,1.4-1.4C78.5,181.9,78.3,181.1,78.1,180.2"/>
	<path style="fill:#68BC48;" d="M78.4,179.8c-0.1,0.1-0.2,0.2-0.3,0.3c0.1,0.9,0.4,1.7,0.8,2.5c0.8-0.7,1.7-1.2,2.7-1.6L78.4,179.8"
		/>
	<path style="fill:#273017;" d="M78.8,179.2c-0.1,0.2-0.2,0.4-0.4,0.6l3.3,1.2c0.2-0.1,0.4-0.1,0.5-0.2
		C81.3,179.9,80.1,179.3,78.8,179.2"/>
	<path style="fill:#68BC48;" d="M78.9,182.7c-0.5,0.4-1,0.9-1.4,1.4c0.6,0.7,1,1.7,1,2.7c0,0.5-0.1,0.9-0.2,1.3
		c0.3-0.1,0.7-0.2,1.1-0.2c0.6,0,1.2,0.1,1.7,0.4c0.2-0.1,0.4-0.3,0.6-0.4l0.3-2.3C80.7,185,79.6,183.9,78.9,182.7"/>
	<path style="fill:#273017;" d="M82.1,185.6l-0.3,2.3c0.6-0.5,1.1-1.2,1.4-1.9C82.8,185.9,82.4,185.8,82.1,185.6"/>
	<path style="fill:#3FB44A;" d="M81.7,181c-1,0.4-1.9,0.9-2.7,1.6c0.7,1.3,1.8,2.3,3.1,3l0.6-4.2L81.7,181"/>
	<path style="fill:#273017;" d="M82.6,181.4l-0.6,4.2c0.3,0.2,0.7,0.3,1.1,0.4c0.2-0.6,0.4-1.2,0.4-1.8
		C83.5,183.1,83.2,182.2,82.6,181.4L82.6,181.4"/>
	<path style="fill:#273017;" d="M82.2,180.8c-0.2,0.1-0.4,0.1-0.5,0.2l1,0.4l0,0C82.5,181.2,82.4,181,82.2,180.8"/>
	<path style="fill:#68BC48;" d="M74.5,182.7c-0.2,0-0.5,0-0.7,0.1c-0.1,0.4-0.2,0.9-0.2,1.4c0,1,0.3,1.9,0.8,2.7
		c0.5,0.1,0.9,0.2,1.4,0.3c0.4-1.1,1-2.1,1.7-3C76.8,183.3,75.7,182.7,74.5,182.7"/>
	<path style="fill:#3FB44A;" d="M77.5,184.1c-0.7,0.9-1.3,1.9-1.7,3c0.8,0.2,1.6,0.6,2.3,1.1c0.1,0,0.2-0.1,0.2-0.1
		c0.1-0.4,0.2-0.9,0.2-1.3C78.6,185.7,78.2,184.8,77.5,184.1"/>
	<path style="fill:#3FB44A;" d="M74.4,186.8c0.3,0.5,0.7,0.9,1.1,1.2c0.1-0.3,0.2-0.6,0.3-0.9C75.3,187,74.9,186.9,74.4,186.8"/>
	<path style="fill:#00B04C;" d="M75.8,187.1c-0.1,0.3-0.2,0.6-0.3,0.9c0.4,0.3,0.9,0.6,1.4,0.8c0.3-0.3,0.7-0.5,1.1-0.6
		C77.4,187.7,76.6,187.4,75.8,187.1"/>
	<path style="fill:#3FB44A;" d="M79.4,188c-0.4,0-0.7,0.1-1.1,0.2c0,0.1,0,0.1-0.1,0.2c0.3,0.2,0.6,0.5,0.9,0.7
		c0.7-0.1,1.4-0.3,2-0.7C80.6,188.1,80,188,79.4,188"/>
	<path style="fill:#00B04C;" d="M78.3,188.3c-0.1,0.3-0.2,0.5-0.4,0.7c0.2,0,0.5,0,0.7,0c0.2,0,0.4,0,0.6,0
		C78.9,188.8,78.6,188.5,78.3,188.3"/>
	<path style="fill:#00B04C;" d="M78.3,188.1c-0.1,0-0.2,0-0.2,0.1c0.1,0,0.1,0.1,0.2,0.1C78.3,188.2,78.3,188.2,78.3,188.1"/>
	<path style="fill:#00AC4D;" d="M78.1,188.2c-0.4,0.1-0.8,0.4-1.1,0.6c0.3,0.1,0.6,0.2,0.9,0.2c0.2-0.2,0.3-0.5,0.4-0.7
		C78.2,188.3,78.1,188.2,78.1,188.2"/>
	<path style="fill:#BED972;" d="M99.8,190.4c-0.7,0.4-1.5,0.6-2.4,0.6c-0.5,0-1.1-0.1-1.6-0.2c0,0.3,0,0.7-0.1,1
		c0.9,0.6,1.7,1.6,2,2.7c1.2-0.7,2.1-2,2.1-3.5C99.8,190.7,99.8,190.6,99.8,190.4"/>
	<path style="fill:#8EC74D;" d="M94.9,190.3l-1.1,0.7c0.7,0.1,1.4,0.4,1.9,0.8c0-0.3,0.1-0.7,0.1-1
		C95.5,190.6,95.2,190.5,94.9,190.3"/>
	<path style="fill:#273017;" d="M93.7,189.4c-0.6,0.5-1.2,1-1.9,1.4c0,0,0,0.1,0,0.1c0,0.1,0,0.1,0,0.2c0.4-0.1,0.8-0.1,1.2-0.1
		c0.3,0,0.5,0,0.8,0.1l1.1-0.7C94.4,190.1,94,189.8,93.7,189.4"/>
	<path style="fill:#273017;" d="M92.8,188.3c-0.6,0.7-1,1.6-1,2.5c0.7-0.4,1.3-0.9,1.9-1.4C93.3,189.1,93,188.7,92.8,188.3"/>
	<path style="fill:#8EC74D;" d="M98.6,188l-2.8,1.7c0,0.3,0,0.6,0,0.8c0,0,0,0.1,0,0.1c0.5,0.2,1,0.2,1.6,0.2c0.9,0,1.7-0.2,2.4-0.6
		C99.7,189.5,99.2,188.7,98.6,188"/>
	<path style="fill:#273017;" d="M95.9,186.9c-0.2,0.2-0.3,0.5-0.5,0.7c0.2,0.7,0.4,1.4,0.4,2.2l2.8-1.7
		C97.9,187.4,96.9,186.9,95.9,186.9"/>
	<path style="fill:#273017;" d="M95.8,186.9c-0.2,0-0.5,0-0.7,0.1c0.1,0.2,0.2,0.4,0.2,0.6C95.5,187.4,95.7,187.1,95.8,186.9
		C95.9,186.9,95.8,186.9,95.8,186.9"/>
	<path style="fill:#68BC48;" d="M95.8,189.8l-0.9,0.6c0.3,0.2,0.6,0.3,0.9,0.4c0,0,0-0.1,0-0.1C95.8,190.3,95.8,190.1,95.8,189.8"/>
	<path style="fill:#273017;" d="M95.4,187.6c-0.5,0.7-1.1,1.3-1.7,1.8c0.4,0.4,0.8,0.7,1.2,0.9l0.9-0.6
		C95.7,189,95.6,188.3,95.4,187.6"/>
	<path style="fill:#273017;" d="M95.1,187c-0.2,0-0.5,0.1-0.7,0.2c-0.3,0.2-0.6,0.3-0.9,0.4c-0.3,0.2-0.6,0.4-0.8,0.7
		c0.2,0.4,0.5,0.8,0.9,1.2c0.6-0.6,1.2-1.2,1.7-1.8C95.3,187.4,95.2,187.2,95.1,187"/>
	<path style="fill:#8EC74D;" d="M95.8,191.8c-0.1,1.1-0.4,2.1-0.8,3.1c0.3,0.1,0.6,0.1,0.9,0.1c0.7,0,1.3-0.2,1.9-0.5
		C97.4,193.3,96.7,192.4,95.8,191.8"/>
	<path style="fill:#68BC48;" d="M93.8,191l-1.8,1.1c0.4,1.4,1.5,2.4,2.9,2.7c0.4-1,0.7-2,0.8-3.1C95.2,191.4,94.5,191.1,93.8,191"/>
	<path style="fill:#273017;" d="M93,190.9c-0.4,0-0.8,0.1-1.2,0.1c0,0.4,0.1,0.7,0.2,1l1.8-1.1C93.6,191,93.3,190.9,93,190.9"/>
	<path style="fill:#001C00;" d="M94.4,187.1c-0.3,0.1-0.6,0.3-0.9,0.4C93.9,187.5,94.2,187.3,94.4,187.1"/>
	<path style="fill:#BED972;" d="M71.2,177.1c-0.4,1.1-1.4,2-2.6,2.4c0.7,1.2,1.9,2.2,3.3,2.6c-0.2-0.8-0.3-1.7-0.3-2.6
		c0-0.7,0.1-1.4,0.2-2.1L71.2,177.1 M73.1,170.7c-1.3,0.1-2.6,0.7-3.5,1.5c1,0.7,1.8,1.8,1.8,3.1l0.8,0.1c0.5-1.5,1.2-2.9,2.2-4.1
		l0,0C73.9,171.2,73.5,171,73.1,170.7"/>
	<path style="fill:#273017;" d="M71.5,175.4c0,0.1,0,0.1,0,0.2c0,0.5-0.1,1-0.3,1.5l0.6,0.2c0.1-0.6,0.2-1.2,0.4-1.8L71.5,175.4"/>
	<polyline style="fill:#273017;" points="74.4,171.4 74.4,171.4 74.4,171.4 74.4,171.4 	"/>
	<path style="fill:#8EC74D;" d="M71.8,177.4c-0.1,0.7-0.2,1.4-0.2,2.1c0,0.9,0.1,1.8,0.3,2.6c0.5,0.2,1.1,0.3,1.7,0.3
		c0.1,0,0.3,0,0.4,0c0.6-1.4,1.8-2.5,3.3-2.9L71.8,177.4 M76.5,171.5c-0.3,0.1-0.5,0.1-0.8,0.1l-0.1,4.4l3.2,0.4
		c0.2-0.3,0.3-0.7,0.6-1C79,173.7,77.9,172.3,76.5,171.5 M74.4,171.4c-0.9,1.2-1.7,2.6-2.2,4.1l1.2,0.1L74.4,171.4"/>
	<path style="fill:#273017;" d="M72.2,175.5c-0.2,0.6-0.3,1.2-0.4,1.8l5.5,2.1c0.3-0.1,0.5-0.1,0.8-0.1c0-1,0.2-2,0.7-2.9l-3.2-0.4
		l0,0.3l-2.2-0.4l0-0.2L72.2,175.5"/>
	<path style="fill:#273017;" d="M74.4,171.4L74.4,171.4l-1,4.3l0,0.2l2.2,0.4l0-0.3l0.1-4.4c0,0-0.1,0-0.1,0
		C75.2,171.6,74.8,171.5,74.4,171.4"/>
	<path style="fill:#68BC48;" d="M79.3,175.4c-0.2,0.3-0.4,0.6-0.6,1l0.7,0.1C79.4,176.1,79.4,175.7,79.3,175.4"/>
	<path style="fill:#273017;" d="M78.8,176.4c-0.4,0.9-0.7,1.9-0.7,2.9c0.2,0,0.3,0,0.5,0c0.1,0,0.1,0,0.2,0c0.4-0.8,0.7-1.7,0.7-2.7
		c0,0,0-0.1,0-0.1L78.8,176.4"/>
	<path style="fill:#8EC74D;" d="M69.5,176.5c-0.3,0.6-0.9,1.1-1.6,1.2c0.1,0.7,0.4,1.3,0.7,1.8c1.2-0.4,2.1-1.2,2.6-2.4L69.5,176.5
		 M69.6,172.3c-0.4,0.4-0.7,0.8-1,1.2c0.6,0.3,1,1,1.1,1.7l1.7,0.2C71.4,174.1,70.7,173,69.6,172.3"/>
	<path style="fill:#273017;" d="M69.8,175.2c0,0.1,0,0.2,0,0.3c0,0.4-0.1,0.7-0.3,1l1.7,0.6c0.2-0.5,0.3-1,0.3-1.5
		c0-0.1,0-0.2,0-0.2L69.8,175.2"/>
	<path style="fill:#68BC48;" d="M77.3,179.4c-1.5,0.4-2.7,1.5-3.3,2.9c1.7-0.1,3.2-0.9,4.2-2.2c0-0.2,0-0.3,0-0.5L77.3,179.4"/>
	<path style="fill:#273017;" d="M78.1,179.3c-0.3,0-0.5,0.1-0.8,0.1l0.8,0.3C78.1,179.6,78.1,179.5,78.1,179.3
		C78.1,179.3,78.1,179.3,78.1,179.3"/>
	<path style="fill:#3FB44A;" d="M78.1,179.7c0,0.2,0,0.3,0,0.5c0.1-0.1,0.2-0.2,0.3-0.3L78.1,179.7"/>
	<path style="fill:#273017;" d="M78.6,179.2c-0.2,0-0.3,0-0.5,0c0,0,0,0,0,0.1c0,0.1,0,0.3,0,0.4l0.3,0.1c0.1-0.2,0.2-0.4,0.4-0.6
		C78.7,179.2,78.6,179.2,78.6,179.2"/>
	<path style="fill:#BED972;" d="M105.1,188.3c-0.6,0.3-1.3,0.4-2,0.4c-0.5,0-0.9-0.1-1.3-0.2c0,0.1-0.1,0.1-0.1,0.2
		c0.4,2.3,2.2,4.2,4.5,4.7c-0.4-0.6-0.6-1.3-0.6-2.1c0-0.8,0.2-1.5,0.6-2.1l-0.5-0.4l-0.1,0.1l-0.2-0.4L105.1,188.3 M107.9,185.6
		c-0.1,0.2-0.2,0.4-0.3,0.5l0.4-0.2C108,185.8,107.9,185.7,107.9,185.6 M108.4,182l-0.3,0.2c0.1,0.4,0.2,0.9,0.2,1.3
		c0,0.1,0,0.1,0,0.2c0.3-0.3,0.8-0.5,1.3-0.5c1,0,1.9,0.8,1.9,1.9c0,1-0.8,1.9-1.9,1.9c-0.5,0-0.9-0.2-1.2-0.4l-1.7,1.5l0.3,0.4
		c0.7-0.6,1.6-1,2.6-1c1.4,0,2.7,0.8,3.4,1.9c0.1-0.5,0.2-1,0.2-1.5c0-1.8-0.8-3.4-2.1-4.5C110.1,183.2,109.1,182.7,108.4,182
		C108.4,182,108.4,182,108.4,182"/>
	<path style="fill:#8EC74D;" d="M108.5,182c0.7,0.7,1.6,1.2,2.6,1.2C110.4,182.6,109.5,182.2,108.5,182"/>
	<path style="fill:#273017;" d="M108.1,182c0,0.1,0,0.1,0.1,0.2l0.3-0.2C108.3,182,108.2,182,108.1,182"/>
	<path style="fill:#273017;" d="M105.2,188.3c0,0-0.1,0-0.1,0l0.3,0.3L105.2,188.3 M106.8,187.9l-1,0.9l0.5,0.4
		c0.2-0.4,0.5-0.7,0.8-0.9L106.8,187.9"/>
	<path style="fill:#273017;" d="M108,185.9l-0.4,0.2c-0.6,0.9-1.4,1.7-2.4,2.1l0.2,0.3l0.2,0.4l0.1-0.1l1-0.9l1.7-1.5
		C108.3,186.2,108.1,186.1,108,185.9"/>
	<path style="fill:#8EC74D;" d="M102.6,186.2c-0.1,0.9-0.3,1.7-0.8,2.4c0.4,0.1,0.9,0.2,1.3,0.2c0.7,0,1.4-0.1,2-0.4L102.6,186.2
		 M108.2,182.2l-4,2.5l1.9,2.4l1.5-0.9c0.1-0.2,0.2-0.4,0.3-0.5c-0.1-0.2-0.1-0.4-0.1-0.6c0-0.5,0.2-1,0.5-1.3c0-0.1,0-0.1,0-0.2
		C108.3,183,108.3,182.6,108.2,182.2"/>
	<path style="fill:#273017;" d="M107.4,181.9c-1.6,0-3,0.6-4.1,1.7l0.8,1l4-2.5c0-0.1,0-0.1-0.1-0.2
		C107.9,181.9,107.7,181.9,107.4,181.9"/>
	<path style="fill:#273017;" d="M103.3,183.6c-0.3,0.3-0.6,0.7-0.9,1.1c0.1,0.4,0.1,0.7,0.1,1.1c0,0.1,0,0.3,0,0.4l2.5,2.1
		c0,0,0.1,0,0.1,0l-0.3-0.5l1.2-0.7l-1.9-2.4L103.3,183.6"/>
	<path style="fill:#273017;" d="M107.6,186.1l-1.5,0.9l-1.2,0.7l0.3,0.5C106.2,187.8,107.1,187.1,107.6,186.1"/>
	<path style="fill:#8EC74D;" d="M101.7,188.5c0,0.1,0,0.1,0,0.2c0-0.1,0.1-0.1,0.1-0.2C101.8,188.5,101.7,188.5,101.7,188.5"/>
	<path style="fill:#68BC48;" d="M102.2,185.8l-0.3,0.2c-0.2,0.5-0.3,1.1-0.3,1.7c0,0.3,0,0.5,0,0.8c0,0,0.1,0,0.1,0
		c0.4-0.7,0.7-1.5,0.8-2.4L102.2,185.8"/>
	<path style="fill:#273017;" d="M102,185.7c0,0.1-0.1,0.2-0.1,0.4l0.3-0.2L102,185.7"/>
	<path style="fill:#273017;" d="M102.5,184.7c-0.2,0.3-0.4,0.7-0.5,1l0.2,0.2l0.4,0.3c0-0.1,0-0.3,0-0.4
		C102.6,185.4,102.6,185,102.5,184.7"/>
	<path style="fill:#BED972;" d="M75.6,163.5c-2.2,0-4,1.8-4,4c0,1.3,0.6,2.5,1.6,3.2c0.2,0,0.3,0,0.5,0c0.3,0,0.6,0,0.9,0.1l0.4-1.6
		c-0.9-0.3-1.6-1.1-1.6-2.1c0-1.2,1-2.2,2.2-2.2s2.2,1,2.2,2.2c0,1.2-0.9,2.2-2.1,2.2l0,0.7c1.1-1.1,2.4-2,3.9-2.6
		C79.5,165.2,77.7,163.5,75.6,163.5"/>
	<path style="fill:#8EC74D;" d="M79.6,167.3c-1.5,0.6-2.8,1.5-3.9,2.6l0,1.2c0.3,0.1,0.6,0.2,0.8,0.4c1.8-0.4,3.1-2,3.1-3.9
		C79.6,167.5,79.6,167.4,79.6,167.3"/>
	<path style="fill:#8EC74D;" d="M73.6,170.7c-0.2,0-0.3,0-0.5,0c0.4,0.3,0.8,0.5,1.3,0.7l0.1-0.6C74.2,170.7,73.9,170.7,73.6,170.7"
		/>
	<path style="fill:#273017;" d="M74.5,170.8l-0.1,0.6l0,0c0.1-0.2,0.3-0.4,0.4-0.5C74.7,170.8,74.6,170.8,74.5,170.8"/>
	<path style="fill:#68BC48;" d="M75.7,171.1l0,0.5c0.3,0,0.6,0,0.8-0.1C76.2,171.3,75.9,171.2,75.7,171.1"/>
	<path style="fill:#273017;" d="M74.8,170.8c-0.2,0.2-0.3,0.4-0.4,0.5c0.4,0.1,0.8,0.2,1.2,0.2c0,0,0.1,0,0.1,0l0-0.5
		C75.4,171,75.1,170.9,74.8,170.8"/>
	<path style="fill:#BED972;" d="M65.7,199.3c-1.3,0.7-2.3,2-2.3,3.6c0,2.2,1.8,4,4,4c1.9,0,3.6-1.4,3.9-3.2
		c-0.6-0.1-1.2-0.3-1.7-0.6c-0.1,1.1-1.1,2-2.2,2c-1.2,0-2.2-1-2.2-2.2c0-1,0.6-1.8,1.5-2.1C66.3,200.4,66,199.9,65.7,199.3"/>
	<path style="fill:#8EC74D;" d="M70.6,200.5l-1.4,1.2c0.3,0.4,0.4,0.8,0.4,1.3c0,0.1,0,0.1,0,0.2c0.5,0.3,1.1,0.5,1.7,0.6
		c0.1-0.3,0.1-0.5,0.1-0.8C71.5,202,71.2,201.2,70.6,200.5 M67.5,198.9c-0.6,0-1.2,0.1-1.7,0.4c0.3,0.5,0.6,1,1,1.5
		c0.2-0.1,0.5-0.1,0.7-0.1c0.4,0,0.8,0.1,1.2,0.3l1.1-1.4C69,199.2,68.3,198.9,67.5,198.9"/>
	<path style="fill:#273017;" d="M69.7,199.6l-1.1,1.4c0.3,0.2,0.5,0.4,0.7,0.6l1.4-1.2C70.4,200.2,70,199.9,69.7,199.6"/>
	<path style="fill:#BED972;" d="M65.2,187.4c-1.2,0-2.2,1-2.2,2.2c0,0.7,0.3,1.4,0.9,1.8c0-0.9,0.6-1.7,1.4-2c0-0.1,0-0.1,0-0.2
		c0-0.7,0.3-1.3,0.7-1.7C65.7,187.5,65.5,187.4,65.2,187.4"/>
	<path style="fill:#BED972;" d="M67.4,187c-0.6,0-1.1,0.2-1.5,0.6c0.7,0.3,1.3,0.9,1.4,1.6c0.5-0.5,1.1-1,1.8-1.3
		C68.8,187.3,68.2,187,67.4,187"/>
	<path style="fill:#8EC74D;" d="M69.2,187.8c-0.7,0.4-1.3,0.8-1.8,1.3c0,0.2,0.1,0.3,0.1,0.5c0,0,0,0,0,0c0.4,0.3,0.7,0.7,0.8,1.2
		l0.4,0.2c0.6-0.4,1.1-1.1,1.1-1.9C69.7,188.7,69.5,188.2,69.2,187.8"/>
	<path style="fill:#273017;" d="M68.2,190.9c0,0.1,0.1,0.2,0.1,0.4c0.1,0,0.2-0.1,0.3-0.2L68.2,190.9"/>
	<path style="fill:#8EC74D;" d="M65.9,187.5c-0.5,0.4-0.7,1-0.7,1.7c0,0.1,0,0.1,0,0.2c0.3-0.1,0.5-0.2,0.9-0.2c0.4,0,0.7,0.1,1,0.2
		c0.1-0.1,0.2-0.2,0.3-0.3C67.2,188.4,66.7,187.8,65.9,187.5"/>
	<path style="fill:#68BC48;" d="M67.4,189.2c-0.1,0.1-0.2,0.2-0.3,0.3c0.1,0.1,0.2,0.1,0.4,0.2c0,0,0,0,0,0
		C67.4,189.5,67.4,189.3,67.4,189.2"/>
	<path style="fill:#BED972;" d="M63.8,191.4C63.8,191.4,63.8,191.4,63.8,191.4c0,0.9,0.5,1.6,1.1,2c0.1-0.5,0.3-1,0.5-1.5
		c-0.1,0-0.2,0-0.3,0C64.7,191.9,64.2,191.7,63.8,191.4"/>
	<path style="fill:#8EC74D;" d="M66.6,191.4c-0.3,0.2-0.7,0.4-1.1,0.4c-0.2,0.5-0.4,1-0.5,1.5c0.3,0.2,0.7,0.3,1.1,0.3
		c0.8,0,1.5-0.4,1.9-1.1L66.6,191.4"/>
	<path style="fill:#273017;" d="M68.3,191.3c-0.3,0.1-0.5,0.2-0.9,0.2c-0.3,0-0.5,0-0.7-0.1c0,0-0.1,0.1-0.1,0.1l1.4,1.2
		c0.2-0.3,0.3-0.7,0.3-1.2C68.3,191.4,68.3,191.3,68.3,191.3"/>
	<path style="fill:#8EC74D;" d="M65.2,189.4c-0.8,0.3-1.4,1.1-1.4,2c0.4,0.3,0.9,0.5,1.4,0.5c0.1,0,0.2,0,0.3,0
		c0.1-0.3,0.3-0.6,0.5-0.9l-0.9-0.8l0.2-0.4C65.2,189.6,65.2,189.5,65.2,189.4"/>
	<path style="fill:#273017;" d="M65.3,189.7l-0.2,0.4l0.9,0.8c0,0,0,0,0,0C65.6,190.6,65.4,190.2,65.3,189.7"/>
	<path style="fill:#68BC48;" d="M66,190.9c-0.2,0.3-0.3,0.6-0.5,0.9c0.4,0,0.8-0.2,1.1-0.4L66,190.9"/>
	<path style="fill:#273017;" d="M66,190.9C66,190.9,66,190.9,66,190.9l0.6,0.5c0,0,0.1-0.1,0.1-0.1C66.4,191.2,66.2,191.1,66,190.9"
		/>
	<path style="fill:#68BC48;" d="M67.4,189.7c0,0.3,0,0.5-0.1,0.7l0.9,0.5C68.1,190.4,67.8,190,67.4,189.7"/>
	<path style="fill:#273017;" d="M67.3,190.4c-0.1,0.4-0.3,0.7-0.6,0.9c0.2,0.1,0.5,0.1,0.7,0.1c0.3,0,0.6-0.1,0.9-0.2
		c0-0.1,0-0.3-0.1-0.4L67.3,190.4"/>
	<path style="fill:#68BC48;" d="M66.1,189.2c-0.3,0-0.6,0.1-0.9,0.2c0,0.1,0,0.2,0.1,0.3l0.2-0.3l1.2,0.6c0.2-0.2,0.3-0.4,0.5-0.6
		C66.8,189.3,66.4,189.2,66.1,189.2"/>
	<path style="fill:#273017;" d="M65.4,189.4l-0.2,0.3c0.1,0.5,0.4,0.9,0.7,1.2c0.2-0.3,0.4-0.6,0.6-0.9L65.4,189.4"/>
	<path style="fill:#3FB44A;" d="M67.1,189.5c-0.2,0.2-0.3,0.4-0.5,0.6l0.7,0.4c0.1-0.2,0.1-0.5,0.1-0.7
		C67.3,189.6,67.2,189.5,67.1,189.5"/>
	<path style="fill:#273017;" d="M66.6,190c-0.2,0.3-0.4,0.6-0.6,0.9c0.2,0.2,0.5,0.3,0.7,0.4c0.3-0.2,0.5-0.6,0.6-0.9L66.6,190"/>
	<path style="fill:#8EC74D;" d="M66.7,200.8c-0.9,0.3-1.5,1.1-1.5,2.1c0,1.2,1,2.2,2.2,2.2c1.2,0,2.1-0.9,2.2-2
		c-0.4-0.2-0.9-0.5-1.3-0.7l-1.1,1l-0.3-0.2l0.9-1.2C67.4,201.6,67,201.3,66.7,200.8"/>
	<path style="fill:#273017;" d="M67.9,202l-0.9,1.2l0.3,0.2l1.1-1C68.2,202.3,68,202.1,67.9,202"/>
	<path style="fill:#68BC48;" d="M69.3,201.7l-0.9,0.8c0.4,0.3,0.8,0.5,1.3,0.7c0-0.1,0-0.1,0-0.2C69.7,202.5,69.5,202,69.3,201.7
		 M67.4,200.7c-0.3,0-0.5,0-0.7,0.1c0.3,0.4,0.7,0.8,1.2,1.2l0.7-1C68.3,200.8,67.9,200.7,67.4,200.7"/>
	<path style="fill:#273017;" d="M68.6,201l-0.7,1c0.2,0.1,0.4,0.3,0.6,0.4l0.9-0.8C69.1,201.4,68.9,201.2,68.6,201"/>
	<path style="fill:#8EC74D;" d="M111.3,177c-1.2,0-2.2,1-2.2,2.2c0,0.2,0,0.3,0.1,0.5l2-0.7l0.6,0.9l-1.8,1.1
		c0.4,0.3,0.8,0.5,1.3,0.5c1.2,0,2.2-1,2.2-2.2S112.5,177,111.3,177"/>
	<path style="fill:#273017;" d="M111.1,179l-2,0.7c0.1,0.5,0.4,1,0.8,1.3l1.8-1.1L111.1,179"/>
	<path style="fill:#68BC48;" d="M100.2,169.7c-1.2,0-2.2,1-2.2,2.2c0,0.9,0.5,1.6,1.2,2l0.7-2.1l0.5,0.1l-0.3,2.3c0,0,0,0,0,0
		c1.2,0,2.2-1,2.2-2.2C102.4,170.7,101.4,169.7,100.2,169.7"/>
	<path style="fill:#273017;" d="M99.9,171.9l-0.7,2.1c0.3,0.1,0.6,0.2,1,0.2l0.3-2.3L99.9,171.9"/>
	<path style="fill:#8EC74D;" d="M85.5,159.1c-0.8,0-1.6,0.5-1.9,1.1c0.6-0.2,1.3-0.3,1.9-0.3s1.3,0.1,1.9,0.3
		C87,159.6,86.3,159.1,85.5,159.1"/>
	<path style="fill:#68BC48;" d="M85.5,159.9c-0.7,0-1.3,0.1-1.9,0.3c-0.2,0.3-0.3,0.7-0.3,1.1c0,1.1,0.8,2,1.8,2.2l0.2-1.4h0.4
		l0.2,1.4c1.1-0.1,2-1.1,2-2.2c0-0.4-0.1-0.8-0.3-1.1C86.8,160,86.2,159.9,85.5,159.9"/>
	<path style="fill:#8EC74D;" d="M75.6,164.8c-1.2,0-2.2,1-2.2,2.2c0,1,0.7,1.8,1.6,2.1l0.5-2.2l0.4,0l0,2.3c1.2-0.1,2.1-1,2.1-2.2
		C77.8,165.8,76.8,164.8,75.6,164.8"/>
	<path style="fill:#8EC74D;" d="M67.5,173.2c-1.2,0-2.2,1-2.2,2.2s1,2.2,2.2,2.2c0.1,0,0.2,0,0.4,0c-0.1-0.4-0.1-0.8-0.1-1.2
		c0-0.2,0-0.4,0-0.7l-0.4-0.1l0.3-0.8l0.3,0c0.1-0.5,0.4-1,0.6-1.5C68.3,173.3,67.9,173.2,67.5,173.2"/>
	<path style="fill:#273017;" d="M67.7,175l-0.3,0.8l0.4,0.1c0-0.3,0.1-0.6,0.2-0.9L67.7,175"/>
	<path style="fill:#68BC48;" d="M67.8,175.9c0,0.2,0,0.4,0,0.7c0,0.4,0,0.8,0.1,1.2c0.7-0.1,1.3-0.6,1.6-1.2L67.8,175.9 M68.6,173.5
		c-0.3,0.5-0.5,0.9-0.6,1.5l1.8,0.2C69.7,174.5,69.2,173.9,68.6,173.5"/>
	<path style="fill:#273017;" d="M68,175c-0.1,0.3-0.1,0.6-0.2,0.9l1.7,0.6c0.2-0.3,0.3-0.7,0.3-1c0-0.1,0-0.2,0-0.3L68,175"/>
	<path style="fill:#BED972;" d="M113,189.2c-0.2,0.9-0.7,1.7-1.2,2.3c0.1,0.2,0.1,0.4,0.1,0.6c0,1.2-1,2.2-2.2,2.2
		c-0.7,0-1.3-0.3-1.8-0.9c-0.1,0-0.3,0-0.5,0c-0.4,0-0.8,0-1.2-0.1c0.7,1.2,2,1.9,3.4,1.9c2.2,0,4-1.8,4-4
		C113.6,190.6,113.4,189.8,113,189.2"/>
	<path style="fill:#8EC74D;" d="M106.2,189.2c-0.4,0.6-0.6,1.3-0.6,2.1c0,0.8,0.2,1.5,0.6,2.1c0.4,0.1,0.8,0.1,1.2,0.1
		c0.2,0,0.3,0,0.5,0c-0.3-0.4-0.5-0.9-0.5-1.4c0-0.6,0.2-1.1,0.5-1.5L106.2,189.2 M109.6,187.3c-1,0-1.9,0.4-2.6,1l1.5,1.9
		c0.3-0.2,0.7-0.3,1.1-0.3c1,0,1.9,0.7,2.2,1.7c0.6-0.7,1-1.5,1.2-2.3C112.3,188.1,111.1,187.3,109.6,187.3"/>
	<path style="fill:#273017;" d="M107,188.3c-0.3,0.3-0.6,0.6-0.8,0.9l1.7,1.4c0.2-0.2,0.4-0.4,0.6-0.5L107,188.3"/>
	<path style="fill:#8EC74D;" d="M111.8,191.6c-1,1.1-2.4,1.8-3.9,2c0.4,0.5,1,0.9,1.8,0.9c1.2,0,2.2-1,2.2-2.2
		C111.9,192,111.8,191.8,111.8,191.6"/>
	<path style="fill:#68BC48;" d="M109.6,189.9c-0.4,0-0.8,0.1-1.1,0.3l1.1,1.4l-0.3,0.3l-1.4-1.2c-0.3,0.4-0.5,0.9-0.5,1.5
		c0,0.5,0.2,1,0.5,1.4c1.6-0.1,2.9-0.9,3.9-2C111.5,190.6,110.7,189.9,109.6,189.9"/>
	<path style="fill:#273017;" d="M108.5,190.2c-0.2,0.1-0.4,0.3-0.6,0.5l1.4,1.2l0.3-0.3L108.5,190.2"/>
	<path style="fill:#8EC74D;" d="M109.6,183.1c-0.5,0-1,0.2-1.3,0.5c0,0.7-0.2,1.3-0.4,1.9c0,0.1,0.1,0.2,0.1,0.3l1.8-1.1l0.1,0.2
		l-1.6,1.4c0.3,0.3,0.7,0.4,1.2,0.4c1,0,1.9-0.8,1.9-1.9C111.5,183.9,110.7,183.1,109.6,183.1"/>
	<path style="fill:#273017;" d="M109.8,184.8l-1.8,1.1c0.1,0.2,0.3,0.4,0.4,0.5l1.6-1.4L109.8,184.8"/>
	<path style="fill:#68BC48;" d="M108.3,183.7c-0.3,0.3-0.5,0.8-0.5,1.3c0,0.2,0,0.4,0.1,0.6C108.1,185,108.3,184.3,108.3,183.7"/>
	<polyline style="fill:#273017;" points="85.2,162.1 71.7,250.8 99.8,250.8 93.7,231.9 85.6,161.6 85.2,162.1 	"/>
</g>
<polyline style="fill:#273017;" points="126.1,93.1 140.1,246.6 115.1,246.6 124.8,93.1 126.1,93.1 "/>
<polyline style="fill:#273017;" points="129,163.6 145.7,250.9 103.9,250.9 125.8,185.9 126.1,123.3 "/>
<g>
</g>
<g>
</g>
<g>
</g>
<g>
</g>
<g>
</g>
<g>
</g>
<g>
</g>
<g>
</g>
<g>
</g>
<g>
</g>
<g>
</g>
<g>
</g>
<g>
</g>
<g>
</g>
<g>
</g>
</svg>
