<?xml version="1.0" encoding="utf-8"?>
<!-- Generator: Adobe Illustrator 16.0.0, SVG Export Plug-In . SVG Version: 6.00 Build 0)  -->
<!DOCTYPE svg PUBLIC "-//W3C//DTD SVG 1.1//EN" "http://www.w3.org/Graphics/SVG/1.1/DTD/svg11.dtd">
<svg version="1.1" id="Layer_1" xmlns="http://www.w3.org/2000/svg" xmlns:xlink="http://www.w3.org/1999/xlink" x="0px" y="0px"
	 width="228.4px" height="250.9px" viewBox="0 0 228.4 250.9" enable-background="new 0 0 228.4 250.9" xml:space="preserve">
<g>
	<path fill="#E8BC1F" d="M168.022,166.086c-0.654,0-1.962,0-2.616,0c-1.307,10.871-1.961,18.472-3.105,28.688
		c1.227,0,2.452,0.082,3.679,0.082C168.348,184.885,168.186,177.12,168.022,166.086z"/>
	<path fill="#E8BC1F" d="M180.283,135.354c1.389-6.458,3.27-18.064,1.226-27.055c-1.635,5.722-3.105,12.342-1.962,19.208
		C179.956,130.122,180.201,132.738,180.283,135.354z"/>
	<path fill="#E8BC1F" d="M76.07,145.897c-1.716,11.361,0.485,39.471,2.038,47.889c2.779,0,5.656-0.228,8.435-0.228
		c-1.961-17.819-3.852-29.68-8.429-48.233C77.623,144.017,76.642,142.71,76.07,145.897z"/>
	<path fill="#E8BC1F" d="M56.372,96.856c-3.76-1.798-11.524,15.449-9.072,24.276c1.389,4.822,2.615,9.399-2.452,13.322
		c-3.76,1.635-5.395-5.067-5.15-9.563c0.409-6.457-2.697-13.977,4.168-30.079c4.823-11.279,13.814-21.577,27.136-21.904
		c12.833-0.328,20.189,8.255,22.56,11.606c8.091,11.688,17.9,42.829,17.9,42.829c4.823,6.375,2.615,10.952,2.615,10.952
		c-1.471,1.145-4.415-0.572-4.415-0.572c-1.307-1.635-2.779-8.5-3.677-10.135c-4.905-8.991-12.178-28.689-17.736-30.079
		c-2.616-0.409,9.74,48.15,6.143,95.312c15.151-0.91,42.089-0.589,61.534,1.3c0.083-0.49,0-0.572-0.083-1.144
		c-3.024-50.187,6.702-93.097,1.39-87.048c-0.98,3.269-1.716,6.702-3.024,9.89c-3.27,7.765-9.808,14.548-6.456,24.193
		c0.325,0.9-1.145,2.452-1.963,3.679c-0.245,0.327-0.49,0.654-0.816,0.98l-4.087-2.37c2.86-11.034,5.803-22.068,8.827-33.021
		c0.817-3.024,1.308-6.212,2.615-8.991c4.168-9.072,4.005-15.774,13.486-17.409c10.625-1.635,15.121,2.616,17.001,5.803
		c0.082,0,0.082,0,0.082,0c8.5,9.972-0.572,54.762-0.572,54.762c-0.572,1.717-1.553,2.534-2.452,2.534
		c-0.736,8.582-2.37,15.283-2.615,17.572c-1.146,8.991-2.125,17.982-3.924,26.81c-0.326,1.798-0.571,3.352-0.653,4.659
		c44.872,1.308,102.352,26.264,131.92,48.263c0.163-2.697,0-45.894,0-48.672c0-14.875-2.289-29.262-6.539-42.992
		c-21.66-70.047-95.711-264.669-183.74-264.669S-47.84,81.49-69.663,151.782c-4.25,13.731-6.539,28.117-6.539,42.992
		c0,2.371-0.081,46.221,0,48.509c42.902-36.666,96.529-48.018,146.388-48.835c-0.164-0.49-0.327-0.98-0.572-1.471
		C52.204,156.114,61.359,98.982,56.372,96.856z M155.435,70.864c0-0.163-0.082-0.327-0.082-0.49c0-0.164,0-0.246,0.082-0.409
		c0-0.246,0.082-0.491,0.082-0.654c0.081-0.572,0.163-1.144,0.326-1.635c0.083-0.245,0.164-0.49,0.245-0.654
		c0.98-2.779,3.188-4.985,5.967-6.048c0.409-0.163,0.735-0.246,0.735-0.246l0,0c0.9-0.245,1.798-0.409,2.697-0.409
		c1.554,0,3.024,0.409,4.333,1.063l0,0c0,0,0.408,0.163,0.979,0.571c0.164,0.164,0.409,0.246,0.572,0.409
		c1.798,1.308,4.577,4.005,4.169,8.092c-0.571,6.211,1.88,8.01,1.88,8.01h-5.966c-1.717,1.226-3.761,2.043-6.05,2.043
		c-2.124,0-4.167-0.654-5.803-1.88l-6.946,0.328c0,0,3.023-2.779,2.696-7.603C155.435,71.192,155.435,71.028,155.435,70.864z
		 M113.424,141.238l9.971,5.722v11.524l-9.971-5.722V141.238z M100.591,146.96l9.972-5.722v11.524l-9.972,5.722V146.96z
		 M110.563,180.717l-9.972-5.722V163.47l9.972,5.722V180.717z M102.062,160.936l9.972-5.721l9.971,5.721l-9.971,5.722
		L102.062,160.936z M113.424,169.192l9.971-5.722v11.524l-9.971,5.722V169.192z M124.785,188.889l-9.973-5.721l9.973-5.721
		l9.971,5.721L124.785,188.889z M136.227,180.717l-9.973-5.722V163.47l9.973,5.722V180.717z M148.978,174.913l-9.972,5.721v-11.441
		l9.972-5.722V174.913z M139.089,141.238l9.971,5.722v11.524l-9.971-5.722V141.238z M147.589,160.936l-9.972,5.722l-9.972-5.722
		l9.972-5.721L147.589,160.936z M136.227,152.762l-9.973,5.722V146.96l9.973-5.722V152.762z M124.785,132.983l9.971,5.721
		l-9.971,5.722l-9.973-5.722L124.785,132.983z M70.512,52.31c5.558,0,10.053,4.496,10.053,10.054
		c0,5.559-4.496,10.054-10.053,10.054s-10.053-4.495-10.053-10.054C60.459,56.806,64.955,52.31,70.512,52.31z"/>
</g>
</svg>
