<?xml version="1.0" encoding="utf-8"?>
<!-- Generator: Adobe Illustrator 16.0.0, SVG Export Plug-In . SVG Version: 6.00 Build 0)  -->
<!DOCTYPE svg PUBLIC "-//W3C//DTD SVG 1.1//EN" "http://www.w3.org/Graphics/SVG/1.1/DTD/svg11.dtd">
<svg version="1.1" id="Layer_1" xmlns="http://www.w3.org/2000/svg" xmlns:xlink="http://www.w3.org/1999/xlink" x="0px" y="0px"
	 width="228.4px" height="250.9px" viewBox="0 0 228.4 250.9" enable-background="new 0 0 228.4 250.9" xml:space="preserve">
<g>
	<g>
		<path fill="#FFFFFF" d="M170.046,63.82c-1.282-0.321-2.566-0.321-3.849-0.081c0.802-0.882,1.363-1.844,1.684-3.047
			c1.363-4.971-1.282-11.466-6.254-12.749c-0.48-0.16-0.962-0.16-1.443-0.24c-0.562-2.566-2.245-4.972-4.73-5.613
			c-2.646-0.721-5.532,0.722-7.296,2.967c0.079-0.161,0.079-0.24,0.16-0.401c1.363-5.212-1.363-12.027-6.575-13.39
			c-3.287-0.882-6.734,0.562-9.221,3.046c-0.4-1.683-1.522-3.207-3.207-3.608c-1.764-0.481-3.688,0.481-4.892,1.925
			c-0.802-1.283-1.924-2.326-3.367-2.727c-3.448-0.961-7.296,2.085-8.259,5.533c-0.16,0.562-0.16,1.123-0.16,1.764
			c-4.971-0.882-10.264,3.448-11.546,8.338c-1.362,5.132,1.684,10.504,6.815,11.867c0.642,0.16,1.363,0.24,2.245,0.16
			c-0.722,1.043-1.283,2.246-1.604,3.448c-0.32,1.122-0.4,2.245-0.32,3.287c-0.08,0-0.08-0.08-0.161-0.08
			c-3.447-0.962-7.297,2.084-8.258,5.532c-0.963,3.448,1.122,7.056,4.65,8.018c0.481,0.161,1.122,0.161,1.764,0.081
			c0,0.08,0,0.08-0.08,0.16c-1.043,3.769,0.32,7.617,3.127,10.022c-0.161,0.401-0.32,0.883-0.481,1.284
			c-1.362,5.051,1.523,10.263,6.414,11.867c-1.442,1.282-2.565,2.886-3.046,4.73c-1.123,4.169,1.362,8.499,5.532,9.622
			c1.685,0.48,4.65-0.241,6.896-1.845c1.042,2.887,3.447,5.292,6.654,6.094c3.368,0.882,10.584-1.684,12.028-6.976
			c0.079-0.321,0.159-0.642,0.24-0.962c2.405-0.161,5.853-1.844,6.654-4.73c0.24-0.802,0.321-1.764,0.161-2.647
			c4.169,0.081,10.824-2.806,12.267-8.098c0.562-1.925,0.562-4.089,0.08-6.174c1.845-0.721,3.528-2.165,4.009-4.089
			c0.161-0.561,0.241-1.203,0.241-1.844c3.608-0.481,8.339-2.887,9.381-7.057C178.063,71.997,175.338,65.182,170.046,63.82z
			 M149.599,60.932c0.081-0.32,0.161-0.562,0.161-0.881c0.16,0.802,0.4,1.523,0.722,2.245c-0.562,0.08-1.123,0.161-1.604,0.321
			C149.119,62.135,149.359,61.574,149.599,60.932z M130.758,61.494c0.16,0.401,0.32,0.802,0.48,1.283
			c-1.203,0.561-2.405,1.283-3.446,2.165c0.159-0.882,0.159-1.764,0.079-2.566C128.913,62.216,129.796,61.895,130.758,61.494z
			 M123.782,70.955c-0.08,0.241-0.161,0.482-0.241,0.802c-0.079,0.401-0.159,0.722-0.24,1.123c-0.32-0.401-0.562-0.722-0.882-1.042
			C122.819,71.516,123.301,71.276,123.782,70.955z M136.049,92.604c-0.721-3.528-2.966-6.655-6.253-7.617
			c-1.123-0.32-2.166-0.32-3.288-0.08c-0.4-0.641-0.802-1.203-1.283-1.684c0-0.08,0.081-0.16,0.081-0.24
			c0.16-0.481,0.24-0.962,0.24-1.443c1.443,1.844,3.448,3.287,5.934,3.929c0.882,0.241,1.925,0.241,3.127,0.08
			c0,2.566,1.363,4.891,3.607,6.174C137.412,91.883,136.691,92.203,136.049,92.604z M159.462,68.469
			c-0.16-0.4-0.32-0.722-0.48-1.042c0.562-0.081,1.042-0.161,1.604-0.321C160.183,67.587,159.783,67.988,159.462,68.469z
			 M149.921,55.721c0,0.081,0,0.081-0.081,0.16c0,0.161-0.079,0.321-0.079,0.481c0-0.24-0.08-0.561-0.161-0.802
			C149.76,55.641,149.84,55.721,149.921,55.721z M146.954,47.542c-0.08,0.161-0.16,0.321-0.16,0.562
			c-0.161,0.562-0.241,1.123-0.241,1.604c-0.32-0.32-0.641-0.562-0.962-0.802C146.152,48.425,146.552,48.024,146.954,47.542z"/>
		<g>
			<path fill="#F1A851" d="M137.893,54.438c-1.604,6.014-9.942,8.98-13.71,7.938c-6.014-1.604-9.542-7.777-7.938-13.71
				c1.604-6.014,8.178-11.146,14.191-9.542C136.29,40.727,139.417,48.505,137.893,54.438z"/>
			<path fill="#F1A851" d="M162.91,96.292c-1.604,6.014-9.942,8.98-13.711,7.938c-6.014-1.604-9.541-7.778-7.938-13.71
				c1.604-6.014,8.178-11.146,14.191-9.542C161.306,82.581,164.513,90.279,162.91,96.292z"/>
			<path fill="#60AFE1" d="M145.19,77.53c-1.604,6.014-9.943,8.98-13.711,7.938c-6.014-1.604-9.542-7.778-7.938-13.711
				c1.604-6.013,8.179-11.145,14.192-9.541C143.667,63.739,146.794,71.516,145.19,77.53z"/>
			<path fill="#60AFE1" d="M112.557,73.12c-0.964,3.448-5.774,5.212-8.019,4.65c-3.448-0.962-5.532-4.49-4.651-8.018
				c0.963-3.448,4.731-6.494,8.26-5.532C111.675,65.102,113.518,69.592,112.557,73.12z"/>
			<path fill="#60AFE1" d="M125.546,38.803c-0.962,3.448-5.772,5.212-8.019,4.65c-3.447-0.962-5.532-4.49-4.649-8.018
				c0.962-3.448,4.729-6.494,8.258-5.533C124.664,30.785,126.508,35.355,125.546,38.803z"/>
			<path fill="#60AFE1" d="M166.999,86.029c-0.962,3.449-5.773,5.212-8.018,4.651c-3.448-0.962-5.533-4.491-4.65-8.018
				c0.962-3.448,4.729-6.495,8.258-5.533S167.962,82.581,166.999,86.029z"/>
			<path fill="#60AFE1" d="M150.401,107.036c-0.962,3.448-5.772,5.212-8.018,4.65c-3.447-0.961-5.533-4.49-4.65-8.018
				c0.962-3.447,4.73-6.494,8.259-5.532S151.364,103.589,150.401,107.036z"/>
			<path fill="#60AFE1" d="M127.63,109.843c-1.122,4.169-6.975,6.254-9.621,5.533c-4.169-1.123-6.654-5.452-5.532-9.622
				c1.122-4.17,5.693-7.778,9.942-6.655C126.589,100.221,128.753,105.593,127.63,109.843z"/>
			<path fill="#60AFE1" d="M167.962,60.772c-1.363,4.971-8.259,7.457-11.466,6.655c-4.972-1.363-7.938-6.415-6.656-11.466
				c1.363-4.971,6.815-9.301,11.787-7.938C166.677,49.306,169.244,55.721,167.962,60.772z"/>
			<path fill="#F1D94F" d="M149.599,60.932c-1.363,5.212-8.659,7.857-12.026,6.976c-5.212-1.363-8.34-6.736-6.976-12.027
				c1.362-5.211,7.136-9.701,12.348-8.339C148.236,48.986,150.963,55.721,149.599,60.932z"/>
			<path fill="#F1D94F" d="M144.87,100.381c-0.883,3.368-5.613,5.051-7.778,4.49c-3.367-0.881-5.372-4.41-4.489-7.776
				c0.882-3.368,4.65-6.255,8.017-5.373C143.987,92.604,145.751,97.013,144.87,100.381z"/>
			<path fill="#F1D94F" d="M125.305,82.982c-1.363,5.211-8.659,7.857-12.027,6.976c-5.212-1.363-8.338-6.735-6.976-12.027
				c1.363-5.212,7.136-9.702,12.348-8.339C123.942,70.955,126.669,77.77,125.305,82.982z"/>
			<path fill="#F1D94F" d="M132.682,37.199c-0.643,2.566-4.251,3.849-5.854,3.368c-2.564-0.642-4.089-3.288-3.366-5.854
				c0.641-2.565,3.447-4.73,6.013-4.089C131.96,31.346,133.323,34.634,132.682,37.199z"/>
			<path fill="#DF66A3" d="M127.63,65.984c-1.362,5.212-8.658,7.858-12.026,6.976c-5.212-1.363-8.339-6.735-6.976-12.027
				c1.362-5.211,7.137-9.701,12.349-8.338C126.267,53.957,128.994,60.772,127.63,65.984z"/>
			<path fill="#DF66A3" d="M176.621,77.209c-1.363,5.212-8.659,7.858-12.027,6.976c-5.212-1.363-8.339-6.735-6.976-12.027
				s7.136-9.702,12.348-8.338C175.338,65.182,178.063,71.997,176.621,77.209z"/>
			<path fill="#DF66A3" d="M148.317,87.392c-0.963,3.769-6.174,5.613-8.579,4.971c-3.769-0.962-5.934-4.811-4.972-8.579
				s5.132-6.976,8.819-5.933C147.434,78.812,149.359,83.704,148.317,87.392z"/>
			<path fill="#DF66A3" d="M135.969,97.575c-1.283,4.891-8.178,7.377-11.226,6.494c-4.891-1.282-7.857-6.333-6.494-11.225
				c1.282-4.891,6.735-9.14,11.626-7.857C134.686,86.35,137.253,92.684,135.969,97.575z"/>
			<path fill="#DF66A3" d="M160.183,51.632c-0.962,3.688-6.174,5.532-8.499,4.891c-3.688-0.962-5.934-4.811-4.891-8.499
				c0.962-3.688,5.051-6.896,8.739-5.934C159.221,43.133,161.146,47.943,160.183,51.632z"/>
			<path fill="#7F60A6" d="M159.943,75.927c-1.363,5.211-8.659,7.857-12.027,6.976c-5.211-1.363-8.339-6.735-6.976-12.027
				c1.363-5.212,7.137-9.703,12.349-8.339C158.58,63.899,161.306,70.715,159.943,75.927z"/>
			<path fill="#AED14C" d="M148.397,44.736c-1.363,5.211-8.659,7.858-12.027,6.976c-5.212-1.363-8.339-6.815-6.975-12.027
				c1.362-5.212,7.135-9.702,12.347-8.338C147.114,32.709,149.84,39.444,148.397,44.736z"/>
			<path fill="#AED14C" d="M143.586,112.729c-1.362,5.212-8.659,7.857-12.026,6.975c-5.212-1.362-8.339-6.735-6.976-12.027
				c1.362-5.212,7.136-9.702,12.348-8.338C142.223,100.702,144.949,107.518,143.586,112.729z"/>
			<path fill="#AED14C" d="M127.951,94.288c-1.362,5.212-8.659,7.857-12.027,6.975c-5.211-1.362-8.339-6.815-6.975-12.027
				c1.362-5.212,7.136-9.781,12.348-8.338C126.669,82.261,129.395,89.076,127.951,94.288z"/>
			<path fill="#AED14C" d="M119.853,50.509c-1.363,5.132-8.58,7.698-11.867,6.815c-5.132-1.363-8.258-6.655-6.815-11.867
				c1.364-5.132,7.057-9.622,12.188-8.258C118.57,38.642,121.297,45.378,119.853,50.509z"/>
		</g>
		<polyline fill="none" stroke="#1E4B6B" stroke-width="1.0612" stroke-linecap="round" stroke-miterlimit="10" points="
			104.218,74.964 103.416,164.446 112.156,96.693 		"/>
		
			<line fill="none" stroke="#1E4B6B" stroke-width="1.0612" stroke-linecap="round" stroke-miterlimit="10" x1="103.416" y1="164.446" x2="108.868" y2="84.987"/>
		
			<line fill="none" stroke="#1E4B6B" stroke-width="1.0612" stroke-linecap="round" stroke-miterlimit="10" x1="103.416" y1="164.446" x2="117.607" y2="112.569"/>
		<polyline fill="none" stroke="#1E4B6B" stroke-width="1.0612" stroke-linecap="round" stroke-miterlimit="10" points="
			135.328,101.504 103.416,164.446 131.238,116.898 		"/>
		
			<line fill="none" stroke="#1E4B6B" stroke-width="1.0612" stroke-linecap="round" stroke-miterlimit="10" x1="142.063" y1="108.88" x2="103.416" y2="164.446"/>
		
			<line fill="none" stroke="#1E4B6B" stroke-width="1.0612" stroke-linecap="round" stroke-miterlimit="10" x1="144.387" y1="100.302" x2="103.416" y2="164.446"/>
		
			<line fill="none" stroke="#1E4B6B" stroke-width="1.0612" stroke-linecap="round" stroke-miterlimit="10" x1="124.343" y1="101.263" x2="103.416" y2="164.446"/>
		<path fill="#FFFFFF" d="M240.124,174.147c5.291-0.642,10.022,1.042,14.111,5.051c4.089,4.01,6.094,8.9,6.094,14.673
			c0,4.09-1.283,8.019-3.769,11.787c-0.802,1.122-1.764,1.684-2.807,1.684h-97.339c-1.282,0-2.245-0.642-3.047-1.845
			c-2.806-4.729-4.249-9.861-4.249-15.554c0-7.858,2.485-14.514,7.536-20.126c5.053-5.532,11.146-8.338,18.362-8.338
			c1.683,0,3.527,0.24,5.372,0.721c6.734-9.701,15.795-14.592,27.021-14.592c7.536,0,14.272,2.484,20.365,7.375
			C233.87,159.955,237.959,166.37,240.124,174.147z"/>
		<path fill="#9EC8E7" d="M267.063,151.536c5.293-0.641,10.022,1.042,14.112,5.052c4.089,4.009,6.094,8.9,6.094,14.673
			c0,4.089-1.282,8.019-3.769,11.786c-0.802,1.123-1.765,1.685-2.807,1.685h-97.419c-1.282,0-2.245-0.642-3.047-1.844
			c-2.806-4.731-4.249-9.863-4.249-15.556c0-7.857,2.485-14.513,7.536-20.125c5.053-5.532,11.146-8.339,18.362-8.339
			c1.683,0,3.527,0.24,5.372,0.722c6.734-9.702,15.795-14.593,27.021-14.593c7.536,0,14.272,2.485,20.365,7.377
			C260.73,137.344,264.819,143.678,267.063,151.536z"/>
		<path fill="#FFFFFF" d="M298.495,174.147c5.291-0.642,10.022,1.042,14.111,5.051c4.089,4.01,6.094,8.9,6.094,14.673
			c0,4.09-1.283,8.019-3.769,11.787c-0.802,1.122-1.765,1.684-2.807,1.684h-97.339c-1.282,0-2.245-0.642-3.047-1.845
			c-2.806-4.729-4.249-9.861-4.249-15.554c0-7.858,2.485-14.514,7.537-20.126c5.051-5.532,11.145-8.338,18.36-8.338
			c1.765,0,3.528,0.24,5.373,0.721c6.735-9.701,15.795-14.592,27.021-14.592c7.536,0,14.272,2.484,20.365,7.375
			C292.16,159.955,296.329,166.37,298.495,174.147z"/>
		<path fill="#FFFFFF" d="M53.705,103.428c5.291-0.641,10.022,1.042,14.111,5.051c4.089,4.009,6.093,8.9,6.093,14.673
			c0,4.089-1.282,8.018-3.768,11.786c-0.802,1.123-1.764,1.685-2.807,1.685h-97.339c-1.282,0-2.245-0.642-3.046-1.844
			c-2.807-4.731-4.25-9.863-4.25-15.556c0-7.857,2.485-14.512,7.537-20.125c5.051-5.533,11.145-8.339,18.361-8.339
			c1.764,0,3.527,0.241,5.373,0.722C0.706,81.78,9.765,76.888,20.99,76.888c7.537,0,14.273,2.485,20.366,7.377
			C47.37,89.236,51.54,95.571,53.705,103.428z"/>
	</g>
	<path fill="#1E4B6B" d="M126.107,181.603l-21.488-18.762c-0.241-0.16-0.48-0.32-0.722-0.32c-0.16,0-0.321,0-0.561,0.079
		l-27.022,9.221c-0.4,0.161-0.721,0.482-0.881,0.963l-5.452,27.983c-0.081,0.48,0.08,0.882,0.4,1.202l21.488,18.762
		c0.16,0.161,0.401,0.241,0.643,0.321h0.079c0.16,0,0.401,0,0.561-0.08l27.022-9.221c0.4-0.16,0.721-0.481,0.881-0.962l5.452-27.983
		C126.589,182.405,126.427,181.925,126.107,181.603z M123.862,183.047l-2.165,11.065l-8.499-7.457l2.165-11.064L123.862,183.047z
		 M95.238,207.261l8.499,7.456l-10.664,3.689l-8.499-7.457L95.238,207.261z M101.251,176.392l-8.499-7.457l10.664-3.688l8.499,7.456
		L101.251,176.392z M109.269,199.725l-8.5-7.458l10.665-3.688l8.499,7.456L109.269,199.725z M99.968,189.943l2.166-11.065
		l10.663-3.688l-2.164,11.064L99.968,189.943z M88.904,182.005l2.164-11.064l8.499,7.456l-2.164,11.065L88.904,182.005z
		 M96.521,193.791l-2.166,11.065l-10.663,3.688l2.164-11.065L96.521,193.791z M87.219,183.929l8.5,7.456l-10.665,3.688l-8.499-7.457
		L87.219,183.929z M75.675,185.132l2.164-11.064l10.664-3.688l-2.166,11.064L75.675,185.132z M107.585,201.729l-2.164,11.064
		l-8.499-7.456l2.164-11.065L107.585,201.729z M120.814,198.522l-2.164,11.064l-10.664,3.688l2.165-11.065L120.814,198.522z
		 M83.371,196.919l-2.165,11.064l-8.499-7.457l2.165-11.064L83.371,196.919z"/>
</g>
</svg>
