<?xml version="1.0" encoding="utf-8"?>
<!-- Generator: Adobe Illustrator 16.0.0, SVG Export Plug-In . SVG Version: 6.00 Build 0)  -->
<!DOCTYPE svg PUBLIC "-//W3C//DTD SVG 1.1//EN" "http://www.w3.org/Graphics/SVG/1.1/DTD/svg11.dtd">
<svg version="1.1" id="Layer_1" xmlns="http://www.w3.org/2000/svg" xmlns:xlink="http://www.w3.org/1999/xlink" x="0px" y="0px"
	 width="228.4px" height="250.9px" viewBox="0 0 228.4 250.9" enable-background="new 0 0 228.4 250.9" xml:space="preserve">
<rect x="-12.3" y="-13.453" fill="#1E4B6B" width="254" height="277.805"/>
<g>
	<g>
		<g>
			
				<path fill="#FFFFFF" stroke="#1E4B6B" stroke-width="7.7485" stroke-linecap="round" stroke-linejoin="round" stroke-miterlimit="10" d="
				M177.427,71.018c0,22.253-18.091,40.343-40.345,40.343c-22.253,0-40.342-18.089-40.342-40.343s18.089-40.345,40.342-40.345
				C159.481,30.674,177.427,48.764,177.427,71.018z"/>
			<polygon fill="#1E4B6B" points="58.119,94.563 104.924,68.577 151.44,95.425 151.154,148.401 105.929,175.968 59.412,150.699 			
				"/>
			<polygon fill="#3A9ED8" points="85.829,84.945 104.636,74.177 123.444,84.945 104.636,95.712 			"/>
			<polygon fill="#3A9ED8" points="63.862,123.134 82.671,112.223 101.335,123.134 82.671,133.901 			"/>
			<polygon fill="#3A9ED8" points="106.216,147.541 106.216,125.862 125.024,136.773 125.024,158.451 			"/>
			<polygon fill="#3A9ED8" points="106.216,98.584 125.024,87.816 125.024,109.494 106.216,120.262 			"/>
			<polygon fill="#3A9ED8" points="61.853,147.828 81.378,159.169 81.378,136.485 61.853,125.144 			"/>
			<polygon fill="#3A9ED8" points="62.283,147.541 62.283,125.862 80.948,136.773 80.948,158.451 			"/>
			<polygon fill="#3A9ED8" points="62.283,98.584 80.948,87.816 80.948,109.494 62.283,120.262 			"/>
			<polygon fill="#3A9ED8" points="128.326,109.494 128.326,87.816 146.99,98.584 146.99,120.262 			"/>
			<polygon fill="#3A9ED8" points="128.326,136.773 146.99,125.862 146.99,147.541 128.326,158.451 			"/>
			<polygon fill="#3A9ED8" points="107.939,123.134 126.602,112.223 145.411,123.134 126.602,133.901 			"/>
			<polygon fill="#3A9ED8" points="83.819,136.485 83.819,159.169 103.489,147.828 103.489,125.144 86.69,134.761 			"/>
			<polygon fill="#3A9ED8" points="84.249,136.773 103.058,125.862 103.058,147.541 84.249,158.451 			"/>
			<polygon fill="#3A9ED8" points="84.249,109.494 84.249,87.816 103.058,98.584 103.058,120.262 			"/>
			<polygon fill="#3A9ED8" points="85.829,161.179 104.636,150.412 123.444,161.179 104.636,172.091 			"/>
			<g>
				
					<line fill="none" stroke="#1E4B6B" stroke-width="44.8876" stroke-linecap="round" stroke-linejoin="round" stroke-miterlimit="10" x1="58.694" y1="189.464" x2="112.103" y2="125.287"/>
				<path fill="#FFFFFF" d="M43.907,177.26l55.848-62.165c5.888-6.604,16.08-7.179,22.687-1.149c6.315,5.6,7.034,15.219,2.009,21.68
					l-51.11,66.042c-6.46,8.327-18.521,9.905-26.848,3.445c-8.327-6.461-9.907-18.521-3.446-26.847
					C43.332,177.977,43.619,177.548,43.907,177.26z"/>
			</g>
			<g>
				<g>
					<g>
						<defs>
							<polygon id="SVGID_1_" points="151.154,85.662 151.297,150.412 120.429,170.082 123.301,164.339 68.169,95.137 
								44.912,101.311 32.134,127.441 117.701,234.544 187.62,164.912 191.21,100.019 							"/>
						</defs>
						<clipPath id="SVGID_2_">
							<use xlink:href="#SVGID_1_"  overflow="visible"/>
						</clipPath>
						<g clip-path="url(#SVGID_2_)">
							
								<polyline fill="none" stroke="#1E4B6B" stroke-width="44.8876" stroke-linecap="round" stroke-linejoin="round" stroke-miterlimit="10" points="
								59.699,127.871 123.444,197.072 163.357,127.01 							"/>
							
								<polyline fill="none" stroke="#FFFFFF" stroke-width="32.0627" stroke-linecap="round" stroke-linejoin="round" stroke-miterlimit="10" points="
								59.699,127.871 123.444,197.072 163.357,127.01 							"/>
						</g>
					</g>
				</g>
			</g>
		</g>
	</g>
</g>
</svg>
