<?xml version="1.0" encoding="utf-8"?>
<!-- Generator: Adobe Illustrator 16.0.0, SVG Export Plug-In . SVG Version: 6.00 Build 0)  -->
<!DOCTYPE svg PUBLIC "-//W3C//DTD SVG 1.1//EN" "http://www.w3.org/Graphics/SVG/1.1/DTD/svg11.dtd">
<svg version="1.1" id="Layer_1" xmlns="http://www.w3.org/2000/svg" xmlns:xlink="http://www.w3.org/1999/xlink" x="0px" y="0px"
	 width="228.4px" height="250.9px" viewBox="0 0 228.4 250.9" enable-background="new 0 0 228.4 250.9" xml:space="preserve">
<g>
	<defs>
		<rect id="SVGID_1_" x="0" y="0" width="228.4" height="249.812"/>
	</defs>
	<clipPath id="SVGID_2_">
		<use xlink:href="#SVGID_1_"  overflow="visible"/>
	</clipPath>
	<g clip-path="url(#SVGID_2_)">
		<path opacity="0.8" fill="#CA342D" enable-background="new    " d="M82.176,98.923C71.034,65.72,103.243,51.932,105.45,25.9
			c0,0,21.619,48.975-22.943,73.574"/>
		<path opacity="0.8" fill="#EBCE3A" enable-background="new    " d="M115.267,69.25c0.552,8.052-12.134,19.965-4.192,26.915
			C111.075,96.275,126.96,79.508,115.267,69.25"/>
		<path opacity="0.8" fill="#EBCE3A" enable-background="new    " d="M42.797,118.778c12.906-16.987-11.913-31.879-5.846-52.947
			C40.59,53.035,18.308,90.98,42.797,118.778"/>
		<g>
			<path opacity="0.8" fill="#CA342D" enable-background="new    " d="M52.945,251.144c62.542-62.544,5.404-130.161,29.672-191.601
				c0,0-104.239,86.369-30.996,192.262"/>
		</g>
		<g>
			<path opacity="0.8" fill="#CA342D" enable-background="new    " d="M139.755,136.536c1.875,17.98-2.537,27.135-9.928,34.637
				c0.662-39.71-21.95-72.14-21.95-72.14C43.9,135.323,35.185,180.88,68.387,239.451l10.147,2.979
				c-0.882,3.751-1.765,7.611-2.537,11.803l0.882,0.772C182.002,202.719,139.755,136.536,139.755,136.536z"/>
		</g>
		<g>
			<path opacity="0.8" fill="#CA342D" enable-background="new    " d="M171.743,207.022c1.875,17.979-2.537,27.135-10.037,34.635
				c0.661-39.71-21.951-72.139-21.951-72.139c-63.978,36.29-72.691,81.846-39.489,140.418l10.148,2.979
				c-0.882,3.75-1.764,7.611-2.537,11.803l0.882,0.883C213.88,273.205,171.743,207.022,171.743,207.022z"/>
		</g>
		<g>
			<path opacity="0.8" fill="#EBCE3A" enable-background="new    " d="M64.636,251.144c0-57.14,95.414-86.59,41.917-140.088
				C65.63,127.382-11.695,154.958,28.457,251.254"/>
		</g>
		<g>
			<path opacity="0.8" fill="#EBCE3A" enable-background="new    " d="M131.041,251.254c0-37.834,5.404-70.374,27.687-92.767
				c0,0-78.317,29.011-51.733,92.767"/>
		</g>
		<g>
			<path opacity="0.8" fill="#EBCE3A" enable-background="new    " d="M56.473,182.643c6.729-30.223,29.894-50.74,29.894-50.74
				c41.916,39.27,40.262,75.449,4.301,113.836l-9.376,10.369C11.138,197.204,52.282,175.695,56.473,182.643z"/>
		</g>
		<g>
			<path opacity="0.8" fill="#CA342D" enable-background="new    " d="M17.426,193.785c-1.544,14.009,6.177,36.731,12.023,42.468
				c-0.552-30.996,17.208-56.366,17.208-56.366c49.968,28.349,56.808,63.867,30.775,109.644l-7.941,2.316
				c0.771,2.868,1.434,5.957,1.985,9.266l-0.772,0.662C-11.253,260.961,17.426,193.785,17.426,193.785z"/>
		</g>
		<g opacity="0.8">
			<path opacity="0.8" fill="#EBCE3A" enable-background="new    " d="M107.877,254.011c-5.294-38.827,56.696-71.919,15.442-103.245
				c-26.252,14.78-76.221,40.702-40.041,102.363"/>
		</g>
		<g>
			<path opacity="0.8" fill="#EBCE3A" enable-background="new    " d="M54.599,250.812c0-35.518-54.822-51.623-26.033-87.142
				c25.481,10.148,73.574,27.246,48.534,87.142"/>
		</g>
		<g>
			<path opacity="0.6" fill="#3A9ED8" enable-background="new    " d="M83.279,209.117c3.529,11.913-11.693,34.195,2.758,42.137
				C86.036,251.144,104.346,220.59,83.279,209.117"/>
		</g>
		<g>
			<path opacity="0.6" fill="#3A9ED8" enable-background="new    " d="M84.271,223.236c2.317,7.942-7.721,22.724,1.875,28.018
				C86.146,251.144,98.28,230.847,84.271,223.236"/>
		</g>
		<g>
			<path fill="#3A9ED8" d="M85.264,238.017c1.103,3.751-3.64,10.7,0.882,13.127C86.146,251.144,91.771,241.657,85.264,238.017"/>
		</g>
		<g>
			<path fill="#1E4B6B" d="M147.807,216.066c0-0.44-0.221-0.771-0.552-0.992l-21.399-12.354l0,0l-21.289-12.354
				c-0.331-0.221-0.772-0.221-1.214,0L82.065,202.83l0,0l-21.289,12.354c-0.331,0.221-0.552,0.551-0.552,0.993v24.598l0,0v24.598
				c0,0.441,0.221,0.772,0.552,0.993l21.289,12.354l0,0l21.289,12.354c0.221,0.111,0.332,0.111,0.552,0.111
				c0.221,0,0.441,0,0.551-0.111l21.4-12.354l0,0l21.289-12.354c0.33-0.221,0.551-0.552,0.551-0.993v-24.598l0,0L147.807,216.066z
				 M105.119,264.712V242.76l18.973,11.03v21.951L105.119,264.712z M102.802,216.728v20.076v1.874l-18.972-11.03v-21.84
				L102.802,216.728z M124.092,227.76l-13.017,7.5l-5.956,3.419v-21.95l18.973-11.03V227.76z M82.616,229.745l16.436,9.485
				l2.647,1.545l-15.443,8.935l-3.64,2.096l-18.973-11.03L82.616,229.745z M83.719,253.791l2.868-1.654l16.214-9.376v21.951
				l-18.972,10.92v-21.841H83.719z M125.304,251.696l-18.973-11.031l6.178-3.529l12.795-7.391l18.973,11.03L125.304,251.696z
				 M145.49,238.79l-18.973-11.03v-21.951l18.973,11.03V238.79z M103.905,192.792l18.973,11.031l-18.973,11.03l-18.972-11.03
				L103.905,192.792z M81.403,205.808v21.951L62.43,238.79v-21.951L81.403,205.808z M62.43,242.76l18.973,11.03v21.951
				l-18.973-11.03V242.76z M103.905,288.648l-18.972-11.03l18.972-10.921l18.973,11.03L103.905,288.648z M126.408,275.742v-21.951
				l18.973-11.03v21.951L126.408,275.742z"/>
		</g>
		<g opacity="0.8">
			<path opacity="0.8" fill="#EBCE3A" enable-background="new    " d="M61.437,249.71c6.729-49.638-72.69-86.59-19.855-126.74
				c-10.479,35.518,97.621,52.063,51.292,131.042"/>
		</g>
		<g>
			<path opacity="0.8" fill="#EBCE3A" enable-background="new    " d="M132.144,195.219c9.154-12.024-8.494-22.724-4.191-37.615
				C130.599,148.56,114.716,175.474,132.144,195.219"/>
		</g>
		<g>
			<path opacity="0.8" fill="#EBCE3A" enable-background="new    " d="M197.665,177.57c-7.17-9.376,6.618-17.76,3.309-29.342
				C198.879,141.058,211.233,162.128,197.665,177.57"/>
		</g>
		<g>
			<path opacity="0.8" fill="#CA342D" enable-background="new    " d="M192.04,251.033c-34.746-34.746-2.979-72.25-16.437-106.334
				c0,0,57.801,47.983,17.209,106.665"/>
		</g>
		<g>
			<path opacity="0.8" fill="#CA342D" enable-background="new    " d="M143.836,187.386c-1.103,9.928,1.434,15.112,5.516,19.194
				c-0.331-21.952,12.244-40.041,12.244-40.041c35.518,20.186,40.371,45.446,21.841,77.875l-5.627,1.654
				c0.552,2.097,0.993,4.191,1.436,6.619l-0.552,0.441C120.451,224.229,143.836,187.386,143.836,187.386z"/>
		</g>
		<g>
			<path opacity="0.8" fill="#CA342D" enable-background="new    " d="M126.187,226.546c-1.104,9.927,1.434,15.111,5.515,19.193
				c-0.33-21.951,12.245-40.041,12.245-40.041c35.518,20.186,40.371,45.446,21.84,77.875l-5.626,1.655
				c0.552,2.096,0.993,4.191,1.435,6.618l-0.552,0.441C102.692,263.278,126.187,226.546,126.187,226.546z"/>
		</g>
		<g>
			<path opacity="0.8" fill="#EBCE3A" enable-background="new    " d="M185.531,251.033c0-31.657-52.946-48.093-23.274-77.765
				c22.723,9.045,65.632,24.267,43.351,77.765"/>
		</g>
		<g>
			<path opacity="0.8" fill="#EBCE3A" enable-background="new    " d="M148.689,251.033c0-20.958-2.978-39.047-15.332-51.401
				c0,0,43.46,16.104,28.679,51.513"/>
		</g>
		<g opacity="0.8">
			<path opacity="0.8" fill="#EBCE3A" enable-background="new    " d="M149.793,279.492c15.222-35.187-18.531-53.277-18.642-81.957
				c0,0-28.238,51.403,18.2,82.398"/>
		</g>
		<g>
			<path opacity="0.8" fill="#EBCE3A" enable-background="new    " d="M190.054,213.089c-3.751-16.767-16.546-28.128-16.546-28.128
				c-23.275,21.841-22.282,41.806-2.427,63.205l5.185,5.736C215.204,221.03,192.481,209.117,190.054,213.089z"/>
		</g>
		<g>
			<path opacity="0.8" fill="#CA342D" enable-background="new    " d="M211.674,219.156c0.772,7.721-3.419,20.406-6.729,23.604
				c0.331-17.207-9.486-31.217-9.486-31.217c-27.687,15.773-31.547,35.408-17.098,60.89l4.412,1.323
				c-0.44,1.654-0.771,3.31-1.103,5.074l0.441,0.33C227.668,256.549,211.674,219.156,211.674,219.156z"/>
		</g>
		<g>
			<path opacity="0.8" fill="#EBCE3A" enable-background="new    " d="M161.595,252.578c2.978-21.51-31.437-39.931-8.604-57.358
				c14.561,8.272,42.357,22.612,22.282,56.807"/>
		</g>
		<g>
			<path opacity="0.8" fill="#EBCE3A" enable-background="new    " d="M191.157,250.812c0-19.744,30.444-28.68,14.45-48.313
				c-14.119,5.626-40.813,15.112-26.914,48.313"/>
		</g>
		<g>
			<path opacity="0.6" fill="#3A9ED8" enable-background="new    " d="M175.163,227.648c-1.985,6.618,6.508,18.973-1.545,23.385
				C173.618,251.033,163.469,234.047,175.163,227.648"/>
		</g>
		<g>
			<path opacity="0.6" fill="#3A9ED8" enable-background="new    " d="M174.721,235.48c-1.324,4.412,4.303,12.574-0.992,15.553
				C173.618,251.033,166.89,239.782,174.721,235.48"/>
		</g>
		<g>
			<path fill="#3A9ED8" d="M174.17,243.754c-0.552,2.095,1.985,5.956-0.44,7.279C173.618,251.033,170.42,245.739,174.17,243.754"/>
		</g>
		<g>
			<path opacity="0.8" fill="#EBCE3A" enable-background="new    " d="M187.406,250.26c-3.749-27.576,40.262-47.982,11.031-70.264
				c5.735,19.635-54.16,28.899-28.459,72.691"/>
		</g>
	</g>
</g>
</svg>
