<?xml version="1.0" encoding="utf-8"?>
<!-- Generator: Adobe Illustrator 16.0.0, SVG Export Plug-In . SVG Version: 6.00 Build 0)  -->
<!DOCTYPE svg PUBLIC "-//W3C//DTD SVG 1.1//EN" "http://www.w3.org/Graphics/SVG/1.1/DTD/svg11.dtd">
<svg version="1.1" id="Layer_1" xmlns="http://www.w3.org/2000/svg" xmlns:xlink="http://www.w3.org/1999/xlink" x="0px" y="0px"
	 width="228.4px" height="250.9px" viewBox="0 0 228.4 250.9" enable-background="new 0 0 228.4 250.9" xml:space="preserve">
<rect x="-207.844" y="-1.05" fill="#3A9ED8" width="644.088" height="278.1"/>
<g>
	<path opacity="0.6" fill="#90C74B" d="M70.456,131.778c-19.305,0-27.386-29.503-49.298-29.503
		c-18.941,0-30.837,29.503-49.298,29.503"/>
	<path opacity="0.6" fill="#FFFFFF" d="M133.049,131.778c-19.305,0-27.386-29.503-49.297-29.503
		c-18.942,0-30.839,29.503-49.298,29.503"/>
	<path opacity="0.6" fill="#FFFFFF" d="M133.049,131.778c-19.305,0-27.386-46.904-49.297-46.904
		c-18.942,0-30.839,46.904-49.298,46.904"/>
	<path opacity="0.6" fill="#FFFFFF" d="M188.956,131.778c-19.308,0-27.387-46.904-49.3-46.904
		c-18.939,0-30.837,46.904-49.297,46.904"/>
	<path opacity="0.6" fill="#FFFFFF" d="M133.049,131.778c-19.305,0-27.386-60.424-49.297-60.424
		c-18.942,0-30.839,60.424-49.298,60.424"/>
	<path opacity="0.6" fill="#FFFFFF" d="M188.956,131.778c-19.308,0-27.387-60.424-49.3-60.424
		c-18.939,0-30.837,60.424-49.297,60.424"/>
	<path opacity="0.6" fill="#FFFFFF" d="M191.947,131.778c-19.305,0-27.387-29.503-49.297-29.503
		c-18.943,0-30.839,29.503-49.298,29.503"/>
	<path opacity="0.6" fill="#EBCE3A" d="M93.352,131.778c-19.305,0-27.386-17.316-49.299-17.316
		c-18.94,0-30.838,17.316-49.298,17.316"/>
	<path opacity="0.6" fill="#EBCE3A" d="M44.052,131.778c-19.305,0-27.385-17.316-49.298-17.316
		c-18.94,0-30.837,17.316-49.298,17.316"/>
	<path opacity="0.6" fill="#FFFFFF" d="M169.051,131.778c-19.306,0-27.386-29.503-49.298-29.503
		c-18.941,0-30.837,29.503-49.297,29.503"/>
	<path opacity="0.6" fill="#FFFFFF" d="M191.947,131.778c-19.305,0-27.384-17.316-49.297-17.316
		c-18.941,0-30.839,17.316-49.299,17.316"/>
	<path opacity="0.6" fill="#FFFFFF" d="M142.65,131.778c-19.305,0-27.387-17.316-49.299-17.316
		c-18.941,0-30.839,17.316-49.299,17.316"/>
	<path opacity="0.6" fill="#90C74B" d="M258.048,131.778c-19.305,0-27.386-29.503-49.297-29.503
		c-18.943,0-30.839,29.503-49.299,29.503"/>
	<path opacity="0.6" fill="#EBCE3A" d="M280.944,131.778c-19.307,0-27.386-17.316-49.299-17.316
		c-18.941,0-30.837,17.316-49.298,17.316"/>
	<path opacity="0.6" fill="#EBCE3A" d="M231.645,131.778c-19.305,0-27.387-17.316-49.298-17.316
		c-18.94,0-30.84,17.316-49.299,17.316"/>
</g>
<path opacity="0.6" fill="#FFFFFF" d="M58.624,129.851c21.374,0,30.318,51.924,54.577,51.924
	c20.969,0.001,34.137-51.924,54.575-51.924"/>
<path opacity="0.6" fill="#FFFFFF" d="M58.624,129.851c21.374,0,30.318,66.891,54.577,66.891
	c20.969,0.001,34.137-66.891,54.575-66.891"/>
<path opacity="0.6" fill="#FFFFFF" d="M58.625,129.851c21.372,0,30.317,32.66,54.575,32.66c20.97,0,34.138-32.66,54.574-32.66"/>
<path opacity="0.6" fill="#FFFFFF" d="M58.625,129.851c21.372,0,30.315,19.17,54.575,19.17c20.968,0,34.139-19.17,54.575-19.17"/>
<path opacity="0.6" fill="#90C74B" d="M58.625,129.851c21.372,0,30.318,32.66,54.576,32.66c20.969,0,34.14-32.66,54.574-32.66"/>
<path opacity="0.6" fill="#EBCE3A" d="M52.48,131.778c23.777,0,33.73,21.328,60.721,21.328c23.329,0,37.982-21.328,60.719-21.328"/>
<path opacity="0.6" fill="#EBCE3A" d="M58.625,129.851c21.371,0,30.317,19.17,54.575,19.17c20.968,0,34.14-19.17,54.575-19.17"/>
<g>
	<path opacity="0.6" fill="#90C74B" d="M50.322,131.778c23.778,0,33.73,36.338,60.72,36.338c23.329,0,37.983-36.338,60.719-36.338"
		/>
	<path opacity="0.6" fill="#EBCE3A" d="M22.119,131.778c23.778,0,33.731,21.328,60.723,21.328c23.328,0,37.983-21.328,60.719-21.328
		"/>
	<path opacity="0.6" fill="#EBCE3A" d="M82.842,131.778c23.777,0,33.729,21.328,60.719,21.328c23.33,0,37.982-21.328,60.719-21.328"
		/>
</g>
<g>
	<path opacity="0.6" fill="#90C74B" d="M56.684,129.851c21.371,0,30.317,32.66,54.575,32.66c20.968,0,34.138-32.66,54.574-32.66"/>
	<path opacity="0.6" fill="#EBCE3A" d="M31.337,129.851c21.371,0,30.318,19.17,54.576,19.17c20.969,0,34.14-19.17,54.576-19.17"/>
	<path opacity="0.6" fill="#EBCE3A" d="M85.913,129.851c21.371,0,30.318,19.17,54.576,19.17c20.968,0,34.139-19.17,54.574-19.17"/>
</g>
<g>
	<path opacity="0.6" fill="#90C74B" d="M169.717,129.851c-21.372,0-30.317,32.66-54.575,32.66c-20.969,0-34.139-32.66-54.575-32.66"
		/>
	<path opacity="0.6" fill="#EBCE3A" d="M195.063,129.851c-21.371,0-30.317,19.17-54.576,19.17c-20.969,0-34.14-19.17-54.575-19.17"
		/>
	<path opacity="0.6" fill="#EBCE3A" d="M140.487,129.851c-21.371,0-30.318,19.17-54.575,19.17c-20.969,0-34.14-19.17-54.575-19.17"
		/>
</g>
<path opacity="0.8" fill="#CA342D" d="M115.2,225.345c13.385-37.694,105.45-47.822,105.45-112.156
	c0-21.932-15.823-70.188-66.909-70.188c-28.09,0-36.129,18.357-38.732,37.076c-3.28-15.768-18.104-37.062-44.384-37.062
	c-50.884,0-60.875,48.242-60.875,70.174C9.75,177.523,101.82,187.651,115.2,225.345z"/>
<path fill="#FFFFFF" d="M145.971,111.891c0-0.291-0.156-0.562-0.41-0.707l-14.977-8.649c-0.008-0.006-0.016-0.006-0.025-0.01
	l-14.947-8.637c-0.252-0.144-0.564-0.144-0.818,0l-14.977,8.646c-0.007,0.004-0.014,0.01-0.021,0.014l-14.955,8.631
	c-0.254,0.145-0.409,0.416-0.409,0.706l-0.003,17.297c0,0.008,0.003,0.016,0.003,0.021l-0.001,17.267
	c0,0.292,0.156,0.563,0.407,0.708l14.975,8.652c0.006,0.002,0.014,0.005,0.021,0.007l14.956,8.638
	c0.125,0.073,0.268,0.11,0.408,0.11c0.143,0,0.283-0.037,0.408-0.11l14.979-8.643c0.008-0.006,0.012-0.012,0.018-0.017l14.957-8.632
	c0.254-0.146,0.408-0.416,0.408-0.708l0.004-17.291c0-0.009-0.004-0.015-0.004-0.023L145.971,111.891z M116.016,146.001
	l0.002-15.405l13.344,7.71v15.403L116.016,146.001z M114.385,112.362l-0.002,14.099l-0.002,1.309l-13.342-7.708l0.001-15.404
	L114.385,112.362z M129.358,120.067l-9.133,5.271l-4.209,2.431l0.002-15.41l13.344-7.705L129.358,120.067z M100.227,121.48
	l11.516,6.651l1.824,1.055l-10.828,6.248l-2.518,1.451l-13.341-7.702L100.227,121.48z M101.04,138.299l1.986-1.144l11.359-6.555
	l-0.004,15.407l-13.342,7.697L101.04,138.299z M130.175,136.885l-13.34-7.702l4.34-2.508l9.004-5.195l13.342,7.706L130.175,136.885z
	 M144.335,127.769l-13.344-7.708l0.004-15.407l13.342,7.708L144.335,127.769z M115.204,95.538l13.336,7.705l-13.342,7.705
	l-13.342-7.706L115.204,95.538z M99.406,104.658l-0.001,15.409l-13.343,7.702l0.003-15.41L99.406,104.658z M86.066,130.6
	l13.343,7.701l-0.003,15.407l-13.343-7.708L86.066,130.6z M115.198,162.828l-13.342-7.708l13.346-7.7l13.344,7.705L115.198,162.828z
	 M130.993,153.705l0.002-15.406l13.342-7.703l-0.002,15.412L130.993,153.705z"/>
</svg>
